G04 #@! TF.GenerationSoftware,KiCad,Pcbnew,9.0.3-9.0.3-0~ubuntu22.04.1*
G04 #@! TF.CreationDate,2025-07-16T13:00:13+01:00*
G04 #@! TF.ProjectId,dali-pcb,64616c69-2d70-4636-922e-6b696361645f,rev?*
G04 #@! TF.SameCoordinates,Original*
G04 #@! TF.FileFunction,Soldermask,Top*
G04 #@! TF.FilePolarity,Negative*
%FSLAX46Y46*%
G04 Gerber Fmt 4.6, Leading zero omitted, Abs format (unit mm)*
G04 Created by KiCad (PCBNEW 9.0.3-9.0.3-0~ubuntu22.04.1) date 2025-07-16 13:00:13*
%MOMM*%
%LPD*%
G01*
G04 APERTURE LIST*
G04 Aperture macros list*
%AMRoundRect*
0 Rectangle with rounded corners*
0 $1 Rounding radius*
0 $2 $3 $4 $5 $6 $7 $8 $9 X,Y pos of 4 corners*
0 Add a 4 corners polygon primitive as box body*
4,1,4,$2,$3,$4,$5,$6,$7,$8,$9,$2,$3,0*
0 Add four circle primitives for the rounded corners*
1,1,$1+$1,$2,$3*
1,1,$1+$1,$4,$5*
1,1,$1+$1,$6,$7*
1,1,$1+$1,$8,$9*
0 Add four rect primitives between the rounded corners*
20,1,$1+$1,$2,$3,$4,$5,0*
20,1,$1+$1,$4,$5,$6,$7,0*
20,1,$1+$1,$6,$7,$8,$9,0*
20,1,$1+$1,$8,$9,$2,$3,0*%
%AMFreePoly0*
4,1,23,0.500000,-0.750000,0.000000,-0.750000,0.000000,-0.745722,-0.065263,-0.745722,-0.191342,-0.711940,-0.304381,-0.646677,-0.396677,-0.554381,-0.461940,-0.441342,-0.495722,-0.315263,-0.495722,-0.250000,-0.500000,-0.250000,-0.500000,0.250000,-0.495722,0.250000,-0.495722,0.315263,-0.461940,0.441342,-0.396677,0.554381,-0.304381,0.646677,-0.191342,0.711940,-0.065263,0.745722,0.000000,0.745722,
0.000000,0.750000,0.500000,0.750000,0.500000,-0.750000,0.500000,-0.750000,$1*%
%AMFreePoly1*
4,1,23,0.000000,0.745722,0.065263,0.745722,0.191342,0.711940,0.304381,0.646677,0.396677,0.554381,0.461940,0.441342,0.495722,0.315263,0.495722,0.250000,0.500000,0.250000,0.500000,-0.250000,0.495722,-0.250000,0.495722,-0.315263,0.461940,-0.441342,0.396677,-0.554381,0.304381,-0.646677,0.191342,-0.711940,0.065263,-0.745722,0.000000,-0.745722,0.000000,-0.750000,-0.500000,-0.750000,
-0.500000,0.750000,0.000000,0.750000,0.000000,0.745722,0.000000,0.745722,$1*%
G04 Aperture macros list end*
%ADD10C,3.200000*%
%ADD11R,1.955800X0.939800*%
%ADD12RoundRect,0.200000X0.200000X-0.750000X0.200000X0.750000X-0.200000X0.750000X-0.200000X-0.750000X0*%
%ADD13R,1.700000X1.700000*%
%ADD14C,1.700000*%
%ADD15RoundRect,0.249999X1.425001X-0.450001X1.425001X0.450001X-1.425001X0.450001X-1.425001X-0.450001X0*%
%ADD16RoundRect,0.200000X0.750000X0.200000X-0.750000X0.200000X-0.750000X-0.200000X0.750000X-0.200000X0*%
%ADD17FreePoly0,180.000000*%
%ADD18FreePoly1,180.000000*%
%ADD19RoundRect,0.250000X-0.250000X-0.250000X0.250000X-0.250000X0.250000X0.250000X-0.250000X0.250000X0*%
%ADD20R,3.000000X3.000000*%
%ADD21C,3.000000*%
%ADD22RoundRect,0.250000X-0.400000X-0.625000X0.400000X-0.625000X0.400000X0.625000X-0.400000X0.625000X0*%
%ADD23RoundRect,0.250000X-0.450000X0.350000X-0.450000X-0.350000X0.450000X-0.350000X0.450000X0.350000X0*%
%ADD24C,6.400000*%
%ADD25R,1.168400X0.889000*%
%ADD26R,1.168400X0.508000*%
%ADD27FreePoly0,0.000000*%
%ADD28FreePoly1,0.000000*%
%ADD29RoundRect,0.250000X-0.350000X-0.450000X0.350000X-0.450000X0.350000X0.450000X-0.350000X0.450000X0*%
%ADD30RoundRect,0.375000X-0.625000X-0.375000X0.625000X-0.375000X0.625000X0.375000X-0.625000X0.375000X0*%
%ADD31RoundRect,0.500000X-0.500000X-1.400000X0.500000X-1.400000X0.500000X1.400000X-0.500000X1.400000X0*%
G04 APERTURE END LIST*
G36*
X42060000Y-40120000D02*
G01*
X41760000Y-40120000D01*
X41760000Y-38620000D01*
X42060000Y-38620000D01*
X42060000Y-40120000D01*
G37*
G36*
X41760000Y-31635000D02*
G01*
X42060000Y-31635000D01*
X42060000Y-33135000D01*
X41760000Y-33135000D01*
X41760000Y-31635000D01*
G37*
G36*
X54305000Y-34405000D02*
G01*
X54005000Y-34405000D01*
X54005000Y-32905000D01*
X54305000Y-32905000D01*
X54305000Y-34405000D01*
G37*
G36*
X54305000Y-45835000D02*
G01*
X54005000Y-45835000D01*
X54005000Y-44335000D01*
X54305000Y-44335000D01*
X54305000Y-45835000D01*
G37*
D10*
X20490000Y-20490000D03*
D11*
X94939414Y-43180000D03*
X94939414Y-40640000D03*
X85287414Y-40640000D03*
X85287414Y-43180000D03*
X85287414Y-31750000D03*
X85287414Y-34290000D03*
X94939414Y-34290000D03*
X94939414Y-31750000D03*
D12*
X28895000Y-32990000D03*
X30795000Y-32990000D03*
X29845000Y-29990000D03*
D13*
X87630000Y-54610000D03*
D14*
X90170000Y-54610000D03*
X87630000Y-57150000D03*
X90170000Y-57150000D03*
X87630000Y-59690000D03*
X90170000Y-59690000D03*
X87630000Y-62230000D03*
X90170000Y-62230000D03*
X87630000Y-64770000D03*
X90170000Y-64770000D03*
X87630000Y-67310000D03*
X90170000Y-67310000D03*
X87630000Y-69850000D03*
X90170000Y-69850000D03*
X87630000Y-72390000D03*
X90170000Y-72390000D03*
X87630000Y-74930000D03*
X90170000Y-74930000D03*
X87630000Y-77470000D03*
X90170000Y-77470000D03*
X87630000Y-80010000D03*
X90170000Y-80010000D03*
X87630000Y-82550000D03*
X90170000Y-82550000D03*
X87630000Y-85090000D03*
X90170000Y-85090000D03*
D15*
X22225000Y-35435000D03*
X22225000Y-29335000D03*
D16*
X68477500Y-40000000D03*
X68477500Y-38100000D03*
X65477500Y-39050000D03*
D17*
X42560000Y-39370000D03*
D18*
X41260000Y-39370000D03*
D19*
X66060000Y-31750000D03*
X68560000Y-31750000D03*
D20*
X40640000Y-21590000D03*
D21*
X35560000Y-21590000D03*
D22*
X75000881Y-30313437D03*
X78100881Y-30313437D03*
D13*
X73660000Y-57150000D03*
D14*
X71120000Y-57150000D03*
X68580000Y-57150000D03*
X66040000Y-57150000D03*
X63500000Y-57150000D03*
X60960000Y-57150000D03*
X58420000Y-57150000D03*
X55880000Y-57150000D03*
X53340000Y-57150000D03*
X50800000Y-57150000D03*
X48260000Y-57150000D03*
X45720000Y-57150000D03*
X43180000Y-57150000D03*
X40640000Y-57150000D03*
X38100000Y-57150000D03*
X35560000Y-57150000D03*
X33020000Y-57150000D03*
X30480000Y-57150000D03*
X27940000Y-57150000D03*
X25400000Y-57150000D03*
D23*
X100076000Y-40999107D03*
X100076000Y-42999107D03*
D15*
X76550881Y-40094437D03*
X76550881Y-33994437D03*
D24*
X109990000Y-20490000D03*
D25*
X57305906Y-40109099D03*
D26*
X57305906Y-38399599D03*
X54806707Y-38399598D03*
X54806707Y-40299600D03*
D27*
X41260000Y-32385000D03*
D28*
X42560000Y-32385000D03*
D29*
X75550881Y-43648437D03*
X77550881Y-43648437D03*
D23*
X100076000Y-32020000D03*
X100076000Y-34020000D03*
D20*
X96520000Y-21590000D03*
D21*
X91440000Y-21590000D03*
D17*
X54805000Y-33655000D03*
D18*
X53505000Y-33655000D03*
D17*
X54805000Y-45085000D03*
D18*
X53505000Y-45085000D03*
D13*
X109982000Y-34290000D03*
D14*
X109982000Y-36830000D03*
X109982000Y-39370000D03*
X109982000Y-41910000D03*
D24*
X109990000Y-84990000D03*
D30*
X21615000Y-40880000D03*
X21615000Y-43180000D03*
D31*
X27915000Y-43180000D03*
D30*
X21615000Y-45480000D03*
D13*
X73660000Y-80010000D03*
D14*
X71120000Y-80010000D03*
X68580000Y-80010000D03*
X66040000Y-80010000D03*
X63500000Y-80010000D03*
X60960000Y-80010000D03*
X58420000Y-80010000D03*
X55880000Y-80010000D03*
X53340000Y-80010000D03*
X50800000Y-80010000D03*
X48260000Y-80010000D03*
X45720000Y-80010000D03*
X43180000Y-80010000D03*
X40640000Y-80010000D03*
X38100000Y-80010000D03*
X35560000Y-80010000D03*
X33020000Y-80010000D03*
X30480000Y-80010000D03*
X27940000Y-80010000D03*
X25400000Y-80010000D03*
D20*
X77462789Y-21590000D03*
D21*
X72382789Y-21590000D03*
D24*
X20490000Y-84990000D03*
D13*
X99060000Y-54610000D03*
D14*
X101600000Y-54610000D03*
X99060000Y-57150000D03*
X101600000Y-57150000D03*
X99060000Y-59690000D03*
X101600000Y-59690000D03*
X99060000Y-62230000D03*
X101600000Y-62230000D03*
X99060000Y-64770000D03*
X101600000Y-64770000D03*
X99060000Y-67310000D03*
X101600000Y-67310000D03*
X99060000Y-69850000D03*
X101600000Y-69850000D03*
X99060000Y-72390000D03*
X101600000Y-72390000D03*
X99060000Y-74930000D03*
X101600000Y-74930000D03*
X99060000Y-77470000D03*
X101600000Y-77470000D03*
X99060000Y-80010000D03*
X101600000Y-80010000D03*
X99060000Y-82550000D03*
X101600000Y-82550000D03*
X99060000Y-85090000D03*
X101600000Y-85090000D03*
D20*
X59682789Y-21590000D03*
D21*
X54602789Y-21590000D03*
D15*
X33020000Y-45470000D03*
X33020000Y-39370000D03*
M02*
