G04 #@! TF.GenerationSoftware,KiCad,Pcbnew,9.0.3-9.0.3-0~ubuntu22.04.1*
G04 #@! TF.CreationDate,2025-07-12T08:51:17+01:00*
G04 #@! TF.ProjectId,dali-pcb,64616c69-2d70-4636-922e-6b696361645f,rev?*
G04 #@! TF.SameCoordinates,Original*
G04 #@! TF.FileFunction,Copper,L2,Bot*
G04 #@! TF.FilePolarity,Positive*
%FSLAX46Y46*%
G04 Gerber Fmt 4.6, Leading zero omitted, Abs format (unit mm)*
G04 Created by KiCad (PCBNEW 9.0.3-9.0.3-0~ubuntu22.04.1) date 2025-07-12 08:51:17*
%MOMM*%
%LPD*%
G01*
G04 APERTURE LIST*
G04 #@! TA.AperFunction,ComponentPad*
%ADD10R,1.700000X1.700000*%
G04 #@! TD*
G04 #@! TA.AperFunction,ComponentPad*
%ADD11C,1.700000*%
G04 #@! TD*
G04 #@! TA.AperFunction,ComponentPad*
%ADD12R,3.000000X3.000000*%
G04 #@! TD*
G04 #@! TA.AperFunction,ComponentPad*
%ADD13C,3.000000*%
G04 #@! TD*
G04 #@! TA.AperFunction,ComponentPad*
%ADD14C,6.400000*%
G04 #@! TD*
G04 #@! TA.AperFunction,ViaPad*
%ADD15C,0.600000*%
G04 #@! TD*
G04 #@! TA.AperFunction,Conductor*
%ADD16C,0.200000*%
G04 #@! TD*
G04 APERTURE END LIST*
D10*
X87630000Y-54610000D03*
D11*
X90170000Y-54610000D03*
X87630000Y-57150000D03*
X90170000Y-57150000D03*
X87630000Y-59690000D03*
X90170000Y-59690000D03*
X87630000Y-62230000D03*
X90170000Y-62230000D03*
X87630000Y-64770000D03*
X90170000Y-64770000D03*
X87630000Y-67310000D03*
X90170000Y-67310000D03*
X87630000Y-69850000D03*
X90170000Y-69850000D03*
X87630000Y-72390000D03*
X90170000Y-72390000D03*
X87630000Y-74930000D03*
X90170000Y-74930000D03*
X87630000Y-77470000D03*
X90170000Y-77470000D03*
X87630000Y-80010000D03*
X90170000Y-80010000D03*
X87630000Y-82550000D03*
X90170000Y-82550000D03*
X87630000Y-85090000D03*
X90170000Y-85090000D03*
D12*
X40640000Y-21590000D03*
D13*
X35560000Y-21590000D03*
D10*
X73660000Y-57150000D03*
D11*
X71120000Y-57150000D03*
X68580000Y-57150000D03*
X66040000Y-57150000D03*
X63500000Y-57150000D03*
X60960000Y-57150000D03*
X58420000Y-57150000D03*
X55880000Y-57150000D03*
X53340000Y-57150000D03*
X50800000Y-57150000D03*
X48260000Y-57150000D03*
X45720000Y-57150000D03*
X43180000Y-57150000D03*
X40640000Y-57150000D03*
X38100000Y-57150000D03*
X35560000Y-57150000D03*
X33020000Y-57150000D03*
X30480000Y-57150000D03*
X27940000Y-57150000D03*
X25400000Y-57150000D03*
D14*
X109990000Y-20490000D03*
D12*
X96520000Y-21590000D03*
D13*
X91440000Y-21590000D03*
D10*
X109982000Y-34290000D03*
D11*
X109982000Y-36830000D03*
X109982000Y-39370000D03*
X109982000Y-41910000D03*
D14*
X20490000Y-20490000D03*
X109990000Y-84990000D03*
D10*
X73660000Y-80010000D03*
D11*
X71120000Y-80010000D03*
X68580000Y-80010000D03*
X66040000Y-80010000D03*
X63500000Y-80010000D03*
X60960000Y-80010000D03*
X58420000Y-80010000D03*
X55880000Y-80010000D03*
X53340000Y-80010000D03*
X50800000Y-80010000D03*
X48260000Y-80010000D03*
X45720000Y-80010000D03*
X43180000Y-80010000D03*
X40640000Y-80010000D03*
X38100000Y-80010000D03*
X35560000Y-80010000D03*
X33020000Y-80010000D03*
X30480000Y-80010000D03*
X27940000Y-80010000D03*
X25400000Y-80010000D03*
D12*
X77462789Y-21590000D03*
D13*
X72382789Y-21590000D03*
D14*
X20490000Y-84990000D03*
D10*
X99060000Y-54610000D03*
D11*
X101600000Y-54610000D03*
X99060000Y-57150000D03*
X101600000Y-57150000D03*
X99060000Y-59690000D03*
X101600000Y-59690000D03*
X99060000Y-62230000D03*
X101600000Y-62230000D03*
X99060000Y-64770000D03*
X101600000Y-64770000D03*
X99060000Y-67310000D03*
X101600000Y-67310000D03*
X99060000Y-69850000D03*
X101600000Y-69850000D03*
X99060000Y-72390000D03*
X101600000Y-72390000D03*
X99060000Y-74930000D03*
X101600000Y-74930000D03*
X99060000Y-77470000D03*
X101600000Y-77470000D03*
X99060000Y-80010000D03*
X101600000Y-80010000D03*
X99060000Y-82550000D03*
X101600000Y-82550000D03*
X99060000Y-85090000D03*
X101600000Y-85090000D03*
D12*
X59682789Y-21590000D03*
D13*
X54602789Y-21590000D03*
D15*
X104775000Y-33020000D03*
X26035000Y-36830000D03*
X52324000Y-35560000D03*
X31115000Y-36830000D03*
X82550000Y-32385000D03*
X48260000Y-36449000D03*
X62230000Y-38100000D03*
X43688000Y-29464000D03*
X59690000Y-66040000D03*
X41656000Y-29464000D03*
X70485000Y-32385000D03*
X72390000Y-40005000D03*
X31750000Y-24130000D03*
X77470000Y-62865000D03*
X80010000Y-55880000D03*
X50800000Y-66040000D03*
X81280000Y-39497000D03*
X40640000Y-83820000D03*
X48260000Y-34163000D03*
X48260000Y-83820000D03*
X62230000Y-34290000D03*
X45720000Y-29464000D03*
X37592000Y-29464000D03*
X26670000Y-29718000D03*
X81280000Y-42545000D03*
X48260000Y-38735000D03*
X66040000Y-21590000D03*
X55372000Y-42418000D03*
X39624000Y-29464000D03*
X80645000Y-58420000D03*
D16*
X58420000Y-88265000D02*
X103505000Y-88265000D01*
X55880000Y-85725000D02*
X58420000Y-88265000D01*
X58420000Y-85725000D02*
X60325000Y-87630000D01*
X62230000Y-86995000D02*
X100965000Y-86995000D01*
X60960000Y-85725000D02*
X62230000Y-86995000D01*
X58420000Y-80010000D02*
X58420000Y-85725000D01*
X101600000Y-85090000D02*
X101600000Y-86360000D01*
X101600000Y-86360000D02*
X100965000Y-86995000D01*
X60960000Y-85725000D02*
X60960000Y-80010000D01*
X60325000Y-87630000D02*
X102870000Y-87630000D01*
X102870000Y-87630000D02*
X104140000Y-86360000D01*
X104140000Y-86360000D02*
X104140000Y-83820000D01*
X104140000Y-83820000D02*
X102870000Y-82550000D01*
X102870000Y-82550000D02*
X101600000Y-82550000D01*
X109982000Y-36830000D02*
X107950000Y-36830000D01*
X107950000Y-36830000D02*
X105410000Y-39370000D01*
X105410000Y-39370000D02*
X105410000Y-86360000D01*
X105410000Y-86360000D02*
X103505000Y-88265000D01*
X55880000Y-85725000D02*
X55880000Y-80010000D01*
X27940000Y-55245000D02*
X33655000Y-49530000D01*
X91440000Y-48260000D02*
X91440000Y-21590000D01*
X90170000Y-49530000D02*
X91440000Y-48260000D01*
X27940000Y-57150000D02*
X27940000Y-55245000D01*
X33655000Y-49530000D02*
X90170000Y-49530000D01*
X92456000Y-55880000D02*
X85090000Y-55880000D01*
X53340000Y-55880000D02*
X53340000Y-57150000D01*
X83820000Y-54610000D02*
X54610000Y-54610000D01*
X85090000Y-55880000D02*
X83820000Y-54610000D01*
X97611120Y-71120000D02*
X96520000Y-70028880D01*
X96520000Y-59944000D02*
X92456000Y-55880000D01*
X101600000Y-72390000D02*
X100330000Y-71120000D01*
X96520000Y-70028880D02*
X96520000Y-59944000D01*
X100330000Y-71120000D02*
X97611120Y-71120000D01*
X54610000Y-54610000D02*
X53340000Y-55880000D01*
X100330000Y-73660000D02*
X96520000Y-73660000D01*
X51435000Y-59690000D02*
X50800000Y-59055000D01*
X101600000Y-74930000D02*
X100330000Y-73660000D01*
X85090000Y-58420000D02*
X83820000Y-59690000D01*
X95250000Y-61214000D02*
X92456000Y-58420000D01*
X83820000Y-59690000D02*
X51435000Y-59690000D01*
X95250000Y-72390000D02*
X95250000Y-61214000D01*
X96520000Y-73660000D02*
X95250000Y-72390000D01*
X92456000Y-58420000D02*
X85090000Y-58420000D01*
X50800000Y-59055000D02*
X50800000Y-57150000D01*
X100330000Y-76200000D02*
X95885000Y-76200000D01*
X95885000Y-76200000D02*
X93980000Y-74295000D01*
X92456000Y-60960000D02*
X50165000Y-60960000D01*
X93980000Y-74295000D02*
X93980000Y-62484000D01*
X48260000Y-59055000D02*
X48260000Y-57150000D01*
X101600000Y-77470000D02*
X100330000Y-76200000D01*
X93980000Y-62484000D02*
X92456000Y-60960000D01*
X50165000Y-60960000D02*
X48260000Y-59055000D01*
X87630000Y-57150000D02*
X73660000Y-57150000D01*
X36195000Y-52070000D02*
X33020000Y-55245000D01*
X33020000Y-55245000D02*
X33020000Y-57150000D01*
X104140000Y-52705000D02*
X103505000Y-52070000D01*
X101600000Y-62230000D02*
X103505000Y-62230000D01*
X104140000Y-61595000D02*
X104140000Y-52705000D01*
X103505000Y-52070000D02*
X36195000Y-52070000D01*
X103505000Y-62230000D02*
X104140000Y-61595000D01*
X103505000Y-64770000D02*
X104775000Y-63500000D01*
X34925000Y-50800000D02*
X30480000Y-55245000D01*
X104775000Y-52070000D02*
X103505000Y-50800000D01*
X103505000Y-50800000D02*
X34925000Y-50800000D01*
X101600000Y-64770000D02*
X103505000Y-64770000D01*
X104775000Y-63500000D02*
X104775000Y-52070000D01*
X30480000Y-55245000D02*
X30480000Y-57150000D01*
X85725000Y-62230000D02*
X71120000Y-76835000D01*
X71120000Y-76835000D02*
X71120000Y-80010000D01*
X87630000Y-62230000D02*
X85725000Y-62230000D01*
X69342000Y-81534000D02*
X68580000Y-80772000D01*
X85090000Y-64770000D02*
X72390000Y-77470000D01*
X72390000Y-77470000D02*
X72390000Y-80772000D01*
X68580000Y-80772000D02*
X68580000Y-80010000D01*
X72390000Y-80772000D02*
X71628000Y-81534000D01*
X87630000Y-64770000D02*
X85090000Y-64770000D01*
X71628000Y-81534000D02*
X69342000Y-81534000D01*
G04 #@! TA.AperFunction,Conductor*
G36*
X86411320Y-65390185D02*
G01*
X86454765Y-65438205D01*
X86474947Y-65477814D01*
X86474948Y-65477815D01*
X86599890Y-65649786D01*
X86750213Y-65800109D01*
X86922182Y-65925050D01*
X86930946Y-65929516D01*
X86981742Y-65977491D01*
X86998536Y-66045312D01*
X86975998Y-66111447D01*
X86930946Y-66150484D01*
X86922182Y-66154949D01*
X86750213Y-66279890D01*
X86599890Y-66430213D01*
X86474951Y-66602179D01*
X86378444Y-66791585D01*
X86312753Y-66993760D01*
X86279500Y-67203713D01*
X86279500Y-67416286D01*
X86312753Y-67626239D01*
X86378444Y-67828414D01*
X86474951Y-68017820D01*
X86599890Y-68189786D01*
X86750213Y-68340109D01*
X86922182Y-68465050D01*
X86930946Y-68469516D01*
X86981742Y-68517491D01*
X86998536Y-68585312D01*
X86975998Y-68651447D01*
X86930946Y-68690484D01*
X86922182Y-68694949D01*
X86750213Y-68819890D01*
X86599890Y-68970213D01*
X86474951Y-69142179D01*
X86378444Y-69331585D01*
X86312753Y-69533760D01*
X86279500Y-69743713D01*
X86279500Y-69956286D01*
X86312735Y-70166127D01*
X86312754Y-70166243D01*
X86359718Y-70310784D01*
X86378444Y-70368414D01*
X86474951Y-70557820D01*
X86599890Y-70729786D01*
X86750213Y-70880109D01*
X86922182Y-71005050D01*
X86930946Y-71009516D01*
X86981742Y-71057491D01*
X86998536Y-71125312D01*
X86975998Y-71191447D01*
X86930946Y-71230484D01*
X86922182Y-71234949D01*
X86750213Y-71359890D01*
X86599890Y-71510213D01*
X86474951Y-71682179D01*
X86378444Y-71871585D01*
X86312753Y-72073760D01*
X86279500Y-72283713D01*
X86279500Y-72496286D01*
X86312735Y-72706127D01*
X86312754Y-72706243D01*
X86368428Y-72877590D01*
X86378444Y-72908414D01*
X86474951Y-73097820D01*
X86599890Y-73269786D01*
X86750213Y-73420109D01*
X86922182Y-73545050D01*
X86930946Y-73549516D01*
X86981742Y-73597491D01*
X86998536Y-73665312D01*
X86975998Y-73731447D01*
X86930946Y-73770484D01*
X86922182Y-73774949D01*
X86750213Y-73899890D01*
X86599890Y-74050213D01*
X86474951Y-74222179D01*
X86378444Y-74411585D01*
X86312753Y-74613760D01*
X86279500Y-74823713D01*
X86279500Y-75036286D01*
X86312753Y-75246239D01*
X86378444Y-75448414D01*
X86474951Y-75637820D01*
X86599890Y-75809786D01*
X86750213Y-75960109D01*
X86922182Y-76085050D01*
X86930946Y-76089516D01*
X86981742Y-76137491D01*
X86998536Y-76205312D01*
X86975998Y-76271447D01*
X86930946Y-76310484D01*
X86922182Y-76314949D01*
X86750213Y-76439890D01*
X86599890Y-76590213D01*
X86474951Y-76762179D01*
X86378444Y-76951585D01*
X86312753Y-77153760D01*
X86279500Y-77363713D01*
X86279500Y-77576286D01*
X86312753Y-77786239D01*
X86378444Y-77988414D01*
X86474951Y-78177820D01*
X86599890Y-78349786D01*
X86750213Y-78500109D01*
X86922182Y-78625050D01*
X86930946Y-78629516D01*
X86981742Y-78677491D01*
X86998536Y-78745312D01*
X86975998Y-78811447D01*
X86930946Y-78850484D01*
X86922182Y-78854949D01*
X86750213Y-78979890D01*
X86599890Y-79130213D01*
X86474951Y-79302179D01*
X86378444Y-79491585D01*
X86312753Y-79693760D01*
X86279500Y-79903713D01*
X86279500Y-80116286D01*
X86312753Y-80326239D01*
X86378444Y-80528414D01*
X86474951Y-80717820D01*
X86599890Y-80889786D01*
X86750213Y-81040109D01*
X86922182Y-81165050D01*
X86930946Y-81169516D01*
X86981742Y-81217491D01*
X86998536Y-81285312D01*
X86975998Y-81351447D01*
X86930946Y-81390484D01*
X86922182Y-81394949D01*
X86750213Y-81519890D01*
X86599890Y-81670213D01*
X86474951Y-81842179D01*
X86378444Y-82031585D01*
X86312753Y-82233760D01*
X86279500Y-82443713D01*
X86279500Y-82656286D01*
X86312753Y-82866239D01*
X86378444Y-83068414D01*
X86474951Y-83257820D01*
X86599890Y-83429786D01*
X86750213Y-83580109D01*
X86922182Y-83705050D01*
X86930946Y-83709516D01*
X86981742Y-83757491D01*
X86998536Y-83825312D01*
X86975998Y-83891447D01*
X86930946Y-83930484D01*
X86922182Y-83934949D01*
X86750213Y-84059890D01*
X86599890Y-84210213D01*
X86474951Y-84382179D01*
X86378444Y-84571585D01*
X86312753Y-84773760D01*
X86279500Y-84983713D01*
X86279500Y-85196286D01*
X86312735Y-85406127D01*
X86312754Y-85406243D01*
X86347306Y-85512584D01*
X86378444Y-85608414D01*
X86474951Y-85797820D01*
X86599890Y-85969786D01*
X86599896Y-85969792D01*
X86750208Y-86120104D01*
X86809764Y-86163374D01*
X86819134Y-86170181D01*
X86861800Y-86225511D01*
X86867779Y-86295124D01*
X86835174Y-86356920D01*
X86774335Y-86391277D01*
X86746249Y-86394500D01*
X62530097Y-86394500D01*
X62463058Y-86374815D01*
X62442416Y-86358181D01*
X61596819Y-85512584D01*
X61563334Y-85451261D01*
X61560500Y-85424903D01*
X61560500Y-81295718D01*
X61580185Y-81228679D01*
X61628207Y-81185233D01*
X61667815Y-81165052D01*
X61667815Y-81165051D01*
X61667816Y-81165051D01*
X61766187Y-81093581D01*
X61839786Y-81040109D01*
X61839788Y-81040106D01*
X61839792Y-81040104D01*
X61990104Y-80889792D01*
X61990106Y-80889788D01*
X61990109Y-80889786D01*
X62115048Y-80717820D01*
X62115047Y-80717820D01*
X62115051Y-80717816D01*
X62119514Y-80709054D01*
X62167488Y-80658259D01*
X62235308Y-80641463D01*
X62301444Y-80663999D01*
X62340486Y-80709056D01*
X62344951Y-80717820D01*
X62469890Y-80889786D01*
X62620213Y-81040109D01*
X62792179Y-81165048D01*
X62792181Y-81165049D01*
X62792184Y-81165051D01*
X62981588Y-81261557D01*
X63183757Y-81327246D01*
X63393713Y-81360500D01*
X63393714Y-81360500D01*
X63606286Y-81360500D01*
X63606287Y-81360500D01*
X63816243Y-81327246D01*
X64018412Y-81261557D01*
X64207816Y-81165051D01*
X64229789Y-81149086D01*
X64379786Y-81040109D01*
X64379788Y-81040106D01*
X64379792Y-81040104D01*
X64530104Y-80889792D01*
X64530106Y-80889788D01*
X64530109Y-80889786D01*
X64655048Y-80717820D01*
X64655047Y-80717820D01*
X64655051Y-80717816D01*
X64659514Y-80709054D01*
X64707488Y-80658259D01*
X64775308Y-80641463D01*
X64841444Y-80663999D01*
X64880486Y-80709056D01*
X64884951Y-80717820D01*
X65009890Y-80889786D01*
X65160213Y-81040109D01*
X65332179Y-81165048D01*
X65332181Y-81165049D01*
X65332184Y-81165051D01*
X65521588Y-81261557D01*
X65723757Y-81327246D01*
X65933713Y-81360500D01*
X65933714Y-81360500D01*
X66146286Y-81360500D01*
X66146287Y-81360500D01*
X66356243Y-81327246D01*
X66558412Y-81261557D01*
X66747816Y-81165051D01*
X66769789Y-81149086D01*
X66919786Y-81040109D01*
X66919788Y-81040106D01*
X66919792Y-81040104D01*
X67070104Y-80889792D01*
X67070106Y-80889788D01*
X67070109Y-80889786D01*
X67195048Y-80717820D01*
X67195047Y-80717820D01*
X67195051Y-80717816D01*
X67199514Y-80709054D01*
X67247488Y-80658259D01*
X67315308Y-80641463D01*
X67381444Y-80663999D01*
X67420486Y-80709056D01*
X67424951Y-80717820D01*
X67549890Y-80889786D01*
X67700213Y-81040109D01*
X67872179Y-81165048D01*
X67872181Y-81165049D01*
X67872184Y-81165051D01*
X67957568Y-81208556D01*
X68061583Y-81261555D01*
X68061585Y-81261555D01*
X68061588Y-81261557D01*
X68225588Y-81314844D01*
X68268392Y-81328752D01*
X68267636Y-81331077D01*
X68317770Y-81359005D01*
X68973284Y-82014520D01*
X68973286Y-82014521D01*
X68973290Y-82014524D01*
X69068478Y-82069480D01*
X69110216Y-82093577D01*
X69262943Y-82134501D01*
X69262945Y-82134501D01*
X69428654Y-82134501D01*
X69428670Y-82134500D01*
X71541331Y-82134500D01*
X71541347Y-82134501D01*
X71548943Y-82134501D01*
X71707054Y-82134501D01*
X71707057Y-82134501D01*
X71859785Y-82093577D01*
X71909904Y-82064639D01*
X71996716Y-82014520D01*
X72108520Y-81902716D01*
X72108520Y-81902714D01*
X72118728Y-81892507D01*
X72118729Y-81892504D01*
X72620058Y-81391177D01*
X72681376Y-81357695D01*
X72720993Y-81355572D01*
X72762163Y-81359999D01*
X72762172Y-81360000D01*
X73410000Y-81360000D01*
X73410000Y-80443012D01*
X73467007Y-80475925D01*
X73594174Y-80510000D01*
X73725826Y-80510000D01*
X73852993Y-80475925D01*
X73910000Y-80443012D01*
X73910000Y-81360000D01*
X74557828Y-81360000D01*
X74557844Y-81359999D01*
X74617372Y-81353598D01*
X74617379Y-81353596D01*
X74752086Y-81303354D01*
X74752093Y-81303350D01*
X74867187Y-81217190D01*
X74867190Y-81217187D01*
X74953350Y-81102093D01*
X74953354Y-81102086D01*
X75003596Y-80967379D01*
X75003598Y-80967372D01*
X75009999Y-80907844D01*
X75010000Y-80907827D01*
X75010000Y-80260000D01*
X74093012Y-80260000D01*
X74125925Y-80202993D01*
X74160000Y-80075826D01*
X74160000Y-79944174D01*
X74125925Y-79817007D01*
X74093012Y-79760000D01*
X75010000Y-79760000D01*
X75010000Y-79112172D01*
X75009999Y-79112155D01*
X75003598Y-79052627D01*
X75003596Y-79052620D01*
X74953354Y-78917913D01*
X74953350Y-78917906D01*
X74867190Y-78802812D01*
X74867187Y-78802809D01*
X74752093Y-78716649D01*
X74752086Y-78716645D01*
X74617379Y-78666403D01*
X74617372Y-78666401D01*
X74557844Y-78660000D01*
X73910000Y-78660000D01*
X73910000Y-79576988D01*
X73852993Y-79544075D01*
X73725826Y-79510000D01*
X73594174Y-79510000D01*
X73467007Y-79544075D01*
X73410000Y-79576988D01*
X73410000Y-78660000D01*
X73114500Y-78660000D01*
X73047461Y-78640315D01*
X73001706Y-78587511D01*
X72990500Y-78536000D01*
X72990500Y-77770097D01*
X73010185Y-77703058D01*
X73026819Y-77682416D01*
X85302416Y-65406819D01*
X85363739Y-65373334D01*
X85390097Y-65370500D01*
X86344281Y-65370500D01*
X86411320Y-65390185D01*
G37*
G04 #@! TD.AperFunction*
G04 #@! TA.AperFunction,Conductor*
G36*
X89704075Y-85282993D02*
G01*
X89769901Y-85397007D01*
X89862993Y-85490099D01*
X89977007Y-85555925D01*
X90040590Y-85572962D01*
X89408282Y-86205269D01*
X89412651Y-86260770D01*
X89398287Y-86329147D01*
X89349236Y-86378905D01*
X89289033Y-86394500D01*
X88513751Y-86394500D01*
X88446712Y-86374815D01*
X88400957Y-86322011D01*
X88391013Y-86252853D01*
X88420038Y-86189297D01*
X88440866Y-86170181D01*
X88509792Y-86120104D01*
X88660104Y-85969792D01*
X88660106Y-85969788D01*
X88660109Y-85969786D01*
X88745890Y-85851717D01*
X88785051Y-85797816D01*
X88789793Y-85788508D01*
X88837763Y-85737711D01*
X88905583Y-85720911D01*
X88971719Y-85743445D01*
X89010763Y-85788500D01*
X89015373Y-85797547D01*
X89054728Y-85851716D01*
X89687037Y-85219408D01*
X89704075Y-85282993D01*
G37*
G04 #@! TD.AperFunction*
G04 #@! TA.AperFunction,Conductor*
G36*
X92222942Y-61580185D02*
G01*
X92243584Y-61596819D01*
X93343181Y-62696416D01*
X93376666Y-62757739D01*
X93379500Y-62784097D01*
X93379500Y-74208330D01*
X93379499Y-74208348D01*
X93379499Y-74374054D01*
X93379498Y-74374054D01*
X93420424Y-74526789D01*
X93420425Y-74526790D01*
X93440340Y-74561283D01*
X93440341Y-74561284D01*
X93499477Y-74663712D01*
X93499481Y-74663717D01*
X93618349Y-74782585D01*
X93618355Y-74782590D01*
X95400139Y-76564374D01*
X95400149Y-76564385D01*
X95404479Y-76568715D01*
X95404480Y-76568716D01*
X95516284Y-76680520D01*
X95603095Y-76730639D01*
X95603097Y-76730641D01*
X95641151Y-76752611D01*
X95653215Y-76759577D01*
X95805943Y-76800501D01*
X95805946Y-76800501D01*
X95971653Y-76800501D01*
X95971669Y-76800500D01*
X97687388Y-76800500D01*
X97754427Y-76820185D01*
X97800182Y-76872989D01*
X97810126Y-76942147D01*
X97805319Y-76962818D01*
X97743242Y-77153869D01*
X97743242Y-77153872D01*
X97710000Y-77363753D01*
X97710000Y-77576246D01*
X97743242Y-77786127D01*
X97743242Y-77786130D01*
X97808904Y-77988217D01*
X97905375Y-78177550D01*
X97944728Y-78231716D01*
X98577036Y-77599407D01*
X98594075Y-77662993D01*
X98659901Y-77777007D01*
X98752993Y-77870099D01*
X98867007Y-77935925D01*
X98930590Y-77952962D01*
X98298282Y-78585269D01*
X98298282Y-78585270D01*
X98352452Y-78624626D01*
X98362048Y-78629516D01*
X98412844Y-78677491D01*
X98429638Y-78745312D01*
X98407100Y-78811447D01*
X98362051Y-78850483D01*
X98352440Y-78855380D01*
X98298282Y-78894727D01*
X98298282Y-78894728D01*
X98930591Y-79527037D01*
X98867007Y-79544075D01*
X98752993Y-79609901D01*
X98659901Y-79702993D01*
X98594075Y-79817007D01*
X98577037Y-79880591D01*
X97944728Y-79248282D01*
X97944727Y-79248282D01*
X97905380Y-79302439D01*
X97808904Y-79491782D01*
X97743242Y-79693869D01*
X97743242Y-79693872D01*
X97710000Y-79903753D01*
X97710000Y-80116246D01*
X97743242Y-80326127D01*
X97743242Y-80326130D01*
X97808904Y-80528217D01*
X97905375Y-80717550D01*
X97944728Y-80771716D01*
X98577037Y-80139408D01*
X98594075Y-80202993D01*
X98659901Y-80317007D01*
X98752993Y-80410099D01*
X98867007Y-80475925D01*
X98930590Y-80492962D01*
X98298282Y-81125269D01*
X98298282Y-81125270D01*
X98352452Y-81164626D01*
X98362048Y-81169516D01*
X98412844Y-81217491D01*
X98429638Y-81285312D01*
X98407100Y-81351447D01*
X98362051Y-81390483D01*
X98352440Y-81395380D01*
X98298282Y-81434727D01*
X98298282Y-81434728D01*
X98930591Y-82067037D01*
X98867007Y-82084075D01*
X98752993Y-82149901D01*
X98659901Y-82242993D01*
X98594075Y-82357007D01*
X98577037Y-82420591D01*
X97944728Y-81788282D01*
X97944727Y-81788282D01*
X97905380Y-81842439D01*
X97808904Y-82031782D01*
X97743242Y-82233869D01*
X97743242Y-82233872D01*
X97710000Y-82443753D01*
X97710000Y-82656246D01*
X97743242Y-82866127D01*
X97743242Y-82866130D01*
X97808904Y-83068217D01*
X97905375Y-83257550D01*
X97944728Y-83311716D01*
X98577037Y-82679408D01*
X98594075Y-82742993D01*
X98659901Y-82857007D01*
X98752993Y-82950099D01*
X98867007Y-83015925D01*
X98930590Y-83032962D01*
X98298282Y-83665269D01*
X98298282Y-83665270D01*
X98352452Y-83704626D01*
X98362048Y-83709516D01*
X98412844Y-83757491D01*
X98429638Y-83825312D01*
X98407100Y-83891447D01*
X98362051Y-83930483D01*
X98352440Y-83935380D01*
X98298282Y-83974727D01*
X98298282Y-83974728D01*
X98930591Y-84607037D01*
X98867007Y-84624075D01*
X98752993Y-84689901D01*
X98659901Y-84782993D01*
X98594075Y-84897007D01*
X98577037Y-84960591D01*
X97944728Y-84328282D01*
X97944727Y-84328282D01*
X97905380Y-84382439D01*
X97808904Y-84571782D01*
X97743242Y-84773869D01*
X97743242Y-84773872D01*
X97710000Y-84983753D01*
X97710000Y-85196246D01*
X97743242Y-85406127D01*
X97743242Y-85406130D01*
X97808904Y-85608217D01*
X97905375Y-85797550D01*
X97944728Y-85851716D01*
X98577037Y-85219408D01*
X98594075Y-85282993D01*
X98659901Y-85397007D01*
X98752993Y-85490099D01*
X98867007Y-85555925D01*
X98930590Y-85572962D01*
X98298282Y-86205269D01*
X98302651Y-86260770D01*
X98288287Y-86329147D01*
X98239236Y-86378905D01*
X98179033Y-86394500D01*
X91050967Y-86394500D01*
X90983928Y-86374815D01*
X90938173Y-86322011D01*
X90927349Y-86260771D01*
X90931716Y-86205270D01*
X90299408Y-85572962D01*
X90362993Y-85555925D01*
X90477007Y-85490099D01*
X90570099Y-85397007D01*
X90635925Y-85282993D01*
X90652962Y-85219408D01*
X91285270Y-85851717D01*
X91285270Y-85851716D01*
X91324622Y-85797554D01*
X91421095Y-85608217D01*
X91486757Y-85406130D01*
X91486757Y-85406127D01*
X91520000Y-85196246D01*
X91520000Y-84983753D01*
X91486757Y-84773872D01*
X91486757Y-84773869D01*
X91421095Y-84571782D01*
X91324624Y-84382449D01*
X91285270Y-84328282D01*
X91285269Y-84328282D01*
X90652962Y-84960590D01*
X90635925Y-84897007D01*
X90570099Y-84782993D01*
X90477007Y-84689901D01*
X90362993Y-84624075D01*
X90299409Y-84607037D01*
X90931716Y-83974728D01*
X90877550Y-83935375D01*
X90867954Y-83930486D01*
X90817157Y-83882512D01*
X90800361Y-83814692D01*
X90821288Y-83750895D01*
X90900027Y-83633581D01*
X90299408Y-83032962D01*
X90362993Y-83015925D01*
X90477007Y-82950099D01*
X90570099Y-82857007D01*
X90635925Y-82742993D01*
X90652962Y-82679408D01*
X91285270Y-83311717D01*
X91285270Y-83311716D01*
X91324622Y-83257554D01*
X91421095Y-83068217D01*
X91486757Y-82866130D01*
X91486757Y-82866127D01*
X91520000Y-82656246D01*
X91520000Y-82443753D01*
X91486757Y-82233872D01*
X91486757Y-82233869D01*
X91421095Y-82031782D01*
X91324624Y-81842449D01*
X91285270Y-81788282D01*
X91285269Y-81788282D01*
X90652962Y-82420590D01*
X90635925Y-82357007D01*
X90570099Y-82242993D01*
X90477007Y-82149901D01*
X90362993Y-82084075D01*
X90299409Y-82067037D01*
X90931716Y-81434728D01*
X90877550Y-81395375D01*
X90867954Y-81390486D01*
X90817157Y-81342512D01*
X90800361Y-81274692D01*
X90821288Y-81210895D01*
X90900027Y-81093581D01*
X90299408Y-80492962D01*
X90362993Y-80475925D01*
X90477007Y-80410099D01*
X90570099Y-80317007D01*
X90635925Y-80202993D01*
X90652962Y-80139408D01*
X91285270Y-80771717D01*
X91285270Y-80771716D01*
X91324622Y-80717554D01*
X91421095Y-80528217D01*
X91486757Y-80326130D01*
X91486757Y-80326127D01*
X91520000Y-80116246D01*
X91520000Y-79903753D01*
X91486757Y-79693872D01*
X91486757Y-79693869D01*
X91421095Y-79491782D01*
X91324624Y-79302449D01*
X91285270Y-79248282D01*
X90652962Y-79880590D01*
X90635925Y-79817007D01*
X90570099Y-79702993D01*
X90477007Y-79609901D01*
X90362993Y-79544075D01*
X90299409Y-79527037D01*
X90931716Y-78894728D01*
X90877550Y-78855375D01*
X90867954Y-78850486D01*
X90817157Y-78802512D01*
X90800361Y-78734692D01*
X90821288Y-78670895D01*
X90900027Y-78553581D01*
X90299408Y-77952962D01*
X90362993Y-77935925D01*
X90477007Y-77870099D01*
X90570099Y-77777007D01*
X90635925Y-77662993D01*
X90652962Y-77599408D01*
X91285270Y-78231717D01*
X91285270Y-78231716D01*
X91324622Y-78177554D01*
X91421095Y-77988217D01*
X91486757Y-77786130D01*
X91486757Y-77786127D01*
X91520000Y-77576246D01*
X91520000Y-77363753D01*
X91486757Y-77153872D01*
X91486757Y-77153869D01*
X91421095Y-76951782D01*
X91324624Y-76762449D01*
X91285270Y-76708282D01*
X91285269Y-76708282D01*
X90652962Y-77340590D01*
X90635925Y-77277007D01*
X90570099Y-77162993D01*
X90477007Y-77069901D01*
X90362993Y-77004075D01*
X90299409Y-76987037D01*
X90931716Y-76354728D01*
X90877550Y-76315375D01*
X90867954Y-76310486D01*
X90817157Y-76262512D01*
X90800361Y-76194692D01*
X90822897Y-76128556D01*
X90867954Y-76089514D01*
X90877554Y-76084622D01*
X90931716Y-76045270D01*
X90931717Y-76045270D01*
X90299408Y-75412962D01*
X90362993Y-75395925D01*
X90477007Y-75330099D01*
X90570099Y-75237007D01*
X90635925Y-75122993D01*
X90652962Y-75059408D01*
X91285270Y-75691717D01*
X91285270Y-75691716D01*
X91324622Y-75637554D01*
X91421095Y-75448217D01*
X91486757Y-75246130D01*
X91486757Y-75246127D01*
X91520000Y-75036246D01*
X91520000Y-74823753D01*
X91486757Y-74613872D01*
X91486757Y-74613869D01*
X91421095Y-74411782D01*
X91324624Y-74222449D01*
X91285270Y-74168282D01*
X91285269Y-74168282D01*
X90652962Y-74800590D01*
X90635925Y-74737007D01*
X90570099Y-74622993D01*
X90477007Y-74529901D01*
X90362993Y-74464075D01*
X90299409Y-74447037D01*
X90931716Y-73814728D01*
X90877550Y-73775375D01*
X90867954Y-73770486D01*
X90817157Y-73722512D01*
X90800361Y-73654692D01*
X90822897Y-73588556D01*
X90867954Y-73549514D01*
X90877554Y-73544622D01*
X90931716Y-73505270D01*
X90931717Y-73505270D01*
X90299408Y-72872962D01*
X90362993Y-72855925D01*
X90477007Y-72790099D01*
X90570099Y-72697007D01*
X90635925Y-72582993D01*
X90652962Y-72519408D01*
X91285270Y-73151717D01*
X91285270Y-73151716D01*
X91324622Y-73097554D01*
X91421095Y-72908217D01*
X91486757Y-72706130D01*
X91486757Y-72706127D01*
X91520000Y-72496246D01*
X91520000Y-72283753D01*
X91486757Y-72073872D01*
X91486757Y-72073869D01*
X91421095Y-71871782D01*
X91324624Y-71682449D01*
X91285270Y-71628282D01*
X91285269Y-71628282D01*
X90652962Y-72260590D01*
X90635925Y-72197007D01*
X90570099Y-72082993D01*
X90477007Y-71989901D01*
X90362993Y-71924075D01*
X90299409Y-71907037D01*
X90931716Y-71274728D01*
X90877550Y-71235375D01*
X90867954Y-71230486D01*
X90817157Y-71182512D01*
X90800361Y-71114692D01*
X90822897Y-71048556D01*
X90867954Y-71009514D01*
X90877554Y-71004622D01*
X90931716Y-70965270D01*
X90931717Y-70965270D01*
X90299408Y-70332962D01*
X90362993Y-70315925D01*
X90477007Y-70250099D01*
X90570099Y-70157007D01*
X90635925Y-70042993D01*
X90652962Y-69979408D01*
X91285270Y-70611717D01*
X91285270Y-70611716D01*
X91324622Y-70557554D01*
X91421095Y-70368217D01*
X91486757Y-70166130D01*
X91486757Y-70166127D01*
X91520000Y-69956246D01*
X91520000Y-69743753D01*
X91486757Y-69533872D01*
X91486757Y-69533869D01*
X91421095Y-69331782D01*
X91324624Y-69142449D01*
X91285270Y-69088282D01*
X91285269Y-69088282D01*
X90652962Y-69720590D01*
X90635925Y-69657007D01*
X90570099Y-69542993D01*
X90477007Y-69449901D01*
X90362993Y-69384075D01*
X90299409Y-69367037D01*
X90931716Y-68734728D01*
X90877550Y-68695375D01*
X90867954Y-68690486D01*
X90817157Y-68642512D01*
X90800361Y-68574692D01*
X90822897Y-68508556D01*
X90867954Y-68469514D01*
X90877554Y-68464622D01*
X90931716Y-68425270D01*
X90931717Y-68425270D01*
X90299408Y-67792962D01*
X90362993Y-67775925D01*
X90477007Y-67710099D01*
X90570099Y-67617007D01*
X90635925Y-67502993D01*
X90652962Y-67439408D01*
X91285270Y-68071717D01*
X91285270Y-68071716D01*
X91324622Y-68017554D01*
X91421095Y-67828217D01*
X91486757Y-67626130D01*
X91486757Y-67626127D01*
X91520000Y-67416246D01*
X91520000Y-67203753D01*
X91486757Y-66993872D01*
X91486757Y-66993869D01*
X91421095Y-66791782D01*
X91324624Y-66602449D01*
X91285270Y-66548282D01*
X91285269Y-66548282D01*
X90652962Y-67180590D01*
X90635925Y-67117007D01*
X90570099Y-67002993D01*
X90477007Y-66909901D01*
X90362993Y-66844075D01*
X90299409Y-66827037D01*
X90931716Y-66194728D01*
X90877550Y-66155375D01*
X90867954Y-66150486D01*
X90817157Y-66102512D01*
X90800361Y-66034692D01*
X90822897Y-65968556D01*
X90867954Y-65929514D01*
X90877554Y-65924622D01*
X90931716Y-65885270D01*
X90931717Y-65885270D01*
X90299408Y-65252962D01*
X90362993Y-65235925D01*
X90477007Y-65170099D01*
X90570099Y-65077007D01*
X90635925Y-64962993D01*
X90652962Y-64899408D01*
X91285270Y-65531717D01*
X91285270Y-65531716D01*
X91324622Y-65477554D01*
X91421095Y-65288217D01*
X91486757Y-65086130D01*
X91486757Y-65086127D01*
X91520000Y-64876246D01*
X91520000Y-64663753D01*
X91486757Y-64453872D01*
X91486757Y-64453869D01*
X91421095Y-64251782D01*
X91324624Y-64062449D01*
X91285270Y-64008282D01*
X91285269Y-64008282D01*
X90652962Y-64640590D01*
X90635925Y-64577007D01*
X90570099Y-64462993D01*
X90477007Y-64369901D01*
X90362993Y-64304075D01*
X90299409Y-64287037D01*
X90931716Y-63654728D01*
X90877550Y-63615375D01*
X90867954Y-63610486D01*
X90817157Y-63562512D01*
X90800361Y-63494692D01*
X90822897Y-63428556D01*
X90867954Y-63389514D01*
X90877554Y-63384622D01*
X90931716Y-63345270D01*
X90931717Y-63345270D01*
X90299408Y-62712962D01*
X90362993Y-62695925D01*
X90477007Y-62630099D01*
X90570099Y-62537007D01*
X90635925Y-62422993D01*
X90652962Y-62359409D01*
X91285270Y-62991717D01*
X91285270Y-62991716D01*
X91324622Y-62937554D01*
X91421095Y-62748217D01*
X91486757Y-62546130D01*
X91486757Y-62546127D01*
X91520000Y-62336246D01*
X91520000Y-62123753D01*
X91486757Y-61913872D01*
X91486757Y-61913869D01*
X91424681Y-61722818D01*
X91422686Y-61652977D01*
X91458766Y-61593144D01*
X91521467Y-61562316D01*
X91542612Y-61560500D01*
X92155903Y-61560500D01*
X92222942Y-61580185D01*
G37*
G04 #@! TD.AperFunction*
G04 #@! TA.AperFunction,Conductor*
G36*
X100175270Y-85851717D02*
G01*
X100175270Y-85851716D01*
X100214622Y-85797555D01*
X100219232Y-85788507D01*
X100267205Y-85737709D01*
X100335025Y-85720912D01*
X100401161Y-85743447D01*
X100440204Y-85788504D01*
X100444949Y-85797817D01*
X100569890Y-85969786D01*
X100720211Y-86120107D01*
X100759392Y-86148573D01*
X100770806Y-86163374D01*
X100785772Y-86174577D01*
X100791700Y-86190470D01*
X100802059Y-86203903D01*
X100803658Y-86222525D01*
X100810192Y-86240040D01*
X100806586Y-86256617D01*
X100808038Y-86273516D01*
X100799316Y-86290046D01*
X100795343Y-86308314D01*
X100776145Y-86333960D01*
X100775433Y-86335311D01*
X100774193Y-86336569D01*
X100752587Y-86358177D01*
X100691266Y-86391665D01*
X100664902Y-86394500D01*
X99940967Y-86394500D01*
X99873928Y-86374815D01*
X99828173Y-86322011D01*
X99817349Y-86260771D01*
X99821716Y-86205270D01*
X99189408Y-85572962D01*
X99252993Y-85555925D01*
X99367007Y-85490099D01*
X99460099Y-85397007D01*
X99525925Y-85282993D01*
X99542962Y-85219408D01*
X100175270Y-85851717D01*
G37*
G04 #@! TD.AperFunction*
G04 #@! TA.AperFunction,Conductor*
G36*
X89704075Y-82742993D02*
G01*
X89769901Y-82857007D01*
X89862993Y-82950099D01*
X89977007Y-83015925D01*
X90040591Y-83032962D01*
X89439971Y-83633581D01*
X89518711Y-83750895D01*
X89519920Y-83754729D01*
X89522844Y-83757491D01*
X89530343Y-83787778D01*
X89539727Y-83817529D01*
X89538671Y-83821408D01*
X89539638Y-83825312D01*
X89529573Y-83854844D01*
X89521383Y-83884947D01*
X89518397Y-83887640D01*
X89517100Y-83891447D01*
X89472051Y-83930483D01*
X89462440Y-83935380D01*
X89408282Y-83974727D01*
X89408282Y-83974728D01*
X90040591Y-84607037D01*
X89977007Y-84624075D01*
X89862993Y-84689901D01*
X89769901Y-84782993D01*
X89704075Y-84897007D01*
X89687037Y-84960591D01*
X89054728Y-84328282D01*
X89054727Y-84328282D01*
X89015380Y-84382440D01*
X89015376Y-84382446D01*
X89010760Y-84391505D01*
X88962781Y-84442297D01*
X88894959Y-84459087D01*
X88828826Y-84436543D01*
X88789794Y-84391493D01*
X88785051Y-84382184D01*
X88785049Y-84382181D01*
X88785048Y-84382179D01*
X88660109Y-84210213D01*
X88509786Y-84059890D01*
X88337820Y-83934951D01*
X88337115Y-83934591D01*
X88329054Y-83930485D01*
X88278259Y-83882512D01*
X88261463Y-83814692D01*
X88283999Y-83748556D01*
X88329054Y-83709515D01*
X88337816Y-83705051D01*
X88436187Y-83633581D01*
X88509786Y-83580109D01*
X88509788Y-83580106D01*
X88509792Y-83580104D01*
X88660104Y-83429792D01*
X88660106Y-83429788D01*
X88660109Y-83429786D01*
X88745890Y-83311717D01*
X88785051Y-83257816D01*
X88789793Y-83248508D01*
X88837763Y-83197711D01*
X88905583Y-83180911D01*
X88971719Y-83203445D01*
X89010763Y-83248500D01*
X89015373Y-83257547D01*
X89054728Y-83311716D01*
X89687037Y-82679408D01*
X89704075Y-82742993D01*
G37*
G04 #@! TD.AperFunction*
G04 #@! TA.AperFunction,Conductor*
G36*
X100175270Y-83311717D02*
G01*
X100175270Y-83311716D01*
X100214622Y-83257555D01*
X100219232Y-83248507D01*
X100267205Y-83197709D01*
X100335025Y-83180912D01*
X100401161Y-83203447D01*
X100440204Y-83248504D01*
X100444949Y-83257817D01*
X100569890Y-83429786D01*
X100720213Y-83580109D01*
X100892182Y-83705050D01*
X100900946Y-83709516D01*
X100951742Y-83757491D01*
X100968536Y-83825312D01*
X100945998Y-83891447D01*
X100900946Y-83930484D01*
X100892182Y-83934949D01*
X100720213Y-84059890D01*
X100569890Y-84210213D01*
X100444949Y-84382182D01*
X100440202Y-84391499D01*
X100392227Y-84442293D01*
X100324405Y-84459087D01*
X100258271Y-84436548D01*
X100219234Y-84391495D01*
X100214626Y-84382452D01*
X100175270Y-84328282D01*
X100175269Y-84328282D01*
X99542962Y-84960590D01*
X99525925Y-84897007D01*
X99460099Y-84782993D01*
X99367007Y-84689901D01*
X99252993Y-84624075D01*
X99189409Y-84607037D01*
X99821716Y-83974728D01*
X99767550Y-83935375D01*
X99757954Y-83930486D01*
X99707157Y-83882512D01*
X99690361Y-83814692D01*
X99712897Y-83748556D01*
X99757954Y-83709514D01*
X99767554Y-83704622D01*
X99821716Y-83665270D01*
X99821717Y-83665270D01*
X99189408Y-83032962D01*
X99252993Y-83015925D01*
X99367007Y-82950099D01*
X99460099Y-82857007D01*
X99525925Y-82742993D01*
X99542962Y-82679408D01*
X100175270Y-83311717D01*
G37*
G04 #@! TD.AperFunction*
G04 #@! TA.AperFunction,Conductor*
G36*
X89704075Y-80202993D02*
G01*
X89769901Y-80317007D01*
X89862993Y-80410099D01*
X89977007Y-80475925D01*
X90040591Y-80492962D01*
X89439971Y-81093581D01*
X89518711Y-81210895D01*
X89519920Y-81214729D01*
X89522844Y-81217491D01*
X89530343Y-81247778D01*
X89539727Y-81277529D01*
X89538671Y-81281408D01*
X89539638Y-81285312D01*
X89529573Y-81314844D01*
X89521383Y-81344947D01*
X89518397Y-81347640D01*
X89517100Y-81351447D01*
X89472051Y-81390483D01*
X89462440Y-81395380D01*
X89408282Y-81434727D01*
X89408282Y-81434728D01*
X90040591Y-82067037D01*
X89977007Y-82084075D01*
X89862993Y-82149901D01*
X89769901Y-82242993D01*
X89704075Y-82357007D01*
X89687037Y-82420591D01*
X89054728Y-81788282D01*
X89054727Y-81788282D01*
X89015380Y-81842440D01*
X89015376Y-81842446D01*
X89010760Y-81851505D01*
X88962781Y-81902297D01*
X88894959Y-81919087D01*
X88828826Y-81896543D01*
X88789794Y-81851493D01*
X88785051Y-81842184D01*
X88785049Y-81842181D01*
X88785048Y-81842179D01*
X88660109Y-81670213D01*
X88509786Y-81519890D01*
X88337820Y-81394951D01*
X88337115Y-81394591D01*
X88329054Y-81390485D01*
X88278259Y-81342512D01*
X88261463Y-81274692D01*
X88283999Y-81208556D01*
X88329054Y-81169515D01*
X88337816Y-81165051D01*
X88359789Y-81149086D01*
X88509786Y-81040109D01*
X88509788Y-81040106D01*
X88509792Y-81040104D01*
X88660104Y-80889792D01*
X88660106Y-80889788D01*
X88660109Y-80889786D01*
X88745890Y-80771717D01*
X88785051Y-80717816D01*
X88789793Y-80708508D01*
X88837763Y-80657711D01*
X88905583Y-80640911D01*
X88971719Y-80663445D01*
X89010763Y-80708500D01*
X89015373Y-80717547D01*
X89054728Y-80771716D01*
X89687037Y-80139408D01*
X89704075Y-80202993D01*
G37*
G04 #@! TD.AperFunction*
G04 #@! TA.AperFunction,Conductor*
G36*
X100175270Y-80771717D02*
G01*
X100175270Y-80771716D01*
X100214622Y-80717555D01*
X100219232Y-80708507D01*
X100267205Y-80657709D01*
X100335025Y-80640912D01*
X100401161Y-80663447D01*
X100440204Y-80708504D01*
X100444949Y-80717817D01*
X100569890Y-80889786D01*
X100720213Y-81040109D01*
X100892182Y-81165050D01*
X100900946Y-81169516D01*
X100951742Y-81217491D01*
X100968536Y-81285312D01*
X100945998Y-81351447D01*
X100900946Y-81390484D01*
X100892182Y-81394949D01*
X100720213Y-81519890D01*
X100569890Y-81670213D01*
X100444949Y-81842182D01*
X100440202Y-81851499D01*
X100392227Y-81902293D01*
X100324405Y-81919087D01*
X100258271Y-81896548D01*
X100219234Y-81851495D01*
X100214626Y-81842452D01*
X100175270Y-81788282D01*
X100175269Y-81788282D01*
X99542962Y-82420590D01*
X99525925Y-82357007D01*
X99460099Y-82242993D01*
X99367007Y-82149901D01*
X99252993Y-82084075D01*
X99189409Y-82067037D01*
X99821716Y-81434728D01*
X99767550Y-81395375D01*
X99757954Y-81390486D01*
X99707157Y-81342512D01*
X99690361Y-81274692D01*
X99712897Y-81208556D01*
X99757954Y-81169514D01*
X99767554Y-81164622D01*
X99821716Y-81125270D01*
X99821717Y-81125270D01*
X99189408Y-80492962D01*
X99252993Y-80475925D01*
X99367007Y-80410099D01*
X99460099Y-80317007D01*
X99525925Y-80202993D01*
X99542962Y-80139408D01*
X100175270Y-80771717D01*
G37*
G04 #@! TD.AperFunction*
G04 #@! TA.AperFunction,Conductor*
G36*
X89704075Y-77662993D02*
G01*
X89769901Y-77777007D01*
X89862993Y-77870099D01*
X89977007Y-77935925D01*
X90040591Y-77952962D01*
X89439971Y-78553581D01*
X89518711Y-78670895D01*
X89519920Y-78674729D01*
X89522844Y-78677491D01*
X89530343Y-78707778D01*
X89539727Y-78737529D01*
X89538671Y-78741408D01*
X89539638Y-78745312D01*
X89529573Y-78774844D01*
X89521383Y-78804947D01*
X89518397Y-78807640D01*
X89517100Y-78811447D01*
X89472051Y-78850483D01*
X89462440Y-78855380D01*
X89408282Y-78894727D01*
X89408282Y-78894728D01*
X90040591Y-79527037D01*
X89977007Y-79544075D01*
X89862993Y-79609901D01*
X89769901Y-79702993D01*
X89704075Y-79817007D01*
X89687037Y-79880591D01*
X89054728Y-79248282D01*
X89054727Y-79248282D01*
X89015380Y-79302440D01*
X89015376Y-79302446D01*
X89010760Y-79311505D01*
X88962781Y-79362297D01*
X88894959Y-79379087D01*
X88828826Y-79356543D01*
X88789794Y-79311493D01*
X88785051Y-79302184D01*
X88785049Y-79302181D01*
X88785048Y-79302179D01*
X88660109Y-79130213D01*
X88509786Y-78979890D01*
X88337820Y-78854951D01*
X88337115Y-78854591D01*
X88329054Y-78850485D01*
X88278259Y-78802512D01*
X88261463Y-78734692D01*
X88283999Y-78668556D01*
X88329054Y-78629515D01*
X88337816Y-78625051D01*
X88436187Y-78553581D01*
X88509786Y-78500109D01*
X88509788Y-78500106D01*
X88509792Y-78500104D01*
X88660104Y-78349792D01*
X88660106Y-78349788D01*
X88660109Y-78349786D01*
X88745890Y-78231717D01*
X88785051Y-78177816D01*
X88789793Y-78168508D01*
X88837763Y-78117711D01*
X88905583Y-78100911D01*
X88971719Y-78123445D01*
X89010763Y-78168500D01*
X89015373Y-78177547D01*
X89054728Y-78231716D01*
X89687037Y-77599408D01*
X89704075Y-77662993D01*
G37*
G04 #@! TD.AperFunction*
G04 #@! TA.AperFunction,Conductor*
G36*
X100175270Y-78231717D02*
G01*
X100175270Y-78231716D01*
X100214622Y-78177555D01*
X100219232Y-78168507D01*
X100267205Y-78117709D01*
X100335025Y-78100912D01*
X100401161Y-78123447D01*
X100440204Y-78168504D01*
X100444949Y-78177817D01*
X100569890Y-78349786D01*
X100720213Y-78500109D01*
X100892182Y-78625050D01*
X100900946Y-78629516D01*
X100951742Y-78677491D01*
X100968536Y-78745312D01*
X100945998Y-78811447D01*
X100900946Y-78850484D01*
X100892182Y-78854949D01*
X100720213Y-78979890D01*
X100569890Y-79130213D01*
X100444949Y-79302182D01*
X100440202Y-79311499D01*
X100392227Y-79362293D01*
X100324405Y-79379087D01*
X100258271Y-79356548D01*
X100219234Y-79311495D01*
X100214626Y-79302452D01*
X100175270Y-79248282D01*
X100175269Y-79248282D01*
X99542962Y-79880590D01*
X99525925Y-79817007D01*
X99460099Y-79702993D01*
X99367007Y-79609901D01*
X99252993Y-79544075D01*
X99189409Y-79527037D01*
X99821716Y-78894728D01*
X99767550Y-78855375D01*
X99757954Y-78850486D01*
X99707157Y-78802512D01*
X99690361Y-78734692D01*
X99712897Y-78668556D01*
X99757954Y-78629514D01*
X99767554Y-78624622D01*
X99821716Y-78585270D01*
X99821717Y-78585270D01*
X99189408Y-77952962D01*
X99252993Y-77935925D01*
X99367007Y-77870099D01*
X99460099Y-77777007D01*
X99525925Y-77662993D01*
X99542962Y-77599409D01*
X100175270Y-78231717D01*
G37*
G04 #@! TD.AperFunction*
G04 #@! TA.AperFunction,Conductor*
G36*
X89704075Y-75122993D02*
G01*
X89769901Y-75237007D01*
X89862993Y-75330099D01*
X89977007Y-75395925D01*
X90040591Y-75412962D01*
X89439971Y-76013581D01*
X89518711Y-76130895D01*
X89519920Y-76134729D01*
X89522844Y-76137491D01*
X89530343Y-76167778D01*
X89539727Y-76197529D01*
X89538671Y-76201408D01*
X89539638Y-76205312D01*
X89529573Y-76234844D01*
X89521383Y-76264947D01*
X89518397Y-76267640D01*
X89517100Y-76271447D01*
X89472051Y-76310483D01*
X89462440Y-76315380D01*
X89408282Y-76354727D01*
X89408282Y-76354728D01*
X90040591Y-76987037D01*
X89977007Y-77004075D01*
X89862993Y-77069901D01*
X89769901Y-77162993D01*
X89704075Y-77277007D01*
X89687037Y-77340591D01*
X89054728Y-76708282D01*
X89054727Y-76708282D01*
X89015380Y-76762440D01*
X89015376Y-76762446D01*
X89010760Y-76771505D01*
X88962781Y-76822297D01*
X88894959Y-76839087D01*
X88828826Y-76816543D01*
X88789794Y-76771493D01*
X88785051Y-76762184D01*
X88785049Y-76762181D01*
X88785048Y-76762179D01*
X88660109Y-76590213D01*
X88509786Y-76439890D01*
X88337820Y-76314951D01*
X88337115Y-76314591D01*
X88329054Y-76310485D01*
X88278259Y-76262512D01*
X88261463Y-76194692D01*
X88283999Y-76128556D01*
X88329054Y-76089515D01*
X88337816Y-76085051D01*
X88436187Y-76013581D01*
X88509786Y-75960109D01*
X88509788Y-75960106D01*
X88509792Y-75960104D01*
X88660104Y-75809792D01*
X88660106Y-75809788D01*
X88660109Y-75809786D01*
X88745890Y-75691717D01*
X88785051Y-75637816D01*
X88789793Y-75628508D01*
X88837763Y-75577711D01*
X88905583Y-75560911D01*
X88971719Y-75583445D01*
X89010763Y-75628500D01*
X89015373Y-75637547D01*
X89054728Y-75691716D01*
X89687037Y-75059408D01*
X89704075Y-75122993D01*
G37*
G04 #@! TD.AperFunction*
G04 #@! TA.AperFunction,Conductor*
G36*
X89704075Y-72582993D02*
G01*
X89769901Y-72697007D01*
X89862993Y-72790099D01*
X89977007Y-72855925D01*
X90040591Y-72872962D01*
X89439971Y-73473581D01*
X89518711Y-73590895D01*
X89519920Y-73594729D01*
X89522844Y-73597491D01*
X89530343Y-73627778D01*
X89539727Y-73657529D01*
X89538671Y-73661408D01*
X89539638Y-73665312D01*
X89529573Y-73694844D01*
X89521383Y-73724947D01*
X89518397Y-73727640D01*
X89517100Y-73731447D01*
X89472051Y-73770483D01*
X89462440Y-73775380D01*
X89408282Y-73814727D01*
X89408282Y-73814728D01*
X90040591Y-74447037D01*
X89977007Y-74464075D01*
X89862993Y-74529901D01*
X89769901Y-74622993D01*
X89704075Y-74737007D01*
X89687037Y-74800591D01*
X89054728Y-74168282D01*
X89054727Y-74168282D01*
X89015380Y-74222440D01*
X89015376Y-74222446D01*
X89010760Y-74231505D01*
X88962781Y-74282297D01*
X88894959Y-74299087D01*
X88828826Y-74276543D01*
X88789794Y-74231493D01*
X88785051Y-74222184D01*
X88785049Y-74222181D01*
X88785048Y-74222179D01*
X88660109Y-74050213D01*
X88509786Y-73899890D01*
X88337820Y-73774951D01*
X88337115Y-73774591D01*
X88329054Y-73770485D01*
X88278259Y-73722512D01*
X88261463Y-73654692D01*
X88283999Y-73588556D01*
X88329054Y-73549515D01*
X88337816Y-73545051D01*
X88436187Y-73473581D01*
X88509786Y-73420109D01*
X88509788Y-73420106D01*
X88509792Y-73420104D01*
X88660104Y-73269792D01*
X88660106Y-73269788D01*
X88660109Y-73269786D01*
X88745890Y-73151717D01*
X88785051Y-73097816D01*
X88789793Y-73088508D01*
X88837763Y-73037711D01*
X88905583Y-73020911D01*
X88971719Y-73043445D01*
X89010763Y-73088500D01*
X89015373Y-73097547D01*
X89054728Y-73151716D01*
X89687037Y-72519408D01*
X89704075Y-72582993D01*
G37*
G04 #@! TD.AperFunction*
G04 #@! TA.AperFunction,Conductor*
G36*
X89704075Y-70042993D02*
G01*
X89769901Y-70157007D01*
X89862993Y-70250099D01*
X89977007Y-70315925D01*
X90040591Y-70332962D01*
X89439971Y-70933581D01*
X89518711Y-71050895D01*
X89519920Y-71054729D01*
X89522844Y-71057491D01*
X89530343Y-71087778D01*
X89539727Y-71117529D01*
X89538671Y-71121408D01*
X89539638Y-71125312D01*
X89529573Y-71154844D01*
X89521383Y-71184947D01*
X89518397Y-71187640D01*
X89517100Y-71191447D01*
X89472051Y-71230483D01*
X89462440Y-71235380D01*
X89408282Y-71274727D01*
X89408282Y-71274728D01*
X90040591Y-71907037D01*
X89977007Y-71924075D01*
X89862993Y-71989901D01*
X89769901Y-72082993D01*
X89704075Y-72197007D01*
X89687037Y-72260591D01*
X89054728Y-71628282D01*
X89054727Y-71628282D01*
X89015380Y-71682440D01*
X89015376Y-71682446D01*
X89010760Y-71691505D01*
X88962781Y-71742297D01*
X88894959Y-71759087D01*
X88828826Y-71736543D01*
X88789794Y-71691493D01*
X88785051Y-71682184D01*
X88785049Y-71682181D01*
X88785048Y-71682179D01*
X88660109Y-71510213D01*
X88509786Y-71359890D01*
X88337820Y-71234951D01*
X88337115Y-71234591D01*
X88329054Y-71230485D01*
X88278259Y-71182512D01*
X88261463Y-71114692D01*
X88283999Y-71048556D01*
X88329054Y-71009515D01*
X88337816Y-71005051D01*
X88436187Y-70933581D01*
X88509786Y-70880109D01*
X88509788Y-70880106D01*
X88509792Y-70880104D01*
X88660104Y-70729792D01*
X88660106Y-70729788D01*
X88660109Y-70729786D01*
X88745890Y-70611717D01*
X88785051Y-70557816D01*
X88789793Y-70548508D01*
X88837763Y-70497711D01*
X88905583Y-70480911D01*
X88971719Y-70503445D01*
X89010763Y-70548500D01*
X89015373Y-70557547D01*
X89054728Y-70611716D01*
X89687037Y-69979408D01*
X89704075Y-70042993D01*
G37*
G04 #@! TD.AperFunction*
G04 #@! TA.AperFunction,Conductor*
G36*
X103271942Y-52690185D02*
G01*
X103292584Y-52706819D01*
X103503181Y-52917416D01*
X103536666Y-52978739D01*
X103539500Y-53005097D01*
X103539500Y-61294902D01*
X103519815Y-61361941D01*
X103503181Y-61382583D01*
X103292584Y-61593181D01*
X103231261Y-61626666D01*
X103204903Y-61629500D01*
X102885719Y-61629500D01*
X102818680Y-61609815D01*
X102775235Y-61561795D01*
X102755052Y-61522185D01*
X102755051Y-61522184D01*
X102630109Y-61350213D01*
X102479786Y-61199890D01*
X102307817Y-61074949D01*
X102298504Y-61070204D01*
X102247707Y-61022230D01*
X102230912Y-60954409D01*
X102253449Y-60888274D01*
X102298507Y-60849232D01*
X102307555Y-60844622D01*
X102361716Y-60805270D01*
X102361717Y-60805270D01*
X101729408Y-60172962D01*
X101792993Y-60155925D01*
X101907007Y-60090099D01*
X102000099Y-59997007D01*
X102065925Y-59882993D01*
X102082962Y-59819409D01*
X102715270Y-60451717D01*
X102715270Y-60451716D01*
X102754622Y-60397554D01*
X102851095Y-60208217D01*
X102916757Y-60006130D01*
X102916757Y-60006127D01*
X102950000Y-59796246D01*
X102950000Y-59583753D01*
X102916757Y-59373872D01*
X102916757Y-59373869D01*
X102851095Y-59171782D01*
X102754624Y-58982449D01*
X102715270Y-58928282D01*
X102715269Y-58928282D01*
X102082962Y-59560590D01*
X102065925Y-59497007D01*
X102000099Y-59382993D01*
X101907007Y-59289901D01*
X101792993Y-59224075D01*
X101729409Y-59207037D01*
X102361716Y-58574728D01*
X102307547Y-58535373D01*
X102307547Y-58535372D01*
X102298500Y-58530763D01*
X102247706Y-58482788D01*
X102230912Y-58414966D01*
X102253451Y-58348832D01*
X102298508Y-58309793D01*
X102307816Y-58305051D01*
X102394147Y-58242328D01*
X102479786Y-58180109D01*
X102479788Y-58180106D01*
X102479792Y-58180104D01*
X102630104Y-58029792D01*
X102630106Y-58029788D01*
X102630109Y-58029786D01*
X102755048Y-57857820D01*
X102755050Y-57857817D01*
X102755051Y-57857816D01*
X102851557Y-57668412D01*
X102917246Y-57466243D01*
X102950500Y-57256287D01*
X102950500Y-57043713D01*
X102917246Y-56833757D01*
X102851557Y-56631588D01*
X102755051Y-56442184D01*
X102755049Y-56442181D01*
X102755048Y-56442179D01*
X102630109Y-56270213D01*
X102479786Y-56119890D01*
X102307820Y-55994951D01*
X102307115Y-55994591D01*
X102299054Y-55990485D01*
X102248259Y-55942512D01*
X102231463Y-55874692D01*
X102253999Y-55808556D01*
X102299054Y-55769515D01*
X102307816Y-55765051D01*
X102394138Y-55702335D01*
X102479786Y-55640109D01*
X102479788Y-55640106D01*
X102479792Y-55640104D01*
X102630104Y-55489792D01*
X102630106Y-55489788D01*
X102630109Y-55489786D01*
X102743259Y-55334046D01*
X102755051Y-55317816D01*
X102851557Y-55128412D01*
X102917246Y-54926243D01*
X102950500Y-54716287D01*
X102950500Y-54503713D01*
X102917246Y-54293757D01*
X102851557Y-54091588D01*
X102755051Y-53902184D01*
X102755049Y-53902181D01*
X102755048Y-53902179D01*
X102630109Y-53730213D01*
X102479786Y-53579890D01*
X102307820Y-53454951D01*
X102118414Y-53358444D01*
X102118413Y-53358443D01*
X102118412Y-53358443D01*
X101916243Y-53292754D01*
X101916241Y-53292753D01*
X101916240Y-53292753D01*
X101754957Y-53267208D01*
X101706287Y-53259500D01*
X101493713Y-53259500D01*
X101445042Y-53267208D01*
X101283760Y-53292753D01*
X101081585Y-53358444D01*
X100892179Y-53454951D01*
X100720215Y-53579889D01*
X100606673Y-53693431D01*
X100545350Y-53726915D01*
X100475658Y-53721931D01*
X100419725Y-53680059D01*
X100402810Y-53649082D01*
X100353797Y-53517671D01*
X100353793Y-53517664D01*
X100267547Y-53402455D01*
X100267544Y-53402452D01*
X100152335Y-53316206D01*
X100152328Y-53316202D01*
X100017482Y-53265908D01*
X100017483Y-53265908D01*
X99957883Y-53259501D01*
X99957881Y-53259500D01*
X99957873Y-53259500D01*
X99957864Y-53259500D01*
X98162129Y-53259500D01*
X98162123Y-53259501D01*
X98102516Y-53265908D01*
X97967671Y-53316202D01*
X97967664Y-53316206D01*
X97852455Y-53402452D01*
X97852452Y-53402455D01*
X97766206Y-53517664D01*
X97766202Y-53517671D01*
X97715908Y-53652517D01*
X97709501Y-53712116D01*
X97709500Y-53712135D01*
X97709500Y-55507870D01*
X97709501Y-55507876D01*
X97715908Y-55567483D01*
X97766202Y-55702328D01*
X97766206Y-55702335D01*
X97852452Y-55817544D01*
X97852455Y-55817547D01*
X97967664Y-55903793D01*
X97967671Y-55903797D01*
X98099082Y-55952810D01*
X98155016Y-55994681D01*
X98179433Y-56060145D01*
X98164582Y-56128418D01*
X98143431Y-56156673D01*
X98029889Y-56270215D01*
X97904951Y-56442179D01*
X97808444Y-56631585D01*
X97742753Y-56833760D01*
X97709500Y-57043713D01*
X97709500Y-57256286D01*
X97742753Y-57466239D01*
X97808444Y-57668414D01*
X97904951Y-57857820D01*
X98029890Y-58029786D01*
X98180213Y-58180109D01*
X98352179Y-58305048D01*
X98352181Y-58305049D01*
X98352184Y-58305051D01*
X98361493Y-58309794D01*
X98412290Y-58357766D01*
X98429087Y-58425587D01*
X98406552Y-58491722D01*
X98361505Y-58530760D01*
X98352446Y-58535376D01*
X98352440Y-58535380D01*
X98298282Y-58574727D01*
X98298282Y-58574728D01*
X98930591Y-59207037D01*
X98867007Y-59224075D01*
X98752993Y-59289901D01*
X98659901Y-59382993D01*
X98594075Y-59497007D01*
X98577037Y-59560591D01*
X97944728Y-58928282D01*
X97944727Y-58928282D01*
X97905380Y-58982439D01*
X97808904Y-59171782D01*
X97743242Y-59373869D01*
X97743242Y-59373872D01*
X97710000Y-59583753D01*
X97710000Y-59796246D01*
X97743242Y-60006127D01*
X97743242Y-60006130D01*
X97808904Y-60208217D01*
X97905375Y-60397550D01*
X97944728Y-60451716D01*
X98577037Y-59819408D01*
X98594075Y-59882993D01*
X98659901Y-59997007D01*
X98752993Y-60090099D01*
X98867007Y-60155925D01*
X98930591Y-60172962D01*
X98329971Y-60773581D01*
X98408711Y-60890895D01*
X98409920Y-60894729D01*
X98412844Y-60897491D01*
X98420343Y-60927778D01*
X98429727Y-60957529D01*
X98428671Y-60961408D01*
X98429638Y-60965312D01*
X98419573Y-60994844D01*
X98411383Y-61024947D01*
X98408397Y-61027640D01*
X98407100Y-61031447D01*
X98362051Y-61070483D01*
X98352440Y-61075380D01*
X98298282Y-61114727D01*
X98298282Y-61114728D01*
X98930591Y-61747037D01*
X98867007Y-61764075D01*
X98752993Y-61829901D01*
X98659901Y-61922993D01*
X98594075Y-62037007D01*
X98577037Y-62100591D01*
X97944728Y-61468282D01*
X97944727Y-61468282D01*
X97905380Y-61522439D01*
X97808904Y-61711782D01*
X97743242Y-61913869D01*
X97743242Y-61913872D01*
X97710000Y-62123753D01*
X97710000Y-62336246D01*
X97743242Y-62546127D01*
X97743242Y-62546130D01*
X97808904Y-62748217D01*
X97905375Y-62937550D01*
X97944728Y-62991716D01*
X98577037Y-62359408D01*
X98594075Y-62422993D01*
X98659901Y-62537007D01*
X98752993Y-62630099D01*
X98867007Y-62695925D01*
X98930591Y-62712962D01*
X98329971Y-63313581D01*
X98408711Y-63430895D01*
X98409920Y-63434729D01*
X98412844Y-63437491D01*
X98420343Y-63467778D01*
X98429727Y-63497529D01*
X98428671Y-63501408D01*
X98429638Y-63505312D01*
X98419573Y-63534844D01*
X98411383Y-63564947D01*
X98408397Y-63567640D01*
X98407100Y-63571447D01*
X98362051Y-63610483D01*
X98352440Y-63615380D01*
X98298282Y-63654727D01*
X98298282Y-63654728D01*
X98930591Y-64287037D01*
X98867007Y-64304075D01*
X98752993Y-64369901D01*
X98659901Y-64462993D01*
X98594075Y-64577007D01*
X98577037Y-64640591D01*
X97944728Y-64008282D01*
X97944727Y-64008282D01*
X97905380Y-64062439D01*
X97808904Y-64251782D01*
X97743242Y-64453869D01*
X97743242Y-64453872D01*
X97710000Y-64663753D01*
X97710000Y-64876246D01*
X97743242Y-65086127D01*
X97743242Y-65086130D01*
X97808904Y-65288217D01*
X97905375Y-65477550D01*
X97944728Y-65531716D01*
X98577037Y-64899408D01*
X98594075Y-64962993D01*
X98659901Y-65077007D01*
X98752993Y-65170099D01*
X98867007Y-65235925D01*
X98930591Y-65252962D01*
X98329971Y-65853581D01*
X98408711Y-65970895D01*
X98409920Y-65974729D01*
X98412844Y-65977491D01*
X98420343Y-66007778D01*
X98429727Y-66037529D01*
X98428671Y-66041408D01*
X98429638Y-66045312D01*
X98419573Y-66074844D01*
X98411383Y-66104947D01*
X98408397Y-66107640D01*
X98407100Y-66111447D01*
X98362051Y-66150483D01*
X98352440Y-66155380D01*
X98298282Y-66194727D01*
X98298282Y-66194728D01*
X98930591Y-66827037D01*
X98867007Y-66844075D01*
X98752993Y-66909901D01*
X98659901Y-67002993D01*
X98594075Y-67117007D01*
X98577037Y-67180591D01*
X97944728Y-66548282D01*
X97944727Y-66548282D01*
X97905380Y-66602439D01*
X97808904Y-66791782D01*
X97743242Y-66993869D01*
X97743242Y-66993872D01*
X97710000Y-67203753D01*
X97710000Y-67416246D01*
X97743242Y-67626127D01*
X97743242Y-67626130D01*
X97808904Y-67828217D01*
X97905375Y-68017550D01*
X97944728Y-68071716D01*
X98577037Y-67439408D01*
X98594075Y-67502993D01*
X98659901Y-67617007D01*
X98752993Y-67710099D01*
X98867007Y-67775925D01*
X98930591Y-67792962D01*
X98329971Y-68393581D01*
X98408711Y-68510895D01*
X98409920Y-68514729D01*
X98412844Y-68517491D01*
X98420343Y-68547778D01*
X98429727Y-68577529D01*
X98428671Y-68581408D01*
X98429638Y-68585312D01*
X98419573Y-68614844D01*
X98411383Y-68644947D01*
X98408397Y-68647640D01*
X98407100Y-68651447D01*
X98362051Y-68690483D01*
X98352440Y-68695380D01*
X98298282Y-68734727D01*
X98298282Y-68734728D01*
X98930591Y-69367037D01*
X98867007Y-69384075D01*
X98752993Y-69449901D01*
X98659901Y-69542993D01*
X98594075Y-69657007D01*
X98577037Y-69720591D01*
X97944728Y-69088282D01*
X97944727Y-69088282D01*
X97905380Y-69142439D01*
X97808904Y-69331782D01*
X97743242Y-69533869D01*
X97743242Y-69533872D01*
X97710000Y-69743753D01*
X97710000Y-69956246D01*
X97728097Y-70070508D01*
X97719142Y-70139802D01*
X97674146Y-70193254D01*
X97607394Y-70213893D01*
X97540081Y-70195168D01*
X97517943Y-70177587D01*
X97156819Y-69816463D01*
X97123334Y-69755140D01*
X97120500Y-69728782D01*
X97120500Y-60033059D01*
X97120501Y-60033046D01*
X97120501Y-59864945D01*
X97120501Y-59864943D01*
X97079577Y-59712215D01*
X97046832Y-59655500D01*
X97000520Y-59575284D01*
X96888716Y-59463480D01*
X96884385Y-59459149D01*
X96884374Y-59459139D01*
X92943590Y-55518355D01*
X92943588Y-55518352D01*
X92824717Y-55399481D01*
X92824716Y-55399480D01*
X92737904Y-55349360D01*
X92737904Y-55349359D01*
X92737900Y-55349358D01*
X92687785Y-55320423D01*
X92535057Y-55279499D01*
X92376943Y-55279499D01*
X92369347Y-55279499D01*
X92369331Y-55279500D01*
X91543137Y-55279500D01*
X91476098Y-55259815D01*
X91430343Y-55207011D01*
X91420399Y-55137853D01*
X91425206Y-55117182D01*
X91432733Y-55094015D01*
X91487246Y-54926243D01*
X91520500Y-54716287D01*
X91520500Y-54503713D01*
X91487246Y-54293757D01*
X91421557Y-54091588D01*
X91325051Y-53902184D01*
X91200104Y-53730208D01*
X91049792Y-53579896D01*
X91049786Y-53579890D01*
X90877820Y-53454951D01*
X90688414Y-53358444D01*
X90688413Y-53358443D01*
X90688412Y-53358443D01*
X90486243Y-53292754D01*
X90486241Y-53292753D01*
X90486240Y-53292753D01*
X90324957Y-53267208D01*
X90276287Y-53259500D01*
X90063713Y-53259500D01*
X90015042Y-53267208D01*
X89853760Y-53292753D01*
X89651585Y-53358444D01*
X89462179Y-53454951D01*
X89290215Y-53579889D01*
X89176673Y-53693431D01*
X89115350Y-53726915D01*
X89045658Y-53721931D01*
X88989725Y-53680059D01*
X88972810Y-53649082D01*
X88923797Y-53517671D01*
X88923793Y-53517664D01*
X88837547Y-53402455D01*
X88837544Y-53402452D01*
X88722335Y-53316206D01*
X88722328Y-53316202D01*
X88587482Y-53265908D01*
X88587483Y-53265908D01*
X88527883Y-53259501D01*
X88527881Y-53259500D01*
X88527873Y-53259500D01*
X88527864Y-53259500D01*
X86732129Y-53259500D01*
X86732123Y-53259501D01*
X86672516Y-53265908D01*
X86537671Y-53316202D01*
X86537664Y-53316206D01*
X86422455Y-53402452D01*
X86422452Y-53402455D01*
X86336206Y-53517664D01*
X86336202Y-53517671D01*
X86285908Y-53652517D01*
X86279501Y-53712116D01*
X86279500Y-53712135D01*
X86279501Y-55155500D01*
X86259816Y-55222539D01*
X86207013Y-55268294D01*
X86155501Y-55279500D01*
X85390097Y-55279500D01*
X85323058Y-55259815D01*
X85302416Y-55243181D01*
X84307590Y-54248355D01*
X84307588Y-54248352D01*
X84188717Y-54129481D01*
X84188716Y-54129480D01*
X84101904Y-54079360D01*
X84101904Y-54079359D01*
X84101900Y-54079358D01*
X84051785Y-54050423D01*
X83899057Y-54009499D01*
X83740943Y-54009499D01*
X83733347Y-54009499D01*
X83733331Y-54009500D01*
X54689057Y-54009500D01*
X54530942Y-54009500D01*
X54378215Y-54050423D01*
X54378214Y-54050423D01*
X54378212Y-54050424D01*
X54378209Y-54050425D01*
X54328096Y-54079359D01*
X54328095Y-54079360D01*
X54284689Y-54104420D01*
X54241285Y-54129479D01*
X54241282Y-54129481D01*
X52859481Y-55511282D01*
X52859479Y-55511285D01*
X52809361Y-55598094D01*
X52809359Y-55598096D01*
X52780425Y-55648209D01*
X52780424Y-55648210D01*
X52780423Y-55648215D01*
X52739499Y-55800943D01*
X52739499Y-55800945D01*
X52739499Y-55864281D01*
X52719814Y-55931320D01*
X52671796Y-55974765D01*
X52632180Y-55994950D01*
X52460213Y-56119890D01*
X52309890Y-56270213D01*
X52184949Y-56442182D01*
X52180484Y-56450946D01*
X52132509Y-56501742D01*
X52064688Y-56518536D01*
X51998553Y-56495998D01*
X51959516Y-56450946D01*
X51955050Y-56442182D01*
X51830109Y-56270213D01*
X51679786Y-56119890D01*
X51507820Y-55994951D01*
X51318414Y-55898444D01*
X51318413Y-55898443D01*
X51318412Y-55898443D01*
X51116243Y-55832754D01*
X51116241Y-55832753D01*
X51116240Y-55832753D01*
X50954957Y-55807208D01*
X50906287Y-55799500D01*
X50693713Y-55799500D01*
X50645042Y-55807208D01*
X50483760Y-55832753D01*
X50281585Y-55898444D01*
X50092179Y-55994951D01*
X49920213Y-56119890D01*
X49769890Y-56270213D01*
X49644949Y-56442182D01*
X49640484Y-56450946D01*
X49592509Y-56501742D01*
X49524688Y-56518536D01*
X49458553Y-56495998D01*
X49419516Y-56450946D01*
X49415050Y-56442182D01*
X49290109Y-56270213D01*
X49139786Y-56119890D01*
X48967820Y-55994951D01*
X48778414Y-55898444D01*
X48778413Y-55898443D01*
X48778412Y-55898443D01*
X48576243Y-55832754D01*
X48576241Y-55832753D01*
X48576240Y-55832753D01*
X48414957Y-55807208D01*
X48366287Y-55799500D01*
X48153713Y-55799500D01*
X48105042Y-55807208D01*
X47943760Y-55832753D01*
X47741585Y-55898444D01*
X47552179Y-55994951D01*
X47380213Y-56119890D01*
X47229890Y-56270213D01*
X47104949Y-56442182D01*
X47100484Y-56450946D01*
X47052509Y-56501742D01*
X46984688Y-56518536D01*
X46918553Y-56495998D01*
X46879516Y-56450946D01*
X46875050Y-56442182D01*
X46750109Y-56270213D01*
X46599786Y-56119890D01*
X46427820Y-55994951D01*
X46238414Y-55898444D01*
X46238413Y-55898443D01*
X46238412Y-55898443D01*
X46036243Y-55832754D01*
X46036241Y-55832753D01*
X46036240Y-55832753D01*
X45874957Y-55807208D01*
X45826287Y-55799500D01*
X45613713Y-55799500D01*
X45565042Y-55807208D01*
X45403760Y-55832753D01*
X45201585Y-55898444D01*
X45012179Y-55994951D01*
X44840213Y-56119890D01*
X44689890Y-56270213D01*
X44564949Y-56442182D01*
X44560484Y-56450946D01*
X44512509Y-56501742D01*
X44444688Y-56518536D01*
X44378553Y-56495998D01*
X44339516Y-56450946D01*
X44335050Y-56442182D01*
X44210109Y-56270213D01*
X44059786Y-56119890D01*
X43887820Y-55994951D01*
X43698414Y-55898444D01*
X43698413Y-55898443D01*
X43698412Y-55898443D01*
X43496243Y-55832754D01*
X43496241Y-55832753D01*
X43496240Y-55832753D01*
X43334957Y-55807208D01*
X43286287Y-55799500D01*
X43073713Y-55799500D01*
X43025042Y-55807208D01*
X42863760Y-55832753D01*
X42661585Y-55898444D01*
X42472179Y-55994951D01*
X42300213Y-56119890D01*
X42149890Y-56270213D01*
X42024949Y-56442182D01*
X42020484Y-56450946D01*
X41972509Y-56501742D01*
X41904688Y-56518536D01*
X41838553Y-56495998D01*
X41799516Y-56450946D01*
X41795050Y-56442182D01*
X41670109Y-56270213D01*
X41519786Y-56119890D01*
X41347820Y-55994951D01*
X41158414Y-55898444D01*
X41158413Y-55898443D01*
X41158412Y-55898443D01*
X40956243Y-55832754D01*
X40956241Y-55832753D01*
X40956240Y-55832753D01*
X40794957Y-55807208D01*
X40746287Y-55799500D01*
X40533713Y-55799500D01*
X40485042Y-55807208D01*
X40323760Y-55832753D01*
X40121585Y-55898444D01*
X39932179Y-55994951D01*
X39760213Y-56119890D01*
X39609890Y-56270213D01*
X39484949Y-56442182D01*
X39480484Y-56450946D01*
X39432509Y-56501742D01*
X39364688Y-56518536D01*
X39298553Y-56495998D01*
X39259516Y-56450946D01*
X39255050Y-56442182D01*
X39130109Y-56270213D01*
X38979786Y-56119890D01*
X38807820Y-55994951D01*
X38618414Y-55898444D01*
X38618413Y-55898443D01*
X38618412Y-55898443D01*
X38416243Y-55832754D01*
X38416241Y-55832753D01*
X38416240Y-55832753D01*
X38254957Y-55807208D01*
X38206287Y-55799500D01*
X37993713Y-55799500D01*
X37945042Y-55807208D01*
X37783760Y-55832753D01*
X37581585Y-55898444D01*
X37392179Y-55994951D01*
X37220213Y-56119890D01*
X37069890Y-56270213D01*
X36944949Y-56442182D01*
X36940484Y-56450946D01*
X36892509Y-56501742D01*
X36824688Y-56518536D01*
X36758553Y-56495998D01*
X36719516Y-56450946D01*
X36715050Y-56442182D01*
X36590109Y-56270213D01*
X36439786Y-56119890D01*
X36267820Y-55994951D01*
X36078414Y-55898444D01*
X36078413Y-55898443D01*
X36078412Y-55898443D01*
X35876243Y-55832754D01*
X35876241Y-55832753D01*
X35876240Y-55832753D01*
X35714957Y-55807208D01*
X35666287Y-55799500D01*
X35453713Y-55799500D01*
X35405042Y-55807208D01*
X35243760Y-55832753D01*
X35041585Y-55898444D01*
X34852179Y-55994951D01*
X34680213Y-56119890D01*
X34529890Y-56270213D01*
X34404949Y-56442182D01*
X34400484Y-56450946D01*
X34352509Y-56501742D01*
X34284688Y-56518536D01*
X34218553Y-56495998D01*
X34179516Y-56450946D01*
X34175050Y-56442182D01*
X34050109Y-56270213D01*
X33899786Y-56119890D01*
X33727815Y-55994948D01*
X33727814Y-55994947D01*
X33688205Y-55974765D01*
X33637409Y-55926791D01*
X33620500Y-55864281D01*
X33620500Y-55545097D01*
X33640185Y-55478058D01*
X33656819Y-55457416D01*
X36407416Y-52706819D01*
X36468739Y-52673334D01*
X36495097Y-52670500D01*
X103204903Y-52670500D01*
X103271942Y-52690185D01*
G37*
G04 #@! TD.AperFunction*
G04 #@! TA.AperFunction,Conductor*
G36*
X89704075Y-67502993D02*
G01*
X89769901Y-67617007D01*
X89862993Y-67710099D01*
X89977007Y-67775925D01*
X90040591Y-67792962D01*
X89439971Y-68393581D01*
X89518711Y-68510895D01*
X89519920Y-68514729D01*
X89522844Y-68517491D01*
X89530343Y-68547778D01*
X89539727Y-68577529D01*
X89538671Y-68581408D01*
X89539638Y-68585312D01*
X89529573Y-68614844D01*
X89521383Y-68644947D01*
X89518397Y-68647640D01*
X89517100Y-68651447D01*
X89472051Y-68690483D01*
X89462440Y-68695380D01*
X89408282Y-68734727D01*
X89408282Y-68734728D01*
X90040591Y-69367037D01*
X89977007Y-69384075D01*
X89862993Y-69449901D01*
X89769901Y-69542993D01*
X89704075Y-69657007D01*
X89687037Y-69720591D01*
X89054728Y-69088282D01*
X89054727Y-69088282D01*
X89015380Y-69142440D01*
X89015376Y-69142446D01*
X89010760Y-69151505D01*
X88962781Y-69202297D01*
X88894959Y-69219087D01*
X88828826Y-69196543D01*
X88789794Y-69151493D01*
X88785051Y-69142184D01*
X88785049Y-69142181D01*
X88785048Y-69142179D01*
X88660109Y-68970213D01*
X88509786Y-68819890D01*
X88337820Y-68694951D01*
X88337115Y-68694591D01*
X88329054Y-68690485D01*
X88278259Y-68642512D01*
X88261463Y-68574692D01*
X88283999Y-68508556D01*
X88329054Y-68469515D01*
X88337816Y-68465051D01*
X88436187Y-68393581D01*
X88509786Y-68340109D01*
X88509788Y-68340106D01*
X88509792Y-68340104D01*
X88660104Y-68189792D01*
X88660106Y-68189788D01*
X88660109Y-68189786D01*
X88745890Y-68071717D01*
X88785051Y-68017816D01*
X88789793Y-68008508D01*
X88837763Y-67957711D01*
X88905583Y-67940911D01*
X88971719Y-67963445D01*
X89010763Y-68008500D01*
X89015373Y-68017547D01*
X89054728Y-68071716D01*
X89687037Y-67439408D01*
X89704075Y-67502993D01*
G37*
G04 #@! TD.AperFunction*
G04 #@! TA.AperFunction,Conductor*
G36*
X100175270Y-68071717D02*
G01*
X100175270Y-68071716D01*
X100214622Y-68017555D01*
X100219232Y-68008507D01*
X100267205Y-67957709D01*
X100335025Y-67940912D01*
X100401161Y-67963447D01*
X100440204Y-68008504D01*
X100444949Y-68017817D01*
X100569890Y-68189786D01*
X100720213Y-68340109D01*
X100892182Y-68465050D01*
X100900946Y-68469516D01*
X100951742Y-68517491D01*
X100968536Y-68585312D01*
X100945998Y-68651447D01*
X100900946Y-68690484D01*
X100892182Y-68694949D01*
X100720213Y-68819890D01*
X100569890Y-68970213D01*
X100444949Y-69142182D01*
X100440202Y-69151499D01*
X100392227Y-69202293D01*
X100324405Y-69219087D01*
X100258271Y-69196548D01*
X100219234Y-69151495D01*
X100214626Y-69142452D01*
X100175270Y-69088282D01*
X100175269Y-69088282D01*
X99542962Y-69720589D01*
X99525925Y-69657007D01*
X99460099Y-69542993D01*
X99367007Y-69449901D01*
X99252993Y-69384075D01*
X99189409Y-69367037D01*
X99821716Y-68734728D01*
X99767550Y-68695375D01*
X99757954Y-68690486D01*
X99707157Y-68642512D01*
X99690361Y-68574692D01*
X99712897Y-68508556D01*
X99757954Y-68469514D01*
X99767554Y-68464622D01*
X99821716Y-68425270D01*
X99821717Y-68425270D01*
X99189408Y-67792962D01*
X99252993Y-67775925D01*
X99367007Y-67710099D01*
X99460099Y-67617007D01*
X99525925Y-67502993D01*
X99542962Y-67439408D01*
X100175270Y-68071717D01*
G37*
G04 #@! TD.AperFunction*
G04 #@! TA.AperFunction,Conductor*
G36*
X89704075Y-64962993D02*
G01*
X89769901Y-65077007D01*
X89862993Y-65170099D01*
X89977007Y-65235925D01*
X90040591Y-65252962D01*
X89439971Y-65853581D01*
X89518711Y-65970895D01*
X89519920Y-65974729D01*
X89522844Y-65977491D01*
X89530343Y-66007778D01*
X89539727Y-66037529D01*
X89538671Y-66041408D01*
X89539638Y-66045312D01*
X89529573Y-66074844D01*
X89521383Y-66104947D01*
X89518397Y-66107640D01*
X89517100Y-66111447D01*
X89472051Y-66150483D01*
X89462440Y-66155380D01*
X89408282Y-66194727D01*
X89408282Y-66194728D01*
X90040591Y-66827037D01*
X89977007Y-66844075D01*
X89862993Y-66909901D01*
X89769901Y-67002993D01*
X89704075Y-67117007D01*
X89687037Y-67180591D01*
X89054728Y-66548282D01*
X89054727Y-66548282D01*
X89015380Y-66602440D01*
X89015376Y-66602446D01*
X89010760Y-66611505D01*
X88962781Y-66662297D01*
X88894959Y-66679087D01*
X88828826Y-66656543D01*
X88789794Y-66611493D01*
X88785051Y-66602184D01*
X88785049Y-66602181D01*
X88785048Y-66602179D01*
X88660109Y-66430213D01*
X88509786Y-66279890D01*
X88337820Y-66154951D01*
X88337115Y-66154591D01*
X88329054Y-66150485D01*
X88278259Y-66102512D01*
X88261463Y-66034692D01*
X88283999Y-65968556D01*
X88329054Y-65929515D01*
X88337816Y-65925051D01*
X88436187Y-65853581D01*
X88509786Y-65800109D01*
X88509788Y-65800106D01*
X88509792Y-65800104D01*
X88660104Y-65649792D01*
X88660106Y-65649788D01*
X88660109Y-65649786D01*
X88745890Y-65531717D01*
X88785051Y-65477816D01*
X88789793Y-65468508D01*
X88837763Y-65417711D01*
X88905583Y-65400911D01*
X88971719Y-65423445D01*
X89010763Y-65468500D01*
X89015373Y-65477547D01*
X89054728Y-65531716D01*
X89687037Y-64899408D01*
X89704075Y-64962993D01*
G37*
G04 #@! TD.AperFunction*
G04 #@! TA.AperFunction,Conductor*
G36*
X100175270Y-65531717D02*
G01*
X100175270Y-65531716D01*
X100214622Y-65477555D01*
X100219232Y-65468507D01*
X100267205Y-65417709D01*
X100335025Y-65400912D01*
X100401161Y-65423447D01*
X100440204Y-65468504D01*
X100444949Y-65477817D01*
X100569890Y-65649786D01*
X100720213Y-65800109D01*
X100892182Y-65925050D01*
X100900946Y-65929516D01*
X100951742Y-65977491D01*
X100968536Y-66045312D01*
X100945998Y-66111447D01*
X100900946Y-66150484D01*
X100892182Y-66154949D01*
X100720213Y-66279890D01*
X100569890Y-66430213D01*
X100444949Y-66602182D01*
X100440202Y-66611499D01*
X100392227Y-66662293D01*
X100324405Y-66679087D01*
X100258271Y-66656548D01*
X100219234Y-66611495D01*
X100214626Y-66602452D01*
X100175270Y-66548282D01*
X100175269Y-66548282D01*
X99542962Y-67180590D01*
X99525925Y-67117007D01*
X99460099Y-67002993D01*
X99367007Y-66909901D01*
X99252993Y-66844075D01*
X99189409Y-66827037D01*
X99821716Y-66194728D01*
X99767550Y-66155375D01*
X99757954Y-66150486D01*
X99707157Y-66102512D01*
X99690361Y-66034692D01*
X99712897Y-65968556D01*
X99757954Y-65929514D01*
X99767554Y-65924622D01*
X99821716Y-65885270D01*
X99821717Y-65885270D01*
X99189408Y-65252962D01*
X99252993Y-65235925D01*
X99367007Y-65170099D01*
X99460099Y-65077007D01*
X99525925Y-64962993D01*
X99542962Y-64899408D01*
X100175270Y-65531717D01*
G37*
G04 #@! TD.AperFunction*
G04 #@! TA.AperFunction,Conductor*
G36*
X89704075Y-62422993D02*
G01*
X89769901Y-62537007D01*
X89862993Y-62630099D01*
X89977007Y-62695925D01*
X90040591Y-62712962D01*
X89439971Y-63313581D01*
X89518711Y-63430895D01*
X89519920Y-63434729D01*
X89522844Y-63437491D01*
X89530343Y-63467778D01*
X89539727Y-63497529D01*
X89538671Y-63501408D01*
X89539638Y-63505312D01*
X89529573Y-63534844D01*
X89521383Y-63564947D01*
X89518397Y-63567640D01*
X89517100Y-63571447D01*
X89472051Y-63610483D01*
X89462440Y-63615380D01*
X89408282Y-63654727D01*
X89408282Y-63654728D01*
X90040591Y-64287037D01*
X89977007Y-64304075D01*
X89862993Y-64369901D01*
X89769901Y-64462993D01*
X89704075Y-64577007D01*
X89687037Y-64640591D01*
X89054728Y-64008282D01*
X89054727Y-64008282D01*
X89015380Y-64062440D01*
X89015376Y-64062446D01*
X89010760Y-64071505D01*
X88962781Y-64122297D01*
X88894959Y-64139087D01*
X88828826Y-64116543D01*
X88789794Y-64071493D01*
X88785051Y-64062184D01*
X88785049Y-64062181D01*
X88785048Y-64062179D01*
X88660109Y-63890213D01*
X88509786Y-63739890D01*
X88337820Y-63614951D01*
X88337115Y-63614591D01*
X88329054Y-63610485D01*
X88278259Y-63562512D01*
X88261463Y-63494692D01*
X88283999Y-63428556D01*
X88329054Y-63389515D01*
X88337816Y-63385051D01*
X88471969Y-63287584D01*
X88509786Y-63260109D01*
X88509788Y-63260106D01*
X88509792Y-63260104D01*
X88660104Y-63109792D01*
X88660106Y-63109788D01*
X88660109Y-63109786D01*
X88745890Y-62991717D01*
X88785051Y-62937816D01*
X88789793Y-62928508D01*
X88837763Y-62877711D01*
X88905583Y-62860911D01*
X88971719Y-62883445D01*
X89010763Y-62928500D01*
X89015373Y-62937547D01*
X89054728Y-62991716D01*
X89687036Y-62359407D01*
X89704075Y-62422993D01*
G37*
G04 #@! TD.AperFunction*
G04 #@! TA.AperFunction,Conductor*
G36*
X100175270Y-62991717D02*
G01*
X100175270Y-62991716D01*
X100214622Y-62937555D01*
X100219232Y-62928507D01*
X100267205Y-62877709D01*
X100335025Y-62860912D01*
X100401161Y-62883447D01*
X100440204Y-62928504D01*
X100444949Y-62937817D01*
X100569890Y-63109786D01*
X100720213Y-63260109D01*
X100892182Y-63385050D01*
X100900946Y-63389516D01*
X100951742Y-63437491D01*
X100968536Y-63505312D01*
X100945998Y-63571447D01*
X100900946Y-63610484D01*
X100892182Y-63614949D01*
X100720213Y-63739890D01*
X100569890Y-63890213D01*
X100444949Y-64062182D01*
X100440202Y-64071499D01*
X100392227Y-64122293D01*
X100324405Y-64139087D01*
X100258271Y-64116548D01*
X100219234Y-64071495D01*
X100214626Y-64062452D01*
X100175270Y-64008282D01*
X100175269Y-64008282D01*
X99542962Y-64640590D01*
X99525925Y-64577007D01*
X99460099Y-64462993D01*
X99367007Y-64369901D01*
X99252993Y-64304075D01*
X99189409Y-64287037D01*
X99821716Y-63654728D01*
X99767550Y-63615375D01*
X99757954Y-63610486D01*
X99707157Y-63562512D01*
X99690361Y-63494692D01*
X99712897Y-63428556D01*
X99757954Y-63389514D01*
X99767554Y-63384622D01*
X99821716Y-63345270D01*
X99821717Y-63345270D01*
X99189408Y-62712962D01*
X99252993Y-62695925D01*
X99367007Y-62630099D01*
X99460099Y-62537007D01*
X99525925Y-62422993D01*
X99542962Y-62359408D01*
X100175270Y-62991717D01*
G37*
G04 #@! TD.AperFunction*
G04 #@! TA.AperFunction,Conductor*
G36*
X101134075Y-59882993D02*
G01*
X101199901Y-59997007D01*
X101292993Y-60090099D01*
X101407007Y-60155925D01*
X101470590Y-60172962D01*
X100838282Y-60805269D01*
X100838282Y-60805270D01*
X100892452Y-60844626D01*
X100892451Y-60844626D01*
X100901495Y-60849234D01*
X100952292Y-60897208D01*
X100969087Y-60965029D01*
X100946550Y-61031164D01*
X100901499Y-61070202D01*
X100892182Y-61074949D01*
X100720213Y-61199890D01*
X100569890Y-61350213D01*
X100444949Y-61522182D01*
X100440202Y-61531499D01*
X100392227Y-61582293D01*
X100324405Y-61599087D01*
X100258271Y-61576548D01*
X100219234Y-61531495D01*
X100214626Y-61522452D01*
X100175270Y-61468282D01*
X100175269Y-61468282D01*
X99542962Y-62100590D01*
X99525925Y-62037007D01*
X99460099Y-61922993D01*
X99367007Y-61829901D01*
X99252993Y-61764075D01*
X99189409Y-61747037D01*
X99821716Y-61114728D01*
X99767550Y-61075375D01*
X99757954Y-61070486D01*
X99707157Y-61022512D01*
X99690361Y-60954692D01*
X99712897Y-60888556D01*
X99757954Y-60849514D01*
X99767554Y-60844622D01*
X99821716Y-60805270D01*
X99821717Y-60805270D01*
X99189408Y-60172962D01*
X99252993Y-60155925D01*
X99367007Y-60090099D01*
X99460099Y-59997007D01*
X99525925Y-59882993D01*
X99542962Y-59819408D01*
X100175270Y-60451717D01*
X100175270Y-60451716D01*
X100214622Y-60397554D01*
X100219514Y-60387954D01*
X100267488Y-60337157D01*
X100335308Y-60320361D01*
X100401444Y-60342897D01*
X100440486Y-60387954D01*
X100445375Y-60397550D01*
X100484728Y-60451716D01*
X101117037Y-59819408D01*
X101134075Y-59882993D01*
G37*
G04 #@! TD.AperFunction*
G04 #@! TA.AperFunction,Conductor*
G36*
X100401444Y-57803999D02*
G01*
X100440486Y-57849056D01*
X100444951Y-57857820D01*
X100569890Y-58029786D01*
X100720213Y-58180109D01*
X100892179Y-58305048D01*
X100892181Y-58305049D01*
X100892184Y-58305051D01*
X100901493Y-58309794D01*
X100952290Y-58357766D01*
X100969087Y-58425587D01*
X100946552Y-58491722D01*
X100901505Y-58530760D01*
X100892446Y-58535376D01*
X100892440Y-58535380D01*
X100838282Y-58574727D01*
X100838282Y-58574728D01*
X101470591Y-59207037D01*
X101407007Y-59224075D01*
X101292993Y-59289901D01*
X101199901Y-59382993D01*
X101134075Y-59497007D01*
X101117037Y-59560591D01*
X100484728Y-58928282D01*
X100484727Y-58928282D01*
X100445380Y-58982440D01*
X100440483Y-58992051D01*
X100392506Y-59042845D01*
X100324684Y-59059638D01*
X100258550Y-59037098D01*
X100219516Y-58992048D01*
X100214626Y-58982452D01*
X100175270Y-58928282D01*
X100175269Y-58928282D01*
X99542962Y-59560590D01*
X99525925Y-59497007D01*
X99460099Y-59382993D01*
X99367007Y-59289901D01*
X99252993Y-59224075D01*
X99189409Y-59207037D01*
X99821716Y-58574728D01*
X99767547Y-58535373D01*
X99767547Y-58535372D01*
X99758500Y-58530763D01*
X99707706Y-58482788D01*
X99690912Y-58414966D01*
X99713451Y-58348832D01*
X99758508Y-58309793D01*
X99767816Y-58305051D01*
X99854147Y-58242328D01*
X99939786Y-58180109D01*
X99939788Y-58180106D01*
X99939792Y-58180104D01*
X100090104Y-58029792D01*
X100090106Y-58029788D01*
X100090109Y-58029786D01*
X100215048Y-57857820D01*
X100215050Y-57857817D01*
X100215051Y-57857816D01*
X100219514Y-57849054D01*
X100267488Y-57798259D01*
X100335308Y-57781463D01*
X100401444Y-57803999D01*
G37*
G04 #@! TD.AperFunction*
G04 #@! TA.AperFunction,Conductor*
G36*
X84677941Y-57770185D02*
G01*
X84723696Y-57822989D01*
X84733640Y-57892147D01*
X84704615Y-57955703D01*
X84698583Y-57962181D01*
X84609478Y-58051286D01*
X83607584Y-59053181D01*
X83546261Y-59086666D01*
X83519903Y-59089500D01*
X51735098Y-59089500D01*
X51668059Y-59069815D01*
X51647417Y-59053181D01*
X51436819Y-58842583D01*
X51403334Y-58781260D01*
X51400500Y-58754902D01*
X51400500Y-58435718D01*
X51420185Y-58368679D01*
X51468207Y-58325233D01*
X51507815Y-58305052D01*
X51507815Y-58305051D01*
X51507816Y-58305051D01*
X51599193Y-58238661D01*
X51679786Y-58180109D01*
X51679788Y-58180106D01*
X51679792Y-58180104D01*
X51830104Y-58029792D01*
X51830106Y-58029788D01*
X51830109Y-58029786D01*
X51955048Y-57857820D01*
X51955050Y-57857817D01*
X51955051Y-57857816D01*
X51959514Y-57849054D01*
X52007488Y-57798259D01*
X52075308Y-57781463D01*
X52141444Y-57803999D01*
X52180486Y-57849056D01*
X52184951Y-57857820D01*
X52309890Y-58029786D01*
X52460213Y-58180109D01*
X52632179Y-58305048D01*
X52632181Y-58305049D01*
X52632184Y-58305051D01*
X52821588Y-58401557D01*
X53023757Y-58467246D01*
X53233713Y-58500500D01*
X53233714Y-58500500D01*
X53446286Y-58500500D01*
X53446287Y-58500500D01*
X53656243Y-58467246D01*
X53858412Y-58401557D01*
X54047816Y-58305051D01*
X54134138Y-58242335D01*
X54219786Y-58180109D01*
X54219788Y-58180106D01*
X54219792Y-58180104D01*
X54370104Y-58029792D01*
X54370106Y-58029788D01*
X54370109Y-58029786D01*
X54495048Y-57857820D01*
X54495050Y-57857817D01*
X54495051Y-57857816D01*
X54499514Y-57849054D01*
X54547488Y-57798259D01*
X54615308Y-57781463D01*
X54681444Y-57803999D01*
X54720486Y-57849056D01*
X54724951Y-57857820D01*
X54849890Y-58029786D01*
X55000213Y-58180109D01*
X55172179Y-58305048D01*
X55172181Y-58305049D01*
X55172184Y-58305051D01*
X55361588Y-58401557D01*
X55563757Y-58467246D01*
X55773713Y-58500500D01*
X55773714Y-58500500D01*
X55986286Y-58500500D01*
X55986287Y-58500500D01*
X56196243Y-58467246D01*
X56398412Y-58401557D01*
X56587816Y-58305051D01*
X56674138Y-58242335D01*
X56759786Y-58180109D01*
X56759788Y-58180106D01*
X56759792Y-58180104D01*
X56910104Y-58029792D01*
X56910106Y-58029788D01*
X56910109Y-58029786D01*
X57035048Y-57857820D01*
X57035050Y-57857817D01*
X57035051Y-57857816D01*
X57039514Y-57849054D01*
X57087488Y-57798259D01*
X57155308Y-57781463D01*
X57221444Y-57803999D01*
X57260486Y-57849056D01*
X57264951Y-57857820D01*
X57389890Y-58029786D01*
X57540213Y-58180109D01*
X57712179Y-58305048D01*
X57712181Y-58305049D01*
X57712184Y-58305051D01*
X57901588Y-58401557D01*
X58103757Y-58467246D01*
X58313713Y-58500500D01*
X58313714Y-58500500D01*
X58526286Y-58500500D01*
X58526287Y-58500500D01*
X58736243Y-58467246D01*
X58938412Y-58401557D01*
X59127816Y-58305051D01*
X59214138Y-58242335D01*
X59299786Y-58180109D01*
X59299788Y-58180106D01*
X59299792Y-58180104D01*
X59450104Y-58029792D01*
X59450106Y-58029788D01*
X59450109Y-58029786D01*
X59575048Y-57857820D01*
X59575050Y-57857817D01*
X59575051Y-57857816D01*
X59579514Y-57849054D01*
X59627488Y-57798259D01*
X59695308Y-57781463D01*
X59761444Y-57803999D01*
X59800486Y-57849056D01*
X59804951Y-57857820D01*
X59929890Y-58029786D01*
X60080213Y-58180109D01*
X60252179Y-58305048D01*
X60252181Y-58305049D01*
X60252184Y-58305051D01*
X60441588Y-58401557D01*
X60643757Y-58467246D01*
X60853713Y-58500500D01*
X60853714Y-58500500D01*
X61066286Y-58500500D01*
X61066287Y-58500500D01*
X61276243Y-58467246D01*
X61478412Y-58401557D01*
X61667816Y-58305051D01*
X61754138Y-58242335D01*
X61839786Y-58180109D01*
X61839788Y-58180106D01*
X61839792Y-58180104D01*
X61990104Y-58029792D01*
X61990106Y-58029788D01*
X61990109Y-58029786D01*
X62115048Y-57857820D01*
X62115050Y-57857817D01*
X62115051Y-57857816D01*
X62119514Y-57849054D01*
X62167488Y-57798259D01*
X62235308Y-57781463D01*
X62301444Y-57803999D01*
X62340486Y-57849056D01*
X62344951Y-57857820D01*
X62469890Y-58029786D01*
X62620213Y-58180109D01*
X62792179Y-58305048D01*
X62792181Y-58305049D01*
X62792184Y-58305051D01*
X62981588Y-58401557D01*
X63183757Y-58467246D01*
X63393713Y-58500500D01*
X63393714Y-58500500D01*
X63606286Y-58500500D01*
X63606287Y-58500500D01*
X63816243Y-58467246D01*
X64018412Y-58401557D01*
X64207816Y-58305051D01*
X64294138Y-58242335D01*
X64379786Y-58180109D01*
X64379788Y-58180106D01*
X64379792Y-58180104D01*
X64530104Y-58029792D01*
X64530106Y-58029788D01*
X64530109Y-58029786D01*
X64655048Y-57857820D01*
X64655050Y-57857817D01*
X64655051Y-57857816D01*
X64659514Y-57849054D01*
X64707488Y-57798259D01*
X64775308Y-57781463D01*
X64841444Y-57803999D01*
X64880486Y-57849056D01*
X64884951Y-57857820D01*
X65009890Y-58029786D01*
X65160213Y-58180109D01*
X65332179Y-58305048D01*
X65332181Y-58305049D01*
X65332184Y-58305051D01*
X65521588Y-58401557D01*
X65723757Y-58467246D01*
X65933713Y-58500500D01*
X65933714Y-58500500D01*
X66146286Y-58500500D01*
X66146287Y-58500500D01*
X66356243Y-58467246D01*
X66558412Y-58401557D01*
X66747816Y-58305051D01*
X66834138Y-58242335D01*
X66919786Y-58180109D01*
X66919788Y-58180106D01*
X66919792Y-58180104D01*
X67070104Y-58029792D01*
X67070106Y-58029788D01*
X67070109Y-58029786D01*
X67195048Y-57857820D01*
X67195050Y-57857817D01*
X67195051Y-57857816D01*
X67199514Y-57849054D01*
X67247488Y-57798259D01*
X67315308Y-57781463D01*
X67381444Y-57803999D01*
X67420486Y-57849056D01*
X67424951Y-57857820D01*
X67549890Y-58029786D01*
X67700213Y-58180109D01*
X67872179Y-58305048D01*
X67872181Y-58305049D01*
X67872184Y-58305051D01*
X68061588Y-58401557D01*
X68263757Y-58467246D01*
X68473713Y-58500500D01*
X68473714Y-58500500D01*
X68686286Y-58500500D01*
X68686287Y-58500500D01*
X68896243Y-58467246D01*
X69098412Y-58401557D01*
X69287816Y-58305051D01*
X69374138Y-58242335D01*
X69459786Y-58180109D01*
X69459788Y-58180106D01*
X69459792Y-58180104D01*
X69610104Y-58029792D01*
X69610106Y-58029788D01*
X69610109Y-58029786D01*
X69735048Y-57857820D01*
X69735050Y-57857817D01*
X69735051Y-57857816D01*
X69739514Y-57849054D01*
X69787488Y-57798259D01*
X69855308Y-57781463D01*
X69921444Y-57803999D01*
X69960486Y-57849056D01*
X69964951Y-57857820D01*
X70089890Y-58029786D01*
X70240213Y-58180109D01*
X70412179Y-58305048D01*
X70412181Y-58305049D01*
X70412184Y-58305051D01*
X70601588Y-58401557D01*
X70803757Y-58467246D01*
X71013713Y-58500500D01*
X71013714Y-58500500D01*
X71226286Y-58500500D01*
X71226287Y-58500500D01*
X71436243Y-58467246D01*
X71638412Y-58401557D01*
X71827816Y-58305051D01*
X71999792Y-58180104D01*
X72113329Y-58066566D01*
X72174648Y-58033084D01*
X72244340Y-58038068D01*
X72300274Y-58079939D01*
X72317189Y-58110917D01*
X72366202Y-58242328D01*
X72366206Y-58242335D01*
X72452452Y-58357544D01*
X72452455Y-58357547D01*
X72567664Y-58443793D01*
X72567671Y-58443797D01*
X72702517Y-58494091D01*
X72702516Y-58494091D01*
X72709444Y-58494835D01*
X72762127Y-58500500D01*
X74557872Y-58500499D01*
X74617483Y-58494091D01*
X74752331Y-58443796D01*
X74867546Y-58357546D01*
X74953796Y-58242331D01*
X75004091Y-58107483D01*
X75010500Y-58047873D01*
X75010500Y-57874500D01*
X75030185Y-57807461D01*
X75082989Y-57761706D01*
X75134500Y-57750500D01*
X84610902Y-57750500D01*
X84677941Y-57770185D01*
G37*
G04 #@! TD.AperFunction*
G04 #@! TA.AperFunction,Conductor*
G36*
X83586942Y-55230185D02*
G01*
X83607584Y-55246819D01*
X84609478Y-56248713D01*
X84609480Y-56248716D01*
X84698585Y-56337821D01*
X84708415Y-56355825D01*
X84732068Y-56399141D01*
X84732067Y-56399142D01*
X84732068Y-56399143D01*
X84727084Y-56468834D01*
X84685212Y-56524768D01*
X84655315Y-56535918D01*
X84619749Y-56549184D01*
X84610902Y-56549500D01*
X75134499Y-56549500D01*
X75067460Y-56529815D01*
X75021705Y-56477011D01*
X75010499Y-56425500D01*
X75010499Y-56252129D01*
X75010498Y-56252123D01*
X75010131Y-56248713D01*
X75004091Y-56192517D01*
X75002810Y-56189083D01*
X74953797Y-56057671D01*
X74953793Y-56057664D01*
X74867547Y-55942455D01*
X74867544Y-55942452D01*
X74752335Y-55856206D01*
X74752328Y-55856202D01*
X74617482Y-55805908D01*
X74617483Y-55805908D01*
X74557883Y-55799501D01*
X74557881Y-55799500D01*
X74557873Y-55799500D01*
X74557864Y-55799500D01*
X72762129Y-55799500D01*
X72762123Y-55799501D01*
X72702516Y-55805908D01*
X72567671Y-55856202D01*
X72567664Y-55856206D01*
X72452455Y-55942452D01*
X72452452Y-55942455D01*
X72366206Y-56057664D01*
X72366203Y-56057669D01*
X72317189Y-56189083D01*
X72275317Y-56245016D01*
X72209853Y-56269433D01*
X72141580Y-56254581D01*
X72113326Y-56233430D01*
X71999786Y-56119890D01*
X71827820Y-55994951D01*
X71638414Y-55898444D01*
X71638413Y-55898443D01*
X71638412Y-55898443D01*
X71436243Y-55832754D01*
X71436241Y-55832753D01*
X71436240Y-55832753D01*
X71274957Y-55807208D01*
X71226287Y-55799500D01*
X71013713Y-55799500D01*
X70965042Y-55807208D01*
X70803760Y-55832753D01*
X70601585Y-55898444D01*
X70412179Y-55994951D01*
X70240213Y-56119890D01*
X70089890Y-56270213D01*
X69964949Y-56442182D01*
X69960484Y-56450946D01*
X69912509Y-56501742D01*
X69844688Y-56518536D01*
X69778553Y-56495998D01*
X69739516Y-56450946D01*
X69735050Y-56442182D01*
X69610109Y-56270213D01*
X69459786Y-56119890D01*
X69287820Y-55994951D01*
X69098414Y-55898444D01*
X69098413Y-55898443D01*
X69098412Y-55898443D01*
X68896243Y-55832754D01*
X68896241Y-55832753D01*
X68896240Y-55832753D01*
X68734957Y-55807208D01*
X68686287Y-55799500D01*
X68473713Y-55799500D01*
X68425042Y-55807208D01*
X68263760Y-55832753D01*
X68061585Y-55898444D01*
X67872179Y-55994951D01*
X67700213Y-56119890D01*
X67549890Y-56270213D01*
X67424949Y-56442182D01*
X67420484Y-56450946D01*
X67372509Y-56501742D01*
X67304688Y-56518536D01*
X67238553Y-56495998D01*
X67199516Y-56450946D01*
X67195050Y-56442182D01*
X67070109Y-56270213D01*
X66919786Y-56119890D01*
X66747820Y-55994951D01*
X66558414Y-55898444D01*
X66558413Y-55898443D01*
X66558412Y-55898443D01*
X66356243Y-55832754D01*
X66356241Y-55832753D01*
X66356240Y-55832753D01*
X66194957Y-55807208D01*
X66146287Y-55799500D01*
X65933713Y-55799500D01*
X65885042Y-55807208D01*
X65723760Y-55832753D01*
X65521585Y-55898444D01*
X65332179Y-55994951D01*
X65160213Y-56119890D01*
X65009890Y-56270213D01*
X64884949Y-56442182D01*
X64880484Y-56450946D01*
X64832509Y-56501742D01*
X64764688Y-56518536D01*
X64698553Y-56495998D01*
X64659516Y-56450946D01*
X64655050Y-56442182D01*
X64530109Y-56270213D01*
X64379786Y-56119890D01*
X64207820Y-55994951D01*
X64018414Y-55898444D01*
X64018413Y-55898443D01*
X64018412Y-55898443D01*
X63816243Y-55832754D01*
X63816241Y-55832753D01*
X63816240Y-55832753D01*
X63654957Y-55807208D01*
X63606287Y-55799500D01*
X63393713Y-55799500D01*
X63345042Y-55807208D01*
X63183760Y-55832753D01*
X62981585Y-55898444D01*
X62792179Y-55994951D01*
X62620213Y-56119890D01*
X62469890Y-56270213D01*
X62344949Y-56442182D01*
X62340484Y-56450946D01*
X62292509Y-56501742D01*
X62224688Y-56518536D01*
X62158553Y-56495998D01*
X62119516Y-56450946D01*
X62115050Y-56442182D01*
X61990109Y-56270213D01*
X61839786Y-56119890D01*
X61667820Y-55994951D01*
X61478414Y-55898444D01*
X61478413Y-55898443D01*
X61478412Y-55898443D01*
X61276243Y-55832754D01*
X61276241Y-55832753D01*
X61276240Y-55832753D01*
X61114957Y-55807208D01*
X61066287Y-55799500D01*
X60853713Y-55799500D01*
X60805042Y-55807208D01*
X60643760Y-55832753D01*
X60441585Y-55898444D01*
X60252179Y-55994951D01*
X60080213Y-56119890D01*
X59929890Y-56270213D01*
X59804949Y-56442182D01*
X59800484Y-56450946D01*
X59752509Y-56501742D01*
X59684688Y-56518536D01*
X59618553Y-56495998D01*
X59579516Y-56450946D01*
X59575050Y-56442182D01*
X59450109Y-56270213D01*
X59299786Y-56119890D01*
X59127820Y-55994951D01*
X58938414Y-55898444D01*
X58938413Y-55898443D01*
X58938412Y-55898443D01*
X58736243Y-55832754D01*
X58736241Y-55832753D01*
X58736240Y-55832753D01*
X58574957Y-55807208D01*
X58526287Y-55799500D01*
X58313713Y-55799500D01*
X58265042Y-55807208D01*
X58103760Y-55832753D01*
X57901585Y-55898444D01*
X57712179Y-55994951D01*
X57540213Y-56119890D01*
X57389890Y-56270213D01*
X57264949Y-56442182D01*
X57260484Y-56450946D01*
X57212509Y-56501742D01*
X57144688Y-56518536D01*
X57078553Y-56495998D01*
X57039516Y-56450946D01*
X57035050Y-56442182D01*
X56910109Y-56270213D01*
X56759786Y-56119890D01*
X56587820Y-55994951D01*
X56398414Y-55898444D01*
X56398413Y-55898443D01*
X56398412Y-55898443D01*
X56196243Y-55832754D01*
X56196241Y-55832753D01*
X56196240Y-55832753D01*
X56034957Y-55807208D01*
X55986287Y-55799500D01*
X55773713Y-55799500D01*
X55725042Y-55807208D01*
X55563760Y-55832753D01*
X55361585Y-55898444D01*
X55172179Y-55994951D01*
X55000213Y-56119890D01*
X54849890Y-56270213D01*
X54724949Y-56442182D01*
X54720484Y-56450946D01*
X54672509Y-56501742D01*
X54604688Y-56518536D01*
X54538553Y-56495998D01*
X54499516Y-56450946D01*
X54495050Y-56442182D01*
X54370109Y-56270213D01*
X54219794Y-56119898D01*
X54219792Y-56119896D01*
X54180602Y-56091423D01*
X54137938Y-56036094D01*
X54131959Y-55966480D01*
X54164565Y-55904685D01*
X54165725Y-55903508D01*
X54822416Y-55246819D01*
X54883739Y-55213334D01*
X54910097Y-55210500D01*
X83519903Y-55210500D01*
X83586942Y-55230185D01*
G37*
G04 #@! TD.AperFunction*
G04 #@! TA.AperFunction,Conductor*
G36*
X114682539Y-15760185D02*
G01*
X114728294Y-15812989D01*
X114739500Y-15864500D01*
X114739500Y-89615500D01*
X114719815Y-89682539D01*
X114667011Y-89728294D01*
X114615500Y-89739500D01*
X15864500Y-89739500D01*
X15797461Y-89719815D01*
X15751706Y-89667011D01*
X15740500Y-89615500D01*
X15740500Y-57043753D01*
X24050000Y-57043753D01*
X24050000Y-57256246D01*
X24083242Y-57466127D01*
X24083242Y-57466130D01*
X24148904Y-57668217D01*
X24245375Y-57857550D01*
X24284728Y-57911716D01*
X24917037Y-57279408D01*
X24934075Y-57342993D01*
X24999901Y-57457007D01*
X25092993Y-57550099D01*
X25207007Y-57615925D01*
X25270590Y-57632962D01*
X24638282Y-58265269D01*
X24638282Y-58265270D01*
X24692449Y-58304624D01*
X24881782Y-58401095D01*
X25083870Y-58466757D01*
X25293754Y-58500000D01*
X25506246Y-58500000D01*
X25716127Y-58466757D01*
X25716130Y-58466757D01*
X25918217Y-58401095D01*
X26107554Y-58304622D01*
X26161716Y-58265270D01*
X26161717Y-58265270D01*
X25529408Y-57632962D01*
X25592993Y-57615925D01*
X25707007Y-57550099D01*
X25800099Y-57457007D01*
X25865925Y-57342993D01*
X25882962Y-57279408D01*
X26515270Y-57911717D01*
X26515270Y-57911716D01*
X26554622Y-57857555D01*
X26559232Y-57848507D01*
X26607205Y-57797709D01*
X26675025Y-57780912D01*
X26741161Y-57803447D01*
X26780204Y-57848504D01*
X26784949Y-57857817D01*
X26909890Y-58029786D01*
X27060213Y-58180109D01*
X27232179Y-58305048D01*
X27232181Y-58305049D01*
X27232184Y-58305051D01*
X27421588Y-58401557D01*
X27623757Y-58467246D01*
X27833713Y-58500500D01*
X27833714Y-58500500D01*
X28046286Y-58500500D01*
X28046287Y-58500500D01*
X28256243Y-58467246D01*
X28458412Y-58401557D01*
X28647816Y-58305051D01*
X28734138Y-58242335D01*
X28819786Y-58180109D01*
X28819788Y-58180106D01*
X28819792Y-58180104D01*
X28970104Y-58029792D01*
X28970106Y-58029788D01*
X28970109Y-58029786D01*
X29095048Y-57857820D01*
X29095050Y-57857817D01*
X29095051Y-57857816D01*
X29099514Y-57849054D01*
X29147488Y-57798259D01*
X29215308Y-57781463D01*
X29281444Y-57803999D01*
X29320486Y-57849056D01*
X29324951Y-57857820D01*
X29449890Y-58029786D01*
X29600213Y-58180109D01*
X29772179Y-58305048D01*
X29772181Y-58305049D01*
X29772184Y-58305051D01*
X29961588Y-58401557D01*
X30163757Y-58467246D01*
X30373713Y-58500500D01*
X30373714Y-58500500D01*
X30586286Y-58500500D01*
X30586287Y-58500500D01*
X30796243Y-58467246D01*
X30998412Y-58401557D01*
X31187816Y-58305051D01*
X31274138Y-58242335D01*
X31359786Y-58180109D01*
X31359788Y-58180106D01*
X31359792Y-58180104D01*
X31510104Y-58029792D01*
X31510106Y-58029788D01*
X31510109Y-58029786D01*
X31635048Y-57857820D01*
X31635050Y-57857817D01*
X31635051Y-57857816D01*
X31639514Y-57849054D01*
X31687488Y-57798259D01*
X31755308Y-57781463D01*
X31821444Y-57803999D01*
X31860486Y-57849056D01*
X31864951Y-57857820D01*
X31989890Y-58029786D01*
X32140213Y-58180109D01*
X32312179Y-58305048D01*
X32312181Y-58305049D01*
X32312184Y-58305051D01*
X32501588Y-58401557D01*
X32703757Y-58467246D01*
X32913713Y-58500500D01*
X32913714Y-58500500D01*
X33126286Y-58500500D01*
X33126287Y-58500500D01*
X33336243Y-58467246D01*
X33538412Y-58401557D01*
X33727816Y-58305051D01*
X33814138Y-58242335D01*
X33899786Y-58180109D01*
X33899788Y-58180106D01*
X33899792Y-58180104D01*
X34050104Y-58029792D01*
X34050106Y-58029788D01*
X34050109Y-58029786D01*
X34175048Y-57857820D01*
X34175050Y-57857817D01*
X34175051Y-57857816D01*
X34179514Y-57849054D01*
X34227488Y-57798259D01*
X34295308Y-57781463D01*
X34361444Y-57803999D01*
X34400486Y-57849056D01*
X34404951Y-57857820D01*
X34529890Y-58029786D01*
X34680213Y-58180109D01*
X34852179Y-58305048D01*
X34852181Y-58305049D01*
X34852184Y-58305051D01*
X35041588Y-58401557D01*
X35243757Y-58467246D01*
X35453713Y-58500500D01*
X35453714Y-58500500D01*
X35666286Y-58500500D01*
X35666287Y-58500500D01*
X35876243Y-58467246D01*
X36078412Y-58401557D01*
X36267816Y-58305051D01*
X36354138Y-58242335D01*
X36439786Y-58180109D01*
X36439788Y-58180106D01*
X36439792Y-58180104D01*
X36590104Y-58029792D01*
X36590106Y-58029788D01*
X36590109Y-58029786D01*
X36715048Y-57857820D01*
X36715050Y-57857817D01*
X36715051Y-57857816D01*
X36719514Y-57849054D01*
X36767488Y-57798259D01*
X36835308Y-57781463D01*
X36901444Y-57803999D01*
X36940486Y-57849056D01*
X36944951Y-57857820D01*
X37069890Y-58029786D01*
X37220213Y-58180109D01*
X37392179Y-58305048D01*
X37392181Y-58305049D01*
X37392184Y-58305051D01*
X37581588Y-58401557D01*
X37783757Y-58467246D01*
X37993713Y-58500500D01*
X37993714Y-58500500D01*
X38206286Y-58500500D01*
X38206287Y-58500500D01*
X38416243Y-58467246D01*
X38618412Y-58401557D01*
X38807816Y-58305051D01*
X38894138Y-58242335D01*
X38979786Y-58180109D01*
X38979788Y-58180106D01*
X38979792Y-58180104D01*
X39130104Y-58029792D01*
X39130106Y-58029788D01*
X39130109Y-58029786D01*
X39255048Y-57857820D01*
X39255050Y-57857817D01*
X39255051Y-57857816D01*
X39259514Y-57849054D01*
X39307488Y-57798259D01*
X39375308Y-57781463D01*
X39441444Y-57803999D01*
X39480486Y-57849056D01*
X39484951Y-57857820D01*
X39609890Y-58029786D01*
X39760213Y-58180109D01*
X39932179Y-58305048D01*
X39932181Y-58305049D01*
X39932184Y-58305051D01*
X40121588Y-58401557D01*
X40323757Y-58467246D01*
X40533713Y-58500500D01*
X40533714Y-58500500D01*
X40746286Y-58500500D01*
X40746287Y-58500500D01*
X40956243Y-58467246D01*
X41158412Y-58401557D01*
X41347816Y-58305051D01*
X41434138Y-58242335D01*
X41519786Y-58180109D01*
X41519788Y-58180106D01*
X41519792Y-58180104D01*
X41670104Y-58029792D01*
X41670106Y-58029788D01*
X41670109Y-58029786D01*
X41795048Y-57857820D01*
X41795050Y-57857817D01*
X41795051Y-57857816D01*
X41799514Y-57849054D01*
X41847488Y-57798259D01*
X41915308Y-57781463D01*
X41981444Y-57803999D01*
X42020486Y-57849056D01*
X42024951Y-57857820D01*
X42149890Y-58029786D01*
X42300213Y-58180109D01*
X42472179Y-58305048D01*
X42472181Y-58305049D01*
X42472184Y-58305051D01*
X42661588Y-58401557D01*
X42863757Y-58467246D01*
X43073713Y-58500500D01*
X43073714Y-58500500D01*
X43286286Y-58500500D01*
X43286287Y-58500500D01*
X43496243Y-58467246D01*
X43698412Y-58401557D01*
X43887816Y-58305051D01*
X43974138Y-58242335D01*
X44059786Y-58180109D01*
X44059788Y-58180106D01*
X44059792Y-58180104D01*
X44210104Y-58029792D01*
X44210106Y-58029788D01*
X44210109Y-58029786D01*
X44335048Y-57857820D01*
X44335050Y-57857817D01*
X44335051Y-57857816D01*
X44339514Y-57849054D01*
X44387488Y-57798259D01*
X44455308Y-57781463D01*
X44521444Y-57803999D01*
X44560486Y-57849056D01*
X44564951Y-57857820D01*
X44689890Y-58029786D01*
X44840213Y-58180109D01*
X45012179Y-58305048D01*
X45012181Y-58305049D01*
X45012184Y-58305051D01*
X45201588Y-58401557D01*
X45403757Y-58467246D01*
X45613713Y-58500500D01*
X45613714Y-58500500D01*
X45826286Y-58500500D01*
X45826287Y-58500500D01*
X46036243Y-58467246D01*
X46238412Y-58401557D01*
X46427816Y-58305051D01*
X46514138Y-58242335D01*
X46599786Y-58180109D01*
X46599788Y-58180106D01*
X46599792Y-58180104D01*
X46750104Y-58029792D01*
X46750106Y-58029788D01*
X46750109Y-58029786D01*
X46875048Y-57857820D01*
X46875050Y-57857817D01*
X46875051Y-57857816D01*
X46879514Y-57849054D01*
X46927488Y-57798259D01*
X46995308Y-57781463D01*
X47061444Y-57803999D01*
X47100486Y-57849056D01*
X47104951Y-57857820D01*
X47229890Y-58029786D01*
X47380213Y-58180109D01*
X47552184Y-58305051D01*
X47552184Y-58305052D01*
X47591793Y-58325233D01*
X47642590Y-58373206D01*
X47659500Y-58435718D01*
X47659500Y-58968330D01*
X47659499Y-58968348D01*
X47659499Y-59134054D01*
X47659498Y-59134054D01*
X47700424Y-59286789D01*
X47700425Y-59286790D01*
X47720340Y-59321283D01*
X47720341Y-59321284D01*
X47779477Y-59423712D01*
X47779481Y-59423717D01*
X47898349Y-59542585D01*
X47898355Y-59542590D01*
X49680139Y-61324374D01*
X49680149Y-61324385D01*
X49684479Y-61328715D01*
X49684480Y-61328716D01*
X49796284Y-61440520D01*
X49878072Y-61487739D01*
X49883095Y-61490639D01*
X49883097Y-61490641D01*
X49921151Y-61512611D01*
X49933215Y-61519577D01*
X50085943Y-61560501D01*
X50085946Y-61560501D01*
X50251653Y-61560501D01*
X50251669Y-61560500D01*
X85245902Y-61560500D01*
X85312941Y-61580185D01*
X85358696Y-61632989D01*
X85368640Y-61702147D01*
X85339615Y-61765703D01*
X85333583Y-61772181D01*
X70639481Y-76466282D01*
X70639479Y-76466284D01*
X70622571Y-76495570D01*
X70615425Y-76507949D01*
X70560423Y-76603215D01*
X70519499Y-76755943D01*
X70519499Y-76755945D01*
X70519499Y-76924046D01*
X70519500Y-76924059D01*
X70519500Y-78724281D01*
X70499815Y-78791320D01*
X70451795Y-78834765D01*
X70412185Y-78854947D01*
X70412184Y-78854948D01*
X70240213Y-78979890D01*
X70089890Y-79130213D01*
X69964949Y-79302182D01*
X69960484Y-79310946D01*
X69912509Y-79361742D01*
X69844688Y-79378536D01*
X69778553Y-79355998D01*
X69739516Y-79310946D01*
X69735050Y-79302182D01*
X69610109Y-79130213D01*
X69459786Y-78979890D01*
X69287820Y-78854951D01*
X69098414Y-78758444D01*
X69098413Y-78758443D01*
X69098412Y-78758443D01*
X68896243Y-78692754D01*
X68896241Y-78692753D01*
X68896240Y-78692753D01*
X68734957Y-78667208D01*
X68686287Y-78659500D01*
X68473713Y-78659500D01*
X68425042Y-78667208D01*
X68263760Y-78692753D01*
X68061585Y-78758444D01*
X67872179Y-78854951D01*
X67700213Y-78979890D01*
X67549890Y-79130213D01*
X67424949Y-79302182D01*
X67420484Y-79310946D01*
X67372509Y-79361742D01*
X67304688Y-79378536D01*
X67238553Y-79355998D01*
X67199516Y-79310946D01*
X67195050Y-79302182D01*
X67070109Y-79130213D01*
X66919786Y-78979890D01*
X66747820Y-78854951D01*
X66558414Y-78758444D01*
X66558413Y-78758443D01*
X66558412Y-78758443D01*
X66356243Y-78692754D01*
X66356241Y-78692753D01*
X66356240Y-78692753D01*
X66194957Y-78667208D01*
X66146287Y-78659500D01*
X65933713Y-78659500D01*
X65885042Y-78667208D01*
X65723760Y-78692753D01*
X65521585Y-78758444D01*
X65332179Y-78854951D01*
X65160213Y-78979890D01*
X65009890Y-79130213D01*
X64884949Y-79302182D01*
X64880484Y-79310946D01*
X64832509Y-79361742D01*
X64764688Y-79378536D01*
X64698553Y-79355998D01*
X64659516Y-79310946D01*
X64655050Y-79302182D01*
X64530109Y-79130213D01*
X64379786Y-78979890D01*
X64207820Y-78854951D01*
X64018414Y-78758444D01*
X64018413Y-78758443D01*
X64018412Y-78758443D01*
X63816243Y-78692754D01*
X63816241Y-78692753D01*
X63816240Y-78692753D01*
X63654957Y-78667208D01*
X63606287Y-78659500D01*
X63393713Y-78659500D01*
X63345042Y-78667208D01*
X63183760Y-78692753D01*
X62981585Y-78758444D01*
X62792179Y-78854951D01*
X62620213Y-78979890D01*
X62469890Y-79130213D01*
X62344949Y-79302182D01*
X62340484Y-79310946D01*
X62292509Y-79361742D01*
X62224688Y-79378536D01*
X62158553Y-79355998D01*
X62119516Y-79310946D01*
X62115050Y-79302182D01*
X61990109Y-79130213D01*
X61839786Y-78979890D01*
X61667820Y-78854951D01*
X61478414Y-78758444D01*
X61478413Y-78758443D01*
X61478412Y-78758443D01*
X61276243Y-78692754D01*
X61276241Y-78692753D01*
X61276240Y-78692753D01*
X61114957Y-78667208D01*
X61066287Y-78659500D01*
X60853713Y-78659500D01*
X60805042Y-78667208D01*
X60643760Y-78692753D01*
X60441585Y-78758444D01*
X60252179Y-78854951D01*
X60080213Y-78979890D01*
X59929890Y-79130213D01*
X59804949Y-79302182D01*
X59800484Y-79310946D01*
X59752509Y-79361742D01*
X59684688Y-79378536D01*
X59618553Y-79355998D01*
X59579516Y-79310946D01*
X59575050Y-79302182D01*
X59450109Y-79130213D01*
X59299786Y-78979890D01*
X59127820Y-78854951D01*
X58938414Y-78758444D01*
X58938413Y-78758443D01*
X58938412Y-78758443D01*
X58736243Y-78692754D01*
X58736241Y-78692753D01*
X58736240Y-78692753D01*
X58574957Y-78667208D01*
X58526287Y-78659500D01*
X58313713Y-78659500D01*
X58265042Y-78667208D01*
X58103760Y-78692753D01*
X57901585Y-78758444D01*
X57712179Y-78854951D01*
X57540213Y-78979890D01*
X57389890Y-79130213D01*
X57264949Y-79302182D01*
X57260484Y-79310946D01*
X57212509Y-79361742D01*
X57144688Y-79378536D01*
X57078553Y-79355998D01*
X57039516Y-79310946D01*
X57035050Y-79302182D01*
X56910109Y-79130213D01*
X56759786Y-78979890D01*
X56587820Y-78854951D01*
X56398414Y-78758444D01*
X56398413Y-78758443D01*
X56398412Y-78758443D01*
X56196243Y-78692754D01*
X56196241Y-78692753D01*
X56196240Y-78692753D01*
X56034957Y-78667208D01*
X55986287Y-78659500D01*
X55773713Y-78659500D01*
X55725042Y-78667208D01*
X55563760Y-78692753D01*
X55361585Y-78758444D01*
X55172179Y-78854951D01*
X55000213Y-78979890D01*
X54849890Y-79130213D01*
X54724949Y-79302182D01*
X54720484Y-79310946D01*
X54672509Y-79361742D01*
X54604688Y-79378536D01*
X54538553Y-79355998D01*
X54499516Y-79310946D01*
X54495050Y-79302182D01*
X54370109Y-79130213D01*
X54219786Y-78979890D01*
X54047820Y-78854951D01*
X53858414Y-78758444D01*
X53858413Y-78758443D01*
X53858412Y-78758443D01*
X53656243Y-78692754D01*
X53656241Y-78692753D01*
X53656240Y-78692753D01*
X53494957Y-78667208D01*
X53446287Y-78659500D01*
X53233713Y-78659500D01*
X53185042Y-78667208D01*
X53023760Y-78692753D01*
X52821585Y-78758444D01*
X52632179Y-78854951D01*
X52460213Y-78979890D01*
X52309890Y-79130213D01*
X52184949Y-79302182D01*
X52180484Y-79310946D01*
X52132509Y-79361742D01*
X52064688Y-79378536D01*
X51998553Y-79355998D01*
X51959516Y-79310946D01*
X51955050Y-79302182D01*
X51830109Y-79130213D01*
X51679786Y-78979890D01*
X51507820Y-78854951D01*
X51318414Y-78758444D01*
X51318413Y-78758443D01*
X51318412Y-78758443D01*
X51116243Y-78692754D01*
X51116241Y-78692753D01*
X51116240Y-78692753D01*
X50954957Y-78667208D01*
X50906287Y-78659500D01*
X50693713Y-78659500D01*
X50645042Y-78667208D01*
X50483760Y-78692753D01*
X50281585Y-78758444D01*
X50092179Y-78854951D01*
X49920213Y-78979890D01*
X49769890Y-79130213D01*
X49644949Y-79302182D01*
X49640484Y-79310946D01*
X49592509Y-79361742D01*
X49524688Y-79378536D01*
X49458553Y-79355998D01*
X49419516Y-79310946D01*
X49415050Y-79302182D01*
X49290109Y-79130213D01*
X49139786Y-78979890D01*
X48967820Y-78854951D01*
X48778414Y-78758444D01*
X48778413Y-78758443D01*
X48778412Y-78758443D01*
X48576243Y-78692754D01*
X48576241Y-78692753D01*
X48576240Y-78692753D01*
X48414957Y-78667208D01*
X48366287Y-78659500D01*
X48153713Y-78659500D01*
X48105042Y-78667208D01*
X47943760Y-78692753D01*
X47741585Y-78758444D01*
X47552179Y-78854951D01*
X47380213Y-78979890D01*
X47229890Y-79130213D01*
X47104949Y-79302182D01*
X47100484Y-79310946D01*
X47052509Y-79361742D01*
X46984688Y-79378536D01*
X46918553Y-79355998D01*
X46879516Y-79310946D01*
X46875050Y-79302182D01*
X46750109Y-79130213D01*
X46599786Y-78979890D01*
X46427820Y-78854951D01*
X46238414Y-78758444D01*
X46238413Y-78758443D01*
X46238412Y-78758443D01*
X46036243Y-78692754D01*
X46036241Y-78692753D01*
X46036240Y-78692753D01*
X45874957Y-78667208D01*
X45826287Y-78659500D01*
X45613713Y-78659500D01*
X45565042Y-78667208D01*
X45403760Y-78692753D01*
X45201585Y-78758444D01*
X45012179Y-78854951D01*
X44840213Y-78979890D01*
X44689890Y-79130213D01*
X44564949Y-79302182D01*
X44560484Y-79310946D01*
X44512509Y-79361742D01*
X44444688Y-79378536D01*
X44378553Y-79355998D01*
X44339516Y-79310946D01*
X44335050Y-79302182D01*
X44210109Y-79130213D01*
X44059786Y-78979890D01*
X43887820Y-78854951D01*
X43698414Y-78758444D01*
X43698413Y-78758443D01*
X43698412Y-78758443D01*
X43496243Y-78692754D01*
X43496241Y-78692753D01*
X43496240Y-78692753D01*
X43334957Y-78667208D01*
X43286287Y-78659500D01*
X43073713Y-78659500D01*
X43025042Y-78667208D01*
X42863760Y-78692753D01*
X42661585Y-78758444D01*
X42472179Y-78854951D01*
X42300213Y-78979890D01*
X42149890Y-79130213D01*
X42024949Y-79302182D01*
X42020484Y-79310946D01*
X41972509Y-79361742D01*
X41904688Y-79378536D01*
X41838553Y-79355998D01*
X41799516Y-79310946D01*
X41795050Y-79302182D01*
X41670109Y-79130213D01*
X41519786Y-78979890D01*
X41347820Y-78854951D01*
X41158414Y-78758444D01*
X41158413Y-78758443D01*
X41158412Y-78758443D01*
X40956243Y-78692754D01*
X40956241Y-78692753D01*
X40956240Y-78692753D01*
X40794957Y-78667208D01*
X40746287Y-78659500D01*
X40533713Y-78659500D01*
X40485042Y-78667208D01*
X40323760Y-78692753D01*
X40121585Y-78758444D01*
X39932179Y-78854951D01*
X39760213Y-78979890D01*
X39609890Y-79130213D01*
X39484949Y-79302182D01*
X39480484Y-79310946D01*
X39432509Y-79361742D01*
X39364688Y-79378536D01*
X39298553Y-79355998D01*
X39259516Y-79310946D01*
X39255050Y-79302182D01*
X39130109Y-79130213D01*
X38979786Y-78979890D01*
X38807820Y-78854951D01*
X38618414Y-78758444D01*
X38618413Y-78758443D01*
X38618412Y-78758443D01*
X38416243Y-78692754D01*
X38416241Y-78692753D01*
X38416240Y-78692753D01*
X38254957Y-78667208D01*
X38206287Y-78659500D01*
X37993713Y-78659500D01*
X37945042Y-78667208D01*
X37783760Y-78692753D01*
X37581585Y-78758444D01*
X37392179Y-78854951D01*
X37220213Y-78979890D01*
X37069890Y-79130213D01*
X36944949Y-79302182D01*
X36940484Y-79310946D01*
X36892509Y-79361742D01*
X36824688Y-79378536D01*
X36758553Y-79355998D01*
X36719516Y-79310946D01*
X36715050Y-79302182D01*
X36590109Y-79130213D01*
X36439786Y-78979890D01*
X36267820Y-78854951D01*
X36078414Y-78758444D01*
X36078413Y-78758443D01*
X36078412Y-78758443D01*
X35876243Y-78692754D01*
X35876241Y-78692753D01*
X35876240Y-78692753D01*
X35714957Y-78667208D01*
X35666287Y-78659500D01*
X35453713Y-78659500D01*
X35405042Y-78667208D01*
X35243760Y-78692753D01*
X35041585Y-78758444D01*
X34852179Y-78854951D01*
X34680213Y-78979890D01*
X34529890Y-79130213D01*
X34404949Y-79302182D01*
X34400484Y-79310946D01*
X34352509Y-79361742D01*
X34284688Y-79378536D01*
X34218553Y-79355998D01*
X34179516Y-79310946D01*
X34175050Y-79302182D01*
X34050109Y-79130213D01*
X33899786Y-78979890D01*
X33727820Y-78854951D01*
X33538414Y-78758444D01*
X33538413Y-78758443D01*
X33538412Y-78758443D01*
X33336243Y-78692754D01*
X33336241Y-78692753D01*
X33336240Y-78692753D01*
X33174957Y-78667208D01*
X33126287Y-78659500D01*
X32913713Y-78659500D01*
X32865042Y-78667208D01*
X32703760Y-78692753D01*
X32501585Y-78758444D01*
X32312179Y-78854951D01*
X32140213Y-78979890D01*
X31989890Y-79130213D01*
X31864949Y-79302182D01*
X31860202Y-79311499D01*
X31812227Y-79362293D01*
X31744405Y-79379087D01*
X31678271Y-79356548D01*
X31639234Y-79311495D01*
X31634626Y-79302452D01*
X31595270Y-79248282D01*
X30962962Y-79880590D01*
X30945925Y-79817007D01*
X30880099Y-79702993D01*
X30787007Y-79609901D01*
X30672993Y-79544075D01*
X30609409Y-79527037D01*
X31241716Y-78894728D01*
X31187550Y-78855375D01*
X30998217Y-78758904D01*
X30796129Y-78693242D01*
X30586246Y-78660000D01*
X30373754Y-78660000D01*
X30163872Y-78693242D01*
X30163869Y-78693242D01*
X29961782Y-78758904D01*
X29772439Y-78855380D01*
X29718282Y-78894727D01*
X29718282Y-78894728D01*
X30350591Y-79527037D01*
X30287007Y-79544075D01*
X30172993Y-79609901D01*
X30079901Y-79702993D01*
X30014075Y-79817007D01*
X29997037Y-79880591D01*
X29364728Y-79248282D01*
X29364727Y-79248282D01*
X29325380Y-79302440D01*
X29320483Y-79312051D01*
X29272506Y-79362845D01*
X29204684Y-79379638D01*
X29138550Y-79357098D01*
X29099516Y-79312048D01*
X29094626Y-79302452D01*
X29055270Y-79248282D01*
X29055269Y-79248282D01*
X28422962Y-79880590D01*
X28405925Y-79817007D01*
X28340099Y-79702993D01*
X28247007Y-79609901D01*
X28132993Y-79544075D01*
X28069409Y-79527037D01*
X28701716Y-78894728D01*
X28647550Y-78855375D01*
X28458217Y-78758904D01*
X28256129Y-78693242D01*
X28046246Y-78660000D01*
X27833754Y-78660000D01*
X27623872Y-78693242D01*
X27623869Y-78693242D01*
X27421782Y-78758904D01*
X27232439Y-78855380D01*
X27178282Y-78894727D01*
X27178282Y-78894728D01*
X27810591Y-79527037D01*
X27747007Y-79544075D01*
X27632993Y-79609901D01*
X27539901Y-79702993D01*
X27474075Y-79817007D01*
X27457037Y-79880591D01*
X26824728Y-79248282D01*
X26824727Y-79248282D01*
X26785380Y-79302440D01*
X26780483Y-79312051D01*
X26732506Y-79362845D01*
X26664684Y-79379638D01*
X26598550Y-79357098D01*
X26559516Y-79312048D01*
X26554626Y-79302452D01*
X26515270Y-79248282D01*
X26515269Y-79248282D01*
X25882962Y-79880590D01*
X25865925Y-79817007D01*
X25800099Y-79702993D01*
X25707007Y-79609901D01*
X25592993Y-79544075D01*
X25529409Y-79527037D01*
X26161716Y-78894728D01*
X26107550Y-78855375D01*
X25918217Y-78758904D01*
X25716129Y-78693242D01*
X25506246Y-78660000D01*
X25293754Y-78660000D01*
X25083872Y-78693242D01*
X25083869Y-78693242D01*
X24881782Y-78758904D01*
X24692439Y-78855380D01*
X24638282Y-78894727D01*
X24638282Y-78894728D01*
X25270591Y-79527037D01*
X25207007Y-79544075D01*
X25092993Y-79609901D01*
X24999901Y-79702993D01*
X24934075Y-79817007D01*
X24917037Y-79880591D01*
X24284728Y-79248282D01*
X24284727Y-79248282D01*
X24245380Y-79302439D01*
X24148904Y-79491782D01*
X24083242Y-79693869D01*
X24083242Y-79693872D01*
X24050000Y-79903753D01*
X24050000Y-80116246D01*
X24083242Y-80326127D01*
X24083242Y-80326130D01*
X24148904Y-80528217D01*
X24245375Y-80717550D01*
X24284728Y-80771716D01*
X24917037Y-80139408D01*
X24934075Y-80202993D01*
X24999901Y-80317007D01*
X25092993Y-80410099D01*
X25207007Y-80475925D01*
X25270590Y-80492962D01*
X24638282Y-81125269D01*
X24638282Y-81125270D01*
X24692449Y-81164624D01*
X24881782Y-81261095D01*
X25083870Y-81326757D01*
X25293754Y-81360000D01*
X25506246Y-81360000D01*
X25716127Y-81326757D01*
X25716130Y-81326757D01*
X25918217Y-81261095D01*
X26107554Y-81164622D01*
X26161716Y-81125270D01*
X26161717Y-81125270D01*
X25529408Y-80492962D01*
X25592993Y-80475925D01*
X25707007Y-80410099D01*
X25800099Y-80317007D01*
X25865925Y-80202993D01*
X25882962Y-80139408D01*
X26515270Y-80771717D01*
X26515270Y-80771716D01*
X26554622Y-80717554D01*
X26559514Y-80707954D01*
X26607488Y-80657157D01*
X26675308Y-80640361D01*
X26741444Y-80662897D01*
X26780486Y-80707954D01*
X26785375Y-80717550D01*
X26824728Y-80771716D01*
X27457037Y-80139408D01*
X27474075Y-80202993D01*
X27539901Y-80317007D01*
X27632993Y-80410099D01*
X27747007Y-80475925D01*
X27810590Y-80492962D01*
X27178282Y-81125269D01*
X27178282Y-81125270D01*
X27232449Y-81164624D01*
X27421782Y-81261095D01*
X27623870Y-81326757D01*
X27833754Y-81360000D01*
X28046246Y-81360000D01*
X28256127Y-81326757D01*
X28256130Y-81326757D01*
X28458217Y-81261095D01*
X28647554Y-81164622D01*
X28701716Y-81125270D01*
X28701717Y-81125270D01*
X28069408Y-80492962D01*
X28132993Y-80475925D01*
X28247007Y-80410099D01*
X28340099Y-80317007D01*
X28405925Y-80202993D01*
X28422962Y-80139408D01*
X29055270Y-80771717D01*
X29055270Y-80771716D01*
X29094622Y-80717554D01*
X29099514Y-80707954D01*
X29147488Y-80657157D01*
X29215308Y-80640361D01*
X29281444Y-80662897D01*
X29320486Y-80707954D01*
X29325375Y-80717550D01*
X29364728Y-80771716D01*
X29997037Y-80139408D01*
X30014075Y-80202993D01*
X30079901Y-80317007D01*
X30172993Y-80410099D01*
X30287007Y-80475925D01*
X30350590Y-80492962D01*
X29718282Y-81125269D01*
X29718282Y-81125270D01*
X29772449Y-81164624D01*
X29961782Y-81261095D01*
X30163870Y-81326757D01*
X30373754Y-81360000D01*
X30586246Y-81360000D01*
X30796127Y-81326757D01*
X30796130Y-81326757D01*
X30998217Y-81261095D01*
X31187554Y-81164622D01*
X31241716Y-81125270D01*
X31241717Y-81125270D01*
X30609408Y-80492962D01*
X30672993Y-80475925D01*
X30787007Y-80410099D01*
X30880099Y-80317007D01*
X30945925Y-80202993D01*
X30962962Y-80139409D01*
X31595270Y-80771717D01*
X31595270Y-80771716D01*
X31634622Y-80717555D01*
X31639232Y-80708507D01*
X31687205Y-80657709D01*
X31755025Y-80640912D01*
X31821161Y-80663447D01*
X31860204Y-80708504D01*
X31864949Y-80717817D01*
X31989890Y-80889786D01*
X32140213Y-81040109D01*
X32312179Y-81165048D01*
X32312181Y-81165049D01*
X32312184Y-81165051D01*
X32501588Y-81261557D01*
X32703757Y-81327246D01*
X32913713Y-81360500D01*
X32913714Y-81360500D01*
X33126286Y-81360500D01*
X33126287Y-81360500D01*
X33336243Y-81327246D01*
X33538412Y-81261557D01*
X33727816Y-81165051D01*
X33749789Y-81149086D01*
X33899786Y-81040109D01*
X33899788Y-81040106D01*
X33899792Y-81040104D01*
X34050104Y-80889792D01*
X34050106Y-80889788D01*
X34050109Y-80889786D01*
X34175048Y-80717820D01*
X34175047Y-80717820D01*
X34175051Y-80717816D01*
X34179514Y-80709054D01*
X34227488Y-80658259D01*
X34295308Y-80641463D01*
X34361444Y-80663999D01*
X34400486Y-80709056D01*
X34404951Y-80717820D01*
X34529890Y-80889786D01*
X34680213Y-81040109D01*
X34852179Y-81165048D01*
X34852181Y-81165049D01*
X34852184Y-81165051D01*
X35041588Y-81261557D01*
X35243757Y-81327246D01*
X35453713Y-81360500D01*
X35453714Y-81360500D01*
X35666286Y-81360500D01*
X35666287Y-81360500D01*
X35876243Y-81327246D01*
X36078412Y-81261557D01*
X36267816Y-81165051D01*
X36289789Y-81149086D01*
X36439786Y-81040109D01*
X36439788Y-81040106D01*
X36439792Y-81040104D01*
X36590104Y-80889792D01*
X36590106Y-80889788D01*
X36590109Y-80889786D01*
X36715048Y-80717820D01*
X36715047Y-80717820D01*
X36715051Y-80717816D01*
X36719514Y-80709054D01*
X36767488Y-80658259D01*
X36835308Y-80641463D01*
X36901444Y-80663999D01*
X36940486Y-80709056D01*
X36944951Y-80717820D01*
X37069890Y-80889786D01*
X37220213Y-81040109D01*
X37392179Y-81165048D01*
X37392181Y-81165049D01*
X37392184Y-81165051D01*
X37581588Y-81261557D01*
X37783757Y-81327246D01*
X37993713Y-81360500D01*
X37993714Y-81360500D01*
X38206286Y-81360500D01*
X38206287Y-81360500D01*
X38416243Y-81327246D01*
X38618412Y-81261557D01*
X38807816Y-81165051D01*
X38829789Y-81149086D01*
X38979786Y-81040109D01*
X38979788Y-81040106D01*
X38979792Y-81040104D01*
X39130104Y-80889792D01*
X39130106Y-80889788D01*
X39130109Y-80889786D01*
X39255048Y-80717820D01*
X39255047Y-80717820D01*
X39255051Y-80717816D01*
X39259514Y-80709054D01*
X39307488Y-80658259D01*
X39375308Y-80641463D01*
X39441444Y-80663999D01*
X39480486Y-80709056D01*
X39484951Y-80717820D01*
X39609890Y-80889786D01*
X39760213Y-81040109D01*
X39932179Y-81165048D01*
X39932181Y-81165049D01*
X39932184Y-81165051D01*
X40121588Y-81261557D01*
X40323757Y-81327246D01*
X40533713Y-81360500D01*
X40533714Y-81360500D01*
X40746286Y-81360500D01*
X40746287Y-81360500D01*
X40956243Y-81327246D01*
X41158412Y-81261557D01*
X41347816Y-81165051D01*
X41369789Y-81149086D01*
X41519786Y-81040109D01*
X41519788Y-81040106D01*
X41519792Y-81040104D01*
X41670104Y-80889792D01*
X41670106Y-80889788D01*
X41670109Y-80889786D01*
X41795048Y-80717820D01*
X41795047Y-80717820D01*
X41795051Y-80717816D01*
X41799514Y-80709054D01*
X41847488Y-80658259D01*
X41915308Y-80641463D01*
X41981444Y-80663999D01*
X42020486Y-80709056D01*
X42024951Y-80717820D01*
X42149890Y-80889786D01*
X42300213Y-81040109D01*
X42472179Y-81165048D01*
X42472181Y-81165049D01*
X42472184Y-81165051D01*
X42661588Y-81261557D01*
X42863757Y-81327246D01*
X43073713Y-81360500D01*
X43073714Y-81360500D01*
X43286286Y-81360500D01*
X43286287Y-81360500D01*
X43496243Y-81327246D01*
X43698412Y-81261557D01*
X43887816Y-81165051D01*
X43909789Y-81149086D01*
X44059786Y-81040109D01*
X44059788Y-81040106D01*
X44059792Y-81040104D01*
X44210104Y-80889792D01*
X44210106Y-80889788D01*
X44210109Y-80889786D01*
X44335048Y-80717820D01*
X44335047Y-80717820D01*
X44335051Y-80717816D01*
X44339514Y-80709054D01*
X44387488Y-80658259D01*
X44455308Y-80641463D01*
X44521444Y-80663999D01*
X44560486Y-80709056D01*
X44564951Y-80717820D01*
X44689890Y-80889786D01*
X44840213Y-81040109D01*
X45012179Y-81165048D01*
X45012181Y-81165049D01*
X45012184Y-81165051D01*
X45201588Y-81261557D01*
X45403757Y-81327246D01*
X45613713Y-81360500D01*
X45613714Y-81360500D01*
X45826286Y-81360500D01*
X45826287Y-81360500D01*
X46036243Y-81327246D01*
X46238412Y-81261557D01*
X46427816Y-81165051D01*
X46449789Y-81149086D01*
X46599786Y-81040109D01*
X46599788Y-81040106D01*
X46599792Y-81040104D01*
X46750104Y-80889792D01*
X46750106Y-80889788D01*
X46750109Y-80889786D01*
X46875048Y-80717820D01*
X46875047Y-80717820D01*
X46875051Y-80717816D01*
X46879514Y-80709054D01*
X46927488Y-80658259D01*
X46995308Y-80641463D01*
X47061444Y-80663999D01*
X47100486Y-80709056D01*
X47104951Y-80717820D01*
X47229890Y-80889786D01*
X47380213Y-81040109D01*
X47552179Y-81165048D01*
X47552181Y-81165049D01*
X47552184Y-81165051D01*
X47741588Y-81261557D01*
X47943757Y-81327246D01*
X48153713Y-81360500D01*
X48153714Y-81360500D01*
X48366286Y-81360500D01*
X48366287Y-81360500D01*
X48576243Y-81327246D01*
X48778412Y-81261557D01*
X48967816Y-81165051D01*
X48989789Y-81149086D01*
X49139786Y-81040109D01*
X49139788Y-81040106D01*
X49139792Y-81040104D01*
X49290104Y-80889792D01*
X49290106Y-80889788D01*
X49290109Y-80889786D01*
X49415048Y-80717820D01*
X49415047Y-80717820D01*
X49415051Y-80717816D01*
X49419514Y-80709054D01*
X49467488Y-80658259D01*
X49535308Y-80641463D01*
X49601444Y-80663999D01*
X49640486Y-80709056D01*
X49644951Y-80717820D01*
X49769890Y-80889786D01*
X49920213Y-81040109D01*
X50092179Y-81165048D01*
X50092181Y-81165049D01*
X50092184Y-81165051D01*
X50281588Y-81261557D01*
X50483757Y-81327246D01*
X50693713Y-81360500D01*
X50693714Y-81360500D01*
X50906286Y-81360500D01*
X50906287Y-81360500D01*
X51116243Y-81327246D01*
X51318412Y-81261557D01*
X51507816Y-81165051D01*
X51529789Y-81149086D01*
X51679786Y-81040109D01*
X51679788Y-81040106D01*
X51679792Y-81040104D01*
X51830104Y-80889792D01*
X51830106Y-80889788D01*
X51830109Y-80889786D01*
X51955048Y-80717820D01*
X51955047Y-80717820D01*
X51955051Y-80717816D01*
X51959514Y-80709054D01*
X52007488Y-80658259D01*
X52075308Y-80641463D01*
X52141444Y-80663999D01*
X52180486Y-80709056D01*
X52184951Y-80717820D01*
X52309890Y-80889786D01*
X52460213Y-81040109D01*
X52632179Y-81165048D01*
X52632181Y-81165049D01*
X52632184Y-81165051D01*
X52821588Y-81261557D01*
X53023757Y-81327246D01*
X53233713Y-81360500D01*
X53233714Y-81360500D01*
X53446286Y-81360500D01*
X53446287Y-81360500D01*
X53656243Y-81327246D01*
X53858412Y-81261557D01*
X54047816Y-81165051D01*
X54069789Y-81149086D01*
X54219786Y-81040109D01*
X54219788Y-81040106D01*
X54219792Y-81040104D01*
X54370104Y-80889792D01*
X54370106Y-80889788D01*
X54370109Y-80889786D01*
X54495048Y-80717820D01*
X54495047Y-80717820D01*
X54495051Y-80717816D01*
X54499514Y-80709054D01*
X54547488Y-80658259D01*
X54615308Y-80641463D01*
X54681444Y-80663999D01*
X54720486Y-80709056D01*
X54724951Y-80717820D01*
X54849890Y-80889786D01*
X55000213Y-81040109D01*
X55172184Y-81165051D01*
X55172184Y-81165052D01*
X55211793Y-81185233D01*
X55262590Y-81233206D01*
X55279500Y-81295718D01*
X55279500Y-85638330D01*
X55279499Y-85638348D01*
X55279499Y-85804054D01*
X55279498Y-85804054D01*
X55320423Y-85956787D01*
X55327932Y-85969792D01*
X55327934Y-85969794D01*
X55399477Y-86093712D01*
X55399481Y-86093717D01*
X55518349Y-86212585D01*
X55518355Y-86212590D01*
X57935139Y-88629374D01*
X57935149Y-88629385D01*
X57939479Y-88633715D01*
X57939480Y-88633716D01*
X58051284Y-88745520D01*
X58051286Y-88745521D01*
X58051290Y-88745524D01*
X58188209Y-88824573D01*
X58188216Y-88824577D01*
X58300019Y-88854534D01*
X58340942Y-88865500D01*
X58340943Y-88865500D01*
X103418331Y-88865500D01*
X103418347Y-88865501D01*
X103425943Y-88865501D01*
X103584054Y-88865501D01*
X103584057Y-88865501D01*
X103736785Y-88824577D01*
X103786904Y-88795639D01*
X103873716Y-88745520D01*
X103985520Y-88633716D01*
X103985520Y-88633714D01*
X103995728Y-88623507D01*
X103995730Y-88623504D01*
X105768506Y-86850728D01*
X105768511Y-86850724D01*
X105778714Y-86840520D01*
X105778716Y-86840520D01*
X105890520Y-86728716D01*
X105949659Y-86626284D01*
X105969577Y-86591785D01*
X106010501Y-86439057D01*
X106010501Y-86280943D01*
X106010501Y-86273348D01*
X106010500Y-86273330D01*
X106010500Y-39670097D01*
X106030185Y-39603058D01*
X106046819Y-39582416D01*
X108162416Y-37466819D01*
X108223739Y-37433334D01*
X108250097Y-37430500D01*
X108696281Y-37430500D01*
X108763320Y-37450185D01*
X108806765Y-37498205D01*
X108826947Y-37537814D01*
X108826948Y-37537815D01*
X108951890Y-37709786D01*
X109102213Y-37860109D01*
X109274182Y-37985050D01*
X109282946Y-37989516D01*
X109333742Y-38037491D01*
X109350536Y-38105312D01*
X109327998Y-38171447D01*
X109282946Y-38210484D01*
X109274182Y-38214949D01*
X109102213Y-38339890D01*
X108951890Y-38490213D01*
X108826951Y-38662179D01*
X108730444Y-38851585D01*
X108730443Y-38851587D01*
X108730443Y-38851588D01*
X108664755Y-39053756D01*
X108664754Y-39053758D01*
X108631500Y-39263713D01*
X108631500Y-39476286D01*
X108664753Y-39686239D01*
X108730444Y-39888414D01*
X108826951Y-40077820D01*
X108951890Y-40249786D01*
X109102213Y-40400109D01*
X109274179Y-40525048D01*
X109274181Y-40525049D01*
X109274184Y-40525051D01*
X109283493Y-40529794D01*
X109334290Y-40577766D01*
X109351087Y-40645587D01*
X109328552Y-40711722D01*
X109283505Y-40750760D01*
X109274446Y-40755376D01*
X109274440Y-40755380D01*
X109220282Y-40794727D01*
X109220282Y-40794728D01*
X109852591Y-41427037D01*
X109789007Y-41444075D01*
X109674993Y-41509901D01*
X109581901Y-41602993D01*
X109516075Y-41717007D01*
X109499037Y-41780591D01*
X108866728Y-41148282D01*
X108866727Y-41148282D01*
X108827380Y-41202439D01*
X108730904Y-41391782D01*
X108665242Y-41593869D01*
X108665242Y-41593872D01*
X108632000Y-41803753D01*
X108632000Y-42016246D01*
X108665242Y-42226127D01*
X108665242Y-42226130D01*
X108730904Y-42428217D01*
X108827375Y-42617550D01*
X108866728Y-42671716D01*
X109499037Y-42039408D01*
X109516075Y-42102993D01*
X109581901Y-42217007D01*
X109674993Y-42310099D01*
X109789007Y-42375925D01*
X109852590Y-42392962D01*
X109220282Y-43025269D01*
X109220282Y-43025270D01*
X109274449Y-43064624D01*
X109463782Y-43161095D01*
X109665870Y-43226757D01*
X109875754Y-43260000D01*
X110088246Y-43260000D01*
X110298127Y-43226757D01*
X110298130Y-43226757D01*
X110500217Y-43161095D01*
X110689554Y-43064622D01*
X110743716Y-43025270D01*
X110743717Y-43025270D01*
X110111408Y-42392962D01*
X110174993Y-42375925D01*
X110289007Y-42310099D01*
X110382099Y-42217007D01*
X110447925Y-42102993D01*
X110464962Y-42039408D01*
X111097270Y-42671717D01*
X111097270Y-42671716D01*
X111136622Y-42617554D01*
X111233095Y-42428217D01*
X111298757Y-42226130D01*
X111298757Y-42226127D01*
X111332000Y-42016246D01*
X111332000Y-41803753D01*
X111298757Y-41593872D01*
X111298757Y-41593869D01*
X111233095Y-41391782D01*
X111136624Y-41202449D01*
X111097270Y-41148282D01*
X111097269Y-41148282D01*
X110464962Y-41780590D01*
X110447925Y-41717007D01*
X110382099Y-41602993D01*
X110289007Y-41509901D01*
X110174993Y-41444075D01*
X110111409Y-41427037D01*
X110743716Y-40794728D01*
X110689547Y-40755373D01*
X110689547Y-40755372D01*
X110680500Y-40750763D01*
X110629706Y-40702788D01*
X110612912Y-40634966D01*
X110635451Y-40568832D01*
X110680508Y-40529793D01*
X110689816Y-40525051D01*
X110769007Y-40467515D01*
X110861786Y-40400109D01*
X110861788Y-40400106D01*
X110861792Y-40400104D01*
X111012104Y-40249792D01*
X111012106Y-40249788D01*
X111012109Y-40249786D01*
X111137048Y-40077820D01*
X111137047Y-40077820D01*
X111137051Y-40077816D01*
X111233557Y-39888412D01*
X111299246Y-39686243D01*
X111332500Y-39476287D01*
X111332500Y-39263713D01*
X111299246Y-39053757D01*
X111233557Y-38851588D01*
X111137051Y-38662184D01*
X111137049Y-38662181D01*
X111137048Y-38662179D01*
X111012109Y-38490213D01*
X110861786Y-38339890D01*
X110689820Y-38214951D01*
X110689115Y-38214591D01*
X110681054Y-38210485D01*
X110630259Y-38162512D01*
X110613463Y-38094692D01*
X110635999Y-38028556D01*
X110681054Y-37989515D01*
X110689816Y-37985051D01*
X110711789Y-37969086D01*
X110861786Y-37860109D01*
X110861788Y-37860106D01*
X110861792Y-37860104D01*
X111012104Y-37709792D01*
X111012106Y-37709788D01*
X111012109Y-37709786D01*
X111137048Y-37537820D01*
X111137047Y-37537820D01*
X111137051Y-37537816D01*
X111233557Y-37348412D01*
X111299246Y-37146243D01*
X111332500Y-36936287D01*
X111332500Y-36723713D01*
X111299246Y-36513757D01*
X111233557Y-36311588D01*
X111137051Y-36122184D01*
X111137049Y-36122181D01*
X111137048Y-36122179D01*
X111012109Y-35950213D01*
X110898569Y-35836673D01*
X110865084Y-35775350D01*
X110870068Y-35705658D01*
X110911940Y-35649725D01*
X110942915Y-35632810D01*
X111074331Y-35583796D01*
X111189546Y-35497546D01*
X111275796Y-35382331D01*
X111326091Y-35247483D01*
X111332500Y-35187873D01*
X111332499Y-33392128D01*
X111326091Y-33332517D01*
X111275796Y-33197669D01*
X111275795Y-33197668D01*
X111275793Y-33197664D01*
X111189547Y-33082455D01*
X111189544Y-33082452D01*
X111074335Y-32996206D01*
X111074328Y-32996202D01*
X110939482Y-32945908D01*
X110939483Y-32945908D01*
X110879883Y-32939501D01*
X110879881Y-32939500D01*
X110879873Y-32939500D01*
X110879864Y-32939500D01*
X109084129Y-32939500D01*
X109084123Y-32939501D01*
X109024516Y-32945908D01*
X108889671Y-32996202D01*
X108889664Y-32996206D01*
X108774455Y-33082452D01*
X108774452Y-33082455D01*
X108688206Y-33197664D01*
X108688202Y-33197671D01*
X108637908Y-33332517D01*
X108631501Y-33392116D01*
X108631501Y-33392123D01*
X108631500Y-33392135D01*
X108631500Y-35187870D01*
X108631501Y-35187876D01*
X108637908Y-35247483D01*
X108688202Y-35382328D01*
X108688206Y-35382335D01*
X108774452Y-35497544D01*
X108774455Y-35497547D01*
X108889664Y-35583793D01*
X108889671Y-35583797D01*
X109021082Y-35632810D01*
X109077016Y-35674681D01*
X109101433Y-35740145D01*
X109086582Y-35808418D01*
X109065431Y-35836673D01*
X108951889Y-35950215D01*
X108826948Y-36122184D01*
X108826947Y-36122185D01*
X108806765Y-36161795D01*
X108758791Y-36212591D01*
X108696281Y-36229500D01*
X107870940Y-36229500D01*
X107830019Y-36240464D01*
X107830019Y-36240465D01*
X107792751Y-36250451D01*
X107718214Y-36270423D01*
X107718209Y-36270426D01*
X107581290Y-36349475D01*
X107581282Y-36349481D01*
X104929479Y-39001284D01*
X104908185Y-39038167D01*
X104899185Y-39053757D01*
X104850423Y-39138215D01*
X104809499Y-39290943D01*
X104809499Y-39290945D01*
X104809499Y-39459046D01*
X104809500Y-39459059D01*
X104809500Y-50955903D01*
X104789815Y-51022942D01*
X104737011Y-51068697D01*
X104667853Y-51078641D01*
X104604297Y-51049616D01*
X104597819Y-51043584D01*
X103992590Y-50438355D01*
X103992588Y-50438352D01*
X103873717Y-50319481D01*
X103873716Y-50319480D01*
X103786904Y-50269360D01*
X103786904Y-50269359D01*
X103786900Y-50269358D01*
X103736785Y-50240423D01*
X103584057Y-50199499D01*
X103425943Y-50199499D01*
X103418347Y-50199499D01*
X103418331Y-50199500D01*
X90649099Y-50199500D01*
X90627855Y-50193262D01*
X90605768Y-50191683D01*
X90594982Y-50183609D01*
X90582060Y-50179815D01*
X90567561Y-50163083D01*
X90549833Y-50149812D01*
X90545124Y-50137189D01*
X90536305Y-50127011D01*
X90533154Y-50105096D01*
X90525415Y-50084349D01*
X90528278Y-50071186D01*
X90526361Y-50057853D01*
X90535559Y-50037710D01*
X90540266Y-50016075D01*
X90553536Y-49998346D01*
X90555386Y-49994297D01*
X90561416Y-49987821D01*
X90561417Y-49987819D01*
X90650520Y-49898716D01*
X90650521Y-49898713D01*
X91808713Y-48740521D01*
X91808716Y-48740520D01*
X91920520Y-48628716D01*
X91970639Y-48541904D01*
X91999577Y-48491785D01*
X92040500Y-48339058D01*
X92040500Y-48180943D01*
X92040500Y-23589444D01*
X92060185Y-23522405D01*
X92112989Y-23476650D01*
X92117047Y-23474883D01*
X92326697Y-23388043D01*
X92553803Y-23256924D01*
X92761851Y-23097282D01*
X92761855Y-23097277D01*
X92761860Y-23097274D01*
X92947274Y-22911860D01*
X92947277Y-22911855D01*
X92947282Y-22911851D01*
X93106924Y-22703803D01*
X93238043Y-22476697D01*
X93338398Y-22234419D01*
X93406270Y-21981116D01*
X93440500Y-21721120D01*
X93440500Y-21458880D01*
X93406270Y-21198884D01*
X93338398Y-20945581D01*
X93290523Y-20830000D01*
X93238046Y-20703309D01*
X93238041Y-20703299D01*
X93106924Y-20476196D01*
X92947281Y-20268148D01*
X92947274Y-20268140D01*
X92761860Y-20082726D01*
X92761851Y-20082718D01*
X92708989Y-20042155D01*
X94520000Y-20042155D01*
X94520000Y-21340000D01*
X95800936Y-21340000D01*
X95789207Y-21368316D01*
X95760000Y-21515147D01*
X95760000Y-21664853D01*
X95789207Y-21811684D01*
X95800936Y-21840000D01*
X94520000Y-21840000D01*
X94520000Y-23137844D01*
X94526401Y-23197372D01*
X94526403Y-23197379D01*
X94576645Y-23332086D01*
X94576649Y-23332093D01*
X94662809Y-23447187D01*
X94662812Y-23447190D01*
X94777906Y-23533350D01*
X94777913Y-23533354D01*
X94912620Y-23583596D01*
X94912627Y-23583598D01*
X94972155Y-23589999D01*
X94972172Y-23590000D01*
X96270000Y-23590000D01*
X96270000Y-22309064D01*
X96298316Y-22320793D01*
X96445147Y-22350000D01*
X96594853Y-22350000D01*
X96741684Y-22320793D01*
X96770000Y-22309064D01*
X96770000Y-23590000D01*
X98067828Y-23590000D01*
X98067844Y-23589999D01*
X98127372Y-23583598D01*
X98127379Y-23583596D01*
X98262086Y-23533354D01*
X98262093Y-23533350D01*
X98377187Y-23447190D01*
X98377190Y-23447187D01*
X98463350Y-23332093D01*
X98463354Y-23332086D01*
X98513596Y-23197379D01*
X98513598Y-23197372D01*
X98519999Y-23137844D01*
X98520000Y-23137827D01*
X98520000Y-21840000D01*
X97239064Y-21840000D01*
X97250793Y-21811684D01*
X97280000Y-21664853D01*
X97280000Y-21515147D01*
X97250793Y-21368316D01*
X97239064Y-21340000D01*
X98520000Y-21340000D01*
X98520000Y-20042172D01*
X98519999Y-20042155D01*
X98513598Y-19982627D01*
X98513596Y-19982620D01*
X98463354Y-19847913D01*
X98463350Y-19847906D01*
X98377190Y-19732812D01*
X98377187Y-19732809D01*
X98262093Y-19646649D01*
X98262086Y-19646645D01*
X98127379Y-19596403D01*
X98127372Y-19596401D01*
X98067844Y-19590000D01*
X96770000Y-19590000D01*
X96770000Y-20870935D01*
X96741684Y-20859207D01*
X96594853Y-20830000D01*
X96445147Y-20830000D01*
X96298316Y-20859207D01*
X96270000Y-20870935D01*
X96270000Y-19590000D01*
X94972155Y-19590000D01*
X94912627Y-19596401D01*
X94912620Y-19596403D01*
X94777913Y-19646645D01*
X94777906Y-19646649D01*
X94662812Y-19732809D01*
X94662809Y-19732812D01*
X94576649Y-19847906D01*
X94576645Y-19847913D01*
X94526403Y-19982620D01*
X94526401Y-19982627D01*
X94520000Y-20042155D01*
X92708989Y-20042155D01*
X92553803Y-19923075D01*
X92326700Y-19791958D01*
X92326690Y-19791953D01*
X92084428Y-19691605D01*
X92084421Y-19691603D01*
X92084419Y-19691602D01*
X91831116Y-19623730D01*
X91773339Y-19616123D01*
X91571127Y-19589500D01*
X91571120Y-19589500D01*
X91308880Y-19589500D01*
X91308872Y-19589500D01*
X91077772Y-19619926D01*
X91048884Y-19623730D01*
X90963364Y-19646645D01*
X90795581Y-19691602D01*
X90795571Y-19691605D01*
X90553309Y-19791953D01*
X90553299Y-19791958D01*
X90326196Y-19923075D01*
X90118148Y-20082718D01*
X89932718Y-20268148D01*
X89773075Y-20476196D01*
X89641958Y-20703299D01*
X89641953Y-20703309D01*
X89541605Y-20945571D01*
X89541602Y-20945581D01*
X89473730Y-21198885D01*
X89439500Y-21458872D01*
X89439500Y-21721127D01*
X89451423Y-21811684D01*
X89473730Y-21981116D01*
X89498745Y-22074472D01*
X89541602Y-22234418D01*
X89541605Y-22234428D01*
X89641953Y-22476690D01*
X89641958Y-22476700D01*
X89773075Y-22703803D01*
X89932718Y-22911851D01*
X89932726Y-22911860D01*
X90118140Y-23097274D01*
X90118148Y-23097281D01*
X90326196Y-23256924D01*
X90553299Y-23388041D01*
X90553300Y-23388041D01*
X90553303Y-23388043D01*
X90762953Y-23474883D01*
X90817356Y-23518724D01*
X90839421Y-23585018D01*
X90839500Y-23589444D01*
X90839500Y-47959903D01*
X90819815Y-48026942D01*
X90803181Y-48047584D01*
X89957584Y-48893181D01*
X89896261Y-48926666D01*
X89869903Y-48929500D01*
X33741670Y-48929500D01*
X33741654Y-48929499D01*
X33734058Y-48929499D01*
X33575943Y-48929499D01*
X33499579Y-48949961D01*
X33423214Y-48970423D01*
X33423209Y-48970426D01*
X33286290Y-49049475D01*
X33286282Y-49049481D01*
X27459481Y-54876282D01*
X27459479Y-54876285D01*
X27409361Y-54963094D01*
X27409359Y-54963096D01*
X27380425Y-55013209D01*
X27380424Y-55013210D01*
X27380423Y-55013215D01*
X27339499Y-55165943D01*
X27339499Y-55165945D01*
X27339499Y-55334046D01*
X27339500Y-55334059D01*
X27339500Y-55864281D01*
X27319815Y-55931320D01*
X27271795Y-55974765D01*
X27232185Y-55994947D01*
X27232184Y-55994948D01*
X27060213Y-56119890D01*
X26909890Y-56270213D01*
X26784949Y-56442182D01*
X26780202Y-56451499D01*
X26732227Y-56502293D01*
X26664405Y-56519087D01*
X26598271Y-56496548D01*
X26559234Y-56451495D01*
X26554626Y-56442452D01*
X26515270Y-56388282D01*
X26515269Y-56388282D01*
X25882962Y-57020590D01*
X25865925Y-56957007D01*
X25800099Y-56842993D01*
X25707007Y-56749901D01*
X25592993Y-56684075D01*
X25529409Y-56667037D01*
X26161716Y-56034728D01*
X26107550Y-55995375D01*
X25918217Y-55898904D01*
X25716129Y-55833242D01*
X25506246Y-55800000D01*
X25293754Y-55800000D01*
X25083872Y-55833242D01*
X25083869Y-55833242D01*
X24881782Y-55898904D01*
X24692439Y-55995380D01*
X24638282Y-56034727D01*
X24638282Y-56034728D01*
X25270591Y-56667037D01*
X25207007Y-56684075D01*
X25092993Y-56749901D01*
X24999901Y-56842993D01*
X24934075Y-56957007D01*
X24917037Y-57020591D01*
X24284728Y-56388282D01*
X24284727Y-56388282D01*
X24245380Y-56442439D01*
X24148904Y-56631782D01*
X24083242Y-56833869D01*
X24083242Y-56833872D01*
X24050000Y-57043753D01*
X15740500Y-57043753D01*
X15740500Y-21458872D01*
X33559500Y-21458872D01*
X33559500Y-21721127D01*
X33571423Y-21811684D01*
X33593730Y-21981116D01*
X33618745Y-22074472D01*
X33661602Y-22234418D01*
X33661605Y-22234428D01*
X33761953Y-22476690D01*
X33761958Y-22476700D01*
X33893075Y-22703803D01*
X34052718Y-22911851D01*
X34052726Y-22911860D01*
X34238140Y-23097274D01*
X34238148Y-23097281D01*
X34446196Y-23256924D01*
X34673299Y-23388041D01*
X34673309Y-23388046D01*
X34915571Y-23488394D01*
X34915581Y-23488398D01*
X35168884Y-23556270D01*
X35417188Y-23588960D01*
X35428864Y-23590498D01*
X35428880Y-23590500D01*
X35428887Y-23590500D01*
X35691113Y-23590500D01*
X35691120Y-23590500D01*
X35951116Y-23556270D01*
X36204419Y-23488398D01*
X36446697Y-23388043D01*
X36673803Y-23256924D01*
X36881851Y-23097282D01*
X36881855Y-23097277D01*
X36881860Y-23097274D01*
X37067274Y-22911860D01*
X37067277Y-22911855D01*
X37067282Y-22911851D01*
X37226924Y-22703803D01*
X37358043Y-22476697D01*
X37458398Y-22234419D01*
X37526270Y-21981116D01*
X37560500Y-21721120D01*
X37560500Y-21458880D01*
X37526270Y-21198884D01*
X37458398Y-20945581D01*
X37410523Y-20830000D01*
X37358046Y-20703309D01*
X37358041Y-20703299D01*
X37226924Y-20476196D01*
X37067281Y-20268148D01*
X37067274Y-20268140D01*
X36881860Y-20082726D01*
X36881851Y-20082718D01*
X36828989Y-20042155D01*
X38640000Y-20042155D01*
X38640000Y-21340000D01*
X39920936Y-21340000D01*
X39909207Y-21368316D01*
X39880000Y-21515147D01*
X39880000Y-21664853D01*
X39909207Y-21811684D01*
X39920936Y-21840000D01*
X38640000Y-21840000D01*
X38640000Y-23137844D01*
X38646401Y-23197372D01*
X38646403Y-23197379D01*
X38696645Y-23332086D01*
X38696649Y-23332093D01*
X38782809Y-23447187D01*
X38782812Y-23447190D01*
X38897906Y-23533350D01*
X38897913Y-23533354D01*
X39032620Y-23583596D01*
X39032627Y-23583598D01*
X39092155Y-23589999D01*
X39092172Y-23590000D01*
X40390000Y-23590000D01*
X40390000Y-22309064D01*
X40418316Y-22320793D01*
X40565147Y-22350000D01*
X40714853Y-22350000D01*
X40861684Y-22320793D01*
X40890000Y-22309064D01*
X40890000Y-23590000D01*
X42187828Y-23590000D01*
X42187844Y-23589999D01*
X42247372Y-23583598D01*
X42247379Y-23583596D01*
X42382086Y-23533354D01*
X42382093Y-23533350D01*
X42497187Y-23447190D01*
X42497190Y-23447187D01*
X42583350Y-23332093D01*
X42583354Y-23332086D01*
X42633596Y-23197379D01*
X42633598Y-23197372D01*
X42639999Y-23137844D01*
X42640000Y-23137827D01*
X42640000Y-21840000D01*
X41359064Y-21840000D01*
X41370793Y-21811684D01*
X41400000Y-21664853D01*
X41400000Y-21515147D01*
X41388806Y-21458872D01*
X52602289Y-21458872D01*
X52602289Y-21721127D01*
X52614212Y-21811684D01*
X52636519Y-21981116D01*
X52661534Y-22074472D01*
X52704391Y-22234418D01*
X52704394Y-22234428D01*
X52804742Y-22476690D01*
X52804747Y-22476700D01*
X52935864Y-22703803D01*
X53095507Y-22911851D01*
X53095515Y-22911860D01*
X53280929Y-23097274D01*
X53280937Y-23097281D01*
X53488985Y-23256924D01*
X53716088Y-23388041D01*
X53716098Y-23388046D01*
X53958360Y-23488394D01*
X53958370Y-23488398D01*
X54211673Y-23556270D01*
X54459977Y-23588960D01*
X54471653Y-23590498D01*
X54471669Y-23590500D01*
X54471676Y-23590500D01*
X54733902Y-23590500D01*
X54733909Y-23590500D01*
X54993905Y-23556270D01*
X55247208Y-23488398D01*
X55489486Y-23388043D01*
X55716592Y-23256924D01*
X55924640Y-23097282D01*
X55924644Y-23097277D01*
X55924649Y-23097274D01*
X56110063Y-22911860D01*
X56110066Y-22911855D01*
X56110071Y-22911851D01*
X56269713Y-22703803D01*
X56400832Y-22476697D01*
X56501187Y-22234419D01*
X56569059Y-21981116D01*
X56603289Y-21721120D01*
X56603289Y-21458880D01*
X56569059Y-21198884D01*
X56501187Y-20945581D01*
X56453312Y-20830000D01*
X56400835Y-20703309D01*
X56400830Y-20703299D01*
X56269713Y-20476196D01*
X56110070Y-20268148D01*
X56110063Y-20268140D01*
X55924649Y-20082726D01*
X55924640Y-20082718D01*
X55871752Y-20042135D01*
X57682289Y-20042135D01*
X57682289Y-23137870D01*
X57682290Y-23137876D01*
X57688697Y-23197483D01*
X57738991Y-23332328D01*
X57738995Y-23332335D01*
X57825241Y-23447544D01*
X57825244Y-23447547D01*
X57940453Y-23533793D01*
X57940460Y-23533797D01*
X58075306Y-23584091D01*
X58075305Y-23584091D01*
X58082233Y-23584835D01*
X58134916Y-23590500D01*
X61230661Y-23590499D01*
X61290272Y-23584091D01*
X61425120Y-23533796D01*
X61540335Y-23447546D01*
X61626585Y-23332331D01*
X61676880Y-23197483D01*
X61683289Y-23137873D01*
X61683288Y-21458872D01*
X70382289Y-21458872D01*
X70382289Y-21721127D01*
X70394212Y-21811684D01*
X70416519Y-21981116D01*
X70441534Y-22074472D01*
X70484391Y-22234418D01*
X70484394Y-22234428D01*
X70584742Y-22476690D01*
X70584747Y-22476700D01*
X70715864Y-22703803D01*
X70875507Y-22911851D01*
X70875515Y-22911860D01*
X71060929Y-23097274D01*
X71060937Y-23097281D01*
X71268985Y-23256924D01*
X71496088Y-23388041D01*
X71496098Y-23388046D01*
X71738360Y-23488394D01*
X71738370Y-23488398D01*
X71991673Y-23556270D01*
X72239977Y-23588960D01*
X72251653Y-23590498D01*
X72251669Y-23590500D01*
X72251676Y-23590500D01*
X72513902Y-23590500D01*
X72513909Y-23590500D01*
X72773905Y-23556270D01*
X73027208Y-23488398D01*
X73269486Y-23388043D01*
X73496592Y-23256924D01*
X73704640Y-23097282D01*
X73704644Y-23097277D01*
X73704649Y-23097274D01*
X73890063Y-22911860D01*
X73890066Y-22911855D01*
X73890071Y-22911851D01*
X74049713Y-22703803D01*
X74180832Y-22476697D01*
X74281187Y-22234419D01*
X74349059Y-21981116D01*
X74383289Y-21721120D01*
X74383289Y-21458880D01*
X74349059Y-21198884D01*
X74281187Y-20945581D01*
X74233312Y-20830000D01*
X74180835Y-20703309D01*
X74180830Y-20703299D01*
X74049713Y-20476196D01*
X73890070Y-20268148D01*
X73890063Y-20268140D01*
X73704649Y-20082726D01*
X73704640Y-20082718D01*
X73651752Y-20042135D01*
X75462289Y-20042135D01*
X75462289Y-23137870D01*
X75462290Y-23137876D01*
X75468697Y-23197483D01*
X75518991Y-23332328D01*
X75518995Y-23332335D01*
X75605241Y-23447544D01*
X75605244Y-23447547D01*
X75720453Y-23533793D01*
X75720460Y-23533797D01*
X75855306Y-23584091D01*
X75855305Y-23584091D01*
X75862233Y-23584835D01*
X75914916Y-23590500D01*
X79010661Y-23590499D01*
X79070272Y-23584091D01*
X79205120Y-23533796D01*
X79320335Y-23447546D01*
X79406585Y-23332331D01*
X79456880Y-23197483D01*
X79463289Y-23137873D01*
X79463288Y-20042128D01*
X79456880Y-19982517D01*
X79406673Y-19847906D01*
X79406586Y-19847671D01*
X79406582Y-19847664D01*
X79320336Y-19732455D01*
X79320333Y-19732452D01*
X79205124Y-19646206D01*
X79205117Y-19646202D01*
X79070271Y-19595908D01*
X79070272Y-19595908D01*
X79010672Y-19589501D01*
X79010670Y-19589500D01*
X79010662Y-19589500D01*
X79010653Y-19589500D01*
X75914918Y-19589500D01*
X75914912Y-19589501D01*
X75855305Y-19595908D01*
X75720460Y-19646202D01*
X75720453Y-19646206D01*
X75605244Y-19732452D01*
X75605241Y-19732455D01*
X75518995Y-19847664D01*
X75518991Y-19847671D01*
X75468697Y-19982517D01*
X75462290Y-20042116D01*
X75462290Y-20042123D01*
X75462289Y-20042135D01*
X73651752Y-20042135D01*
X73496592Y-19923075D01*
X73269489Y-19791958D01*
X73269479Y-19791953D01*
X73027217Y-19691605D01*
X73027210Y-19691603D01*
X73027208Y-19691602D01*
X72773905Y-19623730D01*
X72716128Y-19616123D01*
X72513916Y-19589500D01*
X72513909Y-19589500D01*
X72251669Y-19589500D01*
X72251661Y-19589500D01*
X72020561Y-19619926D01*
X71991673Y-19623730D01*
X71906153Y-19646645D01*
X71738370Y-19691602D01*
X71738360Y-19691605D01*
X71496098Y-19791953D01*
X71496088Y-19791958D01*
X71268985Y-19923075D01*
X71060937Y-20082718D01*
X70875507Y-20268148D01*
X70715864Y-20476196D01*
X70584747Y-20703299D01*
X70584742Y-20703309D01*
X70484394Y-20945571D01*
X70484391Y-20945581D01*
X70416519Y-21198885D01*
X70382289Y-21458872D01*
X61683288Y-21458872D01*
X61683288Y-20042128D01*
X61676880Y-19982517D01*
X61626673Y-19847906D01*
X61626586Y-19847671D01*
X61626582Y-19847664D01*
X61540336Y-19732455D01*
X61540333Y-19732452D01*
X61425124Y-19646206D01*
X61425117Y-19646202D01*
X61290271Y-19595908D01*
X61290272Y-19595908D01*
X61230672Y-19589501D01*
X61230670Y-19589500D01*
X61230662Y-19589500D01*
X61230653Y-19589500D01*
X58134918Y-19589500D01*
X58134912Y-19589501D01*
X58075305Y-19595908D01*
X57940460Y-19646202D01*
X57940453Y-19646206D01*
X57825244Y-19732452D01*
X57825241Y-19732455D01*
X57738995Y-19847664D01*
X57738991Y-19847671D01*
X57688697Y-19982517D01*
X57682290Y-20042116D01*
X57682290Y-20042123D01*
X57682289Y-20042135D01*
X55871752Y-20042135D01*
X55716592Y-19923075D01*
X55489489Y-19791958D01*
X55489479Y-19791953D01*
X55247217Y-19691605D01*
X55247210Y-19691603D01*
X55247208Y-19691602D01*
X54993905Y-19623730D01*
X54936128Y-19616123D01*
X54733916Y-19589500D01*
X54733909Y-19589500D01*
X54471669Y-19589500D01*
X54471661Y-19589500D01*
X54240561Y-19619926D01*
X54211673Y-19623730D01*
X54126153Y-19646645D01*
X53958370Y-19691602D01*
X53958360Y-19691605D01*
X53716098Y-19791953D01*
X53716088Y-19791958D01*
X53488985Y-19923075D01*
X53280937Y-20082718D01*
X53095507Y-20268148D01*
X52935864Y-20476196D01*
X52804747Y-20703299D01*
X52804742Y-20703309D01*
X52704394Y-20945571D01*
X52704391Y-20945581D01*
X52636519Y-21198885D01*
X52602289Y-21458872D01*
X41388806Y-21458872D01*
X41370793Y-21368316D01*
X41359064Y-21340000D01*
X42640000Y-21340000D01*
X42640000Y-20042172D01*
X42639999Y-20042155D01*
X42633598Y-19982627D01*
X42633596Y-19982620D01*
X42583354Y-19847913D01*
X42583350Y-19847906D01*
X42497190Y-19732812D01*
X42497187Y-19732809D01*
X42382093Y-19646649D01*
X42382086Y-19646645D01*
X42247379Y-19596403D01*
X42247372Y-19596401D01*
X42187844Y-19590000D01*
X40890000Y-19590000D01*
X40890000Y-20870935D01*
X40861684Y-20859207D01*
X40714853Y-20830000D01*
X40565147Y-20830000D01*
X40418316Y-20859207D01*
X40390000Y-20870935D01*
X40390000Y-19590000D01*
X39092155Y-19590000D01*
X39032627Y-19596401D01*
X39032620Y-19596403D01*
X38897913Y-19646645D01*
X38897906Y-19646649D01*
X38782812Y-19732809D01*
X38782809Y-19732812D01*
X38696649Y-19847906D01*
X38696645Y-19847913D01*
X38646403Y-19982620D01*
X38646401Y-19982627D01*
X38640000Y-20042155D01*
X36828989Y-20042155D01*
X36673803Y-19923075D01*
X36446700Y-19791958D01*
X36446690Y-19791953D01*
X36204428Y-19691605D01*
X36204421Y-19691603D01*
X36204419Y-19691602D01*
X35951116Y-19623730D01*
X35893339Y-19616123D01*
X35691127Y-19589500D01*
X35691120Y-19589500D01*
X35428880Y-19589500D01*
X35428872Y-19589500D01*
X35197772Y-19619926D01*
X35168884Y-19623730D01*
X35083364Y-19646645D01*
X34915581Y-19691602D01*
X34915571Y-19691605D01*
X34673309Y-19791953D01*
X34673299Y-19791958D01*
X34446196Y-19923075D01*
X34238148Y-20082718D01*
X34052718Y-20268148D01*
X33893075Y-20476196D01*
X33761958Y-20703299D01*
X33761953Y-20703309D01*
X33661605Y-20945571D01*
X33661602Y-20945581D01*
X33593730Y-21198885D01*
X33559500Y-21458872D01*
X15740500Y-21458872D01*
X15740500Y-15864500D01*
X15760185Y-15797461D01*
X15812989Y-15751706D01*
X15864500Y-15740500D01*
X114615500Y-15740500D01*
X114682539Y-15760185D01*
G37*
G04 #@! TD.AperFunction*
M02*
