G04 #@! TF.GenerationSoftware,KiCad,Pcbnew,9.0.3-9.0.3-0~ubuntu22.04.1*
G04 #@! TF.CreationDate,2025-07-10T23:03:30+01:00*
G04 #@! TF.ProjectId,dali-pcb,64616c69-2d70-4636-922e-6b696361645f,rev?*
G04 #@! TF.SameCoordinates,Original*
G04 #@! TF.FileFunction,Soldermask,Top*
G04 #@! TF.FilePolarity,Negative*
%FSLAX46Y46*%
G04 Gerber Fmt 4.6, Leading zero omitted, Abs format (unit mm)*
G04 Created by KiCad (PCBNEW 9.0.3-9.0.3-0~ubuntu22.04.1) date 2025-07-10 23:03:30*
%MOMM*%
%LPD*%
G01*
G04 APERTURE LIST*
G04 Aperture macros list*
%AMRoundRect*
0 Rectangle with rounded corners*
0 $1 Rounding radius*
0 $2 $3 $4 $5 $6 $7 $8 $9 X,Y pos of 4 corners*
0 Add a 4 corners polygon primitive as box body*
4,1,4,$2,$3,$4,$5,$6,$7,$8,$9,$2,$3,0*
0 Add four circle primitives for the rounded corners*
1,1,$1+$1,$2,$3*
1,1,$1+$1,$4,$5*
1,1,$1+$1,$6,$7*
1,1,$1+$1,$8,$9*
0 Add four rect primitives between the rounded corners*
20,1,$1+$1,$2,$3,$4,$5,0*
20,1,$1+$1,$4,$5,$6,$7,0*
20,1,$1+$1,$6,$7,$8,$9,0*
20,1,$1+$1,$8,$9,$2,$3,0*%
%AMFreePoly0*
4,1,23,0.000000,0.745722,0.065263,0.745722,0.191342,0.711940,0.304381,0.646677,0.396677,0.554381,0.461940,0.441342,0.495722,0.315263,0.495722,0.250000,0.500000,0.250000,0.500000,-0.250000,0.495722,-0.250000,0.495722,-0.315263,0.461940,-0.441342,0.396677,-0.554381,0.304381,-0.646677,0.191342,-0.711940,0.065263,-0.745722,0.000000,-0.745722,0.000000,-0.750000,-0.500000,-0.750000,
-0.500000,0.750000,0.000000,0.750000,0.000000,0.745722,0.000000,0.745722,$1*%
%AMFreePoly1*
4,1,23,0.500000,-0.750000,0.000000,-0.750000,0.000000,-0.745722,-0.065263,-0.745722,-0.191342,-0.711940,-0.304381,-0.646677,-0.396677,-0.554381,-0.461940,-0.441342,-0.495722,-0.315263,-0.495722,-0.250000,-0.500000,-0.250000,-0.500000,0.250000,-0.495722,0.250000,-0.495722,0.315263,-0.461940,0.441342,-0.396677,0.554381,-0.304381,0.646677,-0.191342,0.711940,-0.065263,0.745722,0.000000,0.745722,
0.000000,0.750000,0.500000,0.750000,0.500000,-0.750000,0.500000,-0.750000,$1*%
G04 Aperture macros list end*
%ADD10FreePoly0,180.000000*%
%ADD11FreePoly1,180.000000*%
%ADD12RoundRect,0.250000X-0.400000X-0.625000X0.400000X-0.625000X0.400000X0.625000X-0.400000X0.625000X0*%
%ADD13RoundRect,0.249999X1.425001X-0.450001X1.425001X0.450001X-1.425001X0.450001X-1.425001X-0.450001X0*%
%ADD14RoundRect,0.200000X0.750000X0.200000X-0.750000X0.200000X-0.750000X-0.200000X0.750000X-0.200000X0*%
%ADD15RoundRect,0.200000X0.200000X-0.750000X0.200000X0.750000X-0.200000X0.750000X-0.200000X-0.750000X0*%
%ADD16C,1.700000*%
%ADD17R,1.700000X1.700000*%
%ADD18RoundRect,0.250000X-0.350000X-0.450000X0.350000X-0.450000X0.350000X0.450000X-0.350000X0.450000X0*%
%ADD19R,3.000000X3.000000*%
%ADD20C,3.000000*%
%ADD21RoundRect,0.250000X-0.250000X-0.250000X0.250000X-0.250000X0.250000X0.250000X-0.250000X0.250000X0*%
%ADD22R,1.955800X0.939800*%
%ADD23RoundRect,0.250000X-0.450000X0.350000X-0.450000X-0.350000X0.450000X-0.350000X0.450000X0.350000X0*%
%ADD24C,6.400000*%
%ADD25R,1.168400X0.889000*%
%ADD26R,1.168400X0.508000*%
%ADD27FreePoly1,0.000000*%
%ADD28FreePoly0,0.000000*%
%ADD29RoundRect,0.250000X0.450000X-0.350000X0.450000X0.350000X-0.450000X0.350000X-0.450000X-0.350000X0*%
%ADD30RoundRect,0.375000X-0.625000X-0.375000X0.625000X-0.375000X0.625000X0.375000X-0.625000X0.375000X0*%
%ADD31RoundRect,0.500000X-0.500000X-1.400000X0.500000X-1.400000X0.500000X1.400000X-0.500000X1.400000X0*%
G04 APERTURE END LIST*
G36*
X54305000Y-34405000D02*
G01*
X54005000Y-34405000D01*
X54005000Y-32905000D01*
X54305000Y-32905000D01*
X54305000Y-34405000D01*
G37*
G36*
X54305000Y-46470000D02*
G01*
X54005000Y-46470000D01*
X54005000Y-44970000D01*
X54305000Y-44970000D01*
X54305000Y-46470000D01*
G37*
G36*
X42060000Y-40120000D02*
G01*
X41760000Y-40120000D01*
X41760000Y-38620000D01*
X42060000Y-38620000D01*
X42060000Y-40120000D01*
G37*
G36*
X41760000Y-31635000D02*
G01*
X42060000Y-31635000D01*
X42060000Y-33135000D01*
X41760000Y-33135000D01*
X41760000Y-31635000D01*
G37*
D10*
X53505000Y-33655000D03*
D11*
X54805000Y-33655000D03*
D12*
X77190000Y-30480000D03*
X80290000Y-30480000D03*
D13*
X78740000Y-34161000D03*
X78740000Y-40261000D03*
X22225000Y-35435000D03*
X22225000Y-29335000D03*
X33020000Y-45470000D03*
X33020000Y-39370000D03*
D14*
X68477500Y-40000000D03*
X68477500Y-38100000D03*
X65477500Y-39050000D03*
D15*
X28895000Y-32990000D03*
X30795000Y-32990000D03*
X29845000Y-29990000D03*
D16*
X85090000Y-118110000D03*
X85090000Y-115570000D03*
X85090000Y-113030000D03*
X85090000Y-110490000D03*
X85090000Y-107950000D03*
X85090000Y-105410000D03*
X85090000Y-102870000D03*
X85090000Y-100330000D03*
X85090000Y-97790000D03*
X85090000Y-95250000D03*
X85090000Y-92710000D03*
X85090000Y-90170000D03*
X85090000Y-87630000D03*
X85090000Y-85090000D03*
X85090000Y-82550000D03*
X85090000Y-80010000D03*
X85090000Y-77470000D03*
X85090000Y-74930000D03*
X85090000Y-72390000D03*
X85090000Y-69850000D03*
X85090000Y-67310000D03*
D17*
X85090000Y-64770000D03*
D18*
X79740000Y-43815000D03*
X77740000Y-43815000D03*
D10*
X53505000Y-45720000D03*
D11*
X54805000Y-45720000D03*
D17*
X121920000Y-55880000D03*
D16*
X121920000Y-58420000D03*
X121920000Y-60960000D03*
X121920000Y-63500000D03*
X121920000Y-66040000D03*
X121920000Y-68580000D03*
X121920000Y-71120000D03*
X121920000Y-73660000D03*
D17*
X111760000Y-55880000D03*
D16*
X111760000Y-58420000D03*
X111760000Y-60960000D03*
X111760000Y-63500000D03*
X111760000Y-66040000D03*
X111760000Y-68580000D03*
X111760000Y-71120000D03*
X111760000Y-73660000D03*
X111760000Y-76200000D03*
X111760000Y-78740000D03*
X111760000Y-81280000D03*
X111760000Y-83820000D03*
X111760000Y-86360000D03*
D17*
X121920000Y-106680000D03*
D16*
X121920000Y-109220000D03*
X121920000Y-111760000D03*
X121920000Y-114300000D03*
X121920000Y-116840000D03*
D17*
X48260000Y-110490000D03*
D16*
X48260000Y-107950000D03*
X45720000Y-110490000D03*
X45720000Y-107950000D03*
X43180000Y-110490000D03*
X43180000Y-107950000D03*
X40640000Y-110490000D03*
X40640000Y-107950000D03*
X38100000Y-110490000D03*
X38100000Y-107950000D03*
X35560000Y-110490000D03*
X35560000Y-107950000D03*
X33020000Y-110490000D03*
X33020000Y-107950000D03*
X30480000Y-110490000D03*
X30480000Y-107950000D03*
D17*
X48260000Y-97790000D03*
D16*
X48260000Y-95250000D03*
X45720000Y-97790000D03*
X45720000Y-95250000D03*
X43180000Y-97790000D03*
X43180000Y-95250000D03*
X40640000Y-97790000D03*
X40640000Y-95250000D03*
X38100000Y-97790000D03*
X38100000Y-95250000D03*
X35560000Y-97790000D03*
X35560000Y-95250000D03*
X33020000Y-97790000D03*
X33020000Y-95250000D03*
X30480000Y-97790000D03*
X30480000Y-95250000D03*
D19*
X182880000Y-21590000D03*
D20*
X177800000Y-21590000D03*
D11*
X42560000Y-39370000D03*
D10*
X41260000Y-39370000D03*
D19*
X165100000Y-21590000D03*
D20*
X160020000Y-21590000D03*
D21*
X66060000Y-31750000D03*
X68560000Y-31750000D03*
D19*
X40640000Y-21590000D03*
D20*
X35560000Y-21590000D03*
D17*
X132080000Y-55880000D03*
D16*
X132080000Y-58420000D03*
X132080000Y-60960000D03*
X132080000Y-63500000D03*
X132080000Y-66040000D03*
X132080000Y-68580000D03*
X132080000Y-71120000D03*
X132080000Y-73660000D03*
D17*
X73660000Y-64770000D03*
D16*
X73660000Y-67310000D03*
X73660000Y-69850000D03*
X73660000Y-72390000D03*
X73660000Y-74930000D03*
X73660000Y-77470000D03*
X73660000Y-80010000D03*
X73660000Y-82550000D03*
X73660000Y-85090000D03*
X73660000Y-87630000D03*
X73660000Y-90170000D03*
X73660000Y-92710000D03*
X73660000Y-95250000D03*
X73660000Y-97790000D03*
X73660000Y-100330000D03*
X73660000Y-102870000D03*
X73660000Y-105410000D03*
X73660000Y-107950000D03*
X73660000Y-110490000D03*
X73660000Y-113030000D03*
D17*
X152400000Y-55880000D03*
D16*
X152400000Y-58420000D03*
X152400000Y-60960000D03*
X152400000Y-63500000D03*
X152400000Y-66040000D03*
D17*
X162560000Y-55880000D03*
D16*
X162560000Y-58420000D03*
X162560000Y-60960000D03*
X162560000Y-63500000D03*
X162560000Y-66040000D03*
D17*
X48260000Y-77470000D03*
D16*
X48260000Y-74930000D03*
X45720000Y-77470000D03*
X45720000Y-74930000D03*
X43180000Y-77470000D03*
X43180000Y-74930000D03*
X40640000Y-77470000D03*
X40640000Y-74930000D03*
X38100000Y-77470000D03*
X38100000Y-74930000D03*
X35560000Y-77470000D03*
X35560000Y-74930000D03*
X33020000Y-77470000D03*
X33020000Y-74930000D03*
X30480000Y-77470000D03*
X30480000Y-74930000D03*
D17*
X162560000Y-85090000D03*
D16*
X162560000Y-87630000D03*
D17*
X62230000Y-64770000D03*
D16*
X62230000Y-67310000D03*
X62230000Y-69850000D03*
X62230000Y-72390000D03*
X62230000Y-74930000D03*
X62230000Y-77470000D03*
X62230000Y-80010000D03*
X62230000Y-82550000D03*
X62230000Y-85090000D03*
X62230000Y-87630000D03*
X62230000Y-90170000D03*
X62230000Y-92710000D03*
X62230000Y-95250000D03*
X62230000Y-97790000D03*
X62230000Y-100330000D03*
X62230000Y-102870000D03*
X62230000Y-105410000D03*
X62230000Y-107950000D03*
X62230000Y-110490000D03*
X62230000Y-113030000D03*
X62230000Y-115570000D03*
X62230000Y-118110000D03*
D22*
X88519000Y-31750000D03*
X88519000Y-34290000D03*
X98171000Y-34290000D03*
X98171000Y-31750000D03*
D17*
X172720000Y-101600000D03*
D16*
X172720000Y-104140000D03*
X172720000Y-106680000D03*
X172720000Y-109220000D03*
X172720000Y-111760000D03*
X172720000Y-114300000D03*
X172720000Y-116840000D03*
D23*
X105410000Y-40910000D03*
X105410000Y-42910000D03*
D17*
X132080000Y-106680000D03*
D16*
X132080000Y-109220000D03*
X132080000Y-111760000D03*
X132080000Y-114300000D03*
X132080000Y-116840000D03*
D24*
X190490000Y-20490000D03*
D25*
X57305906Y-40109099D03*
D26*
X57305906Y-38399599D03*
X54806707Y-38399598D03*
X54806707Y-40299600D03*
D27*
X41260000Y-32385000D03*
D28*
X42560000Y-32385000D03*
D17*
X124460000Y-36830000D03*
D16*
X127000000Y-36830000D03*
X129540000Y-36830000D03*
X132080000Y-36830000D03*
X134620000Y-36830000D03*
X137160000Y-36830000D03*
X139700000Y-36830000D03*
X142240000Y-36830000D03*
X144780000Y-36830000D03*
X147320000Y-36830000D03*
D17*
X142240000Y-55880000D03*
D16*
X142240000Y-58420000D03*
X142240000Y-60960000D03*
X142240000Y-63500000D03*
X142240000Y-66040000D03*
D17*
X162560000Y-101600000D03*
D16*
X162560000Y-104140000D03*
X162560000Y-106680000D03*
X162560000Y-109220000D03*
X162560000Y-111760000D03*
X162560000Y-114300000D03*
X162560000Y-116840000D03*
D29*
X105410000Y-34020000D03*
X105410000Y-32020000D03*
D19*
X129540000Y-21590000D03*
D20*
X124460000Y-21590000D03*
D19*
X147320000Y-21590000D03*
D20*
X142240000Y-21590000D03*
D17*
X172720000Y-85090000D03*
D16*
X172720000Y-87630000D03*
D17*
X160020000Y-36830000D03*
D16*
X162560000Y-36830000D03*
X165100000Y-36830000D03*
X167640000Y-36830000D03*
X170180000Y-36830000D03*
X172720000Y-36830000D03*
X175260000Y-36830000D03*
X177800000Y-36830000D03*
X180340000Y-36830000D03*
X182880000Y-36830000D03*
D17*
X142240000Y-85090000D03*
D16*
X142240000Y-87630000D03*
D17*
X27940000Y-55880000D03*
D16*
X30480000Y-55880000D03*
X33020000Y-55880000D03*
X35560000Y-55880000D03*
D17*
X142240000Y-106680000D03*
D16*
X142240000Y-109220000D03*
X142240000Y-111760000D03*
X142240000Y-114300000D03*
X142240000Y-116840000D03*
D17*
X172720000Y-55880000D03*
D16*
X172720000Y-58420000D03*
X172720000Y-60960000D03*
X172720000Y-63500000D03*
X172720000Y-66040000D03*
D17*
X152400000Y-85090000D03*
D16*
X152400000Y-87630000D03*
D17*
X182880000Y-55880000D03*
D16*
X182880000Y-58420000D03*
X182880000Y-60960000D03*
X182880000Y-63500000D03*
X182880000Y-66040000D03*
D22*
X88519000Y-40640000D03*
X88519000Y-43180000D03*
X98171000Y-43180000D03*
X98171000Y-40640000D03*
D24*
X20490000Y-20490000D03*
X190490000Y-122990000D03*
D17*
X43180000Y-55880000D03*
D16*
X45720000Y-55880000D03*
X48260000Y-55880000D03*
X50800000Y-55880000D03*
X53340000Y-55880000D03*
X55880000Y-55880000D03*
D30*
X21615000Y-40880000D03*
X21615000Y-43180000D03*
D31*
X27915000Y-43180000D03*
D30*
X21615000Y-45480000D03*
D17*
X96520000Y-64770000D03*
D16*
X96520000Y-67310000D03*
X96520000Y-69850000D03*
X96520000Y-72390000D03*
X96520000Y-74930000D03*
X96520000Y-77470000D03*
X96520000Y-80010000D03*
X96520000Y-82550000D03*
X96520000Y-85090000D03*
X96520000Y-87630000D03*
X96520000Y-90170000D03*
X96520000Y-92710000D03*
X96520000Y-95250000D03*
X96520000Y-97790000D03*
X96520000Y-100330000D03*
X96520000Y-102870000D03*
X96520000Y-105410000D03*
X96520000Y-107950000D03*
X96520000Y-110490000D03*
X96520000Y-113030000D03*
D19*
X83820000Y-21590000D03*
D20*
X78740000Y-21590000D03*
D17*
X48260000Y-90170000D03*
D16*
X48260000Y-87630000D03*
X45720000Y-90170000D03*
X45720000Y-87630000D03*
X43180000Y-90170000D03*
X43180000Y-87630000D03*
X40640000Y-90170000D03*
X40640000Y-87630000D03*
X38100000Y-90170000D03*
X38100000Y-87630000D03*
X35560000Y-90170000D03*
X35560000Y-87630000D03*
X33020000Y-90170000D03*
X33020000Y-87630000D03*
X30480000Y-90170000D03*
X30480000Y-87630000D03*
D24*
X20490000Y-122990000D03*
D19*
X106680000Y-21590000D03*
D20*
X101600000Y-21590000D03*
D17*
X151765000Y-106680000D03*
D16*
X151765000Y-109220000D03*
X151765000Y-111760000D03*
X151765000Y-114300000D03*
X151765000Y-116840000D03*
D17*
X182880000Y-91440000D03*
D16*
X182880000Y-93980000D03*
X182880000Y-96520000D03*
X182880000Y-99060000D03*
X182880000Y-101600000D03*
X182880000Y-104140000D03*
X182880000Y-106680000D03*
X182880000Y-109220000D03*
X182880000Y-111760000D03*
X182880000Y-114300000D03*
X182880000Y-116840000D03*
D19*
X60960000Y-21590000D03*
D20*
X55880000Y-21590000D03*
M02*
