%TF.GenerationSoftware,KiCad,Pcbnew,9.0.3-9.0.3-0~ubuntu22.04.1*%
%TF.CreationDate,2025-07-10T23:03:34+01:00*%
%TF.ProjectId,dali-pcb,64616c69-2d70-4636-922e-6b696361645f,rev?*%
%TF.SameCoordinates,Original*%
%TF.FileFunction,Drillmap*%
%TF.FilePolarity,Positive*%
%FSLAX45Y45*%
G04 Gerber Fmt 4.5, Leading zero omitted, Abs format (unit mm)*
G04 Created by KiCad (PCBNEW 9.0.3-9.0.3-0~ubuntu22.04.1) date 2025-07-10 23:03:34*
%MOMM*%
%LPD*%
G01*
G04 APERTURE LIST*
%ADD10C,0.200000*%
%ADD11C,0.100000*%
%ADD12C,0.152000*%
%ADD13C,0.320000*%
G04 APERTURE END LIST*
D10*
X1524000Y-1524000D02*
X19574000Y-1524000D01*
X19574000Y-12824000D01*
X1524000Y-12824000D01*
X1524000Y-1524000D01*
D11*
X2588500Y-3668000D02*
X2618500Y-3698000D01*
X2618500Y-3668000D02*
X2588500Y-3698000D01*
X2626600Y-9637000D02*
X2656600Y-9667000D01*
X2656600Y-9637000D02*
X2626600Y-9667000D01*
X2626600Y-10907000D02*
X2656600Y-10937000D01*
X2656600Y-10907000D02*
X2626600Y-10937000D01*
X2652000Y-2956800D02*
X2682000Y-2986800D01*
X2682000Y-2956800D02*
X2652000Y-2986800D01*
X2715500Y-11732500D02*
X2745500Y-11762500D01*
X2745500Y-11732500D02*
X2715500Y-11762500D01*
X2779000Y-6716000D02*
X2809000Y-6746000D01*
X2809000Y-6716000D02*
X2779000Y-6746000D01*
X2855200Y-9256000D02*
X2885200Y-9286000D01*
X2885200Y-9256000D02*
X2855200Y-9286000D01*
X3033000Y-8240000D02*
X3063000Y-8270000D01*
X3063000Y-8240000D02*
X3033000Y-8270000D01*
X3033000Y-11288000D02*
X3063000Y-11318000D01*
X3063000Y-11288000D02*
X3033000Y-11318000D01*
X3096500Y-3668000D02*
X3126500Y-3698000D01*
X3126500Y-3668000D02*
X3096500Y-3698000D01*
X3160000Y-2398000D02*
X3190000Y-2428000D01*
X3190000Y-2398000D02*
X3160000Y-2428000D01*
X3287000Y-6716000D02*
X3317000Y-6746000D01*
X3317000Y-6716000D02*
X3287000Y-6746000D01*
X3363200Y-11389600D02*
X3393200Y-11419600D01*
X3393200Y-11389600D02*
X3363200Y-11419600D01*
X3363200Y-11618200D02*
X3393200Y-11648200D01*
X3393200Y-11618200D02*
X3363200Y-11648200D01*
X3541000Y-9256000D02*
X3571000Y-9286000D01*
X3571000Y-9256000D02*
X3541000Y-9286000D01*
X3541000Y-10272000D02*
X3571000Y-10302000D01*
X3571000Y-10272000D02*
X3541000Y-10302000D01*
X3744200Y-2931400D02*
X3774200Y-2961400D01*
X3774200Y-2931400D02*
X3744200Y-2961400D01*
X3744200Y-11389600D02*
X3774200Y-11419600D01*
X3774200Y-11389600D02*
X3744200Y-11419600D01*
X3947400Y-2931400D02*
X3977400Y-2961400D01*
X3977400Y-2931400D02*
X3947400Y-2961400D01*
X3972800Y-11313400D02*
X4002800Y-11343400D01*
X4002800Y-11313400D02*
X3972800Y-11343400D01*
X4049000Y-6970000D02*
X4079000Y-7000000D01*
X4079000Y-6970000D02*
X4049000Y-7000000D01*
X4150600Y-2931400D02*
X4180600Y-2961400D01*
X4180600Y-2931400D02*
X4150600Y-2961400D01*
X4176272Y-8519400D02*
X4206272Y-8549400D01*
X4206272Y-8519400D02*
X4176272Y-8549400D01*
X4303000Y-8087600D02*
X4333000Y-8117600D01*
X4333000Y-8087600D02*
X4303000Y-8117600D01*
X4353800Y-2931400D02*
X4383800Y-2961400D01*
X4383800Y-2931400D02*
X4353800Y-2961400D01*
X4557000Y-2931400D02*
X4587000Y-2961400D01*
X4587000Y-2931400D02*
X4557000Y-2961400D01*
X4557000Y-6970000D02*
X4587000Y-7000000D01*
X4587000Y-6970000D02*
X4557000Y-7000000D01*
X4811000Y-3401300D02*
X4841000Y-3431300D01*
X4841000Y-3401300D02*
X4811000Y-3431300D01*
X4811000Y-3629900D02*
X4841000Y-3659900D01*
X4841000Y-3629900D02*
X4811000Y-3659900D01*
X4811000Y-3858500D02*
X4841000Y-3888500D01*
X4841000Y-3858500D02*
X4811000Y-3888500D01*
X4811000Y-9281400D02*
X4841000Y-9311400D01*
X4841000Y-9281400D02*
X4811000Y-9311400D01*
X5014200Y-7020800D02*
X5044200Y-7050800D01*
X5044200Y-7020800D02*
X5014200Y-7050800D01*
X5065000Y-7960600D02*
X5095000Y-7990600D01*
X5095000Y-7960600D02*
X5065000Y-7990600D01*
X5065000Y-8163800D02*
X5095000Y-8193800D01*
X5095000Y-8163800D02*
X5065000Y-8193800D01*
X5065000Y-8417800D02*
X5095000Y-8447800D01*
X5095000Y-8417800D02*
X5065000Y-8447800D01*
X5166600Y-6360400D02*
X5196600Y-6390400D01*
X5196600Y-6360400D02*
X5166600Y-6390400D01*
X5166600Y-9865600D02*
X5196600Y-9895600D01*
X5196600Y-9865600D02*
X5166600Y-9895600D01*
X5217400Y-3541000D02*
X5247400Y-3571000D01*
X5247400Y-3541000D02*
X5217400Y-3571000D01*
X5242800Y-6106400D02*
X5272800Y-6136400D01*
X5272800Y-6106400D02*
X5242800Y-6136400D01*
X5344400Y-8163800D02*
X5374400Y-8193800D01*
X5374400Y-8163800D02*
X5344400Y-8193800D01*
X5344400Y-8417800D02*
X5374400Y-8447800D01*
X5374400Y-8417800D02*
X5344400Y-8447800D01*
X5344400Y-9865600D02*
X5374400Y-9895600D01*
X5374400Y-9865600D02*
X5344400Y-9895600D01*
X5496800Y-7401800D02*
X5526800Y-7431800D01*
X5526800Y-7401800D02*
X5496800Y-7431800D01*
X5496800Y-8773400D02*
X5526800Y-8803400D01*
X5526800Y-8773400D02*
X5496800Y-8803400D01*
X5496800Y-9002000D02*
X5526800Y-9032000D01*
X5526800Y-9002000D02*
X5496800Y-9032000D01*
X5522200Y-4226800D02*
X5552200Y-4256800D01*
X5552200Y-4226800D02*
X5522200Y-4256800D01*
X5700000Y-7605000D02*
X5730000Y-7635000D01*
X5730000Y-7605000D02*
X5700000Y-7635000D01*
X5801600Y-7097000D02*
X5831600Y-7127000D01*
X5831600Y-7097000D02*
X5801600Y-7127000D01*
X5827000Y-6208000D02*
X5857000Y-6238000D01*
X5857000Y-6208000D02*
X5827000Y-6238000D01*
X5877800Y-9002000D02*
X5907800Y-9032000D01*
X5907800Y-9002000D02*
X5877800Y-9032000D01*
X5928600Y-9510000D02*
X5958600Y-9540000D01*
X5958600Y-9510000D02*
X5928600Y-9540000D01*
X5988700Y-9256000D02*
X6018700Y-9286000D01*
X6018700Y-9256000D02*
X5988700Y-9286000D01*
X6208000Y-3414000D02*
X6238000Y-3444000D01*
X6238000Y-3414000D02*
X6208000Y-3444000D01*
X6208000Y-3795000D02*
X6238000Y-3825000D01*
X6238000Y-3795000D02*
X6208000Y-3825000D01*
X6716000Y-2144000D02*
X6746000Y-2174000D01*
X6746000Y-2144000D02*
X6716000Y-2174000D01*
X6843000Y-6233400D02*
X6873000Y-6263400D01*
X6873000Y-6233400D02*
X6843000Y-6263400D01*
X7122400Y-11872200D02*
X7152400Y-11902200D01*
X7152400Y-11872200D02*
X7122400Y-11902200D01*
X7147800Y-5573000D02*
X7177800Y-5603000D01*
X7177800Y-5573000D02*
X7147800Y-5603000D01*
X7224000Y-3287000D02*
X7254000Y-3317000D01*
X7254000Y-3287000D02*
X7224000Y-3317000D01*
X7224000Y-3985500D02*
X7254000Y-4015500D01*
X7254000Y-3985500D02*
X7224000Y-4015500D01*
X7351000Y-2144000D02*
X7381000Y-2174000D01*
X7381000Y-2144000D02*
X7351000Y-2174000D01*
X7478000Y-3287000D02*
X7508000Y-3317000D01*
X7508000Y-3287000D02*
X7478000Y-3317000D01*
X7478000Y-3985500D02*
X7508000Y-4015500D01*
X7508000Y-3985500D02*
X7478000Y-4015500D01*
X7732000Y-6589000D02*
X7762000Y-6619000D01*
X7762000Y-6589000D02*
X7732000Y-6619000D01*
X7732000Y-6843000D02*
X7762000Y-6873000D01*
X7762000Y-6843000D02*
X7732000Y-6873000D01*
X7732000Y-8621000D02*
X7762000Y-8651000D01*
X7762000Y-8621000D02*
X7732000Y-8651000D01*
X7833600Y-11618200D02*
X7863600Y-11648200D01*
X7863600Y-11618200D02*
X7833600Y-11648200D01*
X7884400Y-7351000D02*
X7914400Y-7381000D01*
X7914400Y-7351000D02*
X7884400Y-7381000D01*
X7973300Y-8532100D02*
X8003300Y-8562100D01*
X8003300Y-8532100D02*
X7973300Y-8562100D01*
X7986000Y-8875000D02*
X8016000Y-8905000D01*
X8016000Y-8875000D02*
X7986000Y-8905000D01*
X8036800Y-11034000D02*
X8066800Y-11064000D01*
X8066800Y-11034000D02*
X8036800Y-11064000D01*
X8087600Y-8240000D02*
X8117600Y-8270000D01*
X8117600Y-8240000D02*
X8087600Y-8270000D01*
X8113000Y-11821400D02*
X8143000Y-11851400D01*
X8143000Y-11821400D02*
X8113000Y-11851400D01*
X8214600Y-11821400D02*
X8244600Y-11851400D01*
X8244600Y-11821400D02*
X8214600Y-11851400D01*
X8227300Y-3287000D02*
X8257300Y-3317000D01*
X8257300Y-3287000D02*
X8227300Y-3317000D01*
X8227300Y-3934700D02*
X8257300Y-3964700D01*
X8257300Y-3934700D02*
X8227300Y-3964700D01*
X8227300Y-4239500D02*
X8257300Y-4269500D01*
X8257300Y-4239500D02*
X8227300Y-4269500D01*
X8240000Y-11034000D02*
X8270000Y-11064000D01*
X8270000Y-11034000D02*
X8240000Y-11064000D01*
X8379700Y-4087100D02*
X8409700Y-4117100D01*
X8409700Y-4087100D02*
X8379700Y-4117100D01*
X8532100Y-3287000D02*
X8562100Y-3317000D01*
X8562100Y-3287000D02*
X8532100Y-3317000D01*
X8532100Y-3934700D02*
X8562100Y-3964700D01*
X8562100Y-3934700D02*
X8532100Y-3964700D01*
X8532100Y-4239500D02*
X8562100Y-4269500D01*
X8562100Y-4239500D02*
X8532100Y-4269500D01*
X9002000Y-2144000D02*
X9032000Y-2174000D01*
X9032000Y-2144000D02*
X9002000Y-2174000D01*
X9637000Y-2144000D02*
X9667000Y-2174000D01*
X9667000Y-2144000D02*
X9637000Y-2174000D01*
X10043400Y-8875000D02*
X10073400Y-8905000D01*
X10073400Y-8875000D02*
X10043400Y-8905000D01*
X10145000Y-11542000D02*
X10175000Y-11572000D01*
X10175000Y-11542000D02*
X10145000Y-11572000D01*
X10272000Y-8621000D02*
X10302000Y-8651000D01*
X10302000Y-8621000D02*
X10272000Y-8651000D01*
X10335500Y-7033500D02*
X10365500Y-7063500D01*
X10365500Y-7033500D02*
X10335500Y-7063500D01*
X12075400Y-9484600D02*
X12105400Y-9514600D01*
X12105400Y-9484600D02*
X12075400Y-9514600D01*
X12685000Y-10780000D02*
X12715000Y-10810000D01*
X12715000Y-10780000D02*
X12685000Y-10810000D01*
X12837400Y-9484600D02*
X12867400Y-9514600D01*
X12867400Y-9484600D02*
X12837400Y-9514600D01*
X13701000Y-9510000D02*
X13731000Y-9540000D01*
X13731000Y-9510000D02*
X13701000Y-9540000D01*
X13701000Y-10780000D02*
X13731000Y-10810000D01*
X13731000Y-10780000D02*
X13701000Y-10810000D01*
X14209000Y-9129000D02*
X14239000Y-9159000D01*
X14239000Y-9129000D02*
X14209000Y-9159000D01*
X14717000Y-10780000D02*
X14747000Y-10810000D01*
X14747000Y-10780000D02*
X14717000Y-10810000D01*
X15733000Y-10526000D02*
X15763000Y-10556000D01*
X15763000Y-10526000D02*
X15733000Y-10556000D01*
X16774400Y-10754600D02*
X16804400Y-10784600D01*
X16804400Y-10754600D02*
X16774400Y-10784600D01*
X18019000Y-10399000D02*
X18049000Y-10429000D01*
X18049000Y-10399000D02*
X18019000Y-10429000D01*
X2844000Y-5588000D02*
G75*
G02*
X2744000Y-5588000I-50000J0D01*
G01*
X2744000Y-5588000D02*
G75*
G02*
X2844000Y-5588000I50000J0D01*
G01*
X3098000Y-5588000D02*
G75*
G02*
X2998000Y-5588000I-50000J0D01*
G01*
X2998000Y-5588000D02*
G75*
G02*
X3098000Y-5588000I50000J0D01*
G01*
X3098000Y-7493000D02*
G75*
G02*
X2998000Y-7493000I-50000J0D01*
G01*
X2998000Y-7493000D02*
G75*
G02*
X3098000Y-7493000I50000J0D01*
G01*
X3098000Y-7747000D02*
G75*
G02*
X2998000Y-7747000I-50000J0D01*
G01*
X2998000Y-7747000D02*
G75*
G02*
X3098000Y-7747000I50000J0D01*
G01*
X3098000Y-8763000D02*
G75*
G02*
X2998000Y-8763000I-50000J0D01*
G01*
X2998000Y-8763000D02*
G75*
G02*
X3098000Y-8763000I50000J0D01*
G01*
X3098000Y-9017000D02*
G75*
G02*
X2998000Y-9017000I-50000J0D01*
G01*
X2998000Y-9017000D02*
G75*
G02*
X3098000Y-9017000I50000J0D01*
G01*
X3098000Y-9525000D02*
G75*
G02*
X2998000Y-9525000I-50000J0D01*
G01*
X2998000Y-9525000D02*
G75*
G02*
X3098000Y-9525000I50000J0D01*
G01*
X3098000Y-9779000D02*
G75*
G02*
X2998000Y-9779000I-50000J0D01*
G01*
X2998000Y-9779000D02*
G75*
G02*
X3098000Y-9779000I50000J0D01*
G01*
X3098000Y-10795000D02*
G75*
G02*
X2998000Y-10795000I-50000J0D01*
G01*
X2998000Y-10795000D02*
G75*
G02*
X3098000Y-10795000I50000J0D01*
G01*
X3098000Y-11049000D02*
G75*
G02*
X2998000Y-11049000I-50000J0D01*
G01*
X2998000Y-11049000D02*
G75*
G02*
X3098000Y-11049000I50000J0D01*
G01*
X3352000Y-5588000D02*
G75*
G02*
X3252000Y-5588000I-50000J0D01*
G01*
X3252000Y-5588000D02*
G75*
G02*
X3352000Y-5588000I50000J0D01*
G01*
X3352000Y-7493000D02*
G75*
G02*
X3252000Y-7493000I-50000J0D01*
G01*
X3252000Y-7493000D02*
G75*
G02*
X3352000Y-7493000I50000J0D01*
G01*
X3352000Y-7747000D02*
G75*
G02*
X3252000Y-7747000I-50000J0D01*
G01*
X3252000Y-7747000D02*
G75*
G02*
X3352000Y-7747000I50000J0D01*
G01*
X3352000Y-8763000D02*
G75*
G02*
X3252000Y-8763000I-50000J0D01*
G01*
X3252000Y-8763000D02*
G75*
G02*
X3352000Y-8763000I50000J0D01*
G01*
X3352000Y-9017000D02*
G75*
G02*
X3252000Y-9017000I-50000J0D01*
G01*
X3252000Y-9017000D02*
G75*
G02*
X3352000Y-9017000I50000J0D01*
G01*
X3352000Y-9525000D02*
G75*
G02*
X3252000Y-9525000I-50000J0D01*
G01*
X3252000Y-9525000D02*
G75*
G02*
X3352000Y-9525000I50000J0D01*
G01*
X3352000Y-9779000D02*
G75*
G02*
X3252000Y-9779000I-50000J0D01*
G01*
X3252000Y-9779000D02*
G75*
G02*
X3352000Y-9779000I50000J0D01*
G01*
X3352000Y-10795000D02*
G75*
G02*
X3252000Y-10795000I-50000J0D01*
G01*
X3252000Y-10795000D02*
G75*
G02*
X3352000Y-10795000I50000J0D01*
G01*
X3352000Y-11049000D02*
G75*
G02*
X3252000Y-11049000I-50000J0D01*
G01*
X3252000Y-11049000D02*
G75*
G02*
X3352000Y-11049000I50000J0D01*
G01*
X3606000Y-5588000D02*
G75*
G02*
X3506000Y-5588000I-50000J0D01*
G01*
X3506000Y-5588000D02*
G75*
G02*
X3606000Y-5588000I50000J0D01*
G01*
X3606000Y-7493000D02*
G75*
G02*
X3506000Y-7493000I-50000J0D01*
G01*
X3506000Y-7493000D02*
G75*
G02*
X3606000Y-7493000I50000J0D01*
G01*
X3606000Y-7747000D02*
G75*
G02*
X3506000Y-7747000I-50000J0D01*
G01*
X3506000Y-7747000D02*
G75*
G02*
X3606000Y-7747000I50000J0D01*
G01*
X3606000Y-8763000D02*
G75*
G02*
X3506000Y-8763000I-50000J0D01*
G01*
X3506000Y-8763000D02*
G75*
G02*
X3606000Y-8763000I50000J0D01*
G01*
X3606000Y-9017000D02*
G75*
G02*
X3506000Y-9017000I-50000J0D01*
G01*
X3506000Y-9017000D02*
G75*
G02*
X3606000Y-9017000I50000J0D01*
G01*
X3606000Y-9525000D02*
G75*
G02*
X3506000Y-9525000I-50000J0D01*
G01*
X3506000Y-9525000D02*
G75*
G02*
X3606000Y-9525000I50000J0D01*
G01*
X3606000Y-9779000D02*
G75*
G02*
X3506000Y-9779000I-50000J0D01*
G01*
X3506000Y-9779000D02*
G75*
G02*
X3606000Y-9779000I50000J0D01*
G01*
X3606000Y-10795000D02*
G75*
G02*
X3506000Y-10795000I-50000J0D01*
G01*
X3506000Y-10795000D02*
G75*
G02*
X3606000Y-10795000I50000J0D01*
G01*
X3606000Y-11049000D02*
G75*
G02*
X3506000Y-11049000I-50000J0D01*
G01*
X3506000Y-11049000D02*
G75*
G02*
X3606000Y-11049000I50000J0D01*
G01*
X3860000Y-7493000D02*
G75*
G02*
X3760000Y-7493000I-50000J0D01*
G01*
X3760000Y-7493000D02*
G75*
G02*
X3860000Y-7493000I50000J0D01*
G01*
X3860000Y-7747000D02*
G75*
G02*
X3760000Y-7747000I-50000J0D01*
G01*
X3760000Y-7747000D02*
G75*
G02*
X3860000Y-7747000I50000J0D01*
G01*
X3860000Y-8763000D02*
G75*
G02*
X3760000Y-8763000I-50000J0D01*
G01*
X3760000Y-8763000D02*
G75*
G02*
X3860000Y-8763000I50000J0D01*
G01*
X3860000Y-9017000D02*
G75*
G02*
X3760000Y-9017000I-50000J0D01*
G01*
X3760000Y-9017000D02*
G75*
G02*
X3860000Y-9017000I50000J0D01*
G01*
X3860000Y-9525000D02*
G75*
G02*
X3760000Y-9525000I-50000J0D01*
G01*
X3760000Y-9525000D02*
G75*
G02*
X3860000Y-9525000I50000J0D01*
G01*
X3860000Y-9779000D02*
G75*
G02*
X3760000Y-9779000I-50000J0D01*
G01*
X3760000Y-9779000D02*
G75*
G02*
X3860000Y-9779000I50000J0D01*
G01*
X3860000Y-10795000D02*
G75*
G02*
X3760000Y-10795000I-50000J0D01*
G01*
X3760000Y-10795000D02*
G75*
G02*
X3860000Y-10795000I50000J0D01*
G01*
X3860000Y-11049000D02*
G75*
G02*
X3760000Y-11049000I-50000J0D01*
G01*
X3760000Y-11049000D02*
G75*
G02*
X3860000Y-11049000I50000J0D01*
G01*
X4114000Y-7493000D02*
G75*
G02*
X4014000Y-7493000I-50000J0D01*
G01*
X4014000Y-7493000D02*
G75*
G02*
X4114000Y-7493000I50000J0D01*
G01*
X4114000Y-7747000D02*
G75*
G02*
X4014000Y-7747000I-50000J0D01*
G01*
X4014000Y-7747000D02*
G75*
G02*
X4114000Y-7747000I50000J0D01*
G01*
X4114000Y-8763000D02*
G75*
G02*
X4014000Y-8763000I-50000J0D01*
G01*
X4014000Y-8763000D02*
G75*
G02*
X4114000Y-8763000I50000J0D01*
G01*
X4114000Y-9017000D02*
G75*
G02*
X4014000Y-9017000I-50000J0D01*
G01*
X4014000Y-9017000D02*
G75*
G02*
X4114000Y-9017000I50000J0D01*
G01*
X4114000Y-9525000D02*
G75*
G02*
X4014000Y-9525000I-50000J0D01*
G01*
X4014000Y-9525000D02*
G75*
G02*
X4114000Y-9525000I50000J0D01*
G01*
X4114000Y-9779000D02*
G75*
G02*
X4014000Y-9779000I-50000J0D01*
G01*
X4014000Y-9779000D02*
G75*
G02*
X4114000Y-9779000I50000J0D01*
G01*
X4114000Y-10795000D02*
G75*
G02*
X4014000Y-10795000I-50000J0D01*
G01*
X4014000Y-10795000D02*
G75*
G02*
X4114000Y-10795000I50000J0D01*
G01*
X4114000Y-11049000D02*
G75*
G02*
X4014000Y-11049000I-50000J0D01*
G01*
X4014000Y-11049000D02*
G75*
G02*
X4114000Y-11049000I50000J0D01*
G01*
X4368000Y-5588000D02*
G75*
G02*
X4268000Y-5588000I-50000J0D01*
G01*
X4268000Y-5588000D02*
G75*
G02*
X4368000Y-5588000I50000J0D01*
G01*
X4368000Y-7493000D02*
G75*
G02*
X4268000Y-7493000I-50000J0D01*
G01*
X4268000Y-7493000D02*
G75*
G02*
X4368000Y-7493000I50000J0D01*
G01*
X4368000Y-7747000D02*
G75*
G02*
X4268000Y-7747000I-50000J0D01*
G01*
X4268000Y-7747000D02*
G75*
G02*
X4368000Y-7747000I50000J0D01*
G01*
X4368000Y-8763000D02*
G75*
G02*
X4268000Y-8763000I-50000J0D01*
G01*
X4268000Y-8763000D02*
G75*
G02*
X4368000Y-8763000I50000J0D01*
G01*
X4368000Y-9017000D02*
G75*
G02*
X4268000Y-9017000I-50000J0D01*
G01*
X4268000Y-9017000D02*
G75*
G02*
X4368000Y-9017000I50000J0D01*
G01*
X4368000Y-9525000D02*
G75*
G02*
X4268000Y-9525000I-50000J0D01*
G01*
X4268000Y-9525000D02*
G75*
G02*
X4368000Y-9525000I50000J0D01*
G01*
X4368000Y-9779000D02*
G75*
G02*
X4268000Y-9779000I-50000J0D01*
G01*
X4268000Y-9779000D02*
G75*
G02*
X4368000Y-9779000I50000J0D01*
G01*
X4368000Y-10795000D02*
G75*
G02*
X4268000Y-10795000I-50000J0D01*
G01*
X4268000Y-10795000D02*
G75*
G02*
X4368000Y-10795000I50000J0D01*
G01*
X4368000Y-11049000D02*
G75*
G02*
X4268000Y-11049000I-50000J0D01*
G01*
X4268000Y-11049000D02*
G75*
G02*
X4368000Y-11049000I50000J0D01*
G01*
X4622000Y-5588000D02*
G75*
G02*
X4522000Y-5588000I-50000J0D01*
G01*
X4522000Y-5588000D02*
G75*
G02*
X4622000Y-5588000I50000J0D01*
G01*
X4622000Y-7493000D02*
G75*
G02*
X4522000Y-7493000I-50000J0D01*
G01*
X4522000Y-7493000D02*
G75*
G02*
X4622000Y-7493000I50000J0D01*
G01*
X4622000Y-7747000D02*
G75*
G02*
X4522000Y-7747000I-50000J0D01*
G01*
X4522000Y-7747000D02*
G75*
G02*
X4622000Y-7747000I50000J0D01*
G01*
X4622000Y-8763000D02*
G75*
G02*
X4522000Y-8763000I-50000J0D01*
G01*
X4522000Y-8763000D02*
G75*
G02*
X4622000Y-8763000I50000J0D01*
G01*
X4622000Y-9017000D02*
G75*
G02*
X4522000Y-9017000I-50000J0D01*
G01*
X4522000Y-9017000D02*
G75*
G02*
X4622000Y-9017000I50000J0D01*
G01*
X4622000Y-9525000D02*
G75*
G02*
X4522000Y-9525000I-50000J0D01*
G01*
X4522000Y-9525000D02*
G75*
G02*
X4622000Y-9525000I50000J0D01*
G01*
X4622000Y-9779000D02*
G75*
G02*
X4522000Y-9779000I-50000J0D01*
G01*
X4522000Y-9779000D02*
G75*
G02*
X4622000Y-9779000I50000J0D01*
G01*
X4622000Y-10795000D02*
G75*
G02*
X4522000Y-10795000I-50000J0D01*
G01*
X4522000Y-10795000D02*
G75*
G02*
X4622000Y-10795000I50000J0D01*
G01*
X4622000Y-11049000D02*
G75*
G02*
X4522000Y-11049000I-50000J0D01*
G01*
X4522000Y-11049000D02*
G75*
G02*
X4622000Y-11049000I50000J0D01*
G01*
X4876000Y-5588000D02*
G75*
G02*
X4776000Y-5588000I-50000J0D01*
G01*
X4776000Y-5588000D02*
G75*
G02*
X4876000Y-5588000I50000J0D01*
G01*
X4876000Y-7493000D02*
G75*
G02*
X4776000Y-7493000I-50000J0D01*
G01*
X4776000Y-7493000D02*
G75*
G02*
X4876000Y-7493000I50000J0D01*
G01*
X4876000Y-7747000D02*
G75*
G02*
X4776000Y-7747000I-50000J0D01*
G01*
X4776000Y-7747000D02*
G75*
G02*
X4876000Y-7747000I50000J0D01*
G01*
X4876000Y-8763000D02*
G75*
G02*
X4776000Y-8763000I-50000J0D01*
G01*
X4776000Y-8763000D02*
G75*
G02*
X4876000Y-8763000I50000J0D01*
G01*
X4876000Y-9017000D02*
G75*
G02*
X4776000Y-9017000I-50000J0D01*
G01*
X4776000Y-9017000D02*
G75*
G02*
X4876000Y-9017000I50000J0D01*
G01*
X4876000Y-9525000D02*
G75*
G02*
X4776000Y-9525000I-50000J0D01*
G01*
X4776000Y-9525000D02*
G75*
G02*
X4876000Y-9525000I50000J0D01*
G01*
X4876000Y-9779000D02*
G75*
G02*
X4776000Y-9779000I-50000J0D01*
G01*
X4776000Y-9779000D02*
G75*
G02*
X4876000Y-9779000I50000J0D01*
G01*
X4876000Y-10795000D02*
G75*
G02*
X4776000Y-10795000I-50000J0D01*
G01*
X4776000Y-10795000D02*
G75*
G02*
X4876000Y-10795000I50000J0D01*
G01*
X4876000Y-11049000D02*
G75*
G02*
X4776000Y-11049000I-50000J0D01*
G01*
X4776000Y-11049000D02*
G75*
G02*
X4876000Y-11049000I50000J0D01*
G01*
X5130000Y-5588000D02*
G75*
G02*
X5030000Y-5588000I-50000J0D01*
G01*
X5030000Y-5588000D02*
G75*
G02*
X5130000Y-5588000I50000J0D01*
G01*
X5384000Y-5588000D02*
G75*
G02*
X5284000Y-5588000I-50000J0D01*
G01*
X5284000Y-5588000D02*
G75*
G02*
X5384000Y-5588000I50000J0D01*
G01*
X5638000Y-5588000D02*
G75*
G02*
X5538000Y-5588000I-50000J0D01*
G01*
X5538000Y-5588000D02*
G75*
G02*
X5638000Y-5588000I50000J0D01*
G01*
X6273000Y-6477000D02*
G75*
G02*
X6173000Y-6477000I-50000J0D01*
G01*
X6173000Y-6477000D02*
G75*
G02*
X6273000Y-6477000I50000J0D01*
G01*
X6273000Y-6731000D02*
G75*
G02*
X6173000Y-6731000I-50000J0D01*
G01*
X6173000Y-6731000D02*
G75*
G02*
X6273000Y-6731000I50000J0D01*
G01*
X6273000Y-6985000D02*
G75*
G02*
X6173000Y-6985000I-50000J0D01*
G01*
X6173000Y-6985000D02*
G75*
G02*
X6273000Y-6985000I50000J0D01*
G01*
X6273000Y-7239000D02*
G75*
G02*
X6173000Y-7239000I-50000J0D01*
G01*
X6173000Y-7239000D02*
G75*
G02*
X6273000Y-7239000I50000J0D01*
G01*
X6273000Y-7493000D02*
G75*
G02*
X6173000Y-7493000I-50000J0D01*
G01*
X6173000Y-7493000D02*
G75*
G02*
X6273000Y-7493000I50000J0D01*
G01*
X6273000Y-7747000D02*
G75*
G02*
X6173000Y-7747000I-50000J0D01*
G01*
X6173000Y-7747000D02*
G75*
G02*
X6273000Y-7747000I50000J0D01*
G01*
X6273000Y-8001000D02*
G75*
G02*
X6173000Y-8001000I-50000J0D01*
G01*
X6173000Y-8001000D02*
G75*
G02*
X6273000Y-8001000I50000J0D01*
G01*
X6273000Y-8255000D02*
G75*
G02*
X6173000Y-8255000I-50000J0D01*
G01*
X6173000Y-8255000D02*
G75*
G02*
X6273000Y-8255000I50000J0D01*
G01*
X6273000Y-8509000D02*
G75*
G02*
X6173000Y-8509000I-50000J0D01*
G01*
X6173000Y-8509000D02*
G75*
G02*
X6273000Y-8509000I50000J0D01*
G01*
X6273000Y-8763000D02*
G75*
G02*
X6173000Y-8763000I-50000J0D01*
G01*
X6173000Y-8763000D02*
G75*
G02*
X6273000Y-8763000I50000J0D01*
G01*
X6273000Y-9017000D02*
G75*
G02*
X6173000Y-9017000I-50000J0D01*
G01*
X6173000Y-9017000D02*
G75*
G02*
X6273000Y-9017000I50000J0D01*
G01*
X6273000Y-9271000D02*
G75*
G02*
X6173000Y-9271000I-50000J0D01*
G01*
X6173000Y-9271000D02*
G75*
G02*
X6273000Y-9271000I50000J0D01*
G01*
X6273000Y-9525000D02*
G75*
G02*
X6173000Y-9525000I-50000J0D01*
G01*
X6173000Y-9525000D02*
G75*
G02*
X6273000Y-9525000I50000J0D01*
G01*
X6273000Y-9779000D02*
G75*
G02*
X6173000Y-9779000I-50000J0D01*
G01*
X6173000Y-9779000D02*
G75*
G02*
X6273000Y-9779000I50000J0D01*
G01*
X6273000Y-10033000D02*
G75*
G02*
X6173000Y-10033000I-50000J0D01*
G01*
X6173000Y-10033000D02*
G75*
G02*
X6273000Y-10033000I50000J0D01*
G01*
X6273000Y-10287000D02*
G75*
G02*
X6173000Y-10287000I-50000J0D01*
G01*
X6173000Y-10287000D02*
G75*
G02*
X6273000Y-10287000I50000J0D01*
G01*
X6273000Y-10541000D02*
G75*
G02*
X6173000Y-10541000I-50000J0D01*
G01*
X6173000Y-10541000D02*
G75*
G02*
X6273000Y-10541000I50000J0D01*
G01*
X6273000Y-10795000D02*
G75*
G02*
X6173000Y-10795000I-50000J0D01*
G01*
X6173000Y-10795000D02*
G75*
G02*
X6273000Y-10795000I50000J0D01*
G01*
X6273000Y-11049000D02*
G75*
G02*
X6173000Y-11049000I-50000J0D01*
G01*
X6173000Y-11049000D02*
G75*
G02*
X6273000Y-11049000I50000J0D01*
G01*
X6273000Y-11303000D02*
G75*
G02*
X6173000Y-11303000I-50000J0D01*
G01*
X6173000Y-11303000D02*
G75*
G02*
X6273000Y-11303000I50000J0D01*
G01*
X6273000Y-11557000D02*
G75*
G02*
X6173000Y-11557000I-50000J0D01*
G01*
X6173000Y-11557000D02*
G75*
G02*
X6273000Y-11557000I50000J0D01*
G01*
X6273000Y-11811000D02*
G75*
G02*
X6173000Y-11811000I-50000J0D01*
G01*
X6173000Y-11811000D02*
G75*
G02*
X6273000Y-11811000I50000J0D01*
G01*
X7416000Y-6477000D02*
G75*
G02*
X7316000Y-6477000I-50000J0D01*
G01*
X7316000Y-6477000D02*
G75*
G02*
X7416000Y-6477000I50000J0D01*
G01*
X7416000Y-6731000D02*
G75*
G02*
X7316000Y-6731000I-50000J0D01*
G01*
X7316000Y-6731000D02*
G75*
G02*
X7416000Y-6731000I50000J0D01*
G01*
X7416000Y-6985000D02*
G75*
G02*
X7316000Y-6985000I-50000J0D01*
G01*
X7316000Y-6985000D02*
G75*
G02*
X7416000Y-6985000I50000J0D01*
G01*
X7416000Y-7239000D02*
G75*
G02*
X7316000Y-7239000I-50000J0D01*
G01*
X7316000Y-7239000D02*
G75*
G02*
X7416000Y-7239000I50000J0D01*
G01*
X7416000Y-7493000D02*
G75*
G02*
X7316000Y-7493000I-50000J0D01*
G01*
X7316000Y-7493000D02*
G75*
G02*
X7416000Y-7493000I50000J0D01*
G01*
X7416000Y-7747000D02*
G75*
G02*
X7316000Y-7747000I-50000J0D01*
G01*
X7316000Y-7747000D02*
G75*
G02*
X7416000Y-7747000I50000J0D01*
G01*
X7416000Y-8001000D02*
G75*
G02*
X7316000Y-8001000I-50000J0D01*
G01*
X7316000Y-8001000D02*
G75*
G02*
X7416000Y-8001000I50000J0D01*
G01*
X7416000Y-8255000D02*
G75*
G02*
X7316000Y-8255000I-50000J0D01*
G01*
X7316000Y-8255000D02*
G75*
G02*
X7416000Y-8255000I50000J0D01*
G01*
X7416000Y-8509000D02*
G75*
G02*
X7316000Y-8509000I-50000J0D01*
G01*
X7316000Y-8509000D02*
G75*
G02*
X7416000Y-8509000I50000J0D01*
G01*
X7416000Y-8763000D02*
G75*
G02*
X7316000Y-8763000I-50000J0D01*
G01*
X7316000Y-8763000D02*
G75*
G02*
X7416000Y-8763000I50000J0D01*
G01*
X7416000Y-9017000D02*
G75*
G02*
X7316000Y-9017000I-50000J0D01*
G01*
X7316000Y-9017000D02*
G75*
G02*
X7416000Y-9017000I50000J0D01*
G01*
X7416000Y-9271000D02*
G75*
G02*
X7316000Y-9271000I-50000J0D01*
G01*
X7316000Y-9271000D02*
G75*
G02*
X7416000Y-9271000I50000J0D01*
G01*
X7416000Y-9525000D02*
G75*
G02*
X7316000Y-9525000I-50000J0D01*
G01*
X7316000Y-9525000D02*
G75*
G02*
X7416000Y-9525000I50000J0D01*
G01*
X7416000Y-9779000D02*
G75*
G02*
X7316000Y-9779000I-50000J0D01*
G01*
X7316000Y-9779000D02*
G75*
G02*
X7416000Y-9779000I50000J0D01*
G01*
X7416000Y-10033000D02*
G75*
G02*
X7316000Y-10033000I-50000J0D01*
G01*
X7316000Y-10033000D02*
G75*
G02*
X7416000Y-10033000I50000J0D01*
G01*
X7416000Y-10287000D02*
G75*
G02*
X7316000Y-10287000I-50000J0D01*
G01*
X7316000Y-10287000D02*
G75*
G02*
X7416000Y-10287000I50000J0D01*
G01*
X7416000Y-10541000D02*
G75*
G02*
X7316000Y-10541000I-50000J0D01*
G01*
X7316000Y-10541000D02*
G75*
G02*
X7416000Y-10541000I50000J0D01*
G01*
X7416000Y-10795000D02*
G75*
G02*
X7316000Y-10795000I-50000J0D01*
G01*
X7316000Y-10795000D02*
G75*
G02*
X7416000Y-10795000I50000J0D01*
G01*
X7416000Y-11049000D02*
G75*
G02*
X7316000Y-11049000I-50000J0D01*
G01*
X7316000Y-11049000D02*
G75*
G02*
X7416000Y-11049000I50000J0D01*
G01*
X7416000Y-11303000D02*
G75*
G02*
X7316000Y-11303000I-50000J0D01*
G01*
X7316000Y-11303000D02*
G75*
G02*
X7416000Y-11303000I50000J0D01*
G01*
X8559000Y-6477000D02*
G75*
G02*
X8459000Y-6477000I-50000J0D01*
G01*
X8459000Y-6477000D02*
G75*
G02*
X8559000Y-6477000I50000J0D01*
G01*
X8559000Y-6731000D02*
G75*
G02*
X8459000Y-6731000I-50000J0D01*
G01*
X8459000Y-6731000D02*
G75*
G02*
X8559000Y-6731000I50000J0D01*
G01*
X8559000Y-6985000D02*
G75*
G02*
X8459000Y-6985000I-50000J0D01*
G01*
X8459000Y-6985000D02*
G75*
G02*
X8559000Y-6985000I50000J0D01*
G01*
X8559000Y-7239000D02*
G75*
G02*
X8459000Y-7239000I-50000J0D01*
G01*
X8459000Y-7239000D02*
G75*
G02*
X8559000Y-7239000I50000J0D01*
G01*
X8559000Y-7493000D02*
G75*
G02*
X8459000Y-7493000I-50000J0D01*
G01*
X8459000Y-7493000D02*
G75*
G02*
X8559000Y-7493000I50000J0D01*
G01*
X8559000Y-7747000D02*
G75*
G02*
X8459000Y-7747000I-50000J0D01*
G01*
X8459000Y-7747000D02*
G75*
G02*
X8559000Y-7747000I50000J0D01*
G01*
X8559000Y-8001000D02*
G75*
G02*
X8459000Y-8001000I-50000J0D01*
G01*
X8459000Y-8001000D02*
G75*
G02*
X8559000Y-8001000I50000J0D01*
G01*
X8559000Y-8255000D02*
G75*
G02*
X8459000Y-8255000I-50000J0D01*
G01*
X8459000Y-8255000D02*
G75*
G02*
X8559000Y-8255000I50000J0D01*
G01*
X8559000Y-8509000D02*
G75*
G02*
X8459000Y-8509000I-50000J0D01*
G01*
X8459000Y-8509000D02*
G75*
G02*
X8559000Y-8509000I50000J0D01*
G01*
X8559000Y-8763000D02*
G75*
G02*
X8459000Y-8763000I-50000J0D01*
G01*
X8459000Y-8763000D02*
G75*
G02*
X8559000Y-8763000I50000J0D01*
G01*
X8559000Y-9017000D02*
G75*
G02*
X8459000Y-9017000I-50000J0D01*
G01*
X8459000Y-9017000D02*
G75*
G02*
X8559000Y-9017000I50000J0D01*
G01*
X8559000Y-9271000D02*
G75*
G02*
X8459000Y-9271000I-50000J0D01*
G01*
X8459000Y-9271000D02*
G75*
G02*
X8559000Y-9271000I50000J0D01*
G01*
X8559000Y-9525000D02*
G75*
G02*
X8459000Y-9525000I-50000J0D01*
G01*
X8459000Y-9525000D02*
G75*
G02*
X8559000Y-9525000I50000J0D01*
G01*
X8559000Y-9779000D02*
G75*
G02*
X8459000Y-9779000I-50000J0D01*
G01*
X8459000Y-9779000D02*
G75*
G02*
X8559000Y-9779000I50000J0D01*
G01*
X8559000Y-10033000D02*
G75*
G02*
X8459000Y-10033000I-50000J0D01*
G01*
X8459000Y-10033000D02*
G75*
G02*
X8559000Y-10033000I50000J0D01*
G01*
X8559000Y-10287000D02*
G75*
G02*
X8459000Y-10287000I-50000J0D01*
G01*
X8459000Y-10287000D02*
G75*
G02*
X8559000Y-10287000I50000J0D01*
G01*
X8559000Y-10541000D02*
G75*
G02*
X8459000Y-10541000I-50000J0D01*
G01*
X8459000Y-10541000D02*
G75*
G02*
X8559000Y-10541000I50000J0D01*
G01*
X8559000Y-10795000D02*
G75*
G02*
X8459000Y-10795000I-50000J0D01*
G01*
X8459000Y-10795000D02*
G75*
G02*
X8559000Y-10795000I50000J0D01*
G01*
X8559000Y-11049000D02*
G75*
G02*
X8459000Y-11049000I-50000J0D01*
G01*
X8459000Y-11049000D02*
G75*
G02*
X8559000Y-11049000I50000J0D01*
G01*
X8559000Y-11303000D02*
G75*
G02*
X8459000Y-11303000I-50000J0D01*
G01*
X8459000Y-11303000D02*
G75*
G02*
X8559000Y-11303000I50000J0D01*
G01*
X8559000Y-11557000D02*
G75*
G02*
X8459000Y-11557000I-50000J0D01*
G01*
X8459000Y-11557000D02*
G75*
G02*
X8559000Y-11557000I50000J0D01*
G01*
X8559000Y-11811000D02*
G75*
G02*
X8459000Y-11811000I-50000J0D01*
G01*
X8459000Y-11811000D02*
G75*
G02*
X8559000Y-11811000I50000J0D01*
G01*
X9702000Y-6477000D02*
G75*
G02*
X9602000Y-6477000I-50000J0D01*
G01*
X9602000Y-6477000D02*
G75*
G02*
X9702000Y-6477000I50000J0D01*
G01*
X9702000Y-6731000D02*
G75*
G02*
X9602000Y-6731000I-50000J0D01*
G01*
X9602000Y-6731000D02*
G75*
G02*
X9702000Y-6731000I50000J0D01*
G01*
X9702000Y-6985000D02*
G75*
G02*
X9602000Y-6985000I-50000J0D01*
G01*
X9602000Y-6985000D02*
G75*
G02*
X9702000Y-6985000I50000J0D01*
G01*
X9702000Y-7239000D02*
G75*
G02*
X9602000Y-7239000I-50000J0D01*
G01*
X9602000Y-7239000D02*
G75*
G02*
X9702000Y-7239000I50000J0D01*
G01*
X9702000Y-7493000D02*
G75*
G02*
X9602000Y-7493000I-50000J0D01*
G01*
X9602000Y-7493000D02*
G75*
G02*
X9702000Y-7493000I50000J0D01*
G01*
X9702000Y-7747000D02*
G75*
G02*
X9602000Y-7747000I-50000J0D01*
G01*
X9602000Y-7747000D02*
G75*
G02*
X9702000Y-7747000I50000J0D01*
G01*
X9702000Y-8001000D02*
G75*
G02*
X9602000Y-8001000I-50000J0D01*
G01*
X9602000Y-8001000D02*
G75*
G02*
X9702000Y-8001000I50000J0D01*
G01*
X9702000Y-8255000D02*
G75*
G02*
X9602000Y-8255000I-50000J0D01*
G01*
X9602000Y-8255000D02*
G75*
G02*
X9702000Y-8255000I50000J0D01*
G01*
X9702000Y-8509000D02*
G75*
G02*
X9602000Y-8509000I-50000J0D01*
G01*
X9602000Y-8509000D02*
G75*
G02*
X9702000Y-8509000I50000J0D01*
G01*
X9702000Y-8763000D02*
G75*
G02*
X9602000Y-8763000I-50000J0D01*
G01*
X9602000Y-8763000D02*
G75*
G02*
X9702000Y-8763000I50000J0D01*
G01*
X9702000Y-9017000D02*
G75*
G02*
X9602000Y-9017000I-50000J0D01*
G01*
X9602000Y-9017000D02*
G75*
G02*
X9702000Y-9017000I50000J0D01*
G01*
X9702000Y-9271000D02*
G75*
G02*
X9602000Y-9271000I-50000J0D01*
G01*
X9602000Y-9271000D02*
G75*
G02*
X9702000Y-9271000I50000J0D01*
G01*
X9702000Y-9525000D02*
G75*
G02*
X9602000Y-9525000I-50000J0D01*
G01*
X9602000Y-9525000D02*
G75*
G02*
X9702000Y-9525000I50000J0D01*
G01*
X9702000Y-9779000D02*
G75*
G02*
X9602000Y-9779000I-50000J0D01*
G01*
X9602000Y-9779000D02*
G75*
G02*
X9702000Y-9779000I50000J0D01*
G01*
X9702000Y-10033000D02*
G75*
G02*
X9602000Y-10033000I-50000J0D01*
G01*
X9602000Y-10033000D02*
G75*
G02*
X9702000Y-10033000I50000J0D01*
G01*
X9702000Y-10287000D02*
G75*
G02*
X9602000Y-10287000I-50000J0D01*
G01*
X9602000Y-10287000D02*
G75*
G02*
X9702000Y-10287000I50000J0D01*
G01*
X9702000Y-10541000D02*
G75*
G02*
X9602000Y-10541000I-50000J0D01*
G01*
X9602000Y-10541000D02*
G75*
G02*
X9702000Y-10541000I50000J0D01*
G01*
X9702000Y-10795000D02*
G75*
G02*
X9602000Y-10795000I-50000J0D01*
G01*
X9602000Y-10795000D02*
G75*
G02*
X9702000Y-10795000I50000J0D01*
G01*
X9702000Y-11049000D02*
G75*
G02*
X9602000Y-11049000I-50000J0D01*
G01*
X9602000Y-11049000D02*
G75*
G02*
X9702000Y-11049000I50000J0D01*
G01*
X9702000Y-11303000D02*
G75*
G02*
X9602000Y-11303000I-50000J0D01*
G01*
X9602000Y-11303000D02*
G75*
G02*
X9702000Y-11303000I50000J0D01*
G01*
X11226000Y-5588000D02*
G75*
G02*
X11126000Y-5588000I-50000J0D01*
G01*
X11126000Y-5588000D02*
G75*
G02*
X11226000Y-5588000I50000J0D01*
G01*
X11226000Y-5842000D02*
G75*
G02*
X11126000Y-5842000I-50000J0D01*
G01*
X11126000Y-5842000D02*
G75*
G02*
X11226000Y-5842000I50000J0D01*
G01*
X11226000Y-6096000D02*
G75*
G02*
X11126000Y-6096000I-50000J0D01*
G01*
X11126000Y-6096000D02*
G75*
G02*
X11226000Y-6096000I50000J0D01*
G01*
X11226000Y-6350000D02*
G75*
G02*
X11126000Y-6350000I-50000J0D01*
G01*
X11126000Y-6350000D02*
G75*
G02*
X11226000Y-6350000I50000J0D01*
G01*
X11226000Y-6604000D02*
G75*
G02*
X11126000Y-6604000I-50000J0D01*
G01*
X11126000Y-6604000D02*
G75*
G02*
X11226000Y-6604000I50000J0D01*
G01*
X11226000Y-6858000D02*
G75*
G02*
X11126000Y-6858000I-50000J0D01*
G01*
X11126000Y-6858000D02*
G75*
G02*
X11226000Y-6858000I50000J0D01*
G01*
X11226000Y-7112000D02*
G75*
G02*
X11126000Y-7112000I-50000J0D01*
G01*
X11126000Y-7112000D02*
G75*
G02*
X11226000Y-7112000I50000J0D01*
G01*
X11226000Y-7366000D02*
G75*
G02*
X11126000Y-7366000I-50000J0D01*
G01*
X11126000Y-7366000D02*
G75*
G02*
X11226000Y-7366000I50000J0D01*
G01*
X11226000Y-7620000D02*
G75*
G02*
X11126000Y-7620000I-50000J0D01*
G01*
X11126000Y-7620000D02*
G75*
G02*
X11226000Y-7620000I50000J0D01*
G01*
X11226000Y-7874000D02*
G75*
G02*
X11126000Y-7874000I-50000J0D01*
G01*
X11126000Y-7874000D02*
G75*
G02*
X11226000Y-7874000I50000J0D01*
G01*
X11226000Y-8128000D02*
G75*
G02*
X11126000Y-8128000I-50000J0D01*
G01*
X11126000Y-8128000D02*
G75*
G02*
X11226000Y-8128000I50000J0D01*
G01*
X11226000Y-8382000D02*
G75*
G02*
X11126000Y-8382000I-50000J0D01*
G01*
X11126000Y-8382000D02*
G75*
G02*
X11226000Y-8382000I50000J0D01*
G01*
X11226000Y-8636000D02*
G75*
G02*
X11126000Y-8636000I-50000J0D01*
G01*
X11126000Y-8636000D02*
G75*
G02*
X11226000Y-8636000I50000J0D01*
G01*
X12242000Y-5588000D02*
G75*
G02*
X12142000Y-5588000I-50000J0D01*
G01*
X12142000Y-5588000D02*
G75*
G02*
X12242000Y-5588000I50000J0D01*
G01*
X12242000Y-5842000D02*
G75*
G02*
X12142000Y-5842000I-50000J0D01*
G01*
X12142000Y-5842000D02*
G75*
G02*
X12242000Y-5842000I50000J0D01*
G01*
X12242000Y-6096000D02*
G75*
G02*
X12142000Y-6096000I-50000J0D01*
G01*
X12142000Y-6096000D02*
G75*
G02*
X12242000Y-6096000I50000J0D01*
G01*
X12242000Y-6350000D02*
G75*
G02*
X12142000Y-6350000I-50000J0D01*
G01*
X12142000Y-6350000D02*
G75*
G02*
X12242000Y-6350000I50000J0D01*
G01*
X12242000Y-6604000D02*
G75*
G02*
X12142000Y-6604000I-50000J0D01*
G01*
X12142000Y-6604000D02*
G75*
G02*
X12242000Y-6604000I50000J0D01*
G01*
X12242000Y-6858000D02*
G75*
G02*
X12142000Y-6858000I-50000J0D01*
G01*
X12142000Y-6858000D02*
G75*
G02*
X12242000Y-6858000I50000J0D01*
G01*
X12242000Y-7112000D02*
G75*
G02*
X12142000Y-7112000I-50000J0D01*
G01*
X12142000Y-7112000D02*
G75*
G02*
X12242000Y-7112000I50000J0D01*
G01*
X12242000Y-7366000D02*
G75*
G02*
X12142000Y-7366000I-50000J0D01*
G01*
X12142000Y-7366000D02*
G75*
G02*
X12242000Y-7366000I50000J0D01*
G01*
X12242000Y-10668000D02*
G75*
G02*
X12142000Y-10668000I-50000J0D01*
G01*
X12142000Y-10668000D02*
G75*
G02*
X12242000Y-10668000I50000J0D01*
G01*
X12242000Y-10922000D02*
G75*
G02*
X12142000Y-10922000I-50000J0D01*
G01*
X12142000Y-10922000D02*
G75*
G02*
X12242000Y-10922000I50000J0D01*
G01*
X12242000Y-11176000D02*
G75*
G02*
X12142000Y-11176000I-50000J0D01*
G01*
X12142000Y-11176000D02*
G75*
G02*
X12242000Y-11176000I50000J0D01*
G01*
X12242000Y-11430000D02*
G75*
G02*
X12142000Y-11430000I-50000J0D01*
G01*
X12142000Y-11430000D02*
G75*
G02*
X12242000Y-11430000I50000J0D01*
G01*
X12242000Y-11684000D02*
G75*
G02*
X12142000Y-11684000I-50000J0D01*
G01*
X12142000Y-11684000D02*
G75*
G02*
X12242000Y-11684000I50000J0D01*
G01*
X12496000Y-3683000D02*
G75*
G02*
X12396000Y-3683000I-50000J0D01*
G01*
X12396000Y-3683000D02*
G75*
G02*
X12496000Y-3683000I50000J0D01*
G01*
X12750000Y-3683000D02*
G75*
G02*
X12650000Y-3683000I-50000J0D01*
G01*
X12650000Y-3683000D02*
G75*
G02*
X12750000Y-3683000I50000J0D01*
G01*
X13004000Y-3683000D02*
G75*
G02*
X12904000Y-3683000I-50000J0D01*
G01*
X12904000Y-3683000D02*
G75*
G02*
X13004000Y-3683000I50000J0D01*
G01*
X13258000Y-3683000D02*
G75*
G02*
X13158000Y-3683000I-50000J0D01*
G01*
X13158000Y-3683000D02*
G75*
G02*
X13258000Y-3683000I50000J0D01*
G01*
X13258000Y-5588000D02*
G75*
G02*
X13158000Y-5588000I-50000J0D01*
G01*
X13158000Y-5588000D02*
G75*
G02*
X13258000Y-5588000I50000J0D01*
G01*
X13258000Y-5842000D02*
G75*
G02*
X13158000Y-5842000I-50000J0D01*
G01*
X13158000Y-5842000D02*
G75*
G02*
X13258000Y-5842000I50000J0D01*
G01*
X13258000Y-6096000D02*
G75*
G02*
X13158000Y-6096000I-50000J0D01*
G01*
X13158000Y-6096000D02*
G75*
G02*
X13258000Y-6096000I50000J0D01*
G01*
X13258000Y-6350000D02*
G75*
G02*
X13158000Y-6350000I-50000J0D01*
G01*
X13158000Y-6350000D02*
G75*
G02*
X13258000Y-6350000I50000J0D01*
G01*
X13258000Y-6604000D02*
G75*
G02*
X13158000Y-6604000I-50000J0D01*
G01*
X13158000Y-6604000D02*
G75*
G02*
X13258000Y-6604000I50000J0D01*
G01*
X13258000Y-6858000D02*
G75*
G02*
X13158000Y-6858000I-50000J0D01*
G01*
X13158000Y-6858000D02*
G75*
G02*
X13258000Y-6858000I50000J0D01*
G01*
X13258000Y-7112000D02*
G75*
G02*
X13158000Y-7112000I-50000J0D01*
G01*
X13158000Y-7112000D02*
G75*
G02*
X13258000Y-7112000I50000J0D01*
G01*
X13258000Y-7366000D02*
G75*
G02*
X13158000Y-7366000I-50000J0D01*
G01*
X13158000Y-7366000D02*
G75*
G02*
X13258000Y-7366000I50000J0D01*
G01*
X13258000Y-10668000D02*
G75*
G02*
X13158000Y-10668000I-50000J0D01*
G01*
X13158000Y-10668000D02*
G75*
G02*
X13258000Y-10668000I50000J0D01*
G01*
X13258000Y-10922000D02*
G75*
G02*
X13158000Y-10922000I-50000J0D01*
G01*
X13158000Y-10922000D02*
G75*
G02*
X13258000Y-10922000I50000J0D01*
G01*
X13258000Y-11176000D02*
G75*
G02*
X13158000Y-11176000I-50000J0D01*
G01*
X13158000Y-11176000D02*
G75*
G02*
X13258000Y-11176000I50000J0D01*
G01*
X13258000Y-11430000D02*
G75*
G02*
X13158000Y-11430000I-50000J0D01*
G01*
X13158000Y-11430000D02*
G75*
G02*
X13258000Y-11430000I50000J0D01*
G01*
X13258000Y-11684000D02*
G75*
G02*
X13158000Y-11684000I-50000J0D01*
G01*
X13158000Y-11684000D02*
G75*
G02*
X13258000Y-11684000I50000J0D01*
G01*
X13512000Y-3683000D02*
G75*
G02*
X13412000Y-3683000I-50000J0D01*
G01*
X13412000Y-3683000D02*
G75*
G02*
X13512000Y-3683000I50000J0D01*
G01*
X13766000Y-3683000D02*
G75*
G02*
X13666000Y-3683000I-50000J0D01*
G01*
X13666000Y-3683000D02*
G75*
G02*
X13766000Y-3683000I50000J0D01*
G01*
X14020000Y-3683000D02*
G75*
G02*
X13920000Y-3683000I-50000J0D01*
G01*
X13920000Y-3683000D02*
G75*
G02*
X14020000Y-3683000I50000J0D01*
G01*
X14274000Y-3683000D02*
G75*
G02*
X14174000Y-3683000I-50000J0D01*
G01*
X14174000Y-3683000D02*
G75*
G02*
X14274000Y-3683000I50000J0D01*
G01*
X14274000Y-5588000D02*
G75*
G02*
X14174000Y-5588000I-50000J0D01*
G01*
X14174000Y-5588000D02*
G75*
G02*
X14274000Y-5588000I50000J0D01*
G01*
X14274000Y-5842000D02*
G75*
G02*
X14174000Y-5842000I-50000J0D01*
G01*
X14174000Y-5842000D02*
G75*
G02*
X14274000Y-5842000I50000J0D01*
G01*
X14274000Y-6096000D02*
G75*
G02*
X14174000Y-6096000I-50000J0D01*
G01*
X14174000Y-6096000D02*
G75*
G02*
X14274000Y-6096000I50000J0D01*
G01*
X14274000Y-6350000D02*
G75*
G02*
X14174000Y-6350000I-50000J0D01*
G01*
X14174000Y-6350000D02*
G75*
G02*
X14274000Y-6350000I50000J0D01*
G01*
X14274000Y-6604000D02*
G75*
G02*
X14174000Y-6604000I-50000J0D01*
G01*
X14174000Y-6604000D02*
G75*
G02*
X14274000Y-6604000I50000J0D01*
G01*
X14274000Y-8509000D02*
G75*
G02*
X14174000Y-8509000I-50000J0D01*
G01*
X14174000Y-8509000D02*
G75*
G02*
X14274000Y-8509000I50000J0D01*
G01*
X14274000Y-8763000D02*
G75*
G02*
X14174000Y-8763000I-50000J0D01*
G01*
X14174000Y-8763000D02*
G75*
G02*
X14274000Y-8763000I50000J0D01*
G01*
X14274000Y-10668000D02*
G75*
G02*
X14174000Y-10668000I-50000J0D01*
G01*
X14174000Y-10668000D02*
G75*
G02*
X14274000Y-10668000I50000J0D01*
G01*
X14274000Y-10922000D02*
G75*
G02*
X14174000Y-10922000I-50000J0D01*
G01*
X14174000Y-10922000D02*
G75*
G02*
X14274000Y-10922000I50000J0D01*
G01*
X14274000Y-11176000D02*
G75*
G02*
X14174000Y-11176000I-50000J0D01*
G01*
X14174000Y-11176000D02*
G75*
G02*
X14274000Y-11176000I50000J0D01*
G01*
X14274000Y-11430000D02*
G75*
G02*
X14174000Y-11430000I-50000J0D01*
G01*
X14174000Y-11430000D02*
G75*
G02*
X14274000Y-11430000I50000J0D01*
G01*
X14274000Y-11684000D02*
G75*
G02*
X14174000Y-11684000I-50000J0D01*
G01*
X14174000Y-11684000D02*
G75*
G02*
X14274000Y-11684000I50000J0D01*
G01*
X14528000Y-3683000D02*
G75*
G02*
X14428000Y-3683000I-50000J0D01*
G01*
X14428000Y-3683000D02*
G75*
G02*
X14528000Y-3683000I50000J0D01*
G01*
X14782000Y-3683000D02*
G75*
G02*
X14682000Y-3683000I-50000J0D01*
G01*
X14682000Y-3683000D02*
G75*
G02*
X14782000Y-3683000I50000J0D01*
G01*
X15226500Y-10668000D02*
G75*
G02*
X15126500Y-10668000I-50000J0D01*
G01*
X15126500Y-10668000D02*
G75*
G02*
X15226500Y-10668000I50000J0D01*
G01*
X15226500Y-10922000D02*
G75*
G02*
X15126500Y-10922000I-50000J0D01*
G01*
X15126500Y-10922000D02*
G75*
G02*
X15226500Y-10922000I50000J0D01*
G01*
X15226500Y-11176000D02*
G75*
G02*
X15126500Y-11176000I-50000J0D01*
G01*
X15126500Y-11176000D02*
G75*
G02*
X15226500Y-11176000I50000J0D01*
G01*
X15226500Y-11430000D02*
G75*
G02*
X15126500Y-11430000I-50000J0D01*
G01*
X15126500Y-11430000D02*
G75*
G02*
X15226500Y-11430000I50000J0D01*
G01*
X15226500Y-11684000D02*
G75*
G02*
X15126500Y-11684000I-50000J0D01*
G01*
X15126500Y-11684000D02*
G75*
G02*
X15226500Y-11684000I50000J0D01*
G01*
X15290000Y-5588000D02*
G75*
G02*
X15190000Y-5588000I-50000J0D01*
G01*
X15190000Y-5588000D02*
G75*
G02*
X15290000Y-5588000I50000J0D01*
G01*
X15290000Y-5842000D02*
G75*
G02*
X15190000Y-5842000I-50000J0D01*
G01*
X15190000Y-5842000D02*
G75*
G02*
X15290000Y-5842000I50000J0D01*
G01*
X15290000Y-6096000D02*
G75*
G02*
X15190000Y-6096000I-50000J0D01*
G01*
X15190000Y-6096000D02*
G75*
G02*
X15290000Y-6096000I50000J0D01*
G01*
X15290000Y-6350000D02*
G75*
G02*
X15190000Y-6350000I-50000J0D01*
G01*
X15190000Y-6350000D02*
G75*
G02*
X15290000Y-6350000I50000J0D01*
G01*
X15290000Y-6604000D02*
G75*
G02*
X15190000Y-6604000I-50000J0D01*
G01*
X15190000Y-6604000D02*
G75*
G02*
X15290000Y-6604000I50000J0D01*
G01*
X15290000Y-8509000D02*
G75*
G02*
X15190000Y-8509000I-50000J0D01*
G01*
X15190000Y-8509000D02*
G75*
G02*
X15290000Y-8509000I50000J0D01*
G01*
X15290000Y-8763000D02*
G75*
G02*
X15190000Y-8763000I-50000J0D01*
G01*
X15190000Y-8763000D02*
G75*
G02*
X15290000Y-8763000I50000J0D01*
G01*
X16052000Y-3683000D02*
G75*
G02*
X15952000Y-3683000I-50000J0D01*
G01*
X15952000Y-3683000D02*
G75*
G02*
X16052000Y-3683000I50000J0D01*
G01*
X16306000Y-3683000D02*
G75*
G02*
X16206000Y-3683000I-50000J0D01*
G01*
X16206000Y-3683000D02*
G75*
G02*
X16306000Y-3683000I50000J0D01*
G01*
X16306000Y-5588000D02*
G75*
G02*
X16206000Y-5588000I-50000J0D01*
G01*
X16206000Y-5588000D02*
G75*
G02*
X16306000Y-5588000I50000J0D01*
G01*
X16306000Y-5842000D02*
G75*
G02*
X16206000Y-5842000I-50000J0D01*
G01*
X16206000Y-5842000D02*
G75*
G02*
X16306000Y-5842000I50000J0D01*
G01*
X16306000Y-6096000D02*
G75*
G02*
X16206000Y-6096000I-50000J0D01*
G01*
X16206000Y-6096000D02*
G75*
G02*
X16306000Y-6096000I50000J0D01*
G01*
X16306000Y-6350000D02*
G75*
G02*
X16206000Y-6350000I-50000J0D01*
G01*
X16206000Y-6350000D02*
G75*
G02*
X16306000Y-6350000I50000J0D01*
G01*
X16306000Y-6604000D02*
G75*
G02*
X16206000Y-6604000I-50000J0D01*
G01*
X16206000Y-6604000D02*
G75*
G02*
X16306000Y-6604000I50000J0D01*
G01*
X16306000Y-8509000D02*
G75*
G02*
X16206000Y-8509000I-50000J0D01*
G01*
X16206000Y-8509000D02*
G75*
G02*
X16306000Y-8509000I50000J0D01*
G01*
X16306000Y-8763000D02*
G75*
G02*
X16206000Y-8763000I-50000J0D01*
G01*
X16206000Y-8763000D02*
G75*
G02*
X16306000Y-8763000I50000J0D01*
G01*
X16306000Y-10160000D02*
G75*
G02*
X16206000Y-10160000I-50000J0D01*
G01*
X16206000Y-10160000D02*
G75*
G02*
X16306000Y-10160000I50000J0D01*
G01*
X16306000Y-10414000D02*
G75*
G02*
X16206000Y-10414000I-50000J0D01*
G01*
X16206000Y-10414000D02*
G75*
G02*
X16306000Y-10414000I50000J0D01*
G01*
X16306000Y-10668000D02*
G75*
G02*
X16206000Y-10668000I-50000J0D01*
G01*
X16206000Y-10668000D02*
G75*
G02*
X16306000Y-10668000I50000J0D01*
G01*
X16306000Y-10922000D02*
G75*
G02*
X16206000Y-10922000I-50000J0D01*
G01*
X16206000Y-10922000D02*
G75*
G02*
X16306000Y-10922000I50000J0D01*
G01*
X16306000Y-11176000D02*
G75*
G02*
X16206000Y-11176000I-50000J0D01*
G01*
X16206000Y-11176000D02*
G75*
G02*
X16306000Y-11176000I50000J0D01*
G01*
X16306000Y-11430000D02*
G75*
G02*
X16206000Y-11430000I-50000J0D01*
G01*
X16206000Y-11430000D02*
G75*
G02*
X16306000Y-11430000I50000J0D01*
G01*
X16306000Y-11684000D02*
G75*
G02*
X16206000Y-11684000I-50000J0D01*
G01*
X16206000Y-11684000D02*
G75*
G02*
X16306000Y-11684000I50000J0D01*
G01*
X16560000Y-3683000D02*
G75*
G02*
X16460000Y-3683000I-50000J0D01*
G01*
X16460000Y-3683000D02*
G75*
G02*
X16560000Y-3683000I50000J0D01*
G01*
X16814000Y-3683000D02*
G75*
G02*
X16714000Y-3683000I-50000J0D01*
G01*
X16714000Y-3683000D02*
G75*
G02*
X16814000Y-3683000I50000J0D01*
G01*
X17068000Y-3683000D02*
G75*
G02*
X16968000Y-3683000I-50000J0D01*
G01*
X16968000Y-3683000D02*
G75*
G02*
X17068000Y-3683000I50000J0D01*
G01*
X17322000Y-3683000D02*
G75*
G02*
X17222000Y-3683000I-50000J0D01*
G01*
X17222000Y-3683000D02*
G75*
G02*
X17322000Y-3683000I50000J0D01*
G01*
X17322000Y-5588000D02*
G75*
G02*
X17222000Y-5588000I-50000J0D01*
G01*
X17222000Y-5588000D02*
G75*
G02*
X17322000Y-5588000I50000J0D01*
G01*
X17322000Y-5842000D02*
G75*
G02*
X17222000Y-5842000I-50000J0D01*
G01*
X17222000Y-5842000D02*
G75*
G02*
X17322000Y-5842000I50000J0D01*
G01*
X17322000Y-6096000D02*
G75*
G02*
X17222000Y-6096000I-50000J0D01*
G01*
X17222000Y-6096000D02*
G75*
G02*
X17322000Y-6096000I50000J0D01*
G01*
X17322000Y-6350000D02*
G75*
G02*
X17222000Y-6350000I-50000J0D01*
G01*
X17222000Y-6350000D02*
G75*
G02*
X17322000Y-6350000I50000J0D01*
G01*
X17322000Y-6604000D02*
G75*
G02*
X17222000Y-6604000I-50000J0D01*
G01*
X17222000Y-6604000D02*
G75*
G02*
X17322000Y-6604000I50000J0D01*
G01*
X17322000Y-8509000D02*
G75*
G02*
X17222000Y-8509000I-50000J0D01*
G01*
X17222000Y-8509000D02*
G75*
G02*
X17322000Y-8509000I50000J0D01*
G01*
X17322000Y-8763000D02*
G75*
G02*
X17222000Y-8763000I-50000J0D01*
G01*
X17222000Y-8763000D02*
G75*
G02*
X17322000Y-8763000I50000J0D01*
G01*
X17322000Y-10160000D02*
G75*
G02*
X17222000Y-10160000I-50000J0D01*
G01*
X17222000Y-10160000D02*
G75*
G02*
X17322000Y-10160000I50000J0D01*
G01*
X17322000Y-10414000D02*
G75*
G02*
X17222000Y-10414000I-50000J0D01*
G01*
X17222000Y-10414000D02*
G75*
G02*
X17322000Y-10414000I50000J0D01*
G01*
X17322000Y-10668000D02*
G75*
G02*
X17222000Y-10668000I-50000J0D01*
G01*
X17222000Y-10668000D02*
G75*
G02*
X17322000Y-10668000I50000J0D01*
G01*
X17322000Y-10922000D02*
G75*
G02*
X17222000Y-10922000I-50000J0D01*
G01*
X17222000Y-10922000D02*
G75*
G02*
X17322000Y-10922000I50000J0D01*
G01*
X17322000Y-11176000D02*
G75*
G02*
X17222000Y-11176000I-50000J0D01*
G01*
X17222000Y-11176000D02*
G75*
G02*
X17322000Y-11176000I50000J0D01*
G01*
X17322000Y-11430000D02*
G75*
G02*
X17222000Y-11430000I-50000J0D01*
G01*
X17222000Y-11430000D02*
G75*
G02*
X17322000Y-11430000I50000J0D01*
G01*
X17322000Y-11684000D02*
G75*
G02*
X17222000Y-11684000I-50000J0D01*
G01*
X17222000Y-11684000D02*
G75*
G02*
X17322000Y-11684000I50000J0D01*
G01*
X17576000Y-3683000D02*
G75*
G02*
X17476000Y-3683000I-50000J0D01*
G01*
X17476000Y-3683000D02*
G75*
G02*
X17576000Y-3683000I50000J0D01*
G01*
X17830000Y-3683000D02*
G75*
G02*
X17730000Y-3683000I-50000J0D01*
G01*
X17730000Y-3683000D02*
G75*
G02*
X17830000Y-3683000I50000J0D01*
G01*
X18084000Y-3683000D02*
G75*
G02*
X17984000Y-3683000I-50000J0D01*
G01*
X17984000Y-3683000D02*
G75*
G02*
X18084000Y-3683000I50000J0D01*
G01*
X18338000Y-3683000D02*
G75*
G02*
X18238000Y-3683000I-50000J0D01*
G01*
X18238000Y-3683000D02*
G75*
G02*
X18338000Y-3683000I50000J0D01*
G01*
X18338000Y-5588000D02*
G75*
G02*
X18238000Y-5588000I-50000J0D01*
G01*
X18238000Y-5588000D02*
G75*
G02*
X18338000Y-5588000I50000J0D01*
G01*
X18338000Y-5842000D02*
G75*
G02*
X18238000Y-5842000I-50000J0D01*
G01*
X18238000Y-5842000D02*
G75*
G02*
X18338000Y-5842000I50000J0D01*
G01*
X18338000Y-6096000D02*
G75*
G02*
X18238000Y-6096000I-50000J0D01*
G01*
X18238000Y-6096000D02*
G75*
G02*
X18338000Y-6096000I50000J0D01*
G01*
X18338000Y-6350000D02*
G75*
G02*
X18238000Y-6350000I-50000J0D01*
G01*
X18238000Y-6350000D02*
G75*
G02*
X18338000Y-6350000I50000J0D01*
G01*
X18338000Y-6604000D02*
G75*
G02*
X18238000Y-6604000I-50000J0D01*
G01*
X18238000Y-6604000D02*
G75*
G02*
X18338000Y-6604000I50000J0D01*
G01*
X18338000Y-9144000D02*
G75*
G02*
X18238000Y-9144000I-50000J0D01*
G01*
X18238000Y-9144000D02*
G75*
G02*
X18338000Y-9144000I50000J0D01*
G01*
X18338000Y-9398000D02*
G75*
G02*
X18238000Y-9398000I-50000J0D01*
G01*
X18238000Y-9398000D02*
G75*
G02*
X18338000Y-9398000I50000J0D01*
G01*
X18338000Y-9652000D02*
G75*
G02*
X18238000Y-9652000I-50000J0D01*
G01*
X18238000Y-9652000D02*
G75*
G02*
X18338000Y-9652000I50000J0D01*
G01*
X18338000Y-9906000D02*
G75*
G02*
X18238000Y-9906000I-50000J0D01*
G01*
X18238000Y-9906000D02*
G75*
G02*
X18338000Y-9906000I50000J0D01*
G01*
X18338000Y-10160000D02*
G75*
G02*
X18238000Y-10160000I-50000J0D01*
G01*
X18238000Y-10160000D02*
G75*
G02*
X18338000Y-10160000I50000J0D01*
G01*
X18338000Y-10414000D02*
G75*
G02*
X18238000Y-10414000I-50000J0D01*
G01*
X18238000Y-10414000D02*
G75*
G02*
X18338000Y-10414000I50000J0D01*
G01*
X18338000Y-10668000D02*
G75*
G02*
X18238000Y-10668000I-50000J0D01*
G01*
X18238000Y-10668000D02*
G75*
G02*
X18338000Y-10668000I50000J0D01*
G01*
X18338000Y-10922000D02*
G75*
G02*
X18238000Y-10922000I-50000J0D01*
G01*
X18238000Y-10922000D02*
G75*
G02*
X18338000Y-10922000I50000J0D01*
G01*
X18338000Y-11176000D02*
G75*
G02*
X18238000Y-11176000I-50000J0D01*
G01*
X18238000Y-11176000D02*
G75*
G02*
X18338000Y-11176000I50000J0D01*
G01*
X18338000Y-11430000D02*
G75*
G02*
X18238000Y-11430000I-50000J0D01*
G01*
X18238000Y-11430000D02*
G75*
G02*
X18338000Y-11430000I50000J0D01*
G01*
X18338000Y-11684000D02*
G75*
G02*
X18238000Y-11684000I-50000J0D01*
G01*
X18238000Y-11684000D02*
G75*
G02*
X18338000Y-11684000I50000J0D01*
G01*
D12*
X3556000Y-2083000D02*
X3556000Y-2235000D01*
X3480000Y-2159000D02*
X3632000Y-2159000D01*
X4064000Y-2083000D02*
X4064000Y-2235000D01*
X3988000Y-2159000D02*
X4140000Y-2159000D01*
X5588000Y-2083000D02*
X5588000Y-2235000D01*
X5512000Y-2159000D02*
X5664000Y-2159000D01*
X6096000Y-2083000D02*
X6096000Y-2235000D01*
X6020000Y-2159000D02*
X6172000Y-2159000D01*
X7874000Y-2083000D02*
X7874000Y-2235000D01*
X7798000Y-2159000D02*
X7950000Y-2159000D01*
X8382000Y-2083000D02*
X8382000Y-2235000D01*
X8306000Y-2159000D02*
X8458000Y-2159000D01*
X10160000Y-2083000D02*
X10160000Y-2235000D01*
X10084000Y-2159000D02*
X10236000Y-2159000D01*
X10668000Y-2083000D02*
X10668000Y-2235000D01*
X10592000Y-2159000D02*
X10744000Y-2159000D01*
X12446000Y-2083000D02*
X12446000Y-2235000D01*
X12370000Y-2159000D02*
X12522000Y-2159000D01*
X12954000Y-2083000D02*
X12954000Y-2235000D01*
X12878000Y-2159000D02*
X13030000Y-2159000D01*
X14224000Y-2083000D02*
X14224000Y-2235000D01*
X14148000Y-2159000D02*
X14300000Y-2159000D01*
X14732000Y-2083000D02*
X14732000Y-2235000D01*
X14656000Y-2159000D02*
X14808000Y-2159000D01*
X16002000Y-2083000D02*
X16002000Y-2235000D01*
X15926000Y-2159000D02*
X16078000Y-2159000D01*
X16510000Y-2083000D02*
X16510000Y-2235000D01*
X16434000Y-2159000D02*
X16586000Y-2159000D01*
X17780000Y-2083000D02*
X17780000Y-2235000D01*
X17704000Y-2159000D02*
X17856000Y-2159000D01*
X18288000Y-2083000D02*
X18288000Y-2235000D01*
X18212000Y-2159000D02*
X18364000Y-2159000D01*
D13*
X2162138Y-2162138D02*
X2162138Y-1935862D01*
X1935862Y-1935862D01*
X1935862Y-2162138D01*
X2162138Y-2162138D01*
X2162138Y-12412138D02*
X2162138Y-12185862D01*
X1935862Y-12185862D01*
X1935862Y-12412138D01*
X2162138Y-12412138D01*
X19162138Y-2162138D02*
X19162138Y-1935862D01*
X18935862Y-1935862D01*
X18935862Y-2162138D01*
X19162138Y-2162138D01*
X19162138Y-12412138D02*
X19162138Y-12185862D01*
X18935862Y-12185862D01*
X18935862Y-12412138D01*
X19162138Y-12412138D01*
D10*
X1774777Y-13145484D02*
X1774777Y-12945484D01*
X1774777Y-12945484D02*
X1822396Y-12945484D01*
X1822396Y-12945484D02*
X1850967Y-12955008D01*
X1850967Y-12955008D02*
X1870015Y-12974055D01*
X1870015Y-12974055D02*
X1879539Y-12993103D01*
X1879539Y-12993103D02*
X1889062Y-13031198D01*
X1889062Y-13031198D02*
X1889062Y-13059769D01*
X1889062Y-13059769D02*
X1879539Y-13097865D01*
X1879539Y-13097865D02*
X1870015Y-13116912D01*
X1870015Y-13116912D02*
X1850967Y-13135960D01*
X1850967Y-13135960D02*
X1822396Y-13145484D01*
X1822396Y-13145484D02*
X1774777Y-13145484D01*
X1974777Y-13145484D02*
X1974777Y-13012150D01*
X1974777Y-13050246D02*
X1984301Y-13031198D01*
X1984301Y-13031198D02*
X1993824Y-13021674D01*
X1993824Y-13021674D02*
X2012872Y-13012150D01*
X2012872Y-13012150D02*
X2031920Y-13012150D01*
X2098586Y-13145484D02*
X2098586Y-13012150D01*
X2098586Y-12945484D02*
X2089062Y-12955008D01*
X2089062Y-12955008D02*
X2098586Y-12964531D01*
X2098586Y-12964531D02*
X2108110Y-12955008D01*
X2108110Y-12955008D02*
X2098586Y-12945484D01*
X2098586Y-12945484D02*
X2098586Y-12964531D01*
X2222396Y-13145484D02*
X2203348Y-13135960D01*
X2203348Y-13135960D02*
X2193824Y-13116912D01*
X2193824Y-13116912D02*
X2193824Y-12945484D01*
X2327158Y-13145484D02*
X2308110Y-13135960D01*
X2308110Y-13135960D02*
X2298586Y-13116912D01*
X2298586Y-13116912D02*
X2298586Y-12945484D01*
X2555729Y-13145484D02*
X2555729Y-12945484D01*
X2555729Y-12945484D02*
X2622396Y-13088341D01*
X2622396Y-13088341D02*
X2689063Y-12945484D01*
X2689063Y-12945484D02*
X2689063Y-13145484D01*
X2870015Y-13145484D02*
X2870015Y-13040722D01*
X2870015Y-13040722D02*
X2860491Y-13021674D01*
X2860491Y-13021674D02*
X2841443Y-13012150D01*
X2841443Y-13012150D02*
X2803348Y-13012150D01*
X2803348Y-13012150D02*
X2784301Y-13021674D01*
X2870015Y-13135960D02*
X2850967Y-13145484D01*
X2850967Y-13145484D02*
X2803348Y-13145484D01*
X2803348Y-13145484D02*
X2784301Y-13135960D01*
X2784301Y-13135960D02*
X2774777Y-13116912D01*
X2774777Y-13116912D02*
X2774777Y-13097865D01*
X2774777Y-13097865D02*
X2784301Y-13078817D01*
X2784301Y-13078817D02*
X2803348Y-13069293D01*
X2803348Y-13069293D02*
X2850967Y-13069293D01*
X2850967Y-13069293D02*
X2870015Y-13059769D01*
X2965253Y-13012150D02*
X2965253Y-13212150D01*
X2965253Y-13021674D02*
X2984301Y-13012150D01*
X2984301Y-13012150D02*
X3022396Y-13012150D01*
X3022396Y-13012150D02*
X3041443Y-13021674D01*
X3041443Y-13021674D02*
X3050967Y-13031198D01*
X3050967Y-13031198D02*
X3060491Y-13050246D01*
X3060491Y-13050246D02*
X3060491Y-13107388D01*
X3060491Y-13107388D02*
X3050967Y-13126436D01*
X3050967Y-13126436D02*
X3041443Y-13135960D01*
X3041443Y-13135960D02*
X3022396Y-13145484D01*
X3022396Y-13145484D02*
X2984301Y-13145484D01*
X2984301Y-13145484D02*
X2965253Y-13135960D01*
X3146205Y-13126436D02*
X3155729Y-13135960D01*
X3155729Y-13135960D02*
X3146205Y-13145484D01*
X3146205Y-13145484D02*
X3136682Y-13135960D01*
X3136682Y-13135960D02*
X3146205Y-13126436D01*
X3146205Y-13126436D02*
X3146205Y-13145484D01*
X3146205Y-13021674D02*
X3155729Y-13031198D01*
X3155729Y-13031198D02*
X3146205Y-13040722D01*
X3146205Y-13040722D02*
X3136682Y-13031198D01*
X3136682Y-13031198D02*
X3146205Y-13021674D01*
X3146205Y-13021674D02*
X3146205Y-13040722D01*
D11*
X1484000Y-13459000D02*
X1514000Y-13489000D01*
X1514000Y-13459000D02*
X1484000Y-13489000D01*
D10*
X1812872Y-13365484D02*
X1831920Y-13365484D01*
X1831920Y-13365484D02*
X1850967Y-13375008D01*
X1850967Y-13375008D02*
X1860491Y-13384531D01*
X1860491Y-13384531D02*
X1870015Y-13403579D01*
X1870015Y-13403579D02*
X1879539Y-13441674D01*
X1879539Y-13441674D02*
X1879539Y-13489293D01*
X1879539Y-13489293D02*
X1870015Y-13527388D01*
X1870015Y-13527388D02*
X1860491Y-13546436D01*
X1860491Y-13546436D02*
X1850967Y-13555960D01*
X1850967Y-13555960D02*
X1831920Y-13565484D01*
X1831920Y-13565484D02*
X1812872Y-13565484D01*
X1812872Y-13565484D02*
X1793824Y-13555960D01*
X1793824Y-13555960D02*
X1784301Y-13546436D01*
X1784301Y-13546436D02*
X1774777Y-13527388D01*
X1774777Y-13527388D02*
X1765253Y-13489293D01*
X1765253Y-13489293D02*
X1765253Y-13441674D01*
X1765253Y-13441674D02*
X1774777Y-13403579D01*
X1774777Y-13403579D02*
X1784301Y-13384531D01*
X1784301Y-13384531D02*
X1793824Y-13375008D01*
X1793824Y-13375008D02*
X1812872Y-13365484D01*
X1965253Y-13546436D02*
X1974777Y-13555960D01*
X1974777Y-13555960D02*
X1965253Y-13565484D01*
X1965253Y-13565484D02*
X1955729Y-13555960D01*
X1955729Y-13555960D02*
X1965253Y-13546436D01*
X1965253Y-13546436D02*
X1965253Y-13565484D01*
X2041443Y-13365484D02*
X2165253Y-13365484D01*
X2165253Y-13365484D02*
X2098586Y-13441674D01*
X2098586Y-13441674D02*
X2127158Y-13441674D01*
X2127158Y-13441674D02*
X2146205Y-13451198D01*
X2146205Y-13451198D02*
X2155729Y-13460722D01*
X2155729Y-13460722D02*
X2165253Y-13479769D01*
X2165253Y-13479769D02*
X2165253Y-13527388D01*
X2165253Y-13527388D02*
X2155729Y-13546436D01*
X2155729Y-13546436D02*
X2146205Y-13555960D01*
X2146205Y-13555960D02*
X2127158Y-13565484D01*
X2127158Y-13565484D02*
X2070015Y-13565484D01*
X2070015Y-13565484D02*
X2050967Y-13555960D01*
X2050967Y-13555960D02*
X2041443Y-13546436D01*
X2289063Y-13365484D02*
X2308110Y-13365484D01*
X2308110Y-13365484D02*
X2327158Y-13375008D01*
X2327158Y-13375008D02*
X2336682Y-13384531D01*
X2336682Y-13384531D02*
X2346205Y-13403579D01*
X2346205Y-13403579D02*
X2355729Y-13441674D01*
X2355729Y-13441674D02*
X2355729Y-13489293D01*
X2355729Y-13489293D02*
X2346205Y-13527388D01*
X2346205Y-13527388D02*
X2336682Y-13546436D01*
X2336682Y-13546436D02*
X2327158Y-13555960D01*
X2327158Y-13555960D02*
X2308110Y-13565484D01*
X2308110Y-13565484D02*
X2289063Y-13565484D01*
X2289063Y-13565484D02*
X2270015Y-13555960D01*
X2270015Y-13555960D02*
X2260491Y-13546436D01*
X2260491Y-13546436D02*
X2250967Y-13527388D01*
X2250967Y-13527388D02*
X2241444Y-13489293D01*
X2241444Y-13489293D02*
X2241444Y-13441674D01*
X2241444Y-13441674D02*
X2250967Y-13403579D01*
X2250967Y-13403579D02*
X2260491Y-13384531D01*
X2260491Y-13384531D02*
X2270015Y-13375008D01*
X2270015Y-13375008D02*
X2289063Y-13365484D01*
X2479539Y-13365484D02*
X2498586Y-13365484D01*
X2498586Y-13365484D02*
X2517634Y-13375008D01*
X2517634Y-13375008D02*
X2527158Y-13384531D01*
X2527158Y-13384531D02*
X2536682Y-13403579D01*
X2536682Y-13403579D02*
X2546205Y-13441674D01*
X2546205Y-13441674D02*
X2546205Y-13489293D01*
X2546205Y-13489293D02*
X2536682Y-13527388D01*
X2536682Y-13527388D02*
X2527158Y-13546436D01*
X2527158Y-13546436D02*
X2517634Y-13555960D01*
X2517634Y-13555960D02*
X2498586Y-13565484D01*
X2498586Y-13565484D02*
X2479539Y-13565484D01*
X2479539Y-13565484D02*
X2460491Y-13555960D01*
X2460491Y-13555960D02*
X2450967Y-13546436D01*
X2450967Y-13546436D02*
X2441444Y-13527388D01*
X2441444Y-13527388D02*
X2431920Y-13489293D01*
X2431920Y-13489293D02*
X2431920Y-13441674D01*
X2431920Y-13441674D02*
X2441444Y-13403579D01*
X2441444Y-13403579D02*
X2450967Y-13384531D01*
X2450967Y-13384531D02*
X2460491Y-13375008D01*
X2460491Y-13375008D02*
X2479539Y-13365484D01*
X2631920Y-13565484D02*
X2631920Y-13432150D01*
X2631920Y-13451198D02*
X2641444Y-13441674D01*
X2641444Y-13441674D02*
X2660491Y-13432150D01*
X2660491Y-13432150D02*
X2689063Y-13432150D01*
X2689063Y-13432150D02*
X2708110Y-13441674D01*
X2708110Y-13441674D02*
X2717634Y-13460722D01*
X2717634Y-13460722D02*
X2717634Y-13565484D01*
X2717634Y-13460722D02*
X2727158Y-13441674D01*
X2727158Y-13441674D02*
X2746205Y-13432150D01*
X2746205Y-13432150D02*
X2774777Y-13432150D01*
X2774777Y-13432150D02*
X2793825Y-13441674D01*
X2793825Y-13441674D02*
X2803348Y-13460722D01*
X2803348Y-13460722D02*
X2803348Y-13565484D01*
X2898586Y-13565484D02*
X2898586Y-13432150D01*
X2898586Y-13451198D02*
X2908110Y-13441674D01*
X2908110Y-13441674D02*
X2927158Y-13432150D01*
X2927158Y-13432150D02*
X2955729Y-13432150D01*
X2955729Y-13432150D02*
X2974777Y-13441674D01*
X2974777Y-13441674D02*
X2984301Y-13460722D01*
X2984301Y-13460722D02*
X2984301Y-13565484D01*
X2984301Y-13460722D02*
X2993824Y-13441674D01*
X2993824Y-13441674D02*
X3012872Y-13432150D01*
X3012872Y-13432150D02*
X3041443Y-13432150D01*
X3041443Y-13432150D02*
X3060491Y-13441674D01*
X3060491Y-13441674D02*
X3070015Y-13460722D01*
X3070015Y-13460722D02*
X3070015Y-13565484D01*
X3460491Y-13355960D02*
X3289063Y-13613103D01*
X3717634Y-13365484D02*
X3736682Y-13365484D01*
X3736682Y-13365484D02*
X3755729Y-13375008D01*
X3755729Y-13375008D02*
X3765253Y-13384531D01*
X3765253Y-13384531D02*
X3774777Y-13403579D01*
X3774777Y-13403579D02*
X3784301Y-13441674D01*
X3784301Y-13441674D02*
X3784301Y-13489293D01*
X3784301Y-13489293D02*
X3774777Y-13527388D01*
X3774777Y-13527388D02*
X3765253Y-13546436D01*
X3765253Y-13546436D02*
X3755729Y-13555960D01*
X3755729Y-13555960D02*
X3736682Y-13565484D01*
X3736682Y-13565484D02*
X3717634Y-13565484D01*
X3717634Y-13565484D02*
X3698586Y-13555960D01*
X3698586Y-13555960D02*
X3689063Y-13546436D01*
X3689063Y-13546436D02*
X3679539Y-13527388D01*
X3679539Y-13527388D02*
X3670015Y-13489293D01*
X3670015Y-13489293D02*
X3670015Y-13441674D01*
X3670015Y-13441674D02*
X3679539Y-13403579D01*
X3679539Y-13403579D02*
X3689063Y-13384531D01*
X3689063Y-13384531D02*
X3698586Y-13375008D01*
X3698586Y-13375008D02*
X3717634Y-13365484D01*
X3870015Y-13546436D02*
X3879539Y-13555960D01*
X3879539Y-13555960D02*
X3870015Y-13565484D01*
X3870015Y-13565484D02*
X3860491Y-13555960D01*
X3860491Y-13555960D02*
X3870015Y-13546436D01*
X3870015Y-13546436D02*
X3870015Y-13565484D01*
X4003348Y-13365484D02*
X4022396Y-13365484D01*
X4022396Y-13365484D02*
X4041444Y-13375008D01*
X4041444Y-13375008D02*
X4050967Y-13384531D01*
X4050967Y-13384531D02*
X4060491Y-13403579D01*
X4060491Y-13403579D02*
X4070015Y-13441674D01*
X4070015Y-13441674D02*
X4070015Y-13489293D01*
X4070015Y-13489293D02*
X4060491Y-13527388D01*
X4060491Y-13527388D02*
X4050967Y-13546436D01*
X4050967Y-13546436D02*
X4041444Y-13555960D01*
X4041444Y-13555960D02*
X4022396Y-13565484D01*
X4022396Y-13565484D02*
X4003348Y-13565484D01*
X4003348Y-13565484D02*
X3984301Y-13555960D01*
X3984301Y-13555960D02*
X3974777Y-13546436D01*
X3974777Y-13546436D02*
X3965253Y-13527388D01*
X3965253Y-13527388D02*
X3955729Y-13489293D01*
X3955729Y-13489293D02*
X3955729Y-13441674D01*
X3955729Y-13441674D02*
X3965253Y-13403579D01*
X3965253Y-13403579D02*
X3974777Y-13384531D01*
X3974777Y-13384531D02*
X3984301Y-13375008D01*
X3984301Y-13375008D02*
X4003348Y-13365484D01*
X4260491Y-13565484D02*
X4146206Y-13565484D01*
X4203348Y-13565484D02*
X4203348Y-13365484D01*
X4203348Y-13365484D02*
X4184301Y-13394055D01*
X4184301Y-13394055D02*
X4165253Y-13413103D01*
X4165253Y-13413103D02*
X4146206Y-13422627D01*
X4450968Y-13565484D02*
X4336682Y-13565484D01*
X4393825Y-13565484D02*
X4393825Y-13365484D01*
X4393825Y-13365484D02*
X4374777Y-13394055D01*
X4374777Y-13394055D02*
X4355729Y-13413103D01*
X4355729Y-13413103D02*
X4336682Y-13422627D01*
X4565253Y-13451198D02*
X4546206Y-13441674D01*
X4546206Y-13441674D02*
X4536682Y-13432150D01*
X4536682Y-13432150D02*
X4527158Y-13413103D01*
X4527158Y-13413103D02*
X4527158Y-13403579D01*
X4527158Y-13403579D02*
X4536682Y-13384531D01*
X4536682Y-13384531D02*
X4546206Y-13375008D01*
X4546206Y-13375008D02*
X4565253Y-13365484D01*
X4565253Y-13365484D02*
X4603349Y-13365484D01*
X4603349Y-13365484D02*
X4622396Y-13375008D01*
X4622396Y-13375008D02*
X4631920Y-13384531D01*
X4631920Y-13384531D02*
X4641444Y-13403579D01*
X4641444Y-13403579D02*
X4641444Y-13413103D01*
X4641444Y-13413103D02*
X4631920Y-13432150D01*
X4631920Y-13432150D02*
X4622396Y-13441674D01*
X4622396Y-13441674D02*
X4603349Y-13451198D01*
X4603349Y-13451198D02*
X4565253Y-13451198D01*
X4565253Y-13451198D02*
X4546206Y-13460722D01*
X4546206Y-13460722D02*
X4536682Y-13470246D01*
X4536682Y-13470246D02*
X4527158Y-13489293D01*
X4527158Y-13489293D02*
X4527158Y-13527388D01*
X4527158Y-13527388D02*
X4536682Y-13546436D01*
X4536682Y-13546436D02*
X4546206Y-13555960D01*
X4546206Y-13555960D02*
X4565253Y-13565484D01*
X4565253Y-13565484D02*
X4603349Y-13565484D01*
X4603349Y-13565484D02*
X4622396Y-13555960D01*
X4622396Y-13555960D02*
X4631920Y-13546436D01*
X4631920Y-13546436D02*
X4641444Y-13527388D01*
X4641444Y-13527388D02*
X4641444Y-13489293D01*
X4641444Y-13489293D02*
X4631920Y-13470246D01*
X4631920Y-13470246D02*
X4622396Y-13460722D01*
X4622396Y-13460722D02*
X4603349Y-13451198D01*
X4717634Y-13365484D02*
X4717634Y-13403579D01*
X4793825Y-13365484D02*
X4793825Y-13403579D01*
X5089063Y-13641674D02*
X5079539Y-13632150D01*
X5079539Y-13632150D02*
X5060491Y-13603579D01*
X5060491Y-13603579D02*
X5050968Y-13584531D01*
X5050968Y-13584531D02*
X5041444Y-13555960D01*
X5041444Y-13555960D02*
X5031920Y-13508341D01*
X5031920Y-13508341D02*
X5031920Y-13470246D01*
X5031920Y-13470246D02*
X5041444Y-13422627D01*
X5041444Y-13422627D02*
X5050968Y-13394055D01*
X5050968Y-13394055D02*
X5060491Y-13375008D01*
X5060491Y-13375008D02*
X5079539Y-13346436D01*
X5079539Y-13346436D02*
X5089063Y-13336912D01*
X5174777Y-13565484D02*
X5212872Y-13565484D01*
X5212872Y-13565484D02*
X5231920Y-13555960D01*
X5231920Y-13555960D02*
X5241444Y-13546436D01*
X5241444Y-13546436D02*
X5260491Y-13517865D01*
X5260491Y-13517865D02*
X5270015Y-13479769D01*
X5270015Y-13479769D02*
X5270015Y-13403579D01*
X5270015Y-13403579D02*
X5260491Y-13384531D01*
X5260491Y-13384531D02*
X5250968Y-13375008D01*
X5250968Y-13375008D02*
X5231920Y-13365484D01*
X5231920Y-13365484D02*
X5193825Y-13365484D01*
X5193825Y-13365484D02*
X5174777Y-13375008D01*
X5174777Y-13375008D02*
X5165253Y-13384531D01*
X5165253Y-13384531D02*
X5155730Y-13403579D01*
X5155730Y-13403579D02*
X5155730Y-13451198D01*
X5155730Y-13451198D02*
X5165253Y-13470246D01*
X5165253Y-13470246D02*
X5174777Y-13479769D01*
X5174777Y-13479769D02*
X5193825Y-13489293D01*
X5193825Y-13489293D02*
X5231920Y-13489293D01*
X5231920Y-13489293D02*
X5250968Y-13479769D01*
X5250968Y-13479769D02*
X5260491Y-13470246D01*
X5260491Y-13470246D02*
X5270015Y-13451198D01*
X5384301Y-13451198D02*
X5365253Y-13441674D01*
X5365253Y-13441674D02*
X5355730Y-13432150D01*
X5355730Y-13432150D02*
X5346206Y-13413103D01*
X5346206Y-13413103D02*
X5346206Y-13403579D01*
X5346206Y-13403579D02*
X5355730Y-13384531D01*
X5355730Y-13384531D02*
X5365253Y-13375008D01*
X5365253Y-13375008D02*
X5384301Y-13365484D01*
X5384301Y-13365484D02*
X5422396Y-13365484D01*
X5422396Y-13365484D02*
X5441444Y-13375008D01*
X5441444Y-13375008D02*
X5450968Y-13384531D01*
X5450968Y-13384531D02*
X5460491Y-13403579D01*
X5460491Y-13403579D02*
X5460491Y-13413103D01*
X5460491Y-13413103D02*
X5450968Y-13432150D01*
X5450968Y-13432150D02*
X5441444Y-13441674D01*
X5441444Y-13441674D02*
X5422396Y-13451198D01*
X5422396Y-13451198D02*
X5384301Y-13451198D01*
X5384301Y-13451198D02*
X5365253Y-13460722D01*
X5365253Y-13460722D02*
X5355730Y-13470246D01*
X5355730Y-13470246D02*
X5346206Y-13489293D01*
X5346206Y-13489293D02*
X5346206Y-13527388D01*
X5346206Y-13527388D02*
X5355730Y-13546436D01*
X5355730Y-13546436D02*
X5365253Y-13555960D01*
X5365253Y-13555960D02*
X5384301Y-13565484D01*
X5384301Y-13565484D02*
X5422396Y-13565484D01*
X5422396Y-13565484D02*
X5441444Y-13555960D01*
X5441444Y-13555960D02*
X5450968Y-13546436D01*
X5450968Y-13546436D02*
X5460491Y-13527388D01*
X5460491Y-13527388D02*
X5460491Y-13489293D01*
X5460491Y-13489293D02*
X5450968Y-13470246D01*
X5450968Y-13470246D02*
X5441444Y-13460722D01*
X5441444Y-13460722D02*
X5422396Y-13451198D01*
X5698587Y-13565484D02*
X5698587Y-13365484D01*
X5784301Y-13565484D02*
X5784301Y-13460722D01*
X5784301Y-13460722D02*
X5774777Y-13441674D01*
X5774777Y-13441674D02*
X5755730Y-13432150D01*
X5755730Y-13432150D02*
X5727158Y-13432150D01*
X5727158Y-13432150D02*
X5708110Y-13441674D01*
X5708110Y-13441674D02*
X5698587Y-13451198D01*
X5908110Y-13565484D02*
X5889063Y-13555960D01*
X5889063Y-13555960D02*
X5879539Y-13546436D01*
X5879539Y-13546436D02*
X5870015Y-13527388D01*
X5870015Y-13527388D02*
X5870015Y-13470246D01*
X5870015Y-13470246D02*
X5879539Y-13451198D01*
X5879539Y-13451198D02*
X5889063Y-13441674D01*
X5889063Y-13441674D02*
X5908110Y-13432150D01*
X5908110Y-13432150D02*
X5936682Y-13432150D01*
X5936682Y-13432150D02*
X5955730Y-13441674D01*
X5955730Y-13441674D02*
X5965253Y-13451198D01*
X5965253Y-13451198D02*
X5974777Y-13470246D01*
X5974777Y-13470246D02*
X5974777Y-13527388D01*
X5974777Y-13527388D02*
X5965253Y-13546436D01*
X5965253Y-13546436D02*
X5955730Y-13555960D01*
X5955730Y-13555960D02*
X5936682Y-13565484D01*
X5936682Y-13565484D02*
X5908110Y-13565484D01*
X6089063Y-13565484D02*
X6070015Y-13555960D01*
X6070015Y-13555960D02*
X6060491Y-13536912D01*
X6060491Y-13536912D02*
X6060491Y-13365484D01*
X6241444Y-13555960D02*
X6222396Y-13565484D01*
X6222396Y-13565484D02*
X6184301Y-13565484D01*
X6184301Y-13565484D02*
X6165253Y-13555960D01*
X6165253Y-13555960D02*
X6155730Y-13536912D01*
X6155730Y-13536912D02*
X6155730Y-13460722D01*
X6155730Y-13460722D02*
X6165253Y-13441674D01*
X6165253Y-13441674D02*
X6184301Y-13432150D01*
X6184301Y-13432150D02*
X6222396Y-13432150D01*
X6222396Y-13432150D02*
X6241444Y-13441674D01*
X6241444Y-13441674D02*
X6250968Y-13460722D01*
X6250968Y-13460722D02*
X6250968Y-13479769D01*
X6250968Y-13479769D02*
X6155730Y-13498817D01*
X6327158Y-13555960D02*
X6346206Y-13565484D01*
X6346206Y-13565484D02*
X6384301Y-13565484D01*
X6384301Y-13565484D02*
X6403349Y-13555960D01*
X6403349Y-13555960D02*
X6412872Y-13536912D01*
X6412872Y-13536912D02*
X6412872Y-13527388D01*
X6412872Y-13527388D02*
X6403349Y-13508341D01*
X6403349Y-13508341D02*
X6384301Y-13498817D01*
X6384301Y-13498817D02*
X6355730Y-13498817D01*
X6355730Y-13498817D02*
X6336682Y-13489293D01*
X6336682Y-13489293D02*
X6327158Y-13470246D01*
X6327158Y-13470246D02*
X6327158Y-13460722D01*
X6327158Y-13460722D02*
X6336682Y-13441674D01*
X6336682Y-13441674D02*
X6355730Y-13432150D01*
X6355730Y-13432150D02*
X6384301Y-13432150D01*
X6384301Y-13432150D02*
X6403349Y-13441674D01*
X6479539Y-13641674D02*
X6489063Y-13632150D01*
X6489063Y-13632150D02*
X6508111Y-13603579D01*
X6508111Y-13603579D02*
X6517634Y-13584531D01*
X6517634Y-13584531D02*
X6527158Y-13555960D01*
X6527158Y-13555960D02*
X6536682Y-13508341D01*
X6536682Y-13508341D02*
X6536682Y-13470246D01*
X6536682Y-13470246D02*
X6527158Y-13422627D01*
X6527158Y-13422627D02*
X6517634Y-13394055D01*
X6517634Y-13394055D02*
X6508111Y-13375008D01*
X6508111Y-13375008D02*
X6489063Y-13346436D01*
X6489063Y-13346436D02*
X6479539Y-13336912D01*
D11*
X1514000Y-13738000D02*
G75*
G02*
X1414000Y-13738000I-50000J0D01*
G01*
X1414000Y-13738000D02*
G75*
G02*
X1514000Y-13738000I50000J0D01*
G01*
D10*
X1879539Y-13829484D02*
X1765253Y-13829484D01*
X1822396Y-13829484D02*
X1822396Y-13629484D01*
X1822396Y-13629484D02*
X1803348Y-13658055D01*
X1803348Y-13658055D02*
X1784301Y-13677103D01*
X1784301Y-13677103D02*
X1765253Y-13686627D01*
X1965253Y-13810436D02*
X1974777Y-13819960D01*
X1974777Y-13819960D02*
X1965253Y-13829484D01*
X1965253Y-13829484D02*
X1955729Y-13819960D01*
X1955729Y-13819960D02*
X1965253Y-13810436D01*
X1965253Y-13810436D02*
X1965253Y-13829484D01*
X2098586Y-13629484D02*
X2117634Y-13629484D01*
X2117634Y-13629484D02*
X2136682Y-13639008D01*
X2136682Y-13639008D02*
X2146205Y-13648531D01*
X2146205Y-13648531D02*
X2155729Y-13667579D01*
X2155729Y-13667579D02*
X2165253Y-13705674D01*
X2165253Y-13705674D02*
X2165253Y-13753293D01*
X2165253Y-13753293D02*
X2155729Y-13791388D01*
X2155729Y-13791388D02*
X2146205Y-13810436D01*
X2146205Y-13810436D02*
X2136682Y-13819960D01*
X2136682Y-13819960D02*
X2117634Y-13829484D01*
X2117634Y-13829484D02*
X2098586Y-13829484D01*
X2098586Y-13829484D02*
X2079539Y-13819960D01*
X2079539Y-13819960D02*
X2070015Y-13810436D01*
X2070015Y-13810436D02*
X2060491Y-13791388D01*
X2060491Y-13791388D02*
X2050967Y-13753293D01*
X2050967Y-13753293D02*
X2050967Y-13705674D01*
X2050967Y-13705674D02*
X2060491Y-13667579D01*
X2060491Y-13667579D02*
X2070015Y-13648531D01*
X2070015Y-13648531D02*
X2079539Y-13639008D01*
X2079539Y-13639008D02*
X2098586Y-13629484D01*
X2289063Y-13629484D02*
X2308110Y-13629484D01*
X2308110Y-13629484D02*
X2327158Y-13639008D01*
X2327158Y-13639008D02*
X2336682Y-13648531D01*
X2336682Y-13648531D02*
X2346205Y-13667579D01*
X2346205Y-13667579D02*
X2355729Y-13705674D01*
X2355729Y-13705674D02*
X2355729Y-13753293D01*
X2355729Y-13753293D02*
X2346205Y-13791388D01*
X2346205Y-13791388D02*
X2336682Y-13810436D01*
X2336682Y-13810436D02*
X2327158Y-13819960D01*
X2327158Y-13819960D02*
X2308110Y-13829484D01*
X2308110Y-13829484D02*
X2289063Y-13829484D01*
X2289063Y-13829484D02*
X2270015Y-13819960D01*
X2270015Y-13819960D02*
X2260491Y-13810436D01*
X2260491Y-13810436D02*
X2250967Y-13791388D01*
X2250967Y-13791388D02*
X2241444Y-13753293D01*
X2241444Y-13753293D02*
X2241444Y-13705674D01*
X2241444Y-13705674D02*
X2250967Y-13667579D01*
X2250967Y-13667579D02*
X2260491Y-13648531D01*
X2260491Y-13648531D02*
X2270015Y-13639008D01*
X2270015Y-13639008D02*
X2289063Y-13629484D01*
X2479539Y-13629484D02*
X2498586Y-13629484D01*
X2498586Y-13629484D02*
X2517634Y-13639008D01*
X2517634Y-13639008D02*
X2527158Y-13648531D01*
X2527158Y-13648531D02*
X2536682Y-13667579D01*
X2536682Y-13667579D02*
X2546205Y-13705674D01*
X2546205Y-13705674D02*
X2546205Y-13753293D01*
X2546205Y-13753293D02*
X2536682Y-13791388D01*
X2536682Y-13791388D02*
X2527158Y-13810436D01*
X2527158Y-13810436D02*
X2517634Y-13819960D01*
X2517634Y-13819960D02*
X2498586Y-13829484D01*
X2498586Y-13829484D02*
X2479539Y-13829484D01*
X2479539Y-13829484D02*
X2460491Y-13819960D01*
X2460491Y-13819960D02*
X2450967Y-13810436D01*
X2450967Y-13810436D02*
X2441444Y-13791388D01*
X2441444Y-13791388D02*
X2431920Y-13753293D01*
X2431920Y-13753293D02*
X2431920Y-13705674D01*
X2431920Y-13705674D02*
X2441444Y-13667579D01*
X2441444Y-13667579D02*
X2450967Y-13648531D01*
X2450967Y-13648531D02*
X2460491Y-13639008D01*
X2460491Y-13639008D02*
X2479539Y-13629484D01*
X2631920Y-13829484D02*
X2631920Y-13696150D01*
X2631920Y-13715198D02*
X2641444Y-13705674D01*
X2641444Y-13705674D02*
X2660491Y-13696150D01*
X2660491Y-13696150D02*
X2689063Y-13696150D01*
X2689063Y-13696150D02*
X2708110Y-13705674D01*
X2708110Y-13705674D02*
X2717634Y-13724722D01*
X2717634Y-13724722D02*
X2717634Y-13829484D01*
X2717634Y-13724722D02*
X2727158Y-13705674D01*
X2727158Y-13705674D02*
X2746205Y-13696150D01*
X2746205Y-13696150D02*
X2774777Y-13696150D01*
X2774777Y-13696150D02*
X2793825Y-13705674D01*
X2793825Y-13705674D02*
X2803348Y-13724722D01*
X2803348Y-13724722D02*
X2803348Y-13829484D01*
X2898586Y-13829484D02*
X2898586Y-13696150D01*
X2898586Y-13715198D02*
X2908110Y-13705674D01*
X2908110Y-13705674D02*
X2927158Y-13696150D01*
X2927158Y-13696150D02*
X2955729Y-13696150D01*
X2955729Y-13696150D02*
X2974777Y-13705674D01*
X2974777Y-13705674D02*
X2984301Y-13724722D01*
X2984301Y-13724722D02*
X2984301Y-13829484D01*
X2984301Y-13724722D02*
X2993824Y-13705674D01*
X2993824Y-13705674D02*
X3012872Y-13696150D01*
X3012872Y-13696150D02*
X3041443Y-13696150D01*
X3041443Y-13696150D02*
X3060491Y-13705674D01*
X3060491Y-13705674D02*
X3070015Y-13724722D01*
X3070015Y-13724722D02*
X3070015Y-13829484D01*
X3460491Y-13619960D02*
X3289063Y-13877103D01*
X3717634Y-13629484D02*
X3736682Y-13629484D01*
X3736682Y-13629484D02*
X3755729Y-13639008D01*
X3755729Y-13639008D02*
X3765253Y-13648531D01*
X3765253Y-13648531D02*
X3774777Y-13667579D01*
X3774777Y-13667579D02*
X3784301Y-13705674D01*
X3784301Y-13705674D02*
X3784301Y-13753293D01*
X3784301Y-13753293D02*
X3774777Y-13791388D01*
X3774777Y-13791388D02*
X3765253Y-13810436D01*
X3765253Y-13810436D02*
X3755729Y-13819960D01*
X3755729Y-13819960D02*
X3736682Y-13829484D01*
X3736682Y-13829484D02*
X3717634Y-13829484D01*
X3717634Y-13829484D02*
X3698586Y-13819960D01*
X3698586Y-13819960D02*
X3689063Y-13810436D01*
X3689063Y-13810436D02*
X3679539Y-13791388D01*
X3679539Y-13791388D02*
X3670015Y-13753293D01*
X3670015Y-13753293D02*
X3670015Y-13705674D01*
X3670015Y-13705674D02*
X3679539Y-13667579D01*
X3679539Y-13667579D02*
X3689063Y-13648531D01*
X3689063Y-13648531D02*
X3698586Y-13639008D01*
X3698586Y-13639008D02*
X3717634Y-13629484D01*
X3870015Y-13810436D02*
X3879539Y-13819960D01*
X3879539Y-13819960D02*
X3870015Y-13829484D01*
X3870015Y-13829484D02*
X3860491Y-13819960D01*
X3860491Y-13819960D02*
X3870015Y-13810436D01*
X3870015Y-13810436D02*
X3870015Y-13829484D01*
X4003348Y-13629484D02*
X4022396Y-13629484D01*
X4022396Y-13629484D02*
X4041444Y-13639008D01*
X4041444Y-13639008D02*
X4050967Y-13648531D01*
X4050967Y-13648531D02*
X4060491Y-13667579D01*
X4060491Y-13667579D02*
X4070015Y-13705674D01*
X4070015Y-13705674D02*
X4070015Y-13753293D01*
X4070015Y-13753293D02*
X4060491Y-13791388D01*
X4060491Y-13791388D02*
X4050967Y-13810436D01*
X4050967Y-13810436D02*
X4041444Y-13819960D01*
X4041444Y-13819960D02*
X4022396Y-13829484D01*
X4022396Y-13829484D02*
X4003348Y-13829484D01*
X4003348Y-13829484D02*
X3984301Y-13819960D01*
X3984301Y-13819960D02*
X3974777Y-13810436D01*
X3974777Y-13810436D02*
X3965253Y-13791388D01*
X3965253Y-13791388D02*
X3955729Y-13753293D01*
X3955729Y-13753293D02*
X3955729Y-13705674D01*
X3955729Y-13705674D02*
X3965253Y-13667579D01*
X3965253Y-13667579D02*
X3974777Y-13648531D01*
X3974777Y-13648531D02*
X3984301Y-13639008D01*
X3984301Y-13639008D02*
X4003348Y-13629484D01*
X4136682Y-13629484D02*
X4260491Y-13629484D01*
X4260491Y-13629484D02*
X4193825Y-13705674D01*
X4193825Y-13705674D02*
X4222396Y-13705674D01*
X4222396Y-13705674D02*
X4241444Y-13715198D01*
X4241444Y-13715198D02*
X4250968Y-13724722D01*
X4250968Y-13724722D02*
X4260491Y-13743769D01*
X4260491Y-13743769D02*
X4260491Y-13791388D01*
X4260491Y-13791388D02*
X4250968Y-13810436D01*
X4250968Y-13810436D02*
X4241444Y-13819960D01*
X4241444Y-13819960D02*
X4222396Y-13829484D01*
X4222396Y-13829484D02*
X4165253Y-13829484D01*
X4165253Y-13829484D02*
X4146206Y-13819960D01*
X4146206Y-13819960D02*
X4136682Y-13810436D01*
X4355729Y-13829484D02*
X4393825Y-13829484D01*
X4393825Y-13829484D02*
X4412872Y-13819960D01*
X4412872Y-13819960D02*
X4422396Y-13810436D01*
X4422396Y-13810436D02*
X4441444Y-13781865D01*
X4441444Y-13781865D02*
X4450968Y-13743769D01*
X4450968Y-13743769D02*
X4450968Y-13667579D01*
X4450968Y-13667579D02*
X4441444Y-13648531D01*
X4441444Y-13648531D02*
X4431920Y-13639008D01*
X4431920Y-13639008D02*
X4412872Y-13629484D01*
X4412872Y-13629484D02*
X4374777Y-13629484D01*
X4374777Y-13629484D02*
X4355729Y-13639008D01*
X4355729Y-13639008D02*
X4346206Y-13648531D01*
X4346206Y-13648531D02*
X4336682Y-13667579D01*
X4336682Y-13667579D02*
X4336682Y-13715198D01*
X4336682Y-13715198D02*
X4346206Y-13734246D01*
X4346206Y-13734246D02*
X4355729Y-13743769D01*
X4355729Y-13743769D02*
X4374777Y-13753293D01*
X4374777Y-13753293D02*
X4412872Y-13753293D01*
X4412872Y-13753293D02*
X4431920Y-13743769D01*
X4431920Y-13743769D02*
X4441444Y-13734246D01*
X4441444Y-13734246D02*
X4450968Y-13715198D01*
X4622396Y-13696150D02*
X4622396Y-13829484D01*
X4574777Y-13619960D02*
X4527158Y-13762817D01*
X4527158Y-13762817D02*
X4650968Y-13762817D01*
X4717634Y-13629484D02*
X4717634Y-13667579D01*
X4793825Y-13629484D02*
X4793825Y-13667579D01*
X5089063Y-13905674D02*
X5079539Y-13896150D01*
X5079539Y-13896150D02*
X5060491Y-13867579D01*
X5060491Y-13867579D02*
X5050968Y-13848531D01*
X5050968Y-13848531D02*
X5041444Y-13819960D01*
X5041444Y-13819960D02*
X5031920Y-13772341D01*
X5031920Y-13772341D02*
X5031920Y-13734246D01*
X5031920Y-13734246D02*
X5041444Y-13686627D01*
X5041444Y-13686627D02*
X5050968Y-13658055D01*
X5050968Y-13658055D02*
X5060491Y-13639008D01*
X5060491Y-13639008D02*
X5079539Y-13610436D01*
X5079539Y-13610436D02*
X5089063Y-13600912D01*
X5155730Y-13648531D02*
X5165253Y-13639008D01*
X5165253Y-13639008D02*
X5184301Y-13629484D01*
X5184301Y-13629484D02*
X5231920Y-13629484D01*
X5231920Y-13629484D02*
X5250968Y-13639008D01*
X5250968Y-13639008D02*
X5260491Y-13648531D01*
X5260491Y-13648531D02*
X5270015Y-13667579D01*
X5270015Y-13667579D02*
X5270015Y-13686627D01*
X5270015Y-13686627D02*
X5260491Y-13715198D01*
X5260491Y-13715198D02*
X5146206Y-13829484D01*
X5146206Y-13829484D02*
X5270015Y-13829484D01*
X5384301Y-13715198D02*
X5365253Y-13705674D01*
X5365253Y-13705674D02*
X5355730Y-13696150D01*
X5355730Y-13696150D02*
X5346206Y-13677103D01*
X5346206Y-13677103D02*
X5346206Y-13667579D01*
X5346206Y-13667579D02*
X5355730Y-13648531D01*
X5355730Y-13648531D02*
X5365253Y-13639008D01*
X5365253Y-13639008D02*
X5384301Y-13629484D01*
X5384301Y-13629484D02*
X5422396Y-13629484D01*
X5422396Y-13629484D02*
X5441444Y-13639008D01*
X5441444Y-13639008D02*
X5450968Y-13648531D01*
X5450968Y-13648531D02*
X5460491Y-13667579D01*
X5460491Y-13667579D02*
X5460491Y-13677103D01*
X5460491Y-13677103D02*
X5450968Y-13696150D01*
X5450968Y-13696150D02*
X5441444Y-13705674D01*
X5441444Y-13705674D02*
X5422396Y-13715198D01*
X5422396Y-13715198D02*
X5384301Y-13715198D01*
X5384301Y-13715198D02*
X5365253Y-13724722D01*
X5365253Y-13724722D02*
X5355730Y-13734246D01*
X5355730Y-13734246D02*
X5346206Y-13753293D01*
X5346206Y-13753293D02*
X5346206Y-13791388D01*
X5346206Y-13791388D02*
X5355730Y-13810436D01*
X5355730Y-13810436D02*
X5365253Y-13819960D01*
X5365253Y-13819960D02*
X5384301Y-13829484D01*
X5384301Y-13829484D02*
X5422396Y-13829484D01*
X5422396Y-13829484D02*
X5441444Y-13819960D01*
X5441444Y-13819960D02*
X5450968Y-13810436D01*
X5450968Y-13810436D02*
X5460491Y-13791388D01*
X5460491Y-13791388D02*
X5460491Y-13753293D01*
X5460491Y-13753293D02*
X5450968Y-13734246D01*
X5450968Y-13734246D02*
X5441444Y-13724722D01*
X5441444Y-13724722D02*
X5422396Y-13715198D01*
X5641444Y-13629484D02*
X5546206Y-13629484D01*
X5546206Y-13629484D02*
X5536682Y-13724722D01*
X5536682Y-13724722D02*
X5546206Y-13715198D01*
X5546206Y-13715198D02*
X5565253Y-13705674D01*
X5565253Y-13705674D02*
X5612872Y-13705674D01*
X5612872Y-13705674D02*
X5631920Y-13715198D01*
X5631920Y-13715198D02*
X5641444Y-13724722D01*
X5641444Y-13724722D02*
X5650968Y-13743769D01*
X5650968Y-13743769D02*
X5650968Y-13791388D01*
X5650968Y-13791388D02*
X5641444Y-13810436D01*
X5641444Y-13810436D02*
X5631920Y-13819960D01*
X5631920Y-13819960D02*
X5612872Y-13829484D01*
X5612872Y-13829484D02*
X5565253Y-13829484D01*
X5565253Y-13829484D02*
X5546206Y-13819960D01*
X5546206Y-13819960D02*
X5536682Y-13810436D01*
X5889063Y-13829484D02*
X5889063Y-13629484D01*
X5974777Y-13829484D02*
X5974777Y-13724722D01*
X5974777Y-13724722D02*
X5965253Y-13705674D01*
X5965253Y-13705674D02*
X5946206Y-13696150D01*
X5946206Y-13696150D02*
X5917634Y-13696150D01*
X5917634Y-13696150D02*
X5898587Y-13705674D01*
X5898587Y-13705674D02*
X5889063Y-13715198D01*
X6098587Y-13829484D02*
X6079539Y-13819960D01*
X6079539Y-13819960D02*
X6070015Y-13810436D01*
X6070015Y-13810436D02*
X6060491Y-13791388D01*
X6060491Y-13791388D02*
X6060491Y-13734246D01*
X6060491Y-13734246D02*
X6070015Y-13715198D01*
X6070015Y-13715198D02*
X6079539Y-13705674D01*
X6079539Y-13705674D02*
X6098587Y-13696150D01*
X6098587Y-13696150D02*
X6127158Y-13696150D01*
X6127158Y-13696150D02*
X6146206Y-13705674D01*
X6146206Y-13705674D02*
X6155730Y-13715198D01*
X6155730Y-13715198D02*
X6165253Y-13734246D01*
X6165253Y-13734246D02*
X6165253Y-13791388D01*
X6165253Y-13791388D02*
X6155730Y-13810436D01*
X6155730Y-13810436D02*
X6146206Y-13819960D01*
X6146206Y-13819960D02*
X6127158Y-13829484D01*
X6127158Y-13829484D02*
X6098587Y-13829484D01*
X6279539Y-13829484D02*
X6260491Y-13819960D01*
X6260491Y-13819960D02*
X6250968Y-13800912D01*
X6250968Y-13800912D02*
X6250968Y-13629484D01*
X6431920Y-13819960D02*
X6412872Y-13829484D01*
X6412872Y-13829484D02*
X6374777Y-13829484D01*
X6374777Y-13829484D02*
X6355730Y-13819960D01*
X6355730Y-13819960D02*
X6346206Y-13800912D01*
X6346206Y-13800912D02*
X6346206Y-13724722D01*
X6346206Y-13724722D02*
X6355730Y-13705674D01*
X6355730Y-13705674D02*
X6374777Y-13696150D01*
X6374777Y-13696150D02*
X6412872Y-13696150D01*
X6412872Y-13696150D02*
X6431920Y-13705674D01*
X6431920Y-13705674D02*
X6441444Y-13724722D01*
X6441444Y-13724722D02*
X6441444Y-13743769D01*
X6441444Y-13743769D02*
X6346206Y-13762817D01*
X6517634Y-13819960D02*
X6536682Y-13829484D01*
X6536682Y-13829484D02*
X6574777Y-13829484D01*
X6574777Y-13829484D02*
X6593825Y-13819960D01*
X6593825Y-13819960D02*
X6603349Y-13800912D01*
X6603349Y-13800912D02*
X6603349Y-13791388D01*
X6603349Y-13791388D02*
X6593825Y-13772341D01*
X6593825Y-13772341D02*
X6574777Y-13762817D01*
X6574777Y-13762817D02*
X6546206Y-13762817D01*
X6546206Y-13762817D02*
X6527158Y-13753293D01*
X6527158Y-13753293D02*
X6517634Y-13734246D01*
X6517634Y-13734246D02*
X6517634Y-13724722D01*
X6517634Y-13724722D02*
X6527158Y-13705674D01*
X6527158Y-13705674D02*
X6546206Y-13696150D01*
X6546206Y-13696150D02*
X6574777Y-13696150D01*
X6574777Y-13696150D02*
X6593825Y-13705674D01*
X6670015Y-13905674D02*
X6679539Y-13896150D01*
X6679539Y-13896150D02*
X6698587Y-13867579D01*
X6698587Y-13867579D02*
X6708111Y-13848531D01*
X6708111Y-13848531D02*
X6717634Y-13819960D01*
X6717634Y-13819960D02*
X6727158Y-13772341D01*
X6727158Y-13772341D02*
X6727158Y-13734246D01*
X6727158Y-13734246D02*
X6717634Y-13686627D01*
X6717634Y-13686627D02*
X6708111Y-13658055D01*
X6708111Y-13658055D02*
X6698587Y-13639008D01*
X6698587Y-13639008D02*
X6679539Y-13610436D01*
X6679539Y-13610436D02*
X6670015Y-13600912D01*
D12*
X1438000Y-13926000D02*
X1438000Y-14078000D01*
X1362000Y-14002000D02*
X1514000Y-14002000D01*
D10*
X1879539Y-14093484D02*
X1765253Y-14093484D01*
X1822396Y-14093484D02*
X1822396Y-13893484D01*
X1822396Y-13893484D02*
X1803348Y-13922055D01*
X1803348Y-13922055D02*
X1784301Y-13941103D01*
X1784301Y-13941103D02*
X1765253Y-13950627D01*
X1965253Y-14074436D02*
X1974777Y-14083960D01*
X1974777Y-14083960D02*
X1965253Y-14093484D01*
X1965253Y-14093484D02*
X1955729Y-14083960D01*
X1955729Y-14083960D02*
X1965253Y-14074436D01*
X1965253Y-14074436D02*
X1965253Y-14093484D01*
X2155729Y-13893484D02*
X2060491Y-13893484D01*
X2060491Y-13893484D02*
X2050967Y-13988722D01*
X2050967Y-13988722D02*
X2060491Y-13979198D01*
X2060491Y-13979198D02*
X2079539Y-13969674D01*
X2079539Y-13969674D02*
X2127158Y-13969674D01*
X2127158Y-13969674D02*
X2146205Y-13979198D01*
X2146205Y-13979198D02*
X2155729Y-13988722D01*
X2155729Y-13988722D02*
X2165253Y-14007769D01*
X2165253Y-14007769D02*
X2165253Y-14055388D01*
X2165253Y-14055388D02*
X2155729Y-14074436D01*
X2155729Y-14074436D02*
X2146205Y-14083960D01*
X2146205Y-14083960D02*
X2127158Y-14093484D01*
X2127158Y-14093484D02*
X2079539Y-14093484D01*
X2079539Y-14093484D02*
X2060491Y-14083960D01*
X2060491Y-14083960D02*
X2050967Y-14074436D01*
X2241444Y-13912531D02*
X2250967Y-13903008D01*
X2250967Y-13903008D02*
X2270015Y-13893484D01*
X2270015Y-13893484D02*
X2317634Y-13893484D01*
X2317634Y-13893484D02*
X2336682Y-13903008D01*
X2336682Y-13903008D02*
X2346205Y-13912531D01*
X2346205Y-13912531D02*
X2355729Y-13931579D01*
X2355729Y-13931579D02*
X2355729Y-13950627D01*
X2355729Y-13950627D02*
X2346205Y-13979198D01*
X2346205Y-13979198D02*
X2231920Y-14093484D01*
X2231920Y-14093484D02*
X2355729Y-14093484D01*
X2479539Y-13893484D02*
X2498586Y-13893484D01*
X2498586Y-13893484D02*
X2517634Y-13903008D01*
X2517634Y-13903008D02*
X2527158Y-13912531D01*
X2527158Y-13912531D02*
X2536682Y-13931579D01*
X2536682Y-13931579D02*
X2546205Y-13969674D01*
X2546205Y-13969674D02*
X2546205Y-14017293D01*
X2546205Y-14017293D02*
X2536682Y-14055388D01*
X2536682Y-14055388D02*
X2527158Y-14074436D01*
X2527158Y-14074436D02*
X2517634Y-14083960D01*
X2517634Y-14083960D02*
X2498586Y-14093484D01*
X2498586Y-14093484D02*
X2479539Y-14093484D01*
X2479539Y-14093484D02*
X2460491Y-14083960D01*
X2460491Y-14083960D02*
X2450967Y-14074436D01*
X2450967Y-14074436D02*
X2441444Y-14055388D01*
X2441444Y-14055388D02*
X2431920Y-14017293D01*
X2431920Y-14017293D02*
X2431920Y-13969674D01*
X2431920Y-13969674D02*
X2441444Y-13931579D01*
X2441444Y-13931579D02*
X2450967Y-13912531D01*
X2450967Y-13912531D02*
X2460491Y-13903008D01*
X2460491Y-13903008D02*
X2479539Y-13893484D01*
X2631920Y-14093484D02*
X2631920Y-13960150D01*
X2631920Y-13979198D02*
X2641444Y-13969674D01*
X2641444Y-13969674D02*
X2660491Y-13960150D01*
X2660491Y-13960150D02*
X2689063Y-13960150D01*
X2689063Y-13960150D02*
X2708110Y-13969674D01*
X2708110Y-13969674D02*
X2717634Y-13988722D01*
X2717634Y-13988722D02*
X2717634Y-14093484D01*
X2717634Y-13988722D02*
X2727158Y-13969674D01*
X2727158Y-13969674D02*
X2746205Y-13960150D01*
X2746205Y-13960150D02*
X2774777Y-13960150D01*
X2774777Y-13960150D02*
X2793825Y-13969674D01*
X2793825Y-13969674D02*
X2803348Y-13988722D01*
X2803348Y-13988722D02*
X2803348Y-14093484D01*
X2898586Y-14093484D02*
X2898586Y-13960150D01*
X2898586Y-13979198D02*
X2908110Y-13969674D01*
X2908110Y-13969674D02*
X2927158Y-13960150D01*
X2927158Y-13960150D02*
X2955729Y-13960150D01*
X2955729Y-13960150D02*
X2974777Y-13969674D01*
X2974777Y-13969674D02*
X2984301Y-13988722D01*
X2984301Y-13988722D02*
X2984301Y-14093484D01*
X2984301Y-13988722D02*
X2993824Y-13969674D01*
X2993824Y-13969674D02*
X3012872Y-13960150D01*
X3012872Y-13960150D02*
X3041443Y-13960150D01*
X3041443Y-13960150D02*
X3060491Y-13969674D01*
X3060491Y-13969674D02*
X3070015Y-13988722D01*
X3070015Y-13988722D02*
X3070015Y-14093484D01*
X3460491Y-13883960D02*
X3289063Y-14141103D01*
X3717634Y-13893484D02*
X3736682Y-13893484D01*
X3736682Y-13893484D02*
X3755729Y-13903008D01*
X3755729Y-13903008D02*
X3765253Y-13912531D01*
X3765253Y-13912531D02*
X3774777Y-13931579D01*
X3774777Y-13931579D02*
X3784301Y-13969674D01*
X3784301Y-13969674D02*
X3784301Y-14017293D01*
X3784301Y-14017293D02*
X3774777Y-14055388D01*
X3774777Y-14055388D02*
X3765253Y-14074436D01*
X3765253Y-14074436D02*
X3755729Y-14083960D01*
X3755729Y-14083960D02*
X3736682Y-14093484D01*
X3736682Y-14093484D02*
X3717634Y-14093484D01*
X3717634Y-14093484D02*
X3698586Y-14083960D01*
X3698586Y-14083960D02*
X3689063Y-14074436D01*
X3689063Y-14074436D02*
X3679539Y-14055388D01*
X3679539Y-14055388D02*
X3670015Y-14017293D01*
X3670015Y-14017293D02*
X3670015Y-13969674D01*
X3670015Y-13969674D02*
X3679539Y-13931579D01*
X3679539Y-13931579D02*
X3689063Y-13912531D01*
X3689063Y-13912531D02*
X3698586Y-13903008D01*
X3698586Y-13903008D02*
X3717634Y-13893484D01*
X3870015Y-14074436D02*
X3879539Y-14083960D01*
X3879539Y-14083960D02*
X3870015Y-14093484D01*
X3870015Y-14093484D02*
X3860491Y-14083960D01*
X3860491Y-14083960D02*
X3870015Y-14074436D01*
X3870015Y-14074436D02*
X3870015Y-14093484D01*
X4003348Y-13893484D02*
X4022396Y-13893484D01*
X4022396Y-13893484D02*
X4041444Y-13903008D01*
X4041444Y-13903008D02*
X4050967Y-13912531D01*
X4050967Y-13912531D02*
X4060491Y-13931579D01*
X4060491Y-13931579D02*
X4070015Y-13969674D01*
X4070015Y-13969674D02*
X4070015Y-14017293D01*
X4070015Y-14017293D02*
X4060491Y-14055388D01*
X4060491Y-14055388D02*
X4050967Y-14074436D01*
X4050967Y-14074436D02*
X4041444Y-14083960D01*
X4041444Y-14083960D02*
X4022396Y-14093484D01*
X4022396Y-14093484D02*
X4003348Y-14093484D01*
X4003348Y-14093484D02*
X3984301Y-14083960D01*
X3984301Y-14083960D02*
X3974777Y-14074436D01*
X3974777Y-14074436D02*
X3965253Y-14055388D01*
X3965253Y-14055388D02*
X3955729Y-14017293D01*
X3955729Y-14017293D02*
X3955729Y-13969674D01*
X3955729Y-13969674D02*
X3965253Y-13931579D01*
X3965253Y-13931579D02*
X3974777Y-13912531D01*
X3974777Y-13912531D02*
X3984301Y-13903008D01*
X3984301Y-13903008D02*
X4003348Y-13893484D01*
X4250968Y-13893484D02*
X4155729Y-13893484D01*
X4155729Y-13893484D02*
X4146206Y-13988722D01*
X4146206Y-13988722D02*
X4155729Y-13979198D01*
X4155729Y-13979198D02*
X4174777Y-13969674D01*
X4174777Y-13969674D02*
X4222396Y-13969674D01*
X4222396Y-13969674D02*
X4241444Y-13979198D01*
X4241444Y-13979198D02*
X4250968Y-13988722D01*
X4250968Y-13988722D02*
X4260491Y-14007769D01*
X4260491Y-14007769D02*
X4260491Y-14055388D01*
X4260491Y-14055388D02*
X4250968Y-14074436D01*
X4250968Y-14074436D02*
X4241444Y-14083960D01*
X4241444Y-14083960D02*
X4222396Y-14093484D01*
X4222396Y-14093484D02*
X4174777Y-14093484D01*
X4174777Y-14093484D02*
X4155729Y-14083960D01*
X4155729Y-14083960D02*
X4146206Y-14074436D01*
X4355729Y-14093484D02*
X4393825Y-14093484D01*
X4393825Y-14093484D02*
X4412872Y-14083960D01*
X4412872Y-14083960D02*
X4422396Y-14074436D01*
X4422396Y-14074436D02*
X4441444Y-14045865D01*
X4441444Y-14045865D02*
X4450968Y-14007769D01*
X4450968Y-14007769D02*
X4450968Y-13931579D01*
X4450968Y-13931579D02*
X4441444Y-13912531D01*
X4441444Y-13912531D02*
X4431920Y-13903008D01*
X4431920Y-13903008D02*
X4412872Y-13893484D01*
X4412872Y-13893484D02*
X4374777Y-13893484D01*
X4374777Y-13893484D02*
X4355729Y-13903008D01*
X4355729Y-13903008D02*
X4346206Y-13912531D01*
X4346206Y-13912531D02*
X4336682Y-13931579D01*
X4336682Y-13931579D02*
X4336682Y-13979198D01*
X4336682Y-13979198D02*
X4346206Y-13998246D01*
X4346206Y-13998246D02*
X4355729Y-14007769D01*
X4355729Y-14007769D02*
X4374777Y-14017293D01*
X4374777Y-14017293D02*
X4412872Y-14017293D01*
X4412872Y-14017293D02*
X4431920Y-14007769D01*
X4431920Y-14007769D02*
X4441444Y-13998246D01*
X4441444Y-13998246D02*
X4450968Y-13979198D01*
X4565253Y-13979198D02*
X4546206Y-13969674D01*
X4546206Y-13969674D02*
X4536682Y-13960150D01*
X4536682Y-13960150D02*
X4527158Y-13941103D01*
X4527158Y-13941103D02*
X4527158Y-13931579D01*
X4527158Y-13931579D02*
X4536682Y-13912531D01*
X4536682Y-13912531D02*
X4546206Y-13903008D01*
X4546206Y-13903008D02*
X4565253Y-13893484D01*
X4565253Y-13893484D02*
X4603349Y-13893484D01*
X4603349Y-13893484D02*
X4622396Y-13903008D01*
X4622396Y-13903008D02*
X4631920Y-13912531D01*
X4631920Y-13912531D02*
X4641444Y-13931579D01*
X4641444Y-13931579D02*
X4641444Y-13941103D01*
X4641444Y-13941103D02*
X4631920Y-13960150D01*
X4631920Y-13960150D02*
X4622396Y-13969674D01*
X4622396Y-13969674D02*
X4603349Y-13979198D01*
X4603349Y-13979198D02*
X4565253Y-13979198D01*
X4565253Y-13979198D02*
X4546206Y-13988722D01*
X4546206Y-13988722D02*
X4536682Y-13998246D01*
X4536682Y-13998246D02*
X4527158Y-14017293D01*
X4527158Y-14017293D02*
X4527158Y-14055388D01*
X4527158Y-14055388D02*
X4536682Y-14074436D01*
X4536682Y-14074436D02*
X4546206Y-14083960D01*
X4546206Y-14083960D02*
X4565253Y-14093484D01*
X4565253Y-14093484D02*
X4603349Y-14093484D01*
X4603349Y-14093484D02*
X4622396Y-14083960D01*
X4622396Y-14083960D02*
X4631920Y-14074436D01*
X4631920Y-14074436D02*
X4641444Y-14055388D01*
X4641444Y-14055388D02*
X4641444Y-14017293D01*
X4641444Y-14017293D02*
X4631920Y-13998246D01*
X4631920Y-13998246D02*
X4622396Y-13988722D01*
X4622396Y-13988722D02*
X4603349Y-13979198D01*
X4717634Y-13893484D02*
X4717634Y-13931579D01*
X4793825Y-13893484D02*
X4793825Y-13931579D01*
X5089063Y-14169674D02*
X5079539Y-14160150D01*
X5079539Y-14160150D02*
X5060491Y-14131579D01*
X5060491Y-14131579D02*
X5050968Y-14112531D01*
X5050968Y-14112531D02*
X5041444Y-14083960D01*
X5041444Y-14083960D02*
X5031920Y-14036341D01*
X5031920Y-14036341D02*
X5031920Y-13998246D01*
X5031920Y-13998246D02*
X5041444Y-13950627D01*
X5041444Y-13950627D02*
X5050968Y-13922055D01*
X5050968Y-13922055D02*
X5060491Y-13903008D01*
X5060491Y-13903008D02*
X5079539Y-13874436D01*
X5079539Y-13874436D02*
X5089063Y-13864912D01*
X5270015Y-14093484D02*
X5155730Y-14093484D01*
X5212872Y-14093484D02*
X5212872Y-13893484D01*
X5212872Y-13893484D02*
X5193825Y-13922055D01*
X5193825Y-13922055D02*
X5174777Y-13941103D01*
X5174777Y-13941103D02*
X5155730Y-13950627D01*
X5441444Y-13893484D02*
X5403349Y-13893484D01*
X5403349Y-13893484D02*
X5384301Y-13903008D01*
X5384301Y-13903008D02*
X5374777Y-13912531D01*
X5374777Y-13912531D02*
X5355730Y-13941103D01*
X5355730Y-13941103D02*
X5346206Y-13979198D01*
X5346206Y-13979198D02*
X5346206Y-14055388D01*
X5346206Y-14055388D02*
X5355730Y-14074436D01*
X5355730Y-14074436D02*
X5365253Y-14083960D01*
X5365253Y-14083960D02*
X5384301Y-14093484D01*
X5384301Y-14093484D02*
X5422396Y-14093484D01*
X5422396Y-14093484D02*
X5441444Y-14083960D01*
X5441444Y-14083960D02*
X5450968Y-14074436D01*
X5450968Y-14074436D02*
X5460491Y-14055388D01*
X5460491Y-14055388D02*
X5460491Y-14007769D01*
X5460491Y-14007769D02*
X5450968Y-13988722D01*
X5450968Y-13988722D02*
X5441444Y-13979198D01*
X5441444Y-13979198D02*
X5422396Y-13969674D01*
X5422396Y-13969674D02*
X5384301Y-13969674D01*
X5384301Y-13969674D02*
X5365253Y-13979198D01*
X5365253Y-13979198D02*
X5355730Y-13988722D01*
X5355730Y-13988722D02*
X5346206Y-14007769D01*
X5698587Y-14093484D02*
X5698587Y-13893484D01*
X5784301Y-14093484D02*
X5784301Y-13988722D01*
X5784301Y-13988722D02*
X5774777Y-13969674D01*
X5774777Y-13969674D02*
X5755730Y-13960150D01*
X5755730Y-13960150D02*
X5727158Y-13960150D01*
X5727158Y-13960150D02*
X5708110Y-13969674D01*
X5708110Y-13969674D02*
X5698587Y-13979198D01*
X5908110Y-14093484D02*
X5889063Y-14083960D01*
X5889063Y-14083960D02*
X5879539Y-14074436D01*
X5879539Y-14074436D02*
X5870015Y-14055388D01*
X5870015Y-14055388D02*
X5870015Y-13998246D01*
X5870015Y-13998246D02*
X5879539Y-13979198D01*
X5879539Y-13979198D02*
X5889063Y-13969674D01*
X5889063Y-13969674D02*
X5908110Y-13960150D01*
X5908110Y-13960150D02*
X5936682Y-13960150D01*
X5936682Y-13960150D02*
X5955730Y-13969674D01*
X5955730Y-13969674D02*
X5965253Y-13979198D01*
X5965253Y-13979198D02*
X5974777Y-13998246D01*
X5974777Y-13998246D02*
X5974777Y-14055388D01*
X5974777Y-14055388D02*
X5965253Y-14074436D01*
X5965253Y-14074436D02*
X5955730Y-14083960D01*
X5955730Y-14083960D02*
X5936682Y-14093484D01*
X5936682Y-14093484D02*
X5908110Y-14093484D01*
X6089063Y-14093484D02*
X6070015Y-14083960D01*
X6070015Y-14083960D02*
X6060491Y-14064912D01*
X6060491Y-14064912D02*
X6060491Y-13893484D01*
X6241444Y-14083960D02*
X6222396Y-14093484D01*
X6222396Y-14093484D02*
X6184301Y-14093484D01*
X6184301Y-14093484D02*
X6165253Y-14083960D01*
X6165253Y-14083960D02*
X6155730Y-14064912D01*
X6155730Y-14064912D02*
X6155730Y-13988722D01*
X6155730Y-13988722D02*
X6165253Y-13969674D01*
X6165253Y-13969674D02*
X6184301Y-13960150D01*
X6184301Y-13960150D02*
X6222396Y-13960150D01*
X6222396Y-13960150D02*
X6241444Y-13969674D01*
X6241444Y-13969674D02*
X6250968Y-13988722D01*
X6250968Y-13988722D02*
X6250968Y-14007769D01*
X6250968Y-14007769D02*
X6155730Y-14026817D01*
X6327158Y-14083960D02*
X6346206Y-14093484D01*
X6346206Y-14093484D02*
X6384301Y-14093484D01*
X6384301Y-14093484D02*
X6403349Y-14083960D01*
X6403349Y-14083960D02*
X6412872Y-14064912D01*
X6412872Y-14064912D02*
X6412872Y-14055388D01*
X6412872Y-14055388D02*
X6403349Y-14036341D01*
X6403349Y-14036341D02*
X6384301Y-14026817D01*
X6384301Y-14026817D02*
X6355730Y-14026817D01*
X6355730Y-14026817D02*
X6336682Y-14017293D01*
X6336682Y-14017293D02*
X6327158Y-13998246D01*
X6327158Y-13998246D02*
X6327158Y-13988722D01*
X6327158Y-13988722D02*
X6336682Y-13969674D01*
X6336682Y-13969674D02*
X6355730Y-13960150D01*
X6355730Y-13960150D02*
X6384301Y-13960150D01*
X6384301Y-13960150D02*
X6403349Y-13969674D01*
X6479539Y-14169674D02*
X6489063Y-14160150D01*
X6489063Y-14160150D02*
X6508111Y-14131579D01*
X6508111Y-14131579D02*
X6517634Y-14112531D01*
X6517634Y-14112531D02*
X6527158Y-14083960D01*
X6527158Y-14083960D02*
X6536682Y-14036341D01*
X6536682Y-14036341D02*
X6536682Y-13998246D01*
X6536682Y-13998246D02*
X6527158Y-13950627D01*
X6527158Y-13950627D02*
X6517634Y-13922055D01*
X6517634Y-13922055D02*
X6508111Y-13903008D01*
X6508111Y-13903008D02*
X6489063Y-13874436D01*
X6489063Y-13874436D02*
X6479539Y-13864912D01*
X1484711Y-14344711D02*
X1484711Y-14203289D01*
X1343289Y-14203289D01*
X1343289Y-14344711D01*
X1484711Y-14344711D01*
X1755729Y-14165484D02*
X1879539Y-14165484D01*
X1879539Y-14165484D02*
X1812872Y-14241674D01*
X1812872Y-14241674D02*
X1841443Y-14241674D01*
X1841443Y-14241674D02*
X1860491Y-14251198D01*
X1860491Y-14251198D02*
X1870015Y-14260722D01*
X1870015Y-14260722D02*
X1879539Y-14279769D01*
X1879539Y-14279769D02*
X1879539Y-14327388D01*
X1879539Y-14327388D02*
X1870015Y-14346436D01*
X1870015Y-14346436D02*
X1860491Y-14355960D01*
X1860491Y-14355960D02*
X1841443Y-14365484D01*
X1841443Y-14365484D02*
X1784301Y-14365484D01*
X1784301Y-14365484D02*
X1765253Y-14355960D01*
X1765253Y-14355960D02*
X1755729Y-14346436D01*
X1965253Y-14346436D02*
X1974777Y-14355960D01*
X1974777Y-14355960D02*
X1965253Y-14365484D01*
X1965253Y-14365484D02*
X1955729Y-14355960D01*
X1955729Y-14355960D02*
X1965253Y-14346436D01*
X1965253Y-14346436D02*
X1965253Y-14365484D01*
X2050967Y-14184531D02*
X2060491Y-14175008D01*
X2060491Y-14175008D02*
X2079539Y-14165484D01*
X2079539Y-14165484D02*
X2127158Y-14165484D01*
X2127158Y-14165484D02*
X2146205Y-14175008D01*
X2146205Y-14175008D02*
X2155729Y-14184531D01*
X2155729Y-14184531D02*
X2165253Y-14203579D01*
X2165253Y-14203579D02*
X2165253Y-14222627D01*
X2165253Y-14222627D02*
X2155729Y-14251198D01*
X2155729Y-14251198D02*
X2041443Y-14365484D01*
X2041443Y-14365484D02*
X2165253Y-14365484D01*
X2289063Y-14165484D02*
X2308110Y-14165484D01*
X2308110Y-14165484D02*
X2327158Y-14175008D01*
X2327158Y-14175008D02*
X2336682Y-14184531D01*
X2336682Y-14184531D02*
X2346205Y-14203579D01*
X2346205Y-14203579D02*
X2355729Y-14241674D01*
X2355729Y-14241674D02*
X2355729Y-14289293D01*
X2355729Y-14289293D02*
X2346205Y-14327388D01*
X2346205Y-14327388D02*
X2336682Y-14346436D01*
X2336682Y-14346436D02*
X2327158Y-14355960D01*
X2327158Y-14355960D02*
X2308110Y-14365484D01*
X2308110Y-14365484D02*
X2289063Y-14365484D01*
X2289063Y-14365484D02*
X2270015Y-14355960D01*
X2270015Y-14355960D02*
X2260491Y-14346436D01*
X2260491Y-14346436D02*
X2250967Y-14327388D01*
X2250967Y-14327388D02*
X2241444Y-14289293D01*
X2241444Y-14289293D02*
X2241444Y-14241674D01*
X2241444Y-14241674D02*
X2250967Y-14203579D01*
X2250967Y-14203579D02*
X2260491Y-14184531D01*
X2260491Y-14184531D02*
X2270015Y-14175008D01*
X2270015Y-14175008D02*
X2289063Y-14165484D01*
X2479539Y-14165484D02*
X2498586Y-14165484D01*
X2498586Y-14165484D02*
X2517634Y-14175008D01*
X2517634Y-14175008D02*
X2527158Y-14184531D01*
X2527158Y-14184531D02*
X2536682Y-14203579D01*
X2536682Y-14203579D02*
X2546205Y-14241674D01*
X2546205Y-14241674D02*
X2546205Y-14289293D01*
X2546205Y-14289293D02*
X2536682Y-14327388D01*
X2536682Y-14327388D02*
X2527158Y-14346436D01*
X2527158Y-14346436D02*
X2517634Y-14355960D01*
X2517634Y-14355960D02*
X2498586Y-14365484D01*
X2498586Y-14365484D02*
X2479539Y-14365484D01*
X2479539Y-14365484D02*
X2460491Y-14355960D01*
X2460491Y-14355960D02*
X2450967Y-14346436D01*
X2450967Y-14346436D02*
X2441444Y-14327388D01*
X2441444Y-14327388D02*
X2431920Y-14289293D01*
X2431920Y-14289293D02*
X2431920Y-14241674D01*
X2431920Y-14241674D02*
X2441444Y-14203579D01*
X2441444Y-14203579D02*
X2450967Y-14184531D01*
X2450967Y-14184531D02*
X2460491Y-14175008D01*
X2460491Y-14175008D02*
X2479539Y-14165484D01*
X2631920Y-14365484D02*
X2631920Y-14232150D01*
X2631920Y-14251198D02*
X2641444Y-14241674D01*
X2641444Y-14241674D02*
X2660491Y-14232150D01*
X2660491Y-14232150D02*
X2689063Y-14232150D01*
X2689063Y-14232150D02*
X2708110Y-14241674D01*
X2708110Y-14241674D02*
X2717634Y-14260722D01*
X2717634Y-14260722D02*
X2717634Y-14365484D01*
X2717634Y-14260722D02*
X2727158Y-14241674D01*
X2727158Y-14241674D02*
X2746205Y-14232150D01*
X2746205Y-14232150D02*
X2774777Y-14232150D01*
X2774777Y-14232150D02*
X2793825Y-14241674D01*
X2793825Y-14241674D02*
X2803348Y-14260722D01*
X2803348Y-14260722D02*
X2803348Y-14365484D01*
X2898586Y-14365484D02*
X2898586Y-14232150D01*
X2898586Y-14251198D02*
X2908110Y-14241674D01*
X2908110Y-14241674D02*
X2927158Y-14232150D01*
X2927158Y-14232150D02*
X2955729Y-14232150D01*
X2955729Y-14232150D02*
X2974777Y-14241674D01*
X2974777Y-14241674D02*
X2984301Y-14260722D01*
X2984301Y-14260722D02*
X2984301Y-14365484D01*
X2984301Y-14260722D02*
X2993824Y-14241674D01*
X2993824Y-14241674D02*
X3012872Y-14232150D01*
X3012872Y-14232150D02*
X3041443Y-14232150D01*
X3041443Y-14232150D02*
X3060491Y-14241674D01*
X3060491Y-14241674D02*
X3070015Y-14260722D01*
X3070015Y-14260722D02*
X3070015Y-14365484D01*
X3460491Y-14155960D02*
X3289063Y-14413103D01*
X3717634Y-14165484D02*
X3736682Y-14165484D01*
X3736682Y-14165484D02*
X3755729Y-14175008D01*
X3755729Y-14175008D02*
X3765253Y-14184531D01*
X3765253Y-14184531D02*
X3774777Y-14203579D01*
X3774777Y-14203579D02*
X3784301Y-14241674D01*
X3784301Y-14241674D02*
X3784301Y-14289293D01*
X3784301Y-14289293D02*
X3774777Y-14327388D01*
X3774777Y-14327388D02*
X3765253Y-14346436D01*
X3765253Y-14346436D02*
X3755729Y-14355960D01*
X3755729Y-14355960D02*
X3736682Y-14365484D01*
X3736682Y-14365484D02*
X3717634Y-14365484D01*
X3717634Y-14365484D02*
X3698586Y-14355960D01*
X3698586Y-14355960D02*
X3689063Y-14346436D01*
X3689063Y-14346436D02*
X3679539Y-14327388D01*
X3679539Y-14327388D02*
X3670015Y-14289293D01*
X3670015Y-14289293D02*
X3670015Y-14241674D01*
X3670015Y-14241674D02*
X3679539Y-14203579D01*
X3679539Y-14203579D02*
X3689063Y-14184531D01*
X3689063Y-14184531D02*
X3698586Y-14175008D01*
X3698586Y-14175008D02*
X3717634Y-14165484D01*
X3870015Y-14346436D02*
X3879539Y-14355960D01*
X3879539Y-14355960D02*
X3870015Y-14365484D01*
X3870015Y-14365484D02*
X3860491Y-14355960D01*
X3860491Y-14355960D02*
X3870015Y-14346436D01*
X3870015Y-14346436D02*
X3870015Y-14365484D01*
X4070015Y-14365484D02*
X3955729Y-14365484D01*
X4012872Y-14365484D02*
X4012872Y-14165484D01*
X4012872Y-14165484D02*
X3993825Y-14194055D01*
X3993825Y-14194055D02*
X3974777Y-14213103D01*
X3974777Y-14213103D02*
X3955729Y-14222627D01*
X4146206Y-14184531D02*
X4155729Y-14175008D01*
X4155729Y-14175008D02*
X4174777Y-14165484D01*
X4174777Y-14165484D02*
X4222396Y-14165484D01*
X4222396Y-14165484D02*
X4241444Y-14175008D01*
X4241444Y-14175008D02*
X4250968Y-14184531D01*
X4250968Y-14184531D02*
X4260491Y-14203579D01*
X4260491Y-14203579D02*
X4260491Y-14222627D01*
X4260491Y-14222627D02*
X4250968Y-14251198D01*
X4250968Y-14251198D02*
X4136682Y-14365484D01*
X4136682Y-14365484D02*
X4260491Y-14365484D01*
X4431920Y-14165484D02*
X4393825Y-14165484D01*
X4393825Y-14165484D02*
X4374777Y-14175008D01*
X4374777Y-14175008D02*
X4365253Y-14184531D01*
X4365253Y-14184531D02*
X4346206Y-14213103D01*
X4346206Y-14213103D02*
X4336682Y-14251198D01*
X4336682Y-14251198D02*
X4336682Y-14327388D01*
X4336682Y-14327388D02*
X4346206Y-14346436D01*
X4346206Y-14346436D02*
X4355729Y-14355960D01*
X4355729Y-14355960D02*
X4374777Y-14365484D01*
X4374777Y-14365484D02*
X4412872Y-14365484D01*
X4412872Y-14365484D02*
X4431920Y-14355960D01*
X4431920Y-14355960D02*
X4441444Y-14346436D01*
X4441444Y-14346436D02*
X4450968Y-14327388D01*
X4450968Y-14327388D02*
X4450968Y-14279769D01*
X4450968Y-14279769D02*
X4441444Y-14260722D01*
X4441444Y-14260722D02*
X4431920Y-14251198D01*
X4431920Y-14251198D02*
X4412872Y-14241674D01*
X4412872Y-14241674D02*
X4374777Y-14241674D01*
X4374777Y-14241674D02*
X4355729Y-14251198D01*
X4355729Y-14251198D02*
X4346206Y-14260722D01*
X4346206Y-14260722D02*
X4336682Y-14279769D01*
X4574777Y-14165484D02*
X4593825Y-14165484D01*
X4593825Y-14165484D02*
X4612872Y-14175008D01*
X4612872Y-14175008D02*
X4622396Y-14184531D01*
X4622396Y-14184531D02*
X4631920Y-14203579D01*
X4631920Y-14203579D02*
X4641444Y-14241674D01*
X4641444Y-14241674D02*
X4641444Y-14289293D01*
X4641444Y-14289293D02*
X4631920Y-14327388D01*
X4631920Y-14327388D02*
X4622396Y-14346436D01*
X4622396Y-14346436D02*
X4612872Y-14355960D01*
X4612872Y-14355960D02*
X4593825Y-14365484D01*
X4593825Y-14365484D02*
X4574777Y-14365484D01*
X4574777Y-14365484D02*
X4555729Y-14355960D01*
X4555729Y-14355960D02*
X4546206Y-14346436D01*
X4546206Y-14346436D02*
X4536682Y-14327388D01*
X4536682Y-14327388D02*
X4527158Y-14289293D01*
X4527158Y-14289293D02*
X4527158Y-14241674D01*
X4527158Y-14241674D02*
X4536682Y-14203579D01*
X4536682Y-14203579D02*
X4546206Y-14184531D01*
X4546206Y-14184531D02*
X4555729Y-14175008D01*
X4555729Y-14175008D02*
X4574777Y-14165484D01*
X4717634Y-14165484D02*
X4717634Y-14203579D01*
X4793825Y-14165484D02*
X4793825Y-14203579D01*
X5089063Y-14441674D02*
X5079539Y-14432150D01*
X5079539Y-14432150D02*
X5060491Y-14403579D01*
X5060491Y-14403579D02*
X5050968Y-14384531D01*
X5050968Y-14384531D02*
X5041444Y-14355960D01*
X5041444Y-14355960D02*
X5031920Y-14308341D01*
X5031920Y-14308341D02*
X5031920Y-14270246D01*
X5031920Y-14270246D02*
X5041444Y-14222627D01*
X5041444Y-14222627D02*
X5050968Y-14194055D01*
X5050968Y-14194055D02*
X5060491Y-14175008D01*
X5060491Y-14175008D02*
X5079539Y-14146436D01*
X5079539Y-14146436D02*
X5089063Y-14136912D01*
X5250968Y-14232150D02*
X5250968Y-14365484D01*
X5203349Y-14155960D02*
X5155730Y-14298817D01*
X5155730Y-14298817D02*
X5279539Y-14298817D01*
X5508111Y-14365484D02*
X5508111Y-14165484D01*
X5593825Y-14365484D02*
X5593825Y-14260722D01*
X5593825Y-14260722D02*
X5584301Y-14241674D01*
X5584301Y-14241674D02*
X5565253Y-14232150D01*
X5565253Y-14232150D02*
X5536682Y-14232150D01*
X5536682Y-14232150D02*
X5517634Y-14241674D01*
X5517634Y-14241674D02*
X5508111Y-14251198D01*
X5717634Y-14365484D02*
X5698587Y-14355960D01*
X5698587Y-14355960D02*
X5689063Y-14346436D01*
X5689063Y-14346436D02*
X5679539Y-14327388D01*
X5679539Y-14327388D02*
X5679539Y-14270246D01*
X5679539Y-14270246D02*
X5689063Y-14251198D01*
X5689063Y-14251198D02*
X5698587Y-14241674D01*
X5698587Y-14241674D02*
X5717634Y-14232150D01*
X5717634Y-14232150D02*
X5746206Y-14232150D01*
X5746206Y-14232150D02*
X5765253Y-14241674D01*
X5765253Y-14241674D02*
X5774777Y-14251198D01*
X5774777Y-14251198D02*
X5784301Y-14270246D01*
X5784301Y-14270246D02*
X5784301Y-14327388D01*
X5784301Y-14327388D02*
X5774777Y-14346436D01*
X5774777Y-14346436D02*
X5765253Y-14355960D01*
X5765253Y-14355960D02*
X5746206Y-14365484D01*
X5746206Y-14365484D02*
X5717634Y-14365484D01*
X5898587Y-14365484D02*
X5879539Y-14355960D01*
X5879539Y-14355960D02*
X5870015Y-14336912D01*
X5870015Y-14336912D02*
X5870015Y-14165484D01*
X6050968Y-14355960D02*
X6031920Y-14365484D01*
X6031920Y-14365484D02*
X5993825Y-14365484D01*
X5993825Y-14365484D02*
X5974777Y-14355960D01*
X5974777Y-14355960D02*
X5965253Y-14336912D01*
X5965253Y-14336912D02*
X5965253Y-14260722D01*
X5965253Y-14260722D02*
X5974777Y-14241674D01*
X5974777Y-14241674D02*
X5993825Y-14232150D01*
X5993825Y-14232150D02*
X6031920Y-14232150D01*
X6031920Y-14232150D02*
X6050968Y-14241674D01*
X6050968Y-14241674D02*
X6060491Y-14260722D01*
X6060491Y-14260722D02*
X6060491Y-14279769D01*
X6060491Y-14279769D02*
X5965253Y-14298817D01*
X6136682Y-14355960D02*
X6155730Y-14365484D01*
X6155730Y-14365484D02*
X6193825Y-14365484D01*
X6193825Y-14365484D02*
X6212872Y-14355960D01*
X6212872Y-14355960D02*
X6222396Y-14336912D01*
X6222396Y-14336912D02*
X6222396Y-14327388D01*
X6222396Y-14327388D02*
X6212872Y-14308341D01*
X6212872Y-14308341D02*
X6193825Y-14298817D01*
X6193825Y-14298817D02*
X6165253Y-14298817D01*
X6165253Y-14298817D02*
X6146206Y-14289293D01*
X6146206Y-14289293D02*
X6136682Y-14270246D01*
X6136682Y-14270246D02*
X6136682Y-14260722D01*
X6136682Y-14260722D02*
X6146206Y-14241674D01*
X6146206Y-14241674D02*
X6165253Y-14232150D01*
X6165253Y-14232150D02*
X6193825Y-14232150D01*
X6193825Y-14232150D02*
X6212872Y-14241674D01*
X6289063Y-14441674D02*
X6298587Y-14432150D01*
X6298587Y-14432150D02*
X6317634Y-14403579D01*
X6317634Y-14403579D02*
X6327158Y-14384531D01*
X6327158Y-14384531D02*
X6336682Y-14355960D01*
X6336682Y-14355960D02*
X6346206Y-14308341D01*
X6346206Y-14308341D02*
X6346206Y-14270246D01*
X6346206Y-14270246D02*
X6336682Y-14222627D01*
X6336682Y-14222627D02*
X6327158Y-14194055D01*
X6327158Y-14194055D02*
X6317634Y-14175008D01*
X6317634Y-14175008D02*
X6298587Y-14146436D01*
X6298587Y-14146436D02*
X6289063Y-14136912D01*
M02*
