%TF.GenerationSoftware,KiCad,Pcbnew,9.0.3-9.0.3-0~ubuntu22.04.1*%
%TF.CreationDate,2025-07-10T23:03:34+01:00*%
%TF.ProjectId,dali-pcb,64616c69-2d70-4636-922e-6b696361645f,rev?*%
%TF.SameCoordinates,Original*%
%TF.FileFunction,Drillmap*%
%TF.FilePolarity,Positive*%
%FSLAX45Y45*%
G04 Gerber Fmt 4.5, Leading zero omitted, Abs format (unit mm)*
G04 Created by KiCad (PCBNEW 9.0.3-9.0.3-0~ubuntu22.04.1) date 2025-07-10 23:03:34*
%MOMM*%
%LPD*%
G01*
G04 APERTURE LIST*
%ADD10C,0.200000*%
G04 APERTURE END LIST*
D10*
X1524000Y-1524000D02*
X19574000Y-1524000D01*
X19574000Y-12824000D01*
X1524000Y-12824000D01*
X1524000Y-1524000D01*
X1774777Y-13145484D02*
X1774777Y-12945484D01*
X1774777Y-12945484D02*
X1822396Y-12945484D01*
X1822396Y-12945484D02*
X1850967Y-12955008D01*
X1850967Y-12955008D02*
X1870015Y-12974055D01*
X1870015Y-12974055D02*
X1879539Y-12993103D01*
X1879539Y-12993103D02*
X1889062Y-13031198D01*
X1889062Y-13031198D02*
X1889062Y-13059769D01*
X1889062Y-13059769D02*
X1879539Y-13097865D01*
X1879539Y-13097865D02*
X1870015Y-13116912D01*
X1870015Y-13116912D02*
X1850967Y-13135960D01*
X1850967Y-13135960D02*
X1822396Y-13145484D01*
X1822396Y-13145484D02*
X1774777Y-13145484D01*
X1974777Y-13145484D02*
X1974777Y-13012150D01*
X1974777Y-13050246D02*
X1984301Y-13031198D01*
X1984301Y-13031198D02*
X1993824Y-13021674D01*
X1993824Y-13021674D02*
X2012872Y-13012150D01*
X2012872Y-13012150D02*
X2031920Y-13012150D01*
X2098586Y-13145484D02*
X2098586Y-13012150D01*
X2098586Y-12945484D02*
X2089062Y-12955008D01*
X2089062Y-12955008D02*
X2098586Y-12964531D01*
X2098586Y-12964531D02*
X2108110Y-12955008D01*
X2108110Y-12955008D02*
X2098586Y-12945484D01*
X2098586Y-12945484D02*
X2098586Y-12964531D01*
X2222396Y-13145484D02*
X2203348Y-13135960D01*
X2203348Y-13135960D02*
X2193824Y-13116912D01*
X2193824Y-13116912D02*
X2193824Y-12945484D01*
X2327158Y-13145484D02*
X2308110Y-13135960D01*
X2308110Y-13135960D02*
X2298586Y-13116912D01*
X2298586Y-13116912D02*
X2298586Y-12945484D01*
X2555729Y-13145484D02*
X2555729Y-12945484D01*
X2555729Y-12945484D02*
X2622396Y-13088341D01*
X2622396Y-13088341D02*
X2689063Y-12945484D01*
X2689063Y-12945484D02*
X2689063Y-13145484D01*
X2870015Y-13145484D02*
X2870015Y-13040722D01*
X2870015Y-13040722D02*
X2860491Y-13021674D01*
X2860491Y-13021674D02*
X2841443Y-13012150D01*
X2841443Y-13012150D02*
X2803348Y-13012150D01*
X2803348Y-13012150D02*
X2784301Y-13021674D01*
X2870015Y-13135960D02*
X2850967Y-13145484D01*
X2850967Y-13145484D02*
X2803348Y-13145484D01*
X2803348Y-13145484D02*
X2784301Y-13135960D01*
X2784301Y-13135960D02*
X2774777Y-13116912D01*
X2774777Y-13116912D02*
X2774777Y-13097865D01*
X2774777Y-13097865D02*
X2784301Y-13078817D01*
X2784301Y-13078817D02*
X2803348Y-13069293D01*
X2803348Y-13069293D02*
X2850967Y-13069293D01*
X2850967Y-13069293D02*
X2870015Y-13059769D01*
X2965253Y-13012150D02*
X2965253Y-13212150D01*
X2965253Y-13021674D02*
X2984301Y-13012150D01*
X2984301Y-13012150D02*
X3022396Y-13012150D01*
X3022396Y-13012150D02*
X3041443Y-13021674D01*
X3041443Y-13021674D02*
X3050967Y-13031198D01*
X3050967Y-13031198D02*
X3060491Y-13050246D01*
X3060491Y-13050246D02*
X3060491Y-13107388D01*
X3060491Y-13107388D02*
X3050967Y-13126436D01*
X3050967Y-13126436D02*
X3041443Y-13135960D01*
X3041443Y-13135960D02*
X3022396Y-13145484D01*
X3022396Y-13145484D02*
X2984301Y-13145484D01*
X2984301Y-13145484D02*
X2965253Y-13135960D01*
X3146205Y-13126436D02*
X3155729Y-13135960D01*
X3155729Y-13135960D02*
X3146205Y-13145484D01*
X3146205Y-13145484D02*
X3136682Y-13135960D01*
X3136682Y-13135960D02*
X3146205Y-13126436D01*
X3146205Y-13126436D02*
X3146205Y-13145484D01*
X3146205Y-13021674D02*
X3155729Y-13031198D01*
X3155729Y-13031198D02*
X3146205Y-13040722D01*
X3146205Y-13040722D02*
X3136682Y-13031198D01*
X3136682Y-13031198D02*
X3146205Y-13021674D01*
X3146205Y-13021674D02*
X3146205Y-13040722D01*
M02*
