G04 #@! TF.GenerationSoftware,KiCad,Pcbnew,9.0.3-9.0.3-0~ubuntu22.04.1*
G04 #@! TF.CreationDate,2025-07-11T11:46:56+01:00*
G04 #@! TF.ProjectId,dali-pcb,64616c69-2d70-4636-922e-6b696361645f,rev?*
G04 #@! TF.SameCoordinates,Original*
G04 #@! TF.FileFunction,Soldermask,Bot*
G04 #@! TF.FilePolarity,Negative*
%FSLAX46Y46*%
G04 Gerber Fmt 4.6, Leading zero omitted, Abs format (unit mm)*
G04 Created by KiCad (PCBNEW 9.0.3-9.0.3-0~ubuntu22.04.1) date 2025-07-11 11:46:56*
%MOMM*%
%LPD*%
G01*
G04 APERTURE LIST*
%ADD10R,1.700000X1.700000*%
%ADD11C,1.700000*%
%ADD12C,6.400000*%
%ADD13R,3.000000X3.000000*%
%ADD14C,3.000000*%
G04 APERTURE END LIST*
D10*
X87630000Y-54610000D03*
D11*
X90170000Y-54610000D03*
X87630000Y-57150000D03*
X90170000Y-57150000D03*
X87630000Y-59690000D03*
X90170000Y-59690000D03*
X87630000Y-62230000D03*
X90170000Y-62230000D03*
X87630000Y-64770000D03*
X90170000Y-64770000D03*
X87630000Y-67310000D03*
X90170000Y-67310000D03*
X87630000Y-69850000D03*
X90170000Y-69850000D03*
X87630000Y-72390000D03*
X90170000Y-72390000D03*
X87630000Y-74930000D03*
X90170000Y-74930000D03*
X87630000Y-77470000D03*
X90170000Y-77470000D03*
X87630000Y-80010000D03*
X90170000Y-80010000D03*
X87630000Y-82550000D03*
X90170000Y-82550000D03*
X87630000Y-85090000D03*
X90170000Y-85090000D03*
D12*
X20490000Y-20490000D03*
D13*
X40640000Y-21590000D03*
D14*
X35560000Y-21590000D03*
D11*
X25400000Y-57150000D03*
X27940000Y-57150000D03*
X30480000Y-57150000D03*
X33020000Y-57150000D03*
X35560000Y-57150000D03*
X38100000Y-57150000D03*
X40640000Y-57150000D03*
X43180000Y-57150000D03*
X45720000Y-57150000D03*
X48260000Y-57150000D03*
X50800000Y-57150000D03*
X53340000Y-57150000D03*
X55880000Y-57150000D03*
X58420000Y-57150000D03*
X60960000Y-57150000D03*
X63500000Y-57150000D03*
X66040000Y-57150000D03*
X68580000Y-57150000D03*
X71120000Y-57150000D03*
D10*
X73660000Y-57150000D03*
D12*
X109990000Y-20490000D03*
D13*
X96520000Y-21590000D03*
D14*
X91440000Y-21590000D03*
D11*
X111125000Y-41910000D03*
X111125000Y-39370000D03*
X111125000Y-36830000D03*
D10*
X111125000Y-34290000D03*
D12*
X109990000Y-84990000D03*
D11*
X25400000Y-80010000D03*
X27940000Y-80010000D03*
X30480000Y-80010000D03*
X33020000Y-80010000D03*
X35560000Y-80010000D03*
X38100000Y-80010000D03*
X40640000Y-80010000D03*
X43180000Y-80010000D03*
X45720000Y-80010000D03*
X48260000Y-80010000D03*
X50800000Y-80010000D03*
X53340000Y-80010000D03*
X55880000Y-80010000D03*
X58420000Y-80010000D03*
X60960000Y-80010000D03*
X63500000Y-80010000D03*
X66040000Y-80010000D03*
X68580000Y-80010000D03*
X71120000Y-80010000D03*
D10*
X73660000Y-80010000D03*
D13*
X77462789Y-21590000D03*
D14*
X72382789Y-21590000D03*
D12*
X20490000Y-84990000D03*
D13*
X59682789Y-21590000D03*
D14*
X54602789Y-21590000D03*
D10*
X99060000Y-54610000D03*
D11*
X101600000Y-54610000D03*
X99060000Y-57150000D03*
X101600000Y-57150000D03*
X99060000Y-59690000D03*
X101600000Y-59690000D03*
X99060000Y-62230000D03*
X101600000Y-62230000D03*
X99060000Y-64770000D03*
X101600000Y-64770000D03*
X99060000Y-67310000D03*
X101600000Y-67310000D03*
X99060000Y-69850000D03*
X101600000Y-69850000D03*
X99060000Y-72390000D03*
X101600000Y-72390000D03*
X99060000Y-74930000D03*
X101600000Y-74930000D03*
X99060000Y-77470000D03*
X101600000Y-77470000D03*
X99060000Y-80010000D03*
X101600000Y-80010000D03*
X99060000Y-82550000D03*
X101600000Y-82550000D03*
X99060000Y-85090000D03*
X101600000Y-85090000D03*
M02*
