%TF.GenerationSoftware,KiCad,Pcbnew,9.0.3-9.0.3-0~ubuntu22.04.1*%
%TF.CreationDate,2025-07-16T13:00:15+01:00*%
%TF.ProjectId,dali-pcb,64616c69-2d70-4636-922e-6b696361645f,rev?*%
%TF.SameCoordinates,Original*%
%TF.FileFunction,Drillmap*%
%TF.FilePolarity,Positive*%
%FSLAX45Y45*%
G04 Gerber Fmt 4.5, Leading zero omitted, Abs format (unit mm)*
G04 Created by KiCad (PCBNEW 9.0.3-9.0.3-0~ubuntu22.04.1) date 2025-07-16 13:00:15*
%MOMM*%
%LPD*%
G01*
G04 APERTURE LIST*
%ADD10C,0.200000*%
%ADD11C,0.320000*%
G04 APERTURE END LIST*
D10*
X1524000Y-1524000D02*
X11524000Y-1524000D01*
X11524000Y-9024000D01*
X1524000Y-9024000D01*
X1524000Y-1524000D01*
D11*
X1889000Y-1889000D02*
X2209000Y-2209000D01*
X2209000Y-1889000D02*
X1889000Y-2209000D01*
D10*
X1774777Y-9345484D02*
X1774777Y-9145484D01*
X1774777Y-9145484D02*
X1822396Y-9145484D01*
X1822396Y-9145484D02*
X1850967Y-9155008D01*
X1850967Y-9155008D02*
X1870015Y-9174055D01*
X1870015Y-9174055D02*
X1879539Y-9193103D01*
X1879539Y-9193103D02*
X1889062Y-9231198D01*
X1889062Y-9231198D02*
X1889062Y-9259770D01*
X1889062Y-9259770D02*
X1879539Y-9297865D01*
X1879539Y-9297865D02*
X1870015Y-9316912D01*
X1870015Y-9316912D02*
X1850967Y-9335960D01*
X1850967Y-9335960D02*
X1822396Y-9345484D01*
X1822396Y-9345484D02*
X1774777Y-9345484D01*
X1974777Y-9345484D02*
X1974777Y-9212150D01*
X1974777Y-9250246D02*
X1984301Y-9231198D01*
X1984301Y-9231198D02*
X1993824Y-9221674D01*
X1993824Y-9221674D02*
X2012872Y-9212150D01*
X2012872Y-9212150D02*
X2031920Y-9212150D01*
X2098586Y-9345484D02*
X2098586Y-9212150D01*
X2098586Y-9145484D02*
X2089062Y-9155008D01*
X2089062Y-9155008D02*
X2098586Y-9164531D01*
X2098586Y-9164531D02*
X2108110Y-9155008D01*
X2108110Y-9155008D02*
X2098586Y-9145484D01*
X2098586Y-9145484D02*
X2098586Y-9164531D01*
X2222396Y-9345484D02*
X2203348Y-9335960D01*
X2203348Y-9335960D02*
X2193824Y-9316912D01*
X2193824Y-9316912D02*
X2193824Y-9145484D01*
X2327158Y-9345484D02*
X2308110Y-9335960D01*
X2308110Y-9335960D02*
X2298586Y-9316912D01*
X2298586Y-9316912D02*
X2298586Y-9145484D01*
X2555729Y-9345484D02*
X2555729Y-9145484D01*
X2555729Y-9145484D02*
X2622396Y-9288341D01*
X2622396Y-9288341D02*
X2689063Y-9145484D01*
X2689063Y-9145484D02*
X2689063Y-9345484D01*
X2870015Y-9345484D02*
X2870015Y-9240722D01*
X2870015Y-9240722D02*
X2860491Y-9221674D01*
X2860491Y-9221674D02*
X2841443Y-9212150D01*
X2841443Y-9212150D02*
X2803348Y-9212150D01*
X2803348Y-9212150D02*
X2784301Y-9221674D01*
X2870015Y-9335960D02*
X2850967Y-9345484D01*
X2850967Y-9345484D02*
X2803348Y-9345484D01*
X2803348Y-9345484D02*
X2784301Y-9335960D01*
X2784301Y-9335960D02*
X2774777Y-9316912D01*
X2774777Y-9316912D02*
X2774777Y-9297865D01*
X2774777Y-9297865D02*
X2784301Y-9278817D01*
X2784301Y-9278817D02*
X2803348Y-9269293D01*
X2803348Y-9269293D02*
X2850967Y-9269293D01*
X2850967Y-9269293D02*
X2870015Y-9259770D01*
X2965253Y-9212150D02*
X2965253Y-9412150D01*
X2965253Y-9221674D02*
X2984301Y-9212150D01*
X2984301Y-9212150D02*
X3022396Y-9212150D01*
X3022396Y-9212150D02*
X3041443Y-9221674D01*
X3041443Y-9221674D02*
X3050967Y-9231198D01*
X3050967Y-9231198D02*
X3060491Y-9250246D01*
X3060491Y-9250246D02*
X3060491Y-9307389D01*
X3060491Y-9307389D02*
X3050967Y-9326436D01*
X3050967Y-9326436D02*
X3041443Y-9335960D01*
X3041443Y-9335960D02*
X3022396Y-9345484D01*
X3022396Y-9345484D02*
X2984301Y-9345484D01*
X2984301Y-9345484D02*
X2965253Y-9335960D01*
X3146205Y-9326436D02*
X3155729Y-9335960D01*
X3155729Y-9335960D02*
X3146205Y-9345484D01*
X3146205Y-9345484D02*
X3136682Y-9335960D01*
X3136682Y-9335960D02*
X3146205Y-9326436D01*
X3146205Y-9326436D02*
X3146205Y-9345484D01*
X3146205Y-9221674D02*
X3155729Y-9231198D01*
X3155729Y-9231198D02*
X3146205Y-9240722D01*
X3146205Y-9240722D02*
X3136682Y-9231198D01*
X3136682Y-9231198D02*
X3146205Y-9221674D01*
X3146205Y-9221674D02*
X3146205Y-9240722D01*
X1314000Y-9574000D02*
X1514000Y-9774000D01*
X1514000Y-9574000D02*
X1314000Y-9774000D01*
X1755729Y-9565484D02*
X1879539Y-9565484D01*
X1879539Y-9565484D02*
X1812872Y-9641674D01*
X1812872Y-9641674D02*
X1841443Y-9641674D01*
X1841443Y-9641674D02*
X1860491Y-9651198D01*
X1860491Y-9651198D02*
X1870015Y-9660722D01*
X1870015Y-9660722D02*
X1879539Y-9679770D01*
X1879539Y-9679770D02*
X1879539Y-9727389D01*
X1879539Y-9727389D02*
X1870015Y-9746436D01*
X1870015Y-9746436D02*
X1860491Y-9755960D01*
X1860491Y-9755960D02*
X1841443Y-9765484D01*
X1841443Y-9765484D02*
X1784301Y-9765484D01*
X1784301Y-9765484D02*
X1765253Y-9755960D01*
X1765253Y-9755960D02*
X1755729Y-9746436D01*
X1965253Y-9746436D02*
X1974777Y-9755960D01*
X1974777Y-9755960D02*
X1965253Y-9765484D01*
X1965253Y-9765484D02*
X1955729Y-9755960D01*
X1955729Y-9755960D02*
X1965253Y-9746436D01*
X1965253Y-9746436D02*
X1965253Y-9765484D01*
X2050967Y-9584531D02*
X2060491Y-9575008D01*
X2060491Y-9575008D02*
X2079539Y-9565484D01*
X2079539Y-9565484D02*
X2127158Y-9565484D01*
X2127158Y-9565484D02*
X2146205Y-9575008D01*
X2146205Y-9575008D02*
X2155729Y-9584531D01*
X2155729Y-9584531D02*
X2165253Y-9603579D01*
X2165253Y-9603579D02*
X2165253Y-9622627D01*
X2165253Y-9622627D02*
X2155729Y-9651198D01*
X2155729Y-9651198D02*
X2041443Y-9765484D01*
X2041443Y-9765484D02*
X2165253Y-9765484D01*
X2289063Y-9565484D02*
X2308110Y-9565484D01*
X2308110Y-9565484D02*
X2327158Y-9575008D01*
X2327158Y-9575008D02*
X2336682Y-9584531D01*
X2336682Y-9584531D02*
X2346205Y-9603579D01*
X2346205Y-9603579D02*
X2355729Y-9641674D01*
X2355729Y-9641674D02*
X2355729Y-9689293D01*
X2355729Y-9689293D02*
X2346205Y-9727389D01*
X2346205Y-9727389D02*
X2336682Y-9746436D01*
X2336682Y-9746436D02*
X2327158Y-9755960D01*
X2327158Y-9755960D02*
X2308110Y-9765484D01*
X2308110Y-9765484D02*
X2289063Y-9765484D01*
X2289063Y-9765484D02*
X2270015Y-9755960D01*
X2270015Y-9755960D02*
X2260491Y-9746436D01*
X2260491Y-9746436D02*
X2250967Y-9727389D01*
X2250967Y-9727389D02*
X2241444Y-9689293D01*
X2241444Y-9689293D02*
X2241444Y-9641674D01*
X2241444Y-9641674D02*
X2250967Y-9603579D01*
X2250967Y-9603579D02*
X2260491Y-9584531D01*
X2260491Y-9584531D02*
X2270015Y-9575008D01*
X2270015Y-9575008D02*
X2289063Y-9565484D01*
X2479539Y-9565484D02*
X2498586Y-9565484D01*
X2498586Y-9565484D02*
X2517634Y-9575008D01*
X2517634Y-9575008D02*
X2527158Y-9584531D01*
X2527158Y-9584531D02*
X2536682Y-9603579D01*
X2536682Y-9603579D02*
X2546205Y-9641674D01*
X2546205Y-9641674D02*
X2546205Y-9689293D01*
X2546205Y-9689293D02*
X2536682Y-9727389D01*
X2536682Y-9727389D02*
X2527158Y-9746436D01*
X2527158Y-9746436D02*
X2517634Y-9755960D01*
X2517634Y-9755960D02*
X2498586Y-9765484D01*
X2498586Y-9765484D02*
X2479539Y-9765484D01*
X2479539Y-9765484D02*
X2460491Y-9755960D01*
X2460491Y-9755960D02*
X2450967Y-9746436D01*
X2450967Y-9746436D02*
X2441444Y-9727389D01*
X2441444Y-9727389D02*
X2431920Y-9689293D01*
X2431920Y-9689293D02*
X2431920Y-9641674D01*
X2431920Y-9641674D02*
X2441444Y-9603579D01*
X2441444Y-9603579D02*
X2450967Y-9584531D01*
X2450967Y-9584531D02*
X2460491Y-9575008D01*
X2460491Y-9575008D02*
X2479539Y-9565484D01*
X2631920Y-9765484D02*
X2631920Y-9632150D01*
X2631920Y-9651198D02*
X2641444Y-9641674D01*
X2641444Y-9641674D02*
X2660491Y-9632150D01*
X2660491Y-9632150D02*
X2689063Y-9632150D01*
X2689063Y-9632150D02*
X2708110Y-9641674D01*
X2708110Y-9641674D02*
X2717634Y-9660722D01*
X2717634Y-9660722D02*
X2717634Y-9765484D01*
X2717634Y-9660722D02*
X2727158Y-9641674D01*
X2727158Y-9641674D02*
X2746205Y-9632150D01*
X2746205Y-9632150D02*
X2774777Y-9632150D01*
X2774777Y-9632150D02*
X2793825Y-9641674D01*
X2793825Y-9641674D02*
X2803348Y-9660722D01*
X2803348Y-9660722D02*
X2803348Y-9765484D01*
X2898586Y-9765484D02*
X2898586Y-9632150D01*
X2898586Y-9651198D02*
X2908110Y-9641674D01*
X2908110Y-9641674D02*
X2927158Y-9632150D01*
X2927158Y-9632150D02*
X2955729Y-9632150D01*
X2955729Y-9632150D02*
X2974777Y-9641674D01*
X2974777Y-9641674D02*
X2984301Y-9660722D01*
X2984301Y-9660722D02*
X2984301Y-9765484D01*
X2984301Y-9660722D02*
X2993824Y-9641674D01*
X2993824Y-9641674D02*
X3012872Y-9632150D01*
X3012872Y-9632150D02*
X3041443Y-9632150D01*
X3041443Y-9632150D02*
X3060491Y-9641674D01*
X3060491Y-9641674D02*
X3070015Y-9660722D01*
X3070015Y-9660722D02*
X3070015Y-9765484D01*
X3460491Y-9555960D02*
X3289063Y-9813103D01*
X3717634Y-9565484D02*
X3736682Y-9565484D01*
X3736682Y-9565484D02*
X3755729Y-9575008D01*
X3755729Y-9575008D02*
X3765253Y-9584531D01*
X3765253Y-9584531D02*
X3774777Y-9603579D01*
X3774777Y-9603579D02*
X3784301Y-9641674D01*
X3784301Y-9641674D02*
X3784301Y-9689293D01*
X3784301Y-9689293D02*
X3774777Y-9727389D01*
X3774777Y-9727389D02*
X3765253Y-9746436D01*
X3765253Y-9746436D02*
X3755729Y-9755960D01*
X3755729Y-9755960D02*
X3736682Y-9765484D01*
X3736682Y-9765484D02*
X3717634Y-9765484D01*
X3717634Y-9765484D02*
X3698586Y-9755960D01*
X3698586Y-9755960D02*
X3689063Y-9746436D01*
X3689063Y-9746436D02*
X3679539Y-9727389D01*
X3679539Y-9727389D02*
X3670015Y-9689293D01*
X3670015Y-9689293D02*
X3670015Y-9641674D01*
X3670015Y-9641674D02*
X3679539Y-9603579D01*
X3679539Y-9603579D02*
X3689063Y-9584531D01*
X3689063Y-9584531D02*
X3698586Y-9575008D01*
X3698586Y-9575008D02*
X3717634Y-9565484D01*
X3870015Y-9746436D02*
X3879539Y-9755960D01*
X3879539Y-9755960D02*
X3870015Y-9765484D01*
X3870015Y-9765484D02*
X3860491Y-9755960D01*
X3860491Y-9755960D02*
X3870015Y-9746436D01*
X3870015Y-9746436D02*
X3870015Y-9765484D01*
X4070015Y-9765484D02*
X3955729Y-9765484D01*
X4012872Y-9765484D02*
X4012872Y-9565484D01*
X4012872Y-9565484D02*
X3993825Y-9594055D01*
X3993825Y-9594055D02*
X3974777Y-9613103D01*
X3974777Y-9613103D02*
X3955729Y-9622627D01*
X4146206Y-9584531D02*
X4155729Y-9575008D01*
X4155729Y-9575008D02*
X4174777Y-9565484D01*
X4174777Y-9565484D02*
X4222396Y-9565484D01*
X4222396Y-9565484D02*
X4241444Y-9575008D01*
X4241444Y-9575008D02*
X4250968Y-9584531D01*
X4250968Y-9584531D02*
X4260491Y-9603579D01*
X4260491Y-9603579D02*
X4260491Y-9622627D01*
X4260491Y-9622627D02*
X4250968Y-9651198D01*
X4250968Y-9651198D02*
X4136682Y-9765484D01*
X4136682Y-9765484D02*
X4260491Y-9765484D01*
X4431920Y-9565484D02*
X4393825Y-9565484D01*
X4393825Y-9565484D02*
X4374777Y-9575008D01*
X4374777Y-9575008D02*
X4365253Y-9584531D01*
X4365253Y-9584531D02*
X4346206Y-9613103D01*
X4346206Y-9613103D02*
X4336682Y-9651198D01*
X4336682Y-9651198D02*
X4336682Y-9727389D01*
X4336682Y-9727389D02*
X4346206Y-9746436D01*
X4346206Y-9746436D02*
X4355729Y-9755960D01*
X4355729Y-9755960D02*
X4374777Y-9765484D01*
X4374777Y-9765484D02*
X4412872Y-9765484D01*
X4412872Y-9765484D02*
X4431920Y-9755960D01*
X4431920Y-9755960D02*
X4441444Y-9746436D01*
X4441444Y-9746436D02*
X4450968Y-9727389D01*
X4450968Y-9727389D02*
X4450968Y-9679770D01*
X4450968Y-9679770D02*
X4441444Y-9660722D01*
X4441444Y-9660722D02*
X4431920Y-9651198D01*
X4431920Y-9651198D02*
X4412872Y-9641674D01*
X4412872Y-9641674D02*
X4374777Y-9641674D01*
X4374777Y-9641674D02*
X4355729Y-9651198D01*
X4355729Y-9651198D02*
X4346206Y-9660722D01*
X4346206Y-9660722D02*
X4336682Y-9679770D01*
X4574777Y-9565484D02*
X4593825Y-9565484D01*
X4593825Y-9565484D02*
X4612872Y-9575008D01*
X4612872Y-9575008D02*
X4622396Y-9584531D01*
X4622396Y-9584531D02*
X4631920Y-9603579D01*
X4631920Y-9603579D02*
X4641444Y-9641674D01*
X4641444Y-9641674D02*
X4641444Y-9689293D01*
X4641444Y-9689293D02*
X4631920Y-9727389D01*
X4631920Y-9727389D02*
X4622396Y-9746436D01*
X4622396Y-9746436D02*
X4612872Y-9755960D01*
X4612872Y-9755960D02*
X4593825Y-9765484D01*
X4593825Y-9765484D02*
X4574777Y-9765484D01*
X4574777Y-9765484D02*
X4555729Y-9755960D01*
X4555729Y-9755960D02*
X4546206Y-9746436D01*
X4546206Y-9746436D02*
X4536682Y-9727389D01*
X4536682Y-9727389D02*
X4527158Y-9689293D01*
X4527158Y-9689293D02*
X4527158Y-9641674D01*
X4527158Y-9641674D02*
X4536682Y-9603579D01*
X4536682Y-9603579D02*
X4546206Y-9584531D01*
X4546206Y-9584531D02*
X4555729Y-9575008D01*
X4555729Y-9575008D02*
X4574777Y-9565484D01*
X4717634Y-9565484D02*
X4717634Y-9603579D01*
X4793825Y-9565484D02*
X4793825Y-9603579D01*
X5089063Y-9841674D02*
X5079539Y-9832150D01*
X5079539Y-9832150D02*
X5060491Y-9803579D01*
X5060491Y-9803579D02*
X5050968Y-9784531D01*
X5050968Y-9784531D02*
X5041444Y-9755960D01*
X5041444Y-9755960D02*
X5031920Y-9708341D01*
X5031920Y-9708341D02*
X5031920Y-9670246D01*
X5031920Y-9670246D02*
X5041444Y-9622627D01*
X5041444Y-9622627D02*
X5050968Y-9594055D01*
X5050968Y-9594055D02*
X5060491Y-9575008D01*
X5060491Y-9575008D02*
X5079539Y-9546436D01*
X5079539Y-9546436D02*
X5089063Y-9536912D01*
X5270015Y-9765484D02*
X5155730Y-9765484D01*
X5212872Y-9765484D02*
X5212872Y-9565484D01*
X5212872Y-9565484D02*
X5193825Y-9594055D01*
X5193825Y-9594055D02*
X5174777Y-9613103D01*
X5174777Y-9613103D02*
X5155730Y-9622627D01*
X5508111Y-9765484D02*
X5508111Y-9565484D01*
X5593825Y-9765484D02*
X5593825Y-9660722D01*
X5593825Y-9660722D02*
X5584301Y-9641674D01*
X5584301Y-9641674D02*
X5565253Y-9632150D01*
X5565253Y-9632150D02*
X5536682Y-9632150D01*
X5536682Y-9632150D02*
X5517634Y-9641674D01*
X5517634Y-9641674D02*
X5508111Y-9651198D01*
X5717634Y-9765484D02*
X5698587Y-9755960D01*
X5698587Y-9755960D02*
X5689063Y-9746436D01*
X5689063Y-9746436D02*
X5679539Y-9727389D01*
X5679539Y-9727389D02*
X5679539Y-9670246D01*
X5679539Y-9670246D02*
X5689063Y-9651198D01*
X5689063Y-9651198D02*
X5698587Y-9641674D01*
X5698587Y-9641674D02*
X5717634Y-9632150D01*
X5717634Y-9632150D02*
X5746206Y-9632150D01*
X5746206Y-9632150D02*
X5765253Y-9641674D01*
X5765253Y-9641674D02*
X5774777Y-9651198D01*
X5774777Y-9651198D02*
X5784301Y-9670246D01*
X5784301Y-9670246D02*
X5784301Y-9727389D01*
X5784301Y-9727389D02*
X5774777Y-9746436D01*
X5774777Y-9746436D02*
X5765253Y-9755960D01*
X5765253Y-9755960D02*
X5746206Y-9765484D01*
X5746206Y-9765484D02*
X5717634Y-9765484D01*
X5898587Y-9765484D02*
X5879539Y-9755960D01*
X5879539Y-9755960D02*
X5870015Y-9736912D01*
X5870015Y-9736912D02*
X5870015Y-9565484D01*
X6050968Y-9755960D02*
X6031920Y-9765484D01*
X6031920Y-9765484D02*
X5993825Y-9765484D01*
X5993825Y-9765484D02*
X5974777Y-9755960D01*
X5974777Y-9755960D02*
X5965253Y-9736912D01*
X5965253Y-9736912D02*
X5965253Y-9660722D01*
X5965253Y-9660722D02*
X5974777Y-9641674D01*
X5974777Y-9641674D02*
X5993825Y-9632150D01*
X5993825Y-9632150D02*
X6031920Y-9632150D01*
X6031920Y-9632150D02*
X6050968Y-9641674D01*
X6050968Y-9641674D02*
X6060491Y-9660722D01*
X6060491Y-9660722D02*
X6060491Y-9679770D01*
X6060491Y-9679770D02*
X5965253Y-9698817D01*
X6127158Y-9841674D02*
X6136682Y-9832150D01*
X6136682Y-9832150D02*
X6155730Y-9803579D01*
X6155730Y-9803579D02*
X6165253Y-9784531D01*
X6165253Y-9784531D02*
X6174777Y-9755960D01*
X6174777Y-9755960D02*
X6184301Y-9708341D01*
X6184301Y-9708341D02*
X6184301Y-9670246D01*
X6184301Y-9670246D02*
X6174777Y-9622627D01*
X6174777Y-9622627D02*
X6165253Y-9594055D01*
X6165253Y-9594055D02*
X6155730Y-9575008D01*
X6155730Y-9575008D02*
X6136682Y-9546436D01*
X6136682Y-9546436D02*
X6127158Y-9536912D01*
X6489063Y-9841674D02*
X6479539Y-9832150D01*
X6479539Y-9832150D02*
X6460491Y-9803579D01*
X6460491Y-9803579D02*
X6450968Y-9784531D01*
X6450968Y-9784531D02*
X6441444Y-9755960D01*
X6441444Y-9755960D02*
X6431920Y-9708341D01*
X6431920Y-9708341D02*
X6431920Y-9670246D01*
X6431920Y-9670246D02*
X6441444Y-9622627D01*
X6441444Y-9622627D02*
X6450968Y-9594055D01*
X6450968Y-9594055D02*
X6460491Y-9575008D01*
X6460491Y-9575008D02*
X6479539Y-9546436D01*
X6479539Y-9546436D02*
X6489063Y-9536912D01*
X6565253Y-9632150D02*
X6565253Y-9765484D01*
X6565253Y-9651198D02*
X6574777Y-9641674D01*
X6574777Y-9641674D02*
X6593825Y-9632150D01*
X6593825Y-9632150D02*
X6622396Y-9632150D01*
X6622396Y-9632150D02*
X6641444Y-9641674D01*
X6641444Y-9641674D02*
X6650968Y-9660722D01*
X6650968Y-9660722D02*
X6650968Y-9765484D01*
X6774777Y-9765484D02*
X6755730Y-9755960D01*
X6755730Y-9755960D02*
X6746206Y-9746436D01*
X6746206Y-9746436D02*
X6736682Y-9727389D01*
X6736682Y-9727389D02*
X6736682Y-9670246D01*
X6736682Y-9670246D02*
X6746206Y-9651198D01*
X6746206Y-9651198D02*
X6755730Y-9641674D01*
X6755730Y-9641674D02*
X6774777Y-9632150D01*
X6774777Y-9632150D02*
X6803349Y-9632150D01*
X6803349Y-9632150D02*
X6822396Y-9641674D01*
X6822396Y-9641674D02*
X6831920Y-9651198D01*
X6831920Y-9651198D02*
X6841444Y-9670246D01*
X6841444Y-9670246D02*
X6841444Y-9727389D01*
X6841444Y-9727389D02*
X6831920Y-9746436D01*
X6831920Y-9746436D02*
X6822396Y-9755960D01*
X6822396Y-9755960D02*
X6803349Y-9765484D01*
X6803349Y-9765484D02*
X6774777Y-9765484D01*
X6898587Y-9632150D02*
X6974777Y-9632150D01*
X6927158Y-9565484D02*
X6927158Y-9736912D01*
X6927158Y-9736912D02*
X6936682Y-9755960D01*
X6936682Y-9755960D02*
X6955730Y-9765484D01*
X6955730Y-9765484D02*
X6974777Y-9765484D01*
X7193825Y-9632150D02*
X7193825Y-9832150D01*
X7193825Y-9641674D02*
X7212872Y-9632150D01*
X7212872Y-9632150D02*
X7250968Y-9632150D01*
X7250968Y-9632150D02*
X7270015Y-9641674D01*
X7270015Y-9641674D02*
X7279539Y-9651198D01*
X7279539Y-9651198D02*
X7289063Y-9670246D01*
X7289063Y-9670246D02*
X7289063Y-9727389D01*
X7289063Y-9727389D02*
X7279539Y-9746436D01*
X7279539Y-9746436D02*
X7270015Y-9755960D01*
X7270015Y-9755960D02*
X7250968Y-9765484D01*
X7250968Y-9765484D02*
X7212872Y-9765484D01*
X7212872Y-9765484D02*
X7193825Y-9755960D01*
X7403349Y-9765484D02*
X7384301Y-9755960D01*
X7384301Y-9755960D02*
X7374777Y-9736912D01*
X7374777Y-9736912D02*
X7374777Y-9565484D01*
X7565253Y-9765484D02*
X7565253Y-9660722D01*
X7565253Y-9660722D02*
X7555730Y-9641674D01*
X7555730Y-9641674D02*
X7536682Y-9632150D01*
X7536682Y-9632150D02*
X7498587Y-9632150D01*
X7498587Y-9632150D02*
X7479539Y-9641674D01*
X7565253Y-9755960D02*
X7546206Y-9765484D01*
X7546206Y-9765484D02*
X7498587Y-9765484D01*
X7498587Y-9765484D02*
X7479539Y-9755960D01*
X7479539Y-9755960D02*
X7470015Y-9736912D01*
X7470015Y-9736912D02*
X7470015Y-9717865D01*
X7470015Y-9717865D02*
X7479539Y-9698817D01*
X7479539Y-9698817D02*
X7498587Y-9689293D01*
X7498587Y-9689293D02*
X7546206Y-9689293D01*
X7546206Y-9689293D02*
X7565253Y-9679770D01*
X7631920Y-9632150D02*
X7708111Y-9632150D01*
X7660492Y-9565484D02*
X7660492Y-9736912D01*
X7660492Y-9736912D02*
X7670015Y-9755960D01*
X7670015Y-9755960D02*
X7689063Y-9765484D01*
X7689063Y-9765484D02*
X7708111Y-9765484D01*
X7850968Y-9755960D02*
X7831920Y-9765484D01*
X7831920Y-9765484D02*
X7793825Y-9765484D01*
X7793825Y-9765484D02*
X7774777Y-9755960D01*
X7774777Y-9755960D02*
X7765253Y-9736912D01*
X7765253Y-9736912D02*
X7765253Y-9660722D01*
X7765253Y-9660722D02*
X7774777Y-9641674D01*
X7774777Y-9641674D02*
X7793825Y-9632150D01*
X7793825Y-9632150D02*
X7831920Y-9632150D01*
X7831920Y-9632150D02*
X7850968Y-9641674D01*
X7850968Y-9641674D02*
X7860492Y-9660722D01*
X7860492Y-9660722D02*
X7860492Y-9679770D01*
X7860492Y-9679770D02*
X7765253Y-9698817D01*
X8031920Y-9765484D02*
X8031920Y-9565484D01*
X8031920Y-9755960D02*
X8012873Y-9765484D01*
X8012873Y-9765484D02*
X7974777Y-9765484D01*
X7974777Y-9765484D02*
X7955730Y-9755960D01*
X7955730Y-9755960D02*
X7946206Y-9746436D01*
X7946206Y-9746436D02*
X7936682Y-9727389D01*
X7936682Y-9727389D02*
X7936682Y-9670246D01*
X7936682Y-9670246D02*
X7946206Y-9651198D01*
X7946206Y-9651198D02*
X7955730Y-9641674D01*
X7955730Y-9641674D02*
X7974777Y-9632150D01*
X7974777Y-9632150D02*
X8012873Y-9632150D01*
X8012873Y-9632150D02*
X8031920Y-9641674D01*
X8108111Y-9841674D02*
X8117634Y-9832150D01*
X8117634Y-9832150D02*
X8136682Y-9803579D01*
X8136682Y-9803579D02*
X8146206Y-9784531D01*
X8146206Y-9784531D02*
X8155730Y-9755960D01*
X8155730Y-9755960D02*
X8165253Y-9708341D01*
X8165253Y-9708341D02*
X8165253Y-9670246D01*
X8165253Y-9670246D02*
X8155730Y-9622627D01*
X8155730Y-9622627D02*
X8146206Y-9594055D01*
X8146206Y-9594055D02*
X8136682Y-9575008D01*
X8136682Y-9575008D02*
X8117634Y-9546436D01*
X8117634Y-9546436D02*
X8108111Y-9536912D01*
M02*
