M48
; DRILL file {KiCad 9.0.3-9.0.3-0~ubuntu22.04.1} date 2025-07-10T23:03:34+0100
; FORMAT={-:-/ absolute / metric / decimal}
; #@! TF.CreationDate,2025-07-10T23:03:34+01:00
; #@! TF.GenerationSoftware,Kicad,Pcbnew,9.0.3-9.0.3-0~ubuntu22.04.1
; #@! TF.FileFunction,Plated,1,2,PTH
FMAT,2
METRIC
; #@! TA.AperFunction,Plated,PTH,ViaDrill
T1C0.300
; #@! TA.AperFunction,Plated,PTH,ComponentDrill
T2C1.000
; #@! TA.AperFunction,Plated,PTH,ComponentDrill
T3C1.520
; #@! TA.AperFunction,Plated,PTH,ComponentDrill
T4C3.200
%
G90
G05
T1
X26.035Y-36.83
X26.416Y-96.52
X26.416Y-109.22
X26.67Y-29.718
X27.305Y-117.475
X27.94Y-67.31
X28.702Y-92.71
X30.48Y-82.55
X30.48Y-113.03
X31.115Y-36.83
X31.75Y-24.13
X33.02Y-67.31
X33.782Y-114.046
X33.782Y-116.332
X35.56Y-92.71
X35.56Y-102.87
X37.592Y-29.464
X37.592Y-114.046
X39.624Y-29.464
X39.878Y-113.284
X40.64Y-69.85
X41.656Y-29.464
X41.913Y-85.344
X43.18Y-81.026
X43.688Y-29.464
X45.72Y-29.464
X45.72Y-69.85
X48.26Y-34.163
X48.26Y-36.449
X48.26Y-38.735
X48.26Y-92.964
X50.292Y-70.358
X50.8Y-79.756
X50.8Y-81.788
X50.8Y-84.328
X51.816Y-63.754
X51.816Y-98.806
X52.324Y-35.56
X52.578Y-61.214
X53.594Y-81.788
X53.594Y-84.328
X53.594Y-98.806
X55.118Y-74.168
X55.118Y-87.884
X55.118Y-90.17
X55.372Y-42.418
X57.15Y-76.2
X58.166Y-71.12
X58.42Y-62.23
X58.928Y-90.17
X59.436Y-95.25
X60.037Y-92.71
X62.23Y-34.29
X62.23Y-38.1
X67.31Y-21.59
X68.58Y-62.484
X71.374Y-118.872
X71.628Y-55.88
X72.39Y-33.02
X72.39Y-40.005
X73.66Y-21.59
X74.93Y-33.02
X74.93Y-40.005
X77.47Y-66.04
X77.47Y-68.58
X77.47Y-86.36
X78.486Y-116.332
X78.994Y-73.66
X79.883Y-85.471
X80.01Y-88.9
X80.518Y-110.49
X81.026Y-82.55
X81.28Y-118.364
X82.296Y-118.364
X82.423Y-33.02
X82.423Y-39.497
X82.423Y-42.545
X82.55Y-110.49
X83.947Y-41.021
X85.471Y-33.02
X85.471Y-39.497
X85.471Y-42.545
X90.17Y-21.59
X96.52Y-21.59
X100.584Y-88.9
X101.6Y-115.57
X102.87Y-86.36
X103.505Y-70.485
X120.904Y-94.996
X127.0Y-107.95
X128.524Y-94.996
X137.16Y-95.25
X137.16Y-107.95
X142.24Y-91.44
X147.32Y-107.95
X157.48Y-105.41
X167.894Y-107.696
X180.34Y-104.14
T2
X27.94Y-55.88
X30.48Y-55.88
X30.48Y-74.93
X30.48Y-77.47
X30.48Y-87.63
X30.48Y-90.17
X30.48Y-95.25
X30.48Y-97.79
X30.48Y-107.95
X30.48Y-110.49
X33.02Y-55.88
X33.02Y-74.93
X33.02Y-77.47
X33.02Y-87.63
X33.02Y-90.17
X33.02Y-95.25
X33.02Y-97.79
X33.02Y-107.95
X33.02Y-110.49
X35.56Y-55.88
X35.56Y-74.93
X35.56Y-77.47
X35.56Y-87.63
X35.56Y-90.17
X35.56Y-95.25
X35.56Y-97.79
X35.56Y-107.95
X35.56Y-110.49
X38.1Y-74.93
X38.1Y-77.47
X38.1Y-87.63
X38.1Y-90.17
X38.1Y-95.25
X38.1Y-97.79
X38.1Y-107.95
X38.1Y-110.49
X40.64Y-74.93
X40.64Y-77.47
X40.64Y-87.63
X40.64Y-90.17
X40.64Y-95.25
X40.64Y-97.79
X40.64Y-107.95
X40.64Y-110.49
X43.18Y-55.88
X43.18Y-74.93
X43.18Y-77.47
X43.18Y-87.63
X43.18Y-90.17
X43.18Y-95.25
X43.18Y-97.79
X43.18Y-107.95
X43.18Y-110.49
X45.72Y-55.88
X45.72Y-74.93
X45.72Y-77.47
X45.72Y-87.63
X45.72Y-90.17
X45.72Y-95.25
X45.72Y-97.79
X45.72Y-107.95
X45.72Y-110.49
X48.26Y-55.88
X48.26Y-74.93
X48.26Y-77.47
X48.26Y-87.63
X48.26Y-90.17
X48.26Y-95.25
X48.26Y-97.79
X48.26Y-107.95
X48.26Y-110.49
X50.8Y-55.88
X53.34Y-55.88
X55.88Y-55.88
X62.23Y-64.77
X62.23Y-67.31
X62.23Y-69.85
X62.23Y-72.39
X62.23Y-74.93
X62.23Y-77.47
X62.23Y-80.01
X62.23Y-82.55
X62.23Y-85.09
X62.23Y-87.63
X62.23Y-90.17
X62.23Y-92.71
X62.23Y-95.25
X62.23Y-97.79
X62.23Y-100.33
X62.23Y-102.87
X62.23Y-105.41
X62.23Y-107.95
X62.23Y-110.49
X62.23Y-113.03
X62.23Y-115.57
X62.23Y-118.11
X73.66Y-64.77
X73.66Y-67.31
X73.66Y-69.85
X73.66Y-72.39
X73.66Y-74.93
X73.66Y-77.47
X73.66Y-80.01
X73.66Y-82.55
X73.66Y-85.09
X73.66Y-87.63
X73.66Y-90.17
X73.66Y-92.71
X73.66Y-95.25
X73.66Y-97.79
X73.66Y-100.33
X73.66Y-102.87
X73.66Y-105.41
X73.66Y-107.95
X73.66Y-110.49
X73.66Y-113.03
X85.09Y-64.77
X85.09Y-67.31
X85.09Y-69.85
X85.09Y-72.39
X85.09Y-74.93
X85.09Y-77.47
X85.09Y-80.01
X85.09Y-82.55
X85.09Y-85.09
X85.09Y-87.63
X85.09Y-90.17
X85.09Y-92.71
X85.09Y-95.25
X85.09Y-97.79
X85.09Y-100.33
X85.09Y-102.87
X85.09Y-105.41
X85.09Y-107.95
X85.09Y-110.49
X85.09Y-113.03
X85.09Y-115.57
X85.09Y-118.11
X96.52Y-64.77
X96.52Y-67.31
X96.52Y-69.85
X96.52Y-72.39
X96.52Y-74.93
X96.52Y-77.47
X96.52Y-80.01
X96.52Y-82.55
X96.52Y-85.09
X96.52Y-87.63
X96.52Y-90.17
X96.52Y-92.71
X96.52Y-95.25
X96.52Y-97.79
X96.52Y-100.33
X96.52Y-102.87
X96.52Y-105.41
X96.52Y-107.95
X96.52Y-110.49
X96.52Y-113.03
X111.76Y-55.88
X111.76Y-58.42
X111.76Y-60.96
X111.76Y-63.5
X111.76Y-66.04
X111.76Y-68.58
X111.76Y-71.12
X111.76Y-73.66
X111.76Y-76.2
X111.76Y-78.74
X111.76Y-81.28
X111.76Y-83.82
X111.76Y-86.36
X121.92Y-55.88
X121.92Y-58.42
X121.92Y-60.96
X121.92Y-63.5
X121.92Y-66.04
X121.92Y-68.58
X121.92Y-71.12
X121.92Y-73.66
X121.92Y-106.68
X121.92Y-109.22
X121.92Y-111.76
X121.92Y-114.3
X121.92Y-116.84
X124.46Y-36.83
X127.0Y-36.83
X129.54Y-36.83
X132.08Y-36.83
X132.08Y-55.88
X132.08Y-58.42
X132.08Y-60.96
X132.08Y-63.5
X132.08Y-66.04
X132.08Y-68.58
X132.08Y-71.12
X132.08Y-73.66
X132.08Y-106.68
X132.08Y-109.22
X132.08Y-111.76
X132.08Y-114.3
X132.08Y-116.84
X134.62Y-36.83
X137.16Y-36.83
X139.7Y-36.83
X142.24Y-36.83
X142.24Y-55.88
X142.24Y-58.42
X142.24Y-60.96
X142.24Y-63.5
X142.24Y-66.04
X142.24Y-85.09
X142.24Y-87.63
X142.24Y-106.68
X142.24Y-109.22
X142.24Y-111.76
X142.24Y-114.3
X142.24Y-116.84
X144.78Y-36.83
X147.32Y-36.83
X151.765Y-106.68
X151.765Y-109.22
X151.765Y-111.76
X151.765Y-114.3
X151.765Y-116.84
X152.4Y-55.88
X152.4Y-58.42
X152.4Y-60.96
X152.4Y-63.5
X152.4Y-66.04
X152.4Y-85.09
X152.4Y-87.63
X160.02Y-36.83
X162.56Y-36.83
X162.56Y-55.88
X162.56Y-58.42
X162.56Y-60.96
X162.56Y-63.5
X162.56Y-66.04
X162.56Y-85.09
X162.56Y-87.63
X162.56Y-101.6
X162.56Y-104.14
X162.56Y-106.68
X162.56Y-109.22
X162.56Y-111.76
X162.56Y-114.3
X162.56Y-116.84
X165.1Y-36.83
X167.64Y-36.83
X170.18Y-36.83
X172.72Y-36.83
X172.72Y-55.88
X172.72Y-58.42
X172.72Y-60.96
X172.72Y-63.5
X172.72Y-66.04
X172.72Y-85.09
X172.72Y-87.63
X172.72Y-101.6
X172.72Y-104.14
X172.72Y-106.68
X172.72Y-109.22
X172.72Y-111.76
X172.72Y-114.3
X172.72Y-116.84
X175.26Y-36.83
X177.8Y-36.83
X180.34Y-36.83
X182.88Y-36.83
X182.88Y-55.88
X182.88Y-58.42
X182.88Y-60.96
X182.88Y-63.5
X182.88Y-66.04
X182.88Y-91.44
X182.88Y-93.98
X182.88Y-96.52
X182.88Y-99.06
X182.88Y-101.6
X182.88Y-104.14
X182.88Y-106.68
X182.88Y-109.22
X182.88Y-111.76
X182.88Y-114.3
X182.88Y-116.84
T3
X35.56Y-21.59
X40.64Y-21.59
X55.88Y-21.59
X60.96Y-21.59
X78.74Y-21.59
X83.82Y-21.59
X101.6Y-21.59
X106.68Y-21.59
X124.46Y-21.59
X129.54Y-21.59
X142.24Y-21.59
X147.32Y-21.59
X160.02Y-21.59
X165.1Y-21.59
X177.8Y-21.59
X182.88Y-21.59
T4
X20.49Y-20.49
X20.49Y-122.99
X190.49Y-20.49
X190.49Y-122.99
M30
