M48
; DRILL file {KiCad 9.0.3-9.0.3-0~ubuntu22.04.1} date 2025-07-16T13:00:15+0100
; FORMAT={-:-/ absolute / metric / decimal}
; #@! TF.CreationDate,2025-07-16T13:00:15+01:00
; #@! TF.GenerationSoftware,Kicad,Pcbnew,9.0.3-9.0.3-0~ubuntu22.04.1
; #@! TF.FileFunction,Plated,1,2,PTH
FMAT,2
METRIC
; #@! TA.AperFunction,Plated,PTH,ViaDrill
T1C0.300
; #@! TA.AperFunction,Plated,PTH,ComponentDrill
T2C1.000
; #@! TA.AperFunction,Plated,PTH,ComponentDrill
T3C1.520
; #@! TA.AperFunction,Plated,PTH,ComponentDrill
T4C3.200
%
G90
G05
T1
X19.05Y-52.07
X40.64Y-66.04
X40.64Y-83.82
X48.26Y-83.82
X50.8Y-66.04
X59.69Y-66.04
X59.69Y-74.93
X77.47Y-62.865
X77.47Y-83.82
X80.01Y-55.88
X80.645Y-58.42
X95.25Y-46.99
X102.235Y-38.735
X105.41Y-31.75
T2
X25.4Y-57.15
X25.4Y-80.01
X27.94Y-57.15
X27.94Y-80.01
X30.48Y-57.15
X30.48Y-80.01
X33.02Y-57.15
X33.02Y-80.01
X35.56Y-57.15
X35.56Y-80.01
X38.1Y-57.15
X38.1Y-80.01
X40.64Y-57.15
X40.64Y-80.01
X43.18Y-57.15
X43.18Y-80.01
X45.72Y-57.15
X45.72Y-80.01
X48.26Y-57.15
X48.26Y-80.01
X50.8Y-57.15
X50.8Y-80.01
X53.34Y-57.15
X53.34Y-80.01
X55.88Y-57.15
X55.88Y-80.01
X58.42Y-57.15
X58.42Y-80.01
X60.96Y-57.15
X60.96Y-80.01
X63.5Y-57.15
X63.5Y-80.01
X66.04Y-57.15
X66.04Y-80.01
X68.58Y-57.15
X68.58Y-80.01
X71.12Y-57.15
X71.12Y-80.01
X73.66Y-57.15
X73.66Y-80.01
X87.63Y-54.61
X87.63Y-57.15
X87.63Y-59.69
X87.63Y-62.23
X87.63Y-64.77
X87.63Y-67.31
X87.63Y-69.85
X87.63Y-72.39
X87.63Y-74.93
X87.63Y-77.47
X87.63Y-80.01
X87.63Y-82.55
X87.63Y-85.09
X90.17Y-54.61
X90.17Y-57.15
X90.17Y-59.69
X90.17Y-62.23
X90.17Y-64.77
X90.17Y-67.31
X90.17Y-69.85
X90.17Y-72.39
X90.17Y-74.93
X90.17Y-77.47
X90.17Y-80.01
X90.17Y-82.55
X90.17Y-85.09
X99.06Y-54.61
X99.06Y-57.15
X99.06Y-59.69
X99.06Y-62.23
X99.06Y-64.77
X99.06Y-67.31
X99.06Y-69.85
X99.06Y-72.39
X99.06Y-74.93
X99.06Y-77.47
X99.06Y-80.01
X99.06Y-82.55
X99.06Y-85.09
X101.6Y-54.61
X101.6Y-57.15
X101.6Y-59.69
X101.6Y-62.23
X101.6Y-64.77
X101.6Y-67.31
X101.6Y-69.85
X101.6Y-72.39
X101.6Y-74.93
X101.6Y-77.47
X101.6Y-80.01
X101.6Y-82.55
X101.6Y-85.09
X109.982Y-34.29
X109.982Y-36.83
X109.982Y-39.37
X109.982Y-41.91
T3
X35.56Y-21.59
X40.64Y-21.59
X54.603Y-21.59
X59.683Y-21.59
X72.383Y-21.59
X77.463Y-21.59
X91.44Y-21.59
X96.52Y-21.59
T4
X20.49Y-84.99
X109.99Y-20.49
X109.99Y-84.99
M30
