%TF.GenerationSoftware,KiCad,Pcbnew,9.0.3-9.0.3-0~ubuntu22.04.1*%
%TF.CreationDate,2025-07-11T11:46:58+01:00*%
%TF.ProjectId,dali-pcb,64616c69-2d70-4636-922e-6b696361645f,rev?*%
%TF.SameCoordinates,Original*%
%TF.FileFunction,Drillmap*%
%TF.FilePolarity,Positive*%
%FSLAX45Y45*%
G04 Gerber Fmt 4.5, Leading zero omitted, Abs format (unit mm)*
G04 Created by KiCad (PCBNEW 9.0.3-9.0.3-0~ubuntu22.04.1) date 2025-07-11 11:46:58*
%MOMM*%
%LPD*%
G01*
G04 APERTURE LIST*
%ADD10C,0.200000*%
%ADD11C,0.100000*%
%ADD12C,0.152000*%
%ADD13C,0.320000*%
G04 APERTURE END LIST*
D10*
X1524000Y-1524000D02*
X11524000Y-1524000D01*
X11524000Y-9024000D01*
X1524000Y-9024000D01*
X1524000Y-1524000D01*
D11*
X2588500Y-3668000D02*
X2618500Y-3698000D01*
X2618500Y-3668000D02*
X2588500Y-3698000D01*
X2652000Y-2956800D02*
X2682000Y-2986800D01*
X2682000Y-2956800D02*
X2652000Y-2986800D01*
X3096500Y-3668000D02*
X3126500Y-3698000D01*
X3126500Y-3668000D02*
X3096500Y-3698000D01*
X3160000Y-2398000D02*
X3190000Y-2428000D01*
X3190000Y-2398000D02*
X3160000Y-2428000D01*
X3744200Y-2931400D02*
X3774200Y-2961400D01*
X3774200Y-2931400D02*
X3744200Y-2961400D01*
X3947400Y-2931400D02*
X3977400Y-2961400D01*
X3977400Y-2931400D02*
X3947400Y-2961400D01*
X4049000Y-8367000D02*
X4079000Y-8397000D01*
X4079000Y-8367000D02*
X4049000Y-8397000D01*
X4150600Y-2931400D02*
X4180600Y-2961400D01*
X4180600Y-2931400D02*
X4150600Y-2961400D01*
X4353800Y-2931400D02*
X4383800Y-2961400D01*
X4383800Y-2931400D02*
X4353800Y-2961400D01*
X4557000Y-2931400D02*
X4587000Y-2961400D01*
X4587000Y-2931400D02*
X4557000Y-2961400D01*
X4811000Y-3401300D02*
X4841000Y-3431300D01*
X4841000Y-3401300D02*
X4811000Y-3431300D01*
X4811000Y-3629900D02*
X4841000Y-3659900D01*
X4841000Y-3629900D02*
X4811000Y-3659900D01*
X4811000Y-3858500D02*
X4841000Y-3888500D01*
X4841000Y-3858500D02*
X4811000Y-3888500D01*
X4811000Y-8367000D02*
X4841000Y-8397000D01*
X4841000Y-8367000D02*
X4811000Y-8397000D01*
X5065000Y-6589000D02*
X5095000Y-6619000D01*
X5095000Y-6589000D02*
X5065000Y-6619000D01*
X5217400Y-3541000D02*
X5247400Y-3571000D01*
X5247400Y-3541000D02*
X5217400Y-3571000D01*
X5522200Y-4226800D02*
X5552200Y-4256800D01*
X5552200Y-4226800D02*
X5522200Y-4256800D01*
X5954000Y-6589000D02*
X5984000Y-6619000D01*
X5984000Y-6589000D02*
X5954000Y-6619000D01*
X6208000Y-3414000D02*
X6238000Y-3444000D01*
X6238000Y-3414000D02*
X6208000Y-3444000D01*
X6208000Y-3795000D02*
X6238000Y-3825000D01*
X6238000Y-3795000D02*
X6208000Y-3825000D01*
X6589000Y-2144000D02*
X6619000Y-2174000D01*
X6619000Y-2144000D02*
X6589000Y-2174000D01*
X7224000Y-3287000D02*
X7254000Y-3317000D01*
X7254000Y-3287000D02*
X7224000Y-3317000D01*
X7224000Y-3985500D02*
X7254000Y-4015500D01*
X7254000Y-3985500D02*
X7224000Y-4015500D01*
X7732000Y-6271500D02*
X7762000Y-6301500D01*
X7762000Y-6271500D02*
X7732000Y-6301500D01*
X7986000Y-5573000D02*
X8016000Y-5603000D01*
X8016000Y-5573000D02*
X7986000Y-5603000D01*
X8049500Y-5827000D02*
X8079500Y-5857000D01*
X8079500Y-5827000D02*
X8049500Y-5857000D01*
X8113000Y-3287000D02*
X8143000Y-3317000D01*
X8143000Y-3287000D02*
X8113000Y-3317000D01*
X8113000Y-3934700D02*
X8143000Y-3964700D01*
X8143000Y-3934700D02*
X8113000Y-3964700D01*
X8113000Y-4239500D02*
X8143000Y-4269500D01*
X8143000Y-4239500D02*
X8113000Y-4269500D01*
X10462500Y-3287000D02*
X10492500Y-3317000D01*
X10492500Y-3287000D02*
X10462500Y-3317000D01*
X2590000Y-5715000D02*
G75*
G02*
X2490000Y-5715000I-50000J0D01*
G01*
X2490000Y-5715000D02*
G75*
G02*
X2590000Y-5715000I50000J0D01*
G01*
X2590000Y-8001000D02*
G75*
G02*
X2490000Y-8001000I-50000J0D01*
G01*
X2490000Y-8001000D02*
G75*
G02*
X2590000Y-8001000I50000J0D01*
G01*
X2844000Y-5715000D02*
G75*
G02*
X2744000Y-5715000I-50000J0D01*
G01*
X2744000Y-5715000D02*
G75*
G02*
X2844000Y-5715000I50000J0D01*
G01*
X2844000Y-8001000D02*
G75*
G02*
X2744000Y-8001000I-50000J0D01*
G01*
X2744000Y-8001000D02*
G75*
G02*
X2844000Y-8001000I50000J0D01*
G01*
X3098000Y-5715000D02*
G75*
G02*
X2998000Y-5715000I-50000J0D01*
G01*
X2998000Y-5715000D02*
G75*
G02*
X3098000Y-5715000I50000J0D01*
G01*
X3098000Y-8001000D02*
G75*
G02*
X2998000Y-8001000I-50000J0D01*
G01*
X2998000Y-8001000D02*
G75*
G02*
X3098000Y-8001000I50000J0D01*
G01*
X3352000Y-5715000D02*
G75*
G02*
X3252000Y-5715000I-50000J0D01*
G01*
X3252000Y-5715000D02*
G75*
G02*
X3352000Y-5715000I50000J0D01*
G01*
X3352000Y-8001000D02*
G75*
G02*
X3252000Y-8001000I-50000J0D01*
G01*
X3252000Y-8001000D02*
G75*
G02*
X3352000Y-8001000I50000J0D01*
G01*
X3606000Y-5715000D02*
G75*
G02*
X3506000Y-5715000I-50000J0D01*
G01*
X3506000Y-5715000D02*
G75*
G02*
X3606000Y-5715000I50000J0D01*
G01*
X3606000Y-8001000D02*
G75*
G02*
X3506000Y-8001000I-50000J0D01*
G01*
X3506000Y-8001000D02*
G75*
G02*
X3606000Y-8001000I50000J0D01*
G01*
X3860000Y-5715000D02*
G75*
G02*
X3760000Y-5715000I-50000J0D01*
G01*
X3760000Y-5715000D02*
G75*
G02*
X3860000Y-5715000I50000J0D01*
G01*
X3860000Y-8001000D02*
G75*
G02*
X3760000Y-8001000I-50000J0D01*
G01*
X3760000Y-8001000D02*
G75*
G02*
X3860000Y-8001000I50000J0D01*
G01*
X4114000Y-5715000D02*
G75*
G02*
X4014000Y-5715000I-50000J0D01*
G01*
X4014000Y-5715000D02*
G75*
G02*
X4114000Y-5715000I50000J0D01*
G01*
X4114000Y-8001000D02*
G75*
G02*
X4014000Y-8001000I-50000J0D01*
G01*
X4014000Y-8001000D02*
G75*
G02*
X4114000Y-8001000I50000J0D01*
G01*
X4368000Y-5715000D02*
G75*
G02*
X4268000Y-5715000I-50000J0D01*
G01*
X4268000Y-5715000D02*
G75*
G02*
X4368000Y-5715000I50000J0D01*
G01*
X4368000Y-8001000D02*
G75*
G02*
X4268000Y-8001000I-50000J0D01*
G01*
X4268000Y-8001000D02*
G75*
G02*
X4368000Y-8001000I50000J0D01*
G01*
X4622000Y-5715000D02*
G75*
G02*
X4522000Y-5715000I-50000J0D01*
G01*
X4522000Y-5715000D02*
G75*
G02*
X4622000Y-5715000I50000J0D01*
G01*
X4622000Y-8001000D02*
G75*
G02*
X4522000Y-8001000I-50000J0D01*
G01*
X4522000Y-8001000D02*
G75*
G02*
X4622000Y-8001000I50000J0D01*
G01*
X4876000Y-5715000D02*
G75*
G02*
X4776000Y-5715000I-50000J0D01*
G01*
X4776000Y-5715000D02*
G75*
G02*
X4876000Y-5715000I50000J0D01*
G01*
X4876000Y-8001000D02*
G75*
G02*
X4776000Y-8001000I-50000J0D01*
G01*
X4776000Y-8001000D02*
G75*
G02*
X4876000Y-8001000I50000J0D01*
G01*
X5130000Y-5715000D02*
G75*
G02*
X5030000Y-5715000I-50000J0D01*
G01*
X5030000Y-5715000D02*
G75*
G02*
X5130000Y-5715000I50000J0D01*
G01*
X5130000Y-8001000D02*
G75*
G02*
X5030000Y-8001000I-50000J0D01*
G01*
X5030000Y-8001000D02*
G75*
G02*
X5130000Y-8001000I50000J0D01*
G01*
X5384000Y-5715000D02*
G75*
G02*
X5284000Y-5715000I-50000J0D01*
G01*
X5284000Y-5715000D02*
G75*
G02*
X5384000Y-5715000I50000J0D01*
G01*
X5384000Y-8001000D02*
G75*
G02*
X5284000Y-8001000I-50000J0D01*
G01*
X5284000Y-8001000D02*
G75*
G02*
X5384000Y-8001000I50000J0D01*
G01*
X5638000Y-5715000D02*
G75*
G02*
X5538000Y-5715000I-50000J0D01*
G01*
X5538000Y-5715000D02*
G75*
G02*
X5638000Y-5715000I50000J0D01*
G01*
X5638000Y-8001000D02*
G75*
G02*
X5538000Y-8001000I-50000J0D01*
G01*
X5538000Y-8001000D02*
G75*
G02*
X5638000Y-8001000I50000J0D01*
G01*
X5892000Y-5715000D02*
G75*
G02*
X5792000Y-5715000I-50000J0D01*
G01*
X5792000Y-5715000D02*
G75*
G02*
X5892000Y-5715000I50000J0D01*
G01*
X5892000Y-8001000D02*
G75*
G02*
X5792000Y-8001000I-50000J0D01*
G01*
X5792000Y-8001000D02*
G75*
G02*
X5892000Y-8001000I50000J0D01*
G01*
X6146000Y-5715000D02*
G75*
G02*
X6046000Y-5715000I-50000J0D01*
G01*
X6046000Y-5715000D02*
G75*
G02*
X6146000Y-5715000I50000J0D01*
G01*
X6146000Y-8001000D02*
G75*
G02*
X6046000Y-8001000I-50000J0D01*
G01*
X6046000Y-8001000D02*
G75*
G02*
X6146000Y-8001000I50000J0D01*
G01*
X6400000Y-5715000D02*
G75*
G02*
X6300000Y-5715000I-50000J0D01*
G01*
X6300000Y-5715000D02*
G75*
G02*
X6400000Y-5715000I50000J0D01*
G01*
X6400000Y-8001000D02*
G75*
G02*
X6300000Y-8001000I-50000J0D01*
G01*
X6300000Y-8001000D02*
G75*
G02*
X6400000Y-8001000I50000J0D01*
G01*
X6654000Y-5715000D02*
G75*
G02*
X6554000Y-5715000I-50000J0D01*
G01*
X6554000Y-5715000D02*
G75*
G02*
X6654000Y-5715000I50000J0D01*
G01*
X6654000Y-8001000D02*
G75*
G02*
X6554000Y-8001000I-50000J0D01*
G01*
X6554000Y-8001000D02*
G75*
G02*
X6654000Y-8001000I50000J0D01*
G01*
X6908000Y-5715000D02*
G75*
G02*
X6808000Y-5715000I-50000J0D01*
G01*
X6808000Y-5715000D02*
G75*
G02*
X6908000Y-5715000I50000J0D01*
G01*
X6908000Y-8001000D02*
G75*
G02*
X6808000Y-8001000I-50000J0D01*
G01*
X6808000Y-8001000D02*
G75*
G02*
X6908000Y-8001000I50000J0D01*
G01*
X7162000Y-5715000D02*
G75*
G02*
X7062000Y-5715000I-50000J0D01*
G01*
X7062000Y-5715000D02*
G75*
G02*
X7162000Y-5715000I50000J0D01*
G01*
X7162000Y-8001000D02*
G75*
G02*
X7062000Y-8001000I-50000J0D01*
G01*
X7062000Y-8001000D02*
G75*
G02*
X7162000Y-8001000I50000J0D01*
G01*
X7416000Y-5715000D02*
G75*
G02*
X7316000Y-5715000I-50000J0D01*
G01*
X7316000Y-5715000D02*
G75*
G02*
X7416000Y-5715000I50000J0D01*
G01*
X7416000Y-8001000D02*
G75*
G02*
X7316000Y-8001000I-50000J0D01*
G01*
X7316000Y-8001000D02*
G75*
G02*
X7416000Y-8001000I50000J0D01*
G01*
X8813000Y-5461000D02*
G75*
G02*
X8713000Y-5461000I-50000J0D01*
G01*
X8713000Y-5461000D02*
G75*
G02*
X8813000Y-5461000I50000J0D01*
G01*
X8813000Y-5715000D02*
G75*
G02*
X8713000Y-5715000I-50000J0D01*
G01*
X8713000Y-5715000D02*
G75*
G02*
X8813000Y-5715000I50000J0D01*
G01*
X8813000Y-5969000D02*
G75*
G02*
X8713000Y-5969000I-50000J0D01*
G01*
X8713000Y-5969000D02*
G75*
G02*
X8813000Y-5969000I50000J0D01*
G01*
X8813000Y-6223000D02*
G75*
G02*
X8713000Y-6223000I-50000J0D01*
G01*
X8713000Y-6223000D02*
G75*
G02*
X8813000Y-6223000I50000J0D01*
G01*
X8813000Y-6477000D02*
G75*
G02*
X8713000Y-6477000I-50000J0D01*
G01*
X8713000Y-6477000D02*
G75*
G02*
X8813000Y-6477000I50000J0D01*
G01*
X8813000Y-6731000D02*
G75*
G02*
X8713000Y-6731000I-50000J0D01*
G01*
X8713000Y-6731000D02*
G75*
G02*
X8813000Y-6731000I50000J0D01*
G01*
X8813000Y-6985000D02*
G75*
G02*
X8713000Y-6985000I-50000J0D01*
G01*
X8713000Y-6985000D02*
G75*
G02*
X8813000Y-6985000I50000J0D01*
G01*
X8813000Y-7239000D02*
G75*
G02*
X8713000Y-7239000I-50000J0D01*
G01*
X8713000Y-7239000D02*
G75*
G02*
X8813000Y-7239000I50000J0D01*
G01*
X8813000Y-7493000D02*
G75*
G02*
X8713000Y-7493000I-50000J0D01*
G01*
X8713000Y-7493000D02*
G75*
G02*
X8813000Y-7493000I50000J0D01*
G01*
X8813000Y-7747000D02*
G75*
G02*
X8713000Y-7747000I-50000J0D01*
G01*
X8713000Y-7747000D02*
G75*
G02*
X8813000Y-7747000I50000J0D01*
G01*
X8813000Y-8001000D02*
G75*
G02*
X8713000Y-8001000I-50000J0D01*
G01*
X8713000Y-8001000D02*
G75*
G02*
X8813000Y-8001000I50000J0D01*
G01*
X8813000Y-8255000D02*
G75*
G02*
X8713000Y-8255000I-50000J0D01*
G01*
X8713000Y-8255000D02*
G75*
G02*
X8813000Y-8255000I50000J0D01*
G01*
X8813000Y-8509000D02*
G75*
G02*
X8713000Y-8509000I-50000J0D01*
G01*
X8713000Y-8509000D02*
G75*
G02*
X8813000Y-8509000I50000J0D01*
G01*
X9067000Y-5461000D02*
G75*
G02*
X8967000Y-5461000I-50000J0D01*
G01*
X8967000Y-5461000D02*
G75*
G02*
X9067000Y-5461000I50000J0D01*
G01*
X9067000Y-5715000D02*
G75*
G02*
X8967000Y-5715000I-50000J0D01*
G01*
X8967000Y-5715000D02*
G75*
G02*
X9067000Y-5715000I50000J0D01*
G01*
X9067000Y-5969000D02*
G75*
G02*
X8967000Y-5969000I-50000J0D01*
G01*
X8967000Y-5969000D02*
G75*
G02*
X9067000Y-5969000I50000J0D01*
G01*
X9067000Y-6223000D02*
G75*
G02*
X8967000Y-6223000I-50000J0D01*
G01*
X8967000Y-6223000D02*
G75*
G02*
X9067000Y-6223000I50000J0D01*
G01*
X9067000Y-6477000D02*
G75*
G02*
X8967000Y-6477000I-50000J0D01*
G01*
X8967000Y-6477000D02*
G75*
G02*
X9067000Y-6477000I50000J0D01*
G01*
X9067000Y-6731000D02*
G75*
G02*
X8967000Y-6731000I-50000J0D01*
G01*
X8967000Y-6731000D02*
G75*
G02*
X9067000Y-6731000I50000J0D01*
G01*
X9067000Y-6985000D02*
G75*
G02*
X8967000Y-6985000I-50000J0D01*
G01*
X8967000Y-6985000D02*
G75*
G02*
X9067000Y-6985000I50000J0D01*
G01*
X9067000Y-7239000D02*
G75*
G02*
X8967000Y-7239000I-50000J0D01*
G01*
X8967000Y-7239000D02*
G75*
G02*
X9067000Y-7239000I50000J0D01*
G01*
X9067000Y-7493000D02*
G75*
G02*
X8967000Y-7493000I-50000J0D01*
G01*
X8967000Y-7493000D02*
G75*
G02*
X9067000Y-7493000I50000J0D01*
G01*
X9067000Y-7747000D02*
G75*
G02*
X8967000Y-7747000I-50000J0D01*
G01*
X8967000Y-7747000D02*
G75*
G02*
X9067000Y-7747000I50000J0D01*
G01*
X9067000Y-8001000D02*
G75*
G02*
X8967000Y-8001000I-50000J0D01*
G01*
X8967000Y-8001000D02*
G75*
G02*
X9067000Y-8001000I50000J0D01*
G01*
X9067000Y-8255000D02*
G75*
G02*
X8967000Y-8255000I-50000J0D01*
G01*
X8967000Y-8255000D02*
G75*
G02*
X9067000Y-8255000I50000J0D01*
G01*
X9067000Y-8509000D02*
G75*
G02*
X8967000Y-8509000I-50000J0D01*
G01*
X8967000Y-8509000D02*
G75*
G02*
X9067000Y-8509000I50000J0D01*
G01*
X9956000Y-5461000D02*
G75*
G02*
X9856000Y-5461000I-50000J0D01*
G01*
X9856000Y-5461000D02*
G75*
G02*
X9956000Y-5461000I50000J0D01*
G01*
X9956000Y-5715000D02*
G75*
G02*
X9856000Y-5715000I-50000J0D01*
G01*
X9856000Y-5715000D02*
G75*
G02*
X9956000Y-5715000I50000J0D01*
G01*
X9956000Y-5969000D02*
G75*
G02*
X9856000Y-5969000I-50000J0D01*
G01*
X9856000Y-5969000D02*
G75*
G02*
X9956000Y-5969000I50000J0D01*
G01*
X9956000Y-6223000D02*
G75*
G02*
X9856000Y-6223000I-50000J0D01*
G01*
X9856000Y-6223000D02*
G75*
G02*
X9956000Y-6223000I50000J0D01*
G01*
X9956000Y-6477000D02*
G75*
G02*
X9856000Y-6477000I-50000J0D01*
G01*
X9856000Y-6477000D02*
G75*
G02*
X9956000Y-6477000I50000J0D01*
G01*
X9956000Y-6731000D02*
G75*
G02*
X9856000Y-6731000I-50000J0D01*
G01*
X9856000Y-6731000D02*
G75*
G02*
X9956000Y-6731000I50000J0D01*
G01*
X9956000Y-6985000D02*
G75*
G02*
X9856000Y-6985000I-50000J0D01*
G01*
X9856000Y-6985000D02*
G75*
G02*
X9956000Y-6985000I50000J0D01*
G01*
X9956000Y-7239000D02*
G75*
G02*
X9856000Y-7239000I-50000J0D01*
G01*
X9856000Y-7239000D02*
G75*
G02*
X9956000Y-7239000I50000J0D01*
G01*
X9956000Y-7493000D02*
G75*
G02*
X9856000Y-7493000I-50000J0D01*
G01*
X9856000Y-7493000D02*
G75*
G02*
X9956000Y-7493000I50000J0D01*
G01*
X9956000Y-7747000D02*
G75*
G02*
X9856000Y-7747000I-50000J0D01*
G01*
X9856000Y-7747000D02*
G75*
G02*
X9956000Y-7747000I50000J0D01*
G01*
X9956000Y-8001000D02*
G75*
G02*
X9856000Y-8001000I-50000J0D01*
G01*
X9856000Y-8001000D02*
G75*
G02*
X9956000Y-8001000I50000J0D01*
G01*
X9956000Y-8255000D02*
G75*
G02*
X9856000Y-8255000I-50000J0D01*
G01*
X9856000Y-8255000D02*
G75*
G02*
X9956000Y-8255000I50000J0D01*
G01*
X9956000Y-8509000D02*
G75*
G02*
X9856000Y-8509000I-50000J0D01*
G01*
X9856000Y-8509000D02*
G75*
G02*
X9956000Y-8509000I50000J0D01*
G01*
X10210000Y-5461000D02*
G75*
G02*
X10110000Y-5461000I-50000J0D01*
G01*
X10110000Y-5461000D02*
G75*
G02*
X10210000Y-5461000I50000J0D01*
G01*
X10210000Y-5715000D02*
G75*
G02*
X10110000Y-5715000I-50000J0D01*
G01*
X10110000Y-5715000D02*
G75*
G02*
X10210000Y-5715000I50000J0D01*
G01*
X10210000Y-5969000D02*
G75*
G02*
X10110000Y-5969000I-50000J0D01*
G01*
X10110000Y-5969000D02*
G75*
G02*
X10210000Y-5969000I50000J0D01*
G01*
X10210000Y-6223000D02*
G75*
G02*
X10110000Y-6223000I-50000J0D01*
G01*
X10110000Y-6223000D02*
G75*
G02*
X10210000Y-6223000I50000J0D01*
G01*
X10210000Y-6477000D02*
G75*
G02*
X10110000Y-6477000I-50000J0D01*
G01*
X10110000Y-6477000D02*
G75*
G02*
X10210000Y-6477000I50000J0D01*
G01*
X10210000Y-6731000D02*
G75*
G02*
X10110000Y-6731000I-50000J0D01*
G01*
X10110000Y-6731000D02*
G75*
G02*
X10210000Y-6731000I50000J0D01*
G01*
X10210000Y-6985000D02*
G75*
G02*
X10110000Y-6985000I-50000J0D01*
G01*
X10110000Y-6985000D02*
G75*
G02*
X10210000Y-6985000I50000J0D01*
G01*
X10210000Y-7239000D02*
G75*
G02*
X10110000Y-7239000I-50000J0D01*
G01*
X10110000Y-7239000D02*
G75*
G02*
X10210000Y-7239000I50000J0D01*
G01*
X10210000Y-7493000D02*
G75*
G02*
X10110000Y-7493000I-50000J0D01*
G01*
X10110000Y-7493000D02*
G75*
G02*
X10210000Y-7493000I50000J0D01*
G01*
X10210000Y-7747000D02*
G75*
G02*
X10110000Y-7747000I-50000J0D01*
G01*
X10110000Y-7747000D02*
G75*
G02*
X10210000Y-7747000I50000J0D01*
G01*
X10210000Y-8001000D02*
G75*
G02*
X10110000Y-8001000I-50000J0D01*
G01*
X10110000Y-8001000D02*
G75*
G02*
X10210000Y-8001000I50000J0D01*
G01*
X10210000Y-8255000D02*
G75*
G02*
X10110000Y-8255000I-50000J0D01*
G01*
X10110000Y-8255000D02*
G75*
G02*
X10210000Y-8255000I50000J0D01*
G01*
X10210000Y-8509000D02*
G75*
G02*
X10110000Y-8509000I-50000J0D01*
G01*
X10110000Y-8509000D02*
G75*
G02*
X10210000Y-8509000I50000J0D01*
G01*
X11162500Y-3429000D02*
G75*
G02*
X11062500Y-3429000I-50000J0D01*
G01*
X11062500Y-3429000D02*
G75*
G02*
X11162500Y-3429000I50000J0D01*
G01*
X11162500Y-3683000D02*
G75*
G02*
X11062500Y-3683000I-50000J0D01*
G01*
X11062500Y-3683000D02*
G75*
G02*
X11162500Y-3683000I50000J0D01*
G01*
X11162500Y-3937000D02*
G75*
G02*
X11062500Y-3937000I-50000J0D01*
G01*
X11062500Y-3937000D02*
G75*
G02*
X11162500Y-3937000I50000J0D01*
G01*
X11162500Y-4191000D02*
G75*
G02*
X11062500Y-4191000I-50000J0D01*
G01*
X11062500Y-4191000D02*
G75*
G02*
X11162500Y-4191000I50000J0D01*
G01*
D12*
X3556000Y-2083000D02*
X3556000Y-2235000D01*
X3480000Y-2159000D02*
X3632000Y-2159000D01*
X4064000Y-2083000D02*
X4064000Y-2235000D01*
X3988000Y-2159000D02*
X4140000Y-2159000D01*
X5460279Y-2083000D02*
X5460279Y-2235000D01*
X5384279Y-2159000D02*
X5536279Y-2159000D01*
X5968279Y-2083000D02*
X5968279Y-2235000D01*
X5892279Y-2159000D02*
X6044279Y-2159000D01*
X7238279Y-2083000D02*
X7238279Y-2235000D01*
X7162279Y-2159000D02*
X7314279Y-2159000D01*
X7746279Y-2083000D02*
X7746279Y-2235000D01*
X7670279Y-2159000D02*
X7822279Y-2159000D01*
X9144000Y-2083000D02*
X9144000Y-2235000D01*
X9068000Y-2159000D02*
X9220000Y-2159000D01*
X9652000Y-2083000D02*
X9652000Y-2235000D01*
X9576000Y-2159000D02*
X9728000Y-2159000D01*
D13*
X2162138Y-2162138D02*
X2162138Y-1935862D01*
X1935862Y-1935862D01*
X1935862Y-2162138D01*
X2162138Y-2162138D01*
X2162138Y-8612138D02*
X2162138Y-8385862D01*
X1935862Y-8385862D01*
X1935862Y-8612138D01*
X2162138Y-8612138D01*
X11112138Y-2162138D02*
X11112138Y-1935862D01*
X10885862Y-1935862D01*
X10885862Y-2162138D01*
X11112138Y-2162138D01*
X11112138Y-8612138D02*
X11112138Y-8385862D01*
X10885862Y-8385862D01*
X10885862Y-8612138D01*
X11112138Y-8612138D01*
D10*
X1774777Y-9345484D02*
X1774777Y-9145484D01*
X1774777Y-9145484D02*
X1822396Y-9145484D01*
X1822396Y-9145484D02*
X1850967Y-9155008D01*
X1850967Y-9155008D02*
X1870015Y-9174055D01*
X1870015Y-9174055D02*
X1879539Y-9193103D01*
X1879539Y-9193103D02*
X1889062Y-9231198D01*
X1889062Y-9231198D02*
X1889062Y-9259770D01*
X1889062Y-9259770D02*
X1879539Y-9297865D01*
X1879539Y-9297865D02*
X1870015Y-9316912D01*
X1870015Y-9316912D02*
X1850967Y-9335960D01*
X1850967Y-9335960D02*
X1822396Y-9345484D01*
X1822396Y-9345484D02*
X1774777Y-9345484D01*
X1974777Y-9345484D02*
X1974777Y-9212150D01*
X1974777Y-9250246D02*
X1984301Y-9231198D01*
X1984301Y-9231198D02*
X1993824Y-9221674D01*
X1993824Y-9221674D02*
X2012872Y-9212150D01*
X2012872Y-9212150D02*
X2031920Y-9212150D01*
X2098586Y-9345484D02*
X2098586Y-9212150D01*
X2098586Y-9145484D02*
X2089062Y-9155008D01*
X2089062Y-9155008D02*
X2098586Y-9164531D01*
X2098586Y-9164531D02*
X2108110Y-9155008D01*
X2108110Y-9155008D02*
X2098586Y-9145484D01*
X2098586Y-9145484D02*
X2098586Y-9164531D01*
X2222396Y-9345484D02*
X2203348Y-9335960D01*
X2203348Y-9335960D02*
X2193824Y-9316912D01*
X2193824Y-9316912D02*
X2193824Y-9145484D01*
X2327158Y-9345484D02*
X2308110Y-9335960D01*
X2308110Y-9335960D02*
X2298586Y-9316912D01*
X2298586Y-9316912D02*
X2298586Y-9145484D01*
X2555729Y-9345484D02*
X2555729Y-9145484D01*
X2555729Y-9145484D02*
X2622396Y-9288341D01*
X2622396Y-9288341D02*
X2689063Y-9145484D01*
X2689063Y-9145484D02*
X2689063Y-9345484D01*
X2870015Y-9345484D02*
X2870015Y-9240722D01*
X2870015Y-9240722D02*
X2860491Y-9221674D01*
X2860491Y-9221674D02*
X2841443Y-9212150D01*
X2841443Y-9212150D02*
X2803348Y-9212150D01*
X2803348Y-9212150D02*
X2784301Y-9221674D01*
X2870015Y-9335960D02*
X2850967Y-9345484D01*
X2850967Y-9345484D02*
X2803348Y-9345484D01*
X2803348Y-9345484D02*
X2784301Y-9335960D01*
X2784301Y-9335960D02*
X2774777Y-9316912D01*
X2774777Y-9316912D02*
X2774777Y-9297865D01*
X2774777Y-9297865D02*
X2784301Y-9278817D01*
X2784301Y-9278817D02*
X2803348Y-9269293D01*
X2803348Y-9269293D02*
X2850967Y-9269293D01*
X2850967Y-9269293D02*
X2870015Y-9259770D01*
X2965253Y-9212150D02*
X2965253Y-9412150D01*
X2965253Y-9221674D02*
X2984301Y-9212150D01*
X2984301Y-9212150D02*
X3022396Y-9212150D01*
X3022396Y-9212150D02*
X3041443Y-9221674D01*
X3041443Y-9221674D02*
X3050967Y-9231198D01*
X3050967Y-9231198D02*
X3060491Y-9250246D01*
X3060491Y-9250246D02*
X3060491Y-9307389D01*
X3060491Y-9307389D02*
X3050967Y-9326436D01*
X3050967Y-9326436D02*
X3041443Y-9335960D01*
X3041443Y-9335960D02*
X3022396Y-9345484D01*
X3022396Y-9345484D02*
X2984301Y-9345484D01*
X2984301Y-9345484D02*
X2965253Y-9335960D01*
X3146205Y-9326436D02*
X3155729Y-9335960D01*
X3155729Y-9335960D02*
X3146205Y-9345484D01*
X3146205Y-9345484D02*
X3136682Y-9335960D01*
X3136682Y-9335960D02*
X3146205Y-9326436D01*
X3146205Y-9326436D02*
X3146205Y-9345484D01*
X3146205Y-9221674D02*
X3155729Y-9231198D01*
X3155729Y-9231198D02*
X3146205Y-9240722D01*
X3146205Y-9240722D02*
X3136682Y-9231198D01*
X3136682Y-9231198D02*
X3146205Y-9221674D01*
X3146205Y-9221674D02*
X3146205Y-9240722D01*
D11*
X1484000Y-9659000D02*
X1514000Y-9689000D01*
X1514000Y-9659000D02*
X1484000Y-9689000D01*
D10*
X1812872Y-9565484D02*
X1831920Y-9565484D01*
X1831920Y-9565484D02*
X1850967Y-9575008D01*
X1850967Y-9575008D02*
X1860491Y-9584531D01*
X1860491Y-9584531D02*
X1870015Y-9603579D01*
X1870015Y-9603579D02*
X1879539Y-9641674D01*
X1879539Y-9641674D02*
X1879539Y-9689293D01*
X1879539Y-9689293D02*
X1870015Y-9727389D01*
X1870015Y-9727389D02*
X1860491Y-9746436D01*
X1860491Y-9746436D02*
X1850967Y-9755960D01*
X1850967Y-9755960D02*
X1831920Y-9765484D01*
X1831920Y-9765484D02*
X1812872Y-9765484D01*
X1812872Y-9765484D02*
X1793824Y-9755960D01*
X1793824Y-9755960D02*
X1784301Y-9746436D01*
X1784301Y-9746436D02*
X1774777Y-9727389D01*
X1774777Y-9727389D02*
X1765253Y-9689293D01*
X1765253Y-9689293D02*
X1765253Y-9641674D01*
X1765253Y-9641674D02*
X1774777Y-9603579D01*
X1774777Y-9603579D02*
X1784301Y-9584531D01*
X1784301Y-9584531D02*
X1793824Y-9575008D01*
X1793824Y-9575008D02*
X1812872Y-9565484D01*
X1965253Y-9746436D02*
X1974777Y-9755960D01*
X1974777Y-9755960D02*
X1965253Y-9765484D01*
X1965253Y-9765484D02*
X1955729Y-9755960D01*
X1955729Y-9755960D02*
X1965253Y-9746436D01*
X1965253Y-9746436D02*
X1965253Y-9765484D01*
X2041443Y-9565484D02*
X2165253Y-9565484D01*
X2165253Y-9565484D02*
X2098586Y-9641674D01*
X2098586Y-9641674D02*
X2127158Y-9641674D01*
X2127158Y-9641674D02*
X2146205Y-9651198D01*
X2146205Y-9651198D02*
X2155729Y-9660722D01*
X2155729Y-9660722D02*
X2165253Y-9679770D01*
X2165253Y-9679770D02*
X2165253Y-9727389D01*
X2165253Y-9727389D02*
X2155729Y-9746436D01*
X2155729Y-9746436D02*
X2146205Y-9755960D01*
X2146205Y-9755960D02*
X2127158Y-9765484D01*
X2127158Y-9765484D02*
X2070015Y-9765484D01*
X2070015Y-9765484D02*
X2050967Y-9755960D01*
X2050967Y-9755960D02*
X2041443Y-9746436D01*
X2289063Y-9565484D02*
X2308110Y-9565484D01*
X2308110Y-9565484D02*
X2327158Y-9575008D01*
X2327158Y-9575008D02*
X2336682Y-9584531D01*
X2336682Y-9584531D02*
X2346205Y-9603579D01*
X2346205Y-9603579D02*
X2355729Y-9641674D01*
X2355729Y-9641674D02*
X2355729Y-9689293D01*
X2355729Y-9689293D02*
X2346205Y-9727389D01*
X2346205Y-9727389D02*
X2336682Y-9746436D01*
X2336682Y-9746436D02*
X2327158Y-9755960D01*
X2327158Y-9755960D02*
X2308110Y-9765484D01*
X2308110Y-9765484D02*
X2289063Y-9765484D01*
X2289063Y-9765484D02*
X2270015Y-9755960D01*
X2270015Y-9755960D02*
X2260491Y-9746436D01*
X2260491Y-9746436D02*
X2250967Y-9727389D01*
X2250967Y-9727389D02*
X2241444Y-9689293D01*
X2241444Y-9689293D02*
X2241444Y-9641674D01*
X2241444Y-9641674D02*
X2250967Y-9603579D01*
X2250967Y-9603579D02*
X2260491Y-9584531D01*
X2260491Y-9584531D02*
X2270015Y-9575008D01*
X2270015Y-9575008D02*
X2289063Y-9565484D01*
X2479539Y-9565484D02*
X2498586Y-9565484D01*
X2498586Y-9565484D02*
X2517634Y-9575008D01*
X2517634Y-9575008D02*
X2527158Y-9584531D01*
X2527158Y-9584531D02*
X2536682Y-9603579D01*
X2536682Y-9603579D02*
X2546205Y-9641674D01*
X2546205Y-9641674D02*
X2546205Y-9689293D01*
X2546205Y-9689293D02*
X2536682Y-9727389D01*
X2536682Y-9727389D02*
X2527158Y-9746436D01*
X2527158Y-9746436D02*
X2517634Y-9755960D01*
X2517634Y-9755960D02*
X2498586Y-9765484D01*
X2498586Y-9765484D02*
X2479539Y-9765484D01*
X2479539Y-9765484D02*
X2460491Y-9755960D01*
X2460491Y-9755960D02*
X2450967Y-9746436D01*
X2450967Y-9746436D02*
X2441444Y-9727389D01*
X2441444Y-9727389D02*
X2431920Y-9689293D01*
X2431920Y-9689293D02*
X2431920Y-9641674D01*
X2431920Y-9641674D02*
X2441444Y-9603579D01*
X2441444Y-9603579D02*
X2450967Y-9584531D01*
X2450967Y-9584531D02*
X2460491Y-9575008D01*
X2460491Y-9575008D02*
X2479539Y-9565484D01*
X2631920Y-9765484D02*
X2631920Y-9632150D01*
X2631920Y-9651198D02*
X2641444Y-9641674D01*
X2641444Y-9641674D02*
X2660491Y-9632150D01*
X2660491Y-9632150D02*
X2689063Y-9632150D01*
X2689063Y-9632150D02*
X2708110Y-9641674D01*
X2708110Y-9641674D02*
X2717634Y-9660722D01*
X2717634Y-9660722D02*
X2717634Y-9765484D01*
X2717634Y-9660722D02*
X2727158Y-9641674D01*
X2727158Y-9641674D02*
X2746205Y-9632150D01*
X2746205Y-9632150D02*
X2774777Y-9632150D01*
X2774777Y-9632150D02*
X2793825Y-9641674D01*
X2793825Y-9641674D02*
X2803348Y-9660722D01*
X2803348Y-9660722D02*
X2803348Y-9765484D01*
X2898586Y-9765484D02*
X2898586Y-9632150D01*
X2898586Y-9651198D02*
X2908110Y-9641674D01*
X2908110Y-9641674D02*
X2927158Y-9632150D01*
X2927158Y-9632150D02*
X2955729Y-9632150D01*
X2955729Y-9632150D02*
X2974777Y-9641674D01*
X2974777Y-9641674D02*
X2984301Y-9660722D01*
X2984301Y-9660722D02*
X2984301Y-9765484D01*
X2984301Y-9660722D02*
X2993824Y-9641674D01*
X2993824Y-9641674D02*
X3012872Y-9632150D01*
X3012872Y-9632150D02*
X3041443Y-9632150D01*
X3041443Y-9632150D02*
X3060491Y-9641674D01*
X3060491Y-9641674D02*
X3070015Y-9660722D01*
X3070015Y-9660722D02*
X3070015Y-9765484D01*
X3460491Y-9555960D02*
X3289063Y-9813103D01*
X3717634Y-9565484D02*
X3736682Y-9565484D01*
X3736682Y-9565484D02*
X3755729Y-9575008D01*
X3755729Y-9575008D02*
X3765253Y-9584531D01*
X3765253Y-9584531D02*
X3774777Y-9603579D01*
X3774777Y-9603579D02*
X3784301Y-9641674D01*
X3784301Y-9641674D02*
X3784301Y-9689293D01*
X3784301Y-9689293D02*
X3774777Y-9727389D01*
X3774777Y-9727389D02*
X3765253Y-9746436D01*
X3765253Y-9746436D02*
X3755729Y-9755960D01*
X3755729Y-9755960D02*
X3736682Y-9765484D01*
X3736682Y-9765484D02*
X3717634Y-9765484D01*
X3717634Y-9765484D02*
X3698586Y-9755960D01*
X3698586Y-9755960D02*
X3689063Y-9746436D01*
X3689063Y-9746436D02*
X3679539Y-9727389D01*
X3679539Y-9727389D02*
X3670015Y-9689293D01*
X3670015Y-9689293D02*
X3670015Y-9641674D01*
X3670015Y-9641674D02*
X3679539Y-9603579D01*
X3679539Y-9603579D02*
X3689063Y-9584531D01*
X3689063Y-9584531D02*
X3698586Y-9575008D01*
X3698586Y-9575008D02*
X3717634Y-9565484D01*
X3870015Y-9746436D02*
X3879539Y-9755960D01*
X3879539Y-9755960D02*
X3870015Y-9765484D01*
X3870015Y-9765484D02*
X3860491Y-9755960D01*
X3860491Y-9755960D02*
X3870015Y-9746436D01*
X3870015Y-9746436D02*
X3870015Y-9765484D01*
X4003348Y-9565484D02*
X4022396Y-9565484D01*
X4022396Y-9565484D02*
X4041444Y-9575008D01*
X4041444Y-9575008D02*
X4050967Y-9584531D01*
X4050967Y-9584531D02*
X4060491Y-9603579D01*
X4060491Y-9603579D02*
X4070015Y-9641674D01*
X4070015Y-9641674D02*
X4070015Y-9689293D01*
X4070015Y-9689293D02*
X4060491Y-9727389D01*
X4060491Y-9727389D02*
X4050967Y-9746436D01*
X4050967Y-9746436D02*
X4041444Y-9755960D01*
X4041444Y-9755960D02*
X4022396Y-9765484D01*
X4022396Y-9765484D02*
X4003348Y-9765484D01*
X4003348Y-9765484D02*
X3984301Y-9755960D01*
X3984301Y-9755960D02*
X3974777Y-9746436D01*
X3974777Y-9746436D02*
X3965253Y-9727389D01*
X3965253Y-9727389D02*
X3955729Y-9689293D01*
X3955729Y-9689293D02*
X3955729Y-9641674D01*
X3955729Y-9641674D02*
X3965253Y-9603579D01*
X3965253Y-9603579D02*
X3974777Y-9584531D01*
X3974777Y-9584531D02*
X3984301Y-9575008D01*
X3984301Y-9575008D02*
X4003348Y-9565484D01*
X4260491Y-9765484D02*
X4146206Y-9765484D01*
X4203348Y-9765484D02*
X4203348Y-9565484D01*
X4203348Y-9565484D02*
X4184301Y-9594055D01*
X4184301Y-9594055D02*
X4165253Y-9613103D01*
X4165253Y-9613103D02*
X4146206Y-9622627D01*
X4450968Y-9765484D02*
X4336682Y-9765484D01*
X4393825Y-9765484D02*
X4393825Y-9565484D01*
X4393825Y-9565484D02*
X4374777Y-9594055D01*
X4374777Y-9594055D02*
X4355729Y-9613103D01*
X4355729Y-9613103D02*
X4336682Y-9622627D01*
X4565253Y-9651198D02*
X4546206Y-9641674D01*
X4546206Y-9641674D02*
X4536682Y-9632150D01*
X4536682Y-9632150D02*
X4527158Y-9613103D01*
X4527158Y-9613103D02*
X4527158Y-9603579D01*
X4527158Y-9603579D02*
X4536682Y-9584531D01*
X4536682Y-9584531D02*
X4546206Y-9575008D01*
X4546206Y-9575008D02*
X4565253Y-9565484D01*
X4565253Y-9565484D02*
X4603349Y-9565484D01*
X4603349Y-9565484D02*
X4622396Y-9575008D01*
X4622396Y-9575008D02*
X4631920Y-9584531D01*
X4631920Y-9584531D02*
X4641444Y-9603579D01*
X4641444Y-9603579D02*
X4641444Y-9613103D01*
X4641444Y-9613103D02*
X4631920Y-9632150D01*
X4631920Y-9632150D02*
X4622396Y-9641674D01*
X4622396Y-9641674D02*
X4603349Y-9651198D01*
X4603349Y-9651198D02*
X4565253Y-9651198D01*
X4565253Y-9651198D02*
X4546206Y-9660722D01*
X4546206Y-9660722D02*
X4536682Y-9670246D01*
X4536682Y-9670246D02*
X4527158Y-9689293D01*
X4527158Y-9689293D02*
X4527158Y-9727389D01*
X4527158Y-9727389D02*
X4536682Y-9746436D01*
X4536682Y-9746436D02*
X4546206Y-9755960D01*
X4546206Y-9755960D02*
X4565253Y-9765484D01*
X4565253Y-9765484D02*
X4603349Y-9765484D01*
X4603349Y-9765484D02*
X4622396Y-9755960D01*
X4622396Y-9755960D02*
X4631920Y-9746436D01*
X4631920Y-9746436D02*
X4641444Y-9727389D01*
X4641444Y-9727389D02*
X4641444Y-9689293D01*
X4641444Y-9689293D02*
X4631920Y-9670246D01*
X4631920Y-9670246D02*
X4622396Y-9660722D01*
X4622396Y-9660722D02*
X4603349Y-9651198D01*
X4717634Y-9565484D02*
X4717634Y-9603579D01*
X4793825Y-9565484D02*
X4793825Y-9603579D01*
X5089063Y-9841674D02*
X5079539Y-9832150D01*
X5079539Y-9832150D02*
X5060491Y-9803579D01*
X5060491Y-9803579D02*
X5050968Y-9784531D01*
X5050968Y-9784531D02*
X5041444Y-9755960D01*
X5041444Y-9755960D02*
X5031920Y-9708341D01*
X5031920Y-9708341D02*
X5031920Y-9670246D01*
X5031920Y-9670246D02*
X5041444Y-9622627D01*
X5041444Y-9622627D02*
X5050968Y-9594055D01*
X5050968Y-9594055D02*
X5060491Y-9575008D01*
X5060491Y-9575008D02*
X5079539Y-9546436D01*
X5079539Y-9546436D02*
X5089063Y-9536912D01*
X5146206Y-9565484D02*
X5270015Y-9565484D01*
X5270015Y-9565484D02*
X5203349Y-9641674D01*
X5203349Y-9641674D02*
X5231920Y-9641674D01*
X5231920Y-9641674D02*
X5250968Y-9651198D01*
X5250968Y-9651198D02*
X5260491Y-9660722D01*
X5260491Y-9660722D02*
X5270015Y-9679770D01*
X5270015Y-9679770D02*
X5270015Y-9727389D01*
X5270015Y-9727389D02*
X5260491Y-9746436D01*
X5260491Y-9746436D02*
X5250968Y-9755960D01*
X5250968Y-9755960D02*
X5231920Y-9765484D01*
X5231920Y-9765484D02*
X5174777Y-9765484D01*
X5174777Y-9765484D02*
X5155730Y-9755960D01*
X5155730Y-9755960D02*
X5146206Y-9746436D01*
X5393825Y-9565484D02*
X5412872Y-9565484D01*
X5412872Y-9565484D02*
X5431920Y-9575008D01*
X5431920Y-9575008D02*
X5441444Y-9584531D01*
X5441444Y-9584531D02*
X5450968Y-9603579D01*
X5450968Y-9603579D02*
X5460491Y-9641674D01*
X5460491Y-9641674D02*
X5460491Y-9689293D01*
X5460491Y-9689293D02*
X5450968Y-9727389D01*
X5450968Y-9727389D02*
X5441444Y-9746436D01*
X5441444Y-9746436D02*
X5431920Y-9755960D01*
X5431920Y-9755960D02*
X5412872Y-9765484D01*
X5412872Y-9765484D02*
X5393825Y-9765484D01*
X5393825Y-9765484D02*
X5374777Y-9755960D01*
X5374777Y-9755960D02*
X5365253Y-9746436D01*
X5365253Y-9746436D02*
X5355730Y-9727389D01*
X5355730Y-9727389D02*
X5346206Y-9689293D01*
X5346206Y-9689293D02*
X5346206Y-9641674D01*
X5346206Y-9641674D02*
X5355730Y-9603579D01*
X5355730Y-9603579D02*
X5365253Y-9584531D01*
X5365253Y-9584531D02*
X5374777Y-9575008D01*
X5374777Y-9575008D02*
X5393825Y-9565484D01*
X5698587Y-9765484D02*
X5698587Y-9565484D01*
X5784301Y-9765484D02*
X5784301Y-9660722D01*
X5784301Y-9660722D02*
X5774777Y-9641674D01*
X5774777Y-9641674D02*
X5755730Y-9632150D01*
X5755730Y-9632150D02*
X5727158Y-9632150D01*
X5727158Y-9632150D02*
X5708110Y-9641674D01*
X5708110Y-9641674D02*
X5698587Y-9651198D01*
X5908110Y-9765484D02*
X5889063Y-9755960D01*
X5889063Y-9755960D02*
X5879539Y-9746436D01*
X5879539Y-9746436D02*
X5870015Y-9727389D01*
X5870015Y-9727389D02*
X5870015Y-9670246D01*
X5870015Y-9670246D02*
X5879539Y-9651198D01*
X5879539Y-9651198D02*
X5889063Y-9641674D01*
X5889063Y-9641674D02*
X5908110Y-9632150D01*
X5908110Y-9632150D02*
X5936682Y-9632150D01*
X5936682Y-9632150D02*
X5955730Y-9641674D01*
X5955730Y-9641674D02*
X5965253Y-9651198D01*
X5965253Y-9651198D02*
X5974777Y-9670246D01*
X5974777Y-9670246D02*
X5974777Y-9727389D01*
X5974777Y-9727389D02*
X5965253Y-9746436D01*
X5965253Y-9746436D02*
X5955730Y-9755960D01*
X5955730Y-9755960D02*
X5936682Y-9765484D01*
X5936682Y-9765484D02*
X5908110Y-9765484D01*
X6089063Y-9765484D02*
X6070015Y-9755960D01*
X6070015Y-9755960D02*
X6060491Y-9736912D01*
X6060491Y-9736912D02*
X6060491Y-9565484D01*
X6241444Y-9755960D02*
X6222396Y-9765484D01*
X6222396Y-9765484D02*
X6184301Y-9765484D01*
X6184301Y-9765484D02*
X6165253Y-9755960D01*
X6165253Y-9755960D02*
X6155730Y-9736912D01*
X6155730Y-9736912D02*
X6155730Y-9660722D01*
X6155730Y-9660722D02*
X6165253Y-9641674D01*
X6165253Y-9641674D02*
X6184301Y-9632150D01*
X6184301Y-9632150D02*
X6222396Y-9632150D01*
X6222396Y-9632150D02*
X6241444Y-9641674D01*
X6241444Y-9641674D02*
X6250968Y-9660722D01*
X6250968Y-9660722D02*
X6250968Y-9679770D01*
X6250968Y-9679770D02*
X6155730Y-9698817D01*
X6327158Y-9755960D02*
X6346206Y-9765484D01*
X6346206Y-9765484D02*
X6384301Y-9765484D01*
X6384301Y-9765484D02*
X6403349Y-9755960D01*
X6403349Y-9755960D02*
X6412872Y-9736912D01*
X6412872Y-9736912D02*
X6412872Y-9727389D01*
X6412872Y-9727389D02*
X6403349Y-9708341D01*
X6403349Y-9708341D02*
X6384301Y-9698817D01*
X6384301Y-9698817D02*
X6355730Y-9698817D01*
X6355730Y-9698817D02*
X6336682Y-9689293D01*
X6336682Y-9689293D02*
X6327158Y-9670246D01*
X6327158Y-9670246D02*
X6327158Y-9660722D01*
X6327158Y-9660722D02*
X6336682Y-9641674D01*
X6336682Y-9641674D02*
X6355730Y-9632150D01*
X6355730Y-9632150D02*
X6384301Y-9632150D01*
X6384301Y-9632150D02*
X6403349Y-9641674D01*
X6479539Y-9841674D02*
X6489063Y-9832150D01*
X6489063Y-9832150D02*
X6508111Y-9803579D01*
X6508111Y-9803579D02*
X6517634Y-9784531D01*
X6517634Y-9784531D02*
X6527158Y-9755960D01*
X6527158Y-9755960D02*
X6536682Y-9708341D01*
X6536682Y-9708341D02*
X6536682Y-9670246D01*
X6536682Y-9670246D02*
X6527158Y-9622627D01*
X6527158Y-9622627D02*
X6517634Y-9594055D01*
X6517634Y-9594055D02*
X6508111Y-9575008D01*
X6508111Y-9575008D02*
X6489063Y-9546436D01*
X6489063Y-9546436D02*
X6479539Y-9536912D01*
D11*
X1514000Y-9938000D02*
G75*
G02*
X1414000Y-9938000I-50000J0D01*
G01*
X1414000Y-9938000D02*
G75*
G02*
X1514000Y-9938000I50000J0D01*
G01*
D10*
X1879539Y-10029484D02*
X1765253Y-10029484D01*
X1822396Y-10029484D02*
X1822396Y-9829484D01*
X1822396Y-9829484D02*
X1803348Y-9858055D01*
X1803348Y-9858055D02*
X1784301Y-9877103D01*
X1784301Y-9877103D02*
X1765253Y-9886627D01*
X1965253Y-10010436D02*
X1974777Y-10019960D01*
X1974777Y-10019960D02*
X1965253Y-10029484D01*
X1965253Y-10029484D02*
X1955729Y-10019960D01*
X1955729Y-10019960D02*
X1965253Y-10010436D01*
X1965253Y-10010436D02*
X1965253Y-10029484D01*
X2098586Y-9829484D02*
X2117634Y-9829484D01*
X2117634Y-9829484D02*
X2136682Y-9839008D01*
X2136682Y-9839008D02*
X2146205Y-9848531D01*
X2146205Y-9848531D02*
X2155729Y-9867579D01*
X2155729Y-9867579D02*
X2165253Y-9905674D01*
X2165253Y-9905674D02*
X2165253Y-9953293D01*
X2165253Y-9953293D02*
X2155729Y-9991389D01*
X2155729Y-9991389D02*
X2146205Y-10010436D01*
X2146205Y-10010436D02*
X2136682Y-10019960D01*
X2136682Y-10019960D02*
X2117634Y-10029484D01*
X2117634Y-10029484D02*
X2098586Y-10029484D01*
X2098586Y-10029484D02*
X2079539Y-10019960D01*
X2079539Y-10019960D02*
X2070015Y-10010436D01*
X2070015Y-10010436D02*
X2060491Y-9991389D01*
X2060491Y-9991389D02*
X2050967Y-9953293D01*
X2050967Y-9953293D02*
X2050967Y-9905674D01*
X2050967Y-9905674D02*
X2060491Y-9867579D01*
X2060491Y-9867579D02*
X2070015Y-9848531D01*
X2070015Y-9848531D02*
X2079539Y-9839008D01*
X2079539Y-9839008D02*
X2098586Y-9829484D01*
X2289063Y-9829484D02*
X2308110Y-9829484D01*
X2308110Y-9829484D02*
X2327158Y-9839008D01*
X2327158Y-9839008D02*
X2336682Y-9848531D01*
X2336682Y-9848531D02*
X2346205Y-9867579D01*
X2346205Y-9867579D02*
X2355729Y-9905674D01*
X2355729Y-9905674D02*
X2355729Y-9953293D01*
X2355729Y-9953293D02*
X2346205Y-9991389D01*
X2346205Y-9991389D02*
X2336682Y-10010436D01*
X2336682Y-10010436D02*
X2327158Y-10019960D01*
X2327158Y-10019960D02*
X2308110Y-10029484D01*
X2308110Y-10029484D02*
X2289063Y-10029484D01*
X2289063Y-10029484D02*
X2270015Y-10019960D01*
X2270015Y-10019960D02*
X2260491Y-10010436D01*
X2260491Y-10010436D02*
X2250967Y-9991389D01*
X2250967Y-9991389D02*
X2241444Y-9953293D01*
X2241444Y-9953293D02*
X2241444Y-9905674D01*
X2241444Y-9905674D02*
X2250967Y-9867579D01*
X2250967Y-9867579D02*
X2260491Y-9848531D01*
X2260491Y-9848531D02*
X2270015Y-9839008D01*
X2270015Y-9839008D02*
X2289063Y-9829484D01*
X2479539Y-9829484D02*
X2498586Y-9829484D01*
X2498586Y-9829484D02*
X2517634Y-9839008D01*
X2517634Y-9839008D02*
X2527158Y-9848531D01*
X2527158Y-9848531D02*
X2536682Y-9867579D01*
X2536682Y-9867579D02*
X2546205Y-9905674D01*
X2546205Y-9905674D02*
X2546205Y-9953293D01*
X2546205Y-9953293D02*
X2536682Y-9991389D01*
X2536682Y-9991389D02*
X2527158Y-10010436D01*
X2527158Y-10010436D02*
X2517634Y-10019960D01*
X2517634Y-10019960D02*
X2498586Y-10029484D01*
X2498586Y-10029484D02*
X2479539Y-10029484D01*
X2479539Y-10029484D02*
X2460491Y-10019960D01*
X2460491Y-10019960D02*
X2450967Y-10010436D01*
X2450967Y-10010436D02*
X2441444Y-9991389D01*
X2441444Y-9991389D02*
X2431920Y-9953293D01*
X2431920Y-9953293D02*
X2431920Y-9905674D01*
X2431920Y-9905674D02*
X2441444Y-9867579D01*
X2441444Y-9867579D02*
X2450967Y-9848531D01*
X2450967Y-9848531D02*
X2460491Y-9839008D01*
X2460491Y-9839008D02*
X2479539Y-9829484D01*
X2631920Y-10029484D02*
X2631920Y-9896150D01*
X2631920Y-9915198D02*
X2641444Y-9905674D01*
X2641444Y-9905674D02*
X2660491Y-9896150D01*
X2660491Y-9896150D02*
X2689063Y-9896150D01*
X2689063Y-9896150D02*
X2708110Y-9905674D01*
X2708110Y-9905674D02*
X2717634Y-9924722D01*
X2717634Y-9924722D02*
X2717634Y-10029484D01*
X2717634Y-9924722D02*
X2727158Y-9905674D01*
X2727158Y-9905674D02*
X2746205Y-9896150D01*
X2746205Y-9896150D02*
X2774777Y-9896150D01*
X2774777Y-9896150D02*
X2793825Y-9905674D01*
X2793825Y-9905674D02*
X2803348Y-9924722D01*
X2803348Y-9924722D02*
X2803348Y-10029484D01*
X2898586Y-10029484D02*
X2898586Y-9896150D01*
X2898586Y-9915198D02*
X2908110Y-9905674D01*
X2908110Y-9905674D02*
X2927158Y-9896150D01*
X2927158Y-9896150D02*
X2955729Y-9896150D01*
X2955729Y-9896150D02*
X2974777Y-9905674D01*
X2974777Y-9905674D02*
X2984301Y-9924722D01*
X2984301Y-9924722D02*
X2984301Y-10029484D01*
X2984301Y-9924722D02*
X2993824Y-9905674D01*
X2993824Y-9905674D02*
X3012872Y-9896150D01*
X3012872Y-9896150D02*
X3041443Y-9896150D01*
X3041443Y-9896150D02*
X3060491Y-9905674D01*
X3060491Y-9905674D02*
X3070015Y-9924722D01*
X3070015Y-9924722D02*
X3070015Y-10029484D01*
X3460491Y-9819960D02*
X3289063Y-10077103D01*
X3717634Y-9829484D02*
X3736682Y-9829484D01*
X3736682Y-9829484D02*
X3755729Y-9839008D01*
X3755729Y-9839008D02*
X3765253Y-9848531D01*
X3765253Y-9848531D02*
X3774777Y-9867579D01*
X3774777Y-9867579D02*
X3784301Y-9905674D01*
X3784301Y-9905674D02*
X3784301Y-9953293D01*
X3784301Y-9953293D02*
X3774777Y-9991389D01*
X3774777Y-9991389D02*
X3765253Y-10010436D01*
X3765253Y-10010436D02*
X3755729Y-10019960D01*
X3755729Y-10019960D02*
X3736682Y-10029484D01*
X3736682Y-10029484D02*
X3717634Y-10029484D01*
X3717634Y-10029484D02*
X3698586Y-10019960D01*
X3698586Y-10019960D02*
X3689063Y-10010436D01*
X3689063Y-10010436D02*
X3679539Y-9991389D01*
X3679539Y-9991389D02*
X3670015Y-9953293D01*
X3670015Y-9953293D02*
X3670015Y-9905674D01*
X3670015Y-9905674D02*
X3679539Y-9867579D01*
X3679539Y-9867579D02*
X3689063Y-9848531D01*
X3689063Y-9848531D02*
X3698586Y-9839008D01*
X3698586Y-9839008D02*
X3717634Y-9829484D01*
X3870015Y-10010436D02*
X3879539Y-10019960D01*
X3879539Y-10019960D02*
X3870015Y-10029484D01*
X3870015Y-10029484D02*
X3860491Y-10019960D01*
X3860491Y-10019960D02*
X3870015Y-10010436D01*
X3870015Y-10010436D02*
X3870015Y-10029484D01*
X4003348Y-9829484D02*
X4022396Y-9829484D01*
X4022396Y-9829484D02*
X4041444Y-9839008D01*
X4041444Y-9839008D02*
X4050967Y-9848531D01*
X4050967Y-9848531D02*
X4060491Y-9867579D01*
X4060491Y-9867579D02*
X4070015Y-9905674D01*
X4070015Y-9905674D02*
X4070015Y-9953293D01*
X4070015Y-9953293D02*
X4060491Y-9991389D01*
X4060491Y-9991389D02*
X4050967Y-10010436D01*
X4050967Y-10010436D02*
X4041444Y-10019960D01*
X4041444Y-10019960D02*
X4022396Y-10029484D01*
X4022396Y-10029484D02*
X4003348Y-10029484D01*
X4003348Y-10029484D02*
X3984301Y-10019960D01*
X3984301Y-10019960D02*
X3974777Y-10010436D01*
X3974777Y-10010436D02*
X3965253Y-9991389D01*
X3965253Y-9991389D02*
X3955729Y-9953293D01*
X3955729Y-9953293D02*
X3955729Y-9905674D01*
X3955729Y-9905674D02*
X3965253Y-9867579D01*
X3965253Y-9867579D02*
X3974777Y-9848531D01*
X3974777Y-9848531D02*
X3984301Y-9839008D01*
X3984301Y-9839008D02*
X4003348Y-9829484D01*
X4136682Y-9829484D02*
X4260491Y-9829484D01*
X4260491Y-9829484D02*
X4193825Y-9905674D01*
X4193825Y-9905674D02*
X4222396Y-9905674D01*
X4222396Y-9905674D02*
X4241444Y-9915198D01*
X4241444Y-9915198D02*
X4250968Y-9924722D01*
X4250968Y-9924722D02*
X4260491Y-9943770D01*
X4260491Y-9943770D02*
X4260491Y-9991389D01*
X4260491Y-9991389D02*
X4250968Y-10010436D01*
X4250968Y-10010436D02*
X4241444Y-10019960D01*
X4241444Y-10019960D02*
X4222396Y-10029484D01*
X4222396Y-10029484D02*
X4165253Y-10029484D01*
X4165253Y-10029484D02*
X4146206Y-10019960D01*
X4146206Y-10019960D02*
X4136682Y-10010436D01*
X4355729Y-10029484D02*
X4393825Y-10029484D01*
X4393825Y-10029484D02*
X4412872Y-10019960D01*
X4412872Y-10019960D02*
X4422396Y-10010436D01*
X4422396Y-10010436D02*
X4441444Y-9981865D01*
X4441444Y-9981865D02*
X4450968Y-9943770D01*
X4450968Y-9943770D02*
X4450968Y-9867579D01*
X4450968Y-9867579D02*
X4441444Y-9848531D01*
X4441444Y-9848531D02*
X4431920Y-9839008D01*
X4431920Y-9839008D02*
X4412872Y-9829484D01*
X4412872Y-9829484D02*
X4374777Y-9829484D01*
X4374777Y-9829484D02*
X4355729Y-9839008D01*
X4355729Y-9839008D02*
X4346206Y-9848531D01*
X4346206Y-9848531D02*
X4336682Y-9867579D01*
X4336682Y-9867579D02*
X4336682Y-9915198D01*
X4336682Y-9915198D02*
X4346206Y-9934246D01*
X4346206Y-9934246D02*
X4355729Y-9943770D01*
X4355729Y-9943770D02*
X4374777Y-9953293D01*
X4374777Y-9953293D02*
X4412872Y-9953293D01*
X4412872Y-9953293D02*
X4431920Y-9943770D01*
X4431920Y-9943770D02*
X4441444Y-9934246D01*
X4441444Y-9934246D02*
X4450968Y-9915198D01*
X4622396Y-9896150D02*
X4622396Y-10029484D01*
X4574777Y-9819960D02*
X4527158Y-9962817D01*
X4527158Y-9962817D02*
X4650968Y-9962817D01*
X4717634Y-9829484D02*
X4717634Y-9867579D01*
X4793825Y-9829484D02*
X4793825Y-9867579D01*
X5089063Y-10105674D02*
X5079539Y-10096150D01*
X5079539Y-10096150D02*
X5060491Y-10067579D01*
X5060491Y-10067579D02*
X5050968Y-10048531D01*
X5050968Y-10048531D02*
X5041444Y-10019960D01*
X5041444Y-10019960D02*
X5031920Y-9972341D01*
X5031920Y-9972341D02*
X5031920Y-9934246D01*
X5031920Y-9934246D02*
X5041444Y-9886627D01*
X5041444Y-9886627D02*
X5050968Y-9858055D01*
X5050968Y-9858055D02*
X5060491Y-9839008D01*
X5060491Y-9839008D02*
X5079539Y-9810436D01*
X5079539Y-9810436D02*
X5089063Y-9800912D01*
X5174777Y-10029484D02*
X5212872Y-10029484D01*
X5212872Y-10029484D02*
X5231920Y-10019960D01*
X5231920Y-10019960D02*
X5241444Y-10010436D01*
X5241444Y-10010436D02*
X5260491Y-9981865D01*
X5260491Y-9981865D02*
X5270015Y-9943770D01*
X5270015Y-9943770D02*
X5270015Y-9867579D01*
X5270015Y-9867579D02*
X5260491Y-9848531D01*
X5260491Y-9848531D02*
X5250968Y-9839008D01*
X5250968Y-9839008D02*
X5231920Y-9829484D01*
X5231920Y-9829484D02*
X5193825Y-9829484D01*
X5193825Y-9829484D02*
X5174777Y-9839008D01*
X5174777Y-9839008D02*
X5165253Y-9848531D01*
X5165253Y-9848531D02*
X5155730Y-9867579D01*
X5155730Y-9867579D02*
X5155730Y-9915198D01*
X5155730Y-9915198D02*
X5165253Y-9934246D01*
X5165253Y-9934246D02*
X5174777Y-9943770D01*
X5174777Y-9943770D02*
X5193825Y-9953293D01*
X5193825Y-9953293D02*
X5231920Y-9953293D01*
X5231920Y-9953293D02*
X5250968Y-9943770D01*
X5250968Y-9943770D02*
X5260491Y-9934246D01*
X5260491Y-9934246D02*
X5270015Y-9915198D01*
X5441444Y-9829484D02*
X5403349Y-9829484D01*
X5403349Y-9829484D02*
X5384301Y-9839008D01*
X5384301Y-9839008D02*
X5374777Y-9848531D01*
X5374777Y-9848531D02*
X5355730Y-9877103D01*
X5355730Y-9877103D02*
X5346206Y-9915198D01*
X5346206Y-9915198D02*
X5346206Y-9991389D01*
X5346206Y-9991389D02*
X5355730Y-10010436D01*
X5355730Y-10010436D02*
X5365253Y-10019960D01*
X5365253Y-10019960D02*
X5384301Y-10029484D01*
X5384301Y-10029484D02*
X5422396Y-10029484D01*
X5422396Y-10029484D02*
X5441444Y-10019960D01*
X5441444Y-10019960D02*
X5450968Y-10010436D01*
X5450968Y-10010436D02*
X5460491Y-9991389D01*
X5460491Y-9991389D02*
X5460491Y-9943770D01*
X5460491Y-9943770D02*
X5450968Y-9924722D01*
X5450968Y-9924722D02*
X5441444Y-9915198D01*
X5441444Y-9915198D02*
X5422396Y-9905674D01*
X5422396Y-9905674D02*
X5384301Y-9905674D01*
X5384301Y-9905674D02*
X5365253Y-9915198D01*
X5365253Y-9915198D02*
X5355730Y-9924722D01*
X5355730Y-9924722D02*
X5346206Y-9943770D01*
X5698587Y-10029484D02*
X5698587Y-9829484D01*
X5784301Y-10029484D02*
X5784301Y-9924722D01*
X5784301Y-9924722D02*
X5774777Y-9905674D01*
X5774777Y-9905674D02*
X5755730Y-9896150D01*
X5755730Y-9896150D02*
X5727158Y-9896150D01*
X5727158Y-9896150D02*
X5708110Y-9905674D01*
X5708110Y-9905674D02*
X5698587Y-9915198D01*
X5908110Y-10029484D02*
X5889063Y-10019960D01*
X5889063Y-10019960D02*
X5879539Y-10010436D01*
X5879539Y-10010436D02*
X5870015Y-9991389D01*
X5870015Y-9991389D02*
X5870015Y-9934246D01*
X5870015Y-9934246D02*
X5879539Y-9915198D01*
X5879539Y-9915198D02*
X5889063Y-9905674D01*
X5889063Y-9905674D02*
X5908110Y-9896150D01*
X5908110Y-9896150D02*
X5936682Y-9896150D01*
X5936682Y-9896150D02*
X5955730Y-9905674D01*
X5955730Y-9905674D02*
X5965253Y-9915198D01*
X5965253Y-9915198D02*
X5974777Y-9934246D01*
X5974777Y-9934246D02*
X5974777Y-9991389D01*
X5974777Y-9991389D02*
X5965253Y-10010436D01*
X5965253Y-10010436D02*
X5955730Y-10019960D01*
X5955730Y-10019960D02*
X5936682Y-10029484D01*
X5936682Y-10029484D02*
X5908110Y-10029484D01*
X6089063Y-10029484D02*
X6070015Y-10019960D01*
X6070015Y-10019960D02*
X6060491Y-10000912D01*
X6060491Y-10000912D02*
X6060491Y-9829484D01*
X6241444Y-10019960D02*
X6222396Y-10029484D01*
X6222396Y-10029484D02*
X6184301Y-10029484D01*
X6184301Y-10029484D02*
X6165253Y-10019960D01*
X6165253Y-10019960D02*
X6155730Y-10000912D01*
X6155730Y-10000912D02*
X6155730Y-9924722D01*
X6155730Y-9924722D02*
X6165253Y-9905674D01*
X6165253Y-9905674D02*
X6184301Y-9896150D01*
X6184301Y-9896150D02*
X6222396Y-9896150D01*
X6222396Y-9896150D02*
X6241444Y-9905674D01*
X6241444Y-9905674D02*
X6250968Y-9924722D01*
X6250968Y-9924722D02*
X6250968Y-9943770D01*
X6250968Y-9943770D02*
X6155730Y-9962817D01*
X6327158Y-10019960D02*
X6346206Y-10029484D01*
X6346206Y-10029484D02*
X6384301Y-10029484D01*
X6384301Y-10029484D02*
X6403349Y-10019960D01*
X6403349Y-10019960D02*
X6412872Y-10000912D01*
X6412872Y-10000912D02*
X6412872Y-9991389D01*
X6412872Y-9991389D02*
X6403349Y-9972341D01*
X6403349Y-9972341D02*
X6384301Y-9962817D01*
X6384301Y-9962817D02*
X6355730Y-9962817D01*
X6355730Y-9962817D02*
X6336682Y-9953293D01*
X6336682Y-9953293D02*
X6327158Y-9934246D01*
X6327158Y-9934246D02*
X6327158Y-9924722D01*
X6327158Y-9924722D02*
X6336682Y-9905674D01*
X6336682Y-9905674D02*
X6355730Y-9896150D01*
X6355730Y-9896150D02*
X6384301Y-9896150D01*
X6384301Y-9896150D02*
X6403349Y-9905674D01*
X6479539Y-10105674D02*
X6489063Y-10096150D01*
X6489063Y-10096150D02*
X6508111Y-10067579D01*
X6508111Y-10067579D02*
X6517634Y-10048531D01*
X6517634Y-10048531D02*
X6527158Y-10019960D01*
X6527158Y-10019960D02*
X6536682Y-9972341D01*
X6536682Y-9972341D02*
X6536682Y-9934246D01*
X6536682Y-9934246D02*
X6527158Y-9886627D01*
X6527158Y-9886627D02*
X6517634Y-9858055D01*
X6517634Y-9858055D02*
X6508111Y-9839008D01*
X6508111Y-9839008D02*
X6489063Y-9810436D01*
X6489063Y-9810436D02*
X6479539Y-9800912D01*
D12*
X1438000Y-10126000D02*
X1438000Y-10278000D01*
X1362000Y-10202000D02*
X1514000Y-10202000D01*
D10*
X1879539Y-10293484D02*
X1765253Y-10293484D01*
X1822396Y-10293484D02*
X1822396Y-10093484D01*
X1822396Y-10093484D02*
X1803348Y-10122055D01*
X1803348Y-10122055D02*
X1784301Y-10141103D01*
X1784301Y-10141103D02*
X1765253Y-10150627D01*
X1965253Y-10274436D02*
X1974777Y-10283960D01*
X1974777Y-10283960D02*
X1965253Y-10293484D01*
X1965253Y-10293484D02*
X1955729Y-10283960D01*
X1955729Y-10283960D02*
X1965253Y-10274436D01*
X1965253Y-10274436D02*
X1965253Y-10293484D01*
X2155729Y-10093484D02*
X2060491Y-10093484D01*
X2060491Y-10093484D02*
X2050967Y-10188722D01*
X2050967Y-10188722D02*
X2060491Y-10179198D01*
X2060491Y-10179198D02*
X2079539Y-10169674D01*
X2079539Y-10169674D02*
X2127158Y-10169674D01*
X2127158Y-10169674D02*
X2146205Y-10179198D01*
X2146205Y-10179198D02*
X2155729Y-10188722D01*
X2155729Y-10188722D02*
X2165253Y-10207770D01*
X2165253Y-10207770D02*
X2165253Y-10255389D01*
X2165253Y-10255389D02*
X2155729Y-10274436D01*
X2155729Y-10274436D02*
X2146205Y-10283960D01*
X2146205Y-10283960D02*
X2127158Y-10293484D01*
X2127158Y-10293484D02*
X2079539Y-10293484D01*
X2079539Y-10293484D02*
X2060491Y-10283960D01*
X2060491Y-10283960D02*
X2050967Y-10274436D01*
X2241444Y-10112531D02*
X2250967Y-10103008D01*
X2250967Y-10103008D02*
X2270015Y-10093484D01*
X2270015Y-10093484D02*
X2317634Y-10093484D01*
X2317634Y-10093484D02*
X2336682Y-10103008D01*
X2336682Y-10103008D02*
X2346205Y-10112531D01*
X2346205Y-10112531D02*
X2355729Y-10131579D01*
X2355729Y-10131579D02*
X2355729Y-10150627D01*
X2355729Y-10150627D02*
X2346205Y-10179198D01*
X2346205Y-10179198D02*
X2231920Y-10293484D01*
X2231920Y-10293484D02*
X2355729Y-10293484D01*
X2479539Y-10093484D02*
X2498586Y-10093484D01*
X2498586Y-10093484D02*
X2517634Y-10103008D01*
X2517634Y-10103008D02*
X2527158Y-10112531D01*
X2527158Y-10112531D02*
X2536682Y-10131579D01*
X2536682Y-10131579D02*
X2546205Y-10169674D01*
X2546205Y-10169674D02*
X2546205Y-10217293D01*
X2546205Y-10217293D02*
X2536682Y-10255389D01*
X2536682Y-10255389D02*
X2527158Y-10274436D01*
X2527158Y-10274436D02*
X2517634Y-10283960D01*
X2517634Y-10283960D02*
X2498586Y-10293484D01*
X2498586Y-10293484D02*
X2479539Y-10293484D01*
X2479539Y-10293484D02*
X2460491Y-10283960D01*
X2460491Y-10283960D02*
X2450967Y-10274436D01*
X2450967Y-10274436D02*
X2441444Y-10255389D01*
X2441444Y-10255389D02*
X2431920Y-10217293D01*
X2431920Y-10217293D02*
X2431920Y-10169674D01*
X2431920Y-10169674D02*
X2441444Y-10131579D01*
X2441444Y-10131579D02*
X2450967Y-10112531D01*
X2450967Y-10112531D02*
X2460491Y-10103008D01*
X2460491Y-10103008D02*
X2479539Y-10093484D01*
X2631920Y-10293484D02*
X2631920Y-10160150D01*
X2631920Y-10179198D02*
X2641444Y-10169674D01*
X2641444Y-10169674D02*
X2660491Y-10160150D01*
X2660491Y-10160150D02*
X2689063Y-10160150D01*
X2689063Y-10160150D02*
X2708110Y-10169674D01*
X2708110Y-10169674D02*
X2717634Y-10188722D01*
X2717634Y-10188722D02*
X2717634Y-10293484D01*
X2717634Y-10188722D02*
X2727158Y-10169674D01*
X2727158Y-10169674D02*
X2746205Y-10160150D01*
X2746205Y-10160150D02*
X2774777Y-10160150D01*
X2774777Y-10160150D02*
X2793825Y-10169674D01*
X2793825Y-10169674D02*
X2803348Y-10188722D01*
X2803348Y-10188722D02*
X2803348Y-10293484D01*
X2898586Y-10293484D02*
X2898586Y-10160150D01*
X2898586Y-10179198D02*
X2908110Y-10169674D01*
X2908110Y-10169674D02*
X2927158Y-10160150D01*
X2927158Y-10160150D02*
X2955729Y-10160150D01*
X2955729Y-10160150D02*
X2974777Y-10169674D01*
X2974777Y-10169674D02*
X2984301Y-10188722D01*
X2984301Y-10188722D02*
X2984301Y-10293484D01*
X2984301Y-10188722D02*
X2993824Y-10169674D01*
X2993824Y-10169674D02*
X3012872Y-10160150D01*
X3012872Y-10160150D02*
X3041443Y-10160150D01*
X3041443Y-10160150D02*
X3060491Y-10169674D01*
X3060491Y-10169674D02*
X3070015Y-10188722D01*
X3070015Y-10188722D02*
X3070015Y-10293484D01*
X3460491Y-10083960D02*
X3289063Y-10341103D01*
X3717634Y-10093484D02*
X3736682Y-10093484D01*
X3736682Y-10093484D02*
X3755729Y-10103008D01*
X3755729Y-10103008D02*
X3765253Y-10112531D01*
X3765253Y-10112531D02*
X3774777Y-10131579D01*
X3774777Y-10131579D02*
X3784301Y-10169674D01*
X3784301Y-10169674D02*
X3784301Y-10217293D01*
X3784301Y-10217293D02*
X3774777Y-10255389D01*
X3774777Y-10255389D02*
X3765253Y-10274436D01*
X3765253Y-10274436D02*
X3755729Y-10283960D01*
X3755729Y-10283960D02*
X3736682Y-10293484D01*
X3736682Y-10293484D02*
X3717634Y-10293484D01*
X3717634Y-10293484D02*
X3698586Y-10283960D01*
X3698586Y-10283960D02*
X3689063Y-10274436D01*
X3689063Y-10274436D02*
X3679539Y-10255389D01*
X3679539Y-10255389D02*
X3670015Y-10217293D01*
X3670015Y-10217293D02*
X3670015Y-10169674D01*
X3670015Y-10169674D02*
X3679539Y-10131579D01*
X3679539Y-10131579D02*
X3689063Y-10112531D01*
X3689063Y-10112531D02*
X3698586Y-10103008D01*
X3698586Y-10103008D02*
X3717634Y-10093484D01*
X3870015Y-10274436D02*
X3879539Y-10283960D01*
X3879539Y-10283960D02*
X3870015Y-10293484D01*
X3870015Y-10293484D02*
X3860491Y-10283960D01*
X3860491Y-10283960D02*
X3870015Y-10274436D01*
X3870015Y-10274436D02*
X3870015Y-10293484D01*
X4003348Y-10093484D02*
X4022396Y-10093484D01*
X4022396Y-10093484D02*
X4041444Y-10103008D01*
X4041444Y-10103008D02*
X4050967Y-10112531D01*
X4050967Y-10112531D02*
X4060491Y-10131579D01*
X4060491Y-10131579D02*
X4070015Y-10169674D01*
X4070015Y-10169674D02*
X4070015Y-10217293D01*
X4070015Y-10217293D02*
X4060491Y-10255389D01*
X4060491Y-10255389D02*
X4050967Y-10274436D01*
X4050967Y-10274436D02*
X4041444Y-10283960D01*
X4041444Y-10283960D02*
X4022396Y-10293484D01*
X4022396Y-10293484D02*
X4003348Y-10293484D01*
X4003348Y-10293484D02*
X3984301Y-10283960D01*
X3984301Y-10283960D02*
X3974777Y-10274436D01*
X3974777Y-10274436D02*
X3965253Y-10255389D01*
X3965253Y-10255389D02*
X3955729Y-10217293D01*
X3955729Y-10217293D02*
X3955729Y-10169674D01*
X3955729Y-10169674D02*
X3965253Y-10131579D01*
X3965253Y-10131579D02*
X3974777Y-10112531D01*
X3974777Y-10112531D02*
X3984301Y-10103008D01*
X3984301Y-10103008D02*
X4003348Y-10093484D01*
X4250968Y-10093484D02*
X4155729Y-10093484D01*
X4155729Y-10093484D02*
X4146206Y-10188722D01*
X4146206Y-10188722D02*
X4155729Y-10179198D01*
X4155729Y-10179198D02*
X4174777Y-10169674D01*
X4174777Y-10169674D02*
X4222396Y-10169674D01*
X4222396Y-10169674D02*
X4241444Y-10179198D01*
X4241444Y-10179198D02*
X4250968Y-10188722D01*
X4250968Y-10188722D02*
X4260491Y-10207770D01*
X4260491Y-10207770D02*
X4260491Y-10255389D01*
X4260491Y-10255389D02*
X4250968Y-10274436D01*
X4250968Y-10274436D02*
X4241444Y-10283960D01*
X4241444Y-10283960D02*
X4222396Y-10293484D01*
X4222396Y-10293484D02*
X4174777Y-10293484D01*
X4174777Y-10293484D02*
X4155729Y-10283960D01*
X4155729Y-10283960D02*
X4146206Y-10274436D01*
X4355729Y-10293484D02*
X4393825Y-10293484D01*
X4393825Y-10293484D02*
X4412872Y-10283960D01*
X4412872Y-10283960D02*
X4422396Y-10274436D01*
X4422396Y-10274436D02*
X4441444Y-10245865D01*
X4441444Y-10245865D02*
X4450968Y-10207770D01*
X4450968Y-10207770D02*
X4450968Y-10131579D01*
X4450968Y-10131579D02*
X4441444Y-10112531D01*
X4441444Y-10112531D02*
X4431920Y-10103008D01*
X4431920Y-10103008D02*
X4412872Y-10093484D01*
X4412872Y-10093484D02*
X4374777Y-10093484D01*
X4374777Y-10093484D02*
X4355729Y-10103008D01*
X4355729Y-10103008D02*
X4346206Y-10112531D01*
X4346206Y-10112531D02*
X4336682Y-10131579D01*
X4336682Y-10131579D02*
X4336682Y-10179198D01*
X4336682Y-10179198D02*
X4346206Y-10198246D01*
X4346206Y-10198246D02*
X4355729Y-10207770D01*
X4355729Y-10207770D02*
X4374777Y-10217293D01*
X4374777Y-10217293D02*
X4412872Y-10217293D01*
X4412872Y-10217293D02*
X4431920Y-10207770D01*
X4431920Y-10207770D02*
X4441444Y-10198246D01*
X4441444Y-10198246D02*
X4450968Y-10179198D01*
X4565253Y-10179198D02*
X4546206Y-10169674D01*
X4546206Y-10169674D02*
X4536682Y-10160150D01*
X4536682Y-10160150D02*
X4527158Y-10141103D01*
X4527158Y-10141103D02*
X4527158Y-10131579D01*
X4527158Y-10131579D02*
X4536682Y-10112531D01*
X4536682Y-10112531D02*
X4546206Y-10103008D01*
X4546206Y-10103008D02*
X4565253Y-10093484D01*
X4565253Y-10093484D02*
X4603349Y-10093484D01*
X4603349Y-10093484D02*
X4622396Y-10103008D01*
X4622396Y-10103008D02*
X4631920Y-10112531D01*
X4631920Y-10112531D02*
X4641444Y-10131579D01*
X4641444Y-10131579D02*
X4641444Y-10141103D01*
X4641444Y-10141103D02*
X4631920Y-10160150D01*
X4631920Y-10160150D02*
X4622396Y-10169674D01*
X4622396Y-10169674D02*
X4603349Y-10179198D01*
X4603349Y-10179198D02*
X4565253Y-10179198D01*
X4565253Y-10179198D02*
X4546206Y-10188722D01*
X4546206Y-10188722D02*
X4536682Y-10198246D01*
X4536682Y-10198246D02*
X4527158Y-10217293D01*
X4527158Y-10217293D02*
X4527158Y-10255389D01*
X4527158Y-10255389D02*
X4536682Y-10274436D01*
X4536682Y-10274436D02*
X4546206Y-10283960D01*
X4546206Y-10283960D02*
X4565253Y-10293484D01*
X4565253Y-10293484D02*
X4603349Y-10293484D01*
X4603349Y-10293484D02*
X4622396Y-10283960D01*
X4622396Y-10283960D02*
X4631920Y-10274436D01*
X4631920Y-10274436D02*
X4641444Y-10255389D01*
X4641444Y-10255389D02*
X4641444Y-10217293D01*
X4641444Y-10217293D02*
X4631920Y-10198246D01*
X4631920Y-10198246D02*
X4622396Y-10188722D01*
X4622396Y-10188722D02*
X4603349Y-10179198D01*
X4717634Y-10093484D02*
X4717634Y-10131579D01*
X4793825Y-10093484D02*
X4793825Y-10131579D01*
X5089063Y-10369674D02*
X5079539Y-10360150D01*
X5079539Y-10360150D02*
X5060491Y-10331579D01*
X5060491Y-10331579D02*
X5050968Y-10312531D01*
X5050968Y-10312531D02*
X5041444Y-10283960D01*
X5041444Y-10283960D02*
X5031920Y-10236341D01*
X5031920Y-10236341D02*
X5031920Y-10198246D01*
X5031920Y-10198246D02*
X5041444Y-10150627D01*
X5041444Y-10150627D02*
X5050968Y-10122055D01*
X5050968Y-10122055D02*
X5060491Y-10103008D01*
X5060491Y-10103008D02*
X5079539Y-10074436D01*
X5079539Y-10074436D02*
X5089063Y-10064912D01*
X5193825Y-10179198D02*
X5174777Y-10169674D01*
X5174777Y-10169674D02*
X5165253Y-10160150D01*
X5165253Y-10160150D02*
X5155730Y-10141103D01*
X5155730Y-10141103D02*
X5155730Y-10131579D01*
X5155730Y-10131579D02*
X5165253Y-10112531D01*
X5165253Y-10112531D02*
X5174777Y-10103008D01*
X5174777Y-10103008D02*
X5193825Y-10093484D01*
X5193825Y-10093484D02*
X5231920Y-10093484D01*
X5231920Y-10093484D02*
X5250968Y-10103008D01*
X5250968Y-10103008D02*
X5260491Y-10112531D01*
X5260491Y-10112531D02*
X5270015Y-10131579D01*
X5270015Y-10131579D02*
X5270015Y-10141103D01*
X5270015Y-10141103D02*
X5260491Y-10160150D01*
X5260491Y-10160150D02*
X5250968Y-10169674D01*
X5250968Y-10169674D02*
X5231920Y-10179198D01*
X5231920Y-10179198D02*
X5193825Y-10179198D01*
X5193825Y-10179198D02*
X5174777Y-10188722D01*
X5174777Y-10188722D02*
X5165253Y-10198246D01*
X5165253Y-10198246D02*
X5155730Y-10217293D01*
X5155730Y-10217293D02*
X5155730Y-10255389D01*
X5155730Y-10255389D02*
X5165253Y-10274436D01*
X5165253Y-10274436D02*
X5174777Y-10283960D01*
X5174777Y-10283960D02*
X5193825Y-10293484D01*
X5193825Y-10293484D02*
X5231920Y-10293484D01*
X5231920Y-10293484D02*
X5250968Y-10283960D01*
X5250968Y-10283960D02*
X5260491Y-10274436D01*
X5260491Y-10274436D02*
X5270015Y-10255389D01*
X5270015Y-10255389D02*
X5270015Y-10217293D01*
X5270015Y-10217293D02*
X5260491Y-10198246D01*
X5260491Y-10198246D02*
X5250968Y-10188722D01*
X5250968Y-10188722D02*
X5231920Y-10179198D01*
X5508111Y-10293484D02*
X5508111Y-10093484D01*
X5593825Y-10293484D02*
X5593825Y-10188722D01*
X5593825Y-10188722D02*
X5584301Y-10169674D01*
X5584301Y-10169674D02*
X5565253Y-10160150D01*
X5565253Y-10160150D02*
X5536682Y-10160150D01*
X5536682Y-10160150D02*
X5517634Y-10169674D01*
X5517634Y-10169674D02*
X5508111Y-10179198D01*
X5717634Y-10293484D02*
X5698587Y-10283960D01*
X5698587Y-10283960D02*
X5689063Y-10274436D01*
X5689063Y-10274436D02*
X5679539Y-10255389D01*
X5679539Y-10255389D02*
X5679539Y-10198246D01*
X5679539Y-10198246D02*
X5689063Y-10179198D01*
X5689063Y-10179198D02*
X5698587Y-10169674D01*
X5698587Y-10169674D02*
X5717634Y-10160150D01*
X5717634Y-10160150D02*
X5746206Y-10160150D01*
X5746206Y-10160150D02*
X5765253Y-10169674D01*
X5765253Y-10169674D02*
X5774777Y-10179198D01*
X5774777Y-10179198D02*
X5784301Y-10198246D01*
X5784301Y-10198246D02*
X5784301Y-10255389D01*
X5784301Y-10255389D02*
X5774777Y-10274436D01*
X5774777Y-10274436D02*
X5765253Y-10283960D01*
X5765253Y-10283960D02*
X5746206Y-10293484D01*
X5746206Y-10293484D02*
X5717634Y-10293484D01*
X5898587Y-10293484D02*
X5879539Y-10283960D01*
X5879539Y-10283960D02*
X5870015Y-10264912D01*
X5870015Y-10264912D02*
X5870015Y-10093484D01*
X6050968Y-10283960D02*
X6031920Y-10293484D01*
X6031920Y-10293484D02*
X5993825Y-10293484D01*
X5993825Y-10293484D02*
X5974777Y-10283960D01*
X5974777Y-10283960D02*
X5965253Y-10264912D01*
X5965253Y-10264912D02*
X5965253Y-10188722D01*
X5965253Y-10188722D02*
X5974777Y-10169674D01*
X5974777Y-10169674D02*
X5993825Y-10160150D01*
X5993825Y-10160150D02*
X6031920Y-10160150D01*
X6031920Y-10160150D02*
X6050968Y-10169674D01*
X6050968Y-10169674D02*
X6060491Y-10188722D01*
X6060491Y-10188722D02*
X6060491Y-10207770D01*
X6060491Y-10207770D02*
X5965253Y-10226817D01*
X6136682Y-10283960D02*
X6155730Y-10293484D01*
X6155730Y-10293484D02*
X6193825Y-10293484D01*
X6193825Y-10293484D02*
X6212872Y-10283960D01*
X6212872Y-10283960D02*
X6222396Y-10264912D01*
X6222396Y-10264912D02*
X6222396Y-10255389D01*
X6222396Y-10255389D02*
X6212872Y-10236341D01*
X6212872Y-10236341D02*
X6193825Y-10226817D01*
X6193825Y-10226817D02*
X6165253Y-10226817D01*
X6165253Y-10226817D02*
X6146206Y-10217293D01*
X6146206Y-10217293D02*
X6136682Y-10198246D01*
X6136682Y-10198246D02*
X6136682Y-10188722D01*
X6136682Y-10188722D02*
X6146206Y-10169674D01*
X6146206Y-10169674D02*
X6165253Y-10160150D01*
X6165253Y-10160150D02*
X6193825Y-10160150D01*
X6193825Y-10160150D02*
X6212872Y-10169674D01*
X6289063Y-10369674D02*
X6298587Y-10360150D01*
X6298587Y-10360150D02*
X6317634Y-10331579D01*
X6317634Y-10331579D02*
X6327158Y-10312531D01*
X6327158Y-10312531D02*
X6336682Y-10283960D01*
X6336682Y-10283960D02*
X6346206Y-10236341D01*
X6346206Y-10236341D02*
X6346206Y-10198246D01*
X6346206Y-10198246D02*
X6336682Y-10150627D01*
X6336682Y-10150627D02*
X6327158Y-10122055D01*
X6327158Y-10122055D02*
X6317634Y-10103008D01*
X6317634Y-10103008D02*
X6298587Y-10074436D01*
X6298587Y-10074436D02*
X6289063Y-10064912D01*
X1484711Y-10544711D02*
X1484711Y-10403289D01*
X1343289Y-10403289D01*
X1343289Y-10544711D01*
X1484711Y-10544711D01*
X1755729Y-10365484D02*
X1879539Y-10365484D01*
X1879539Y-10365484D02*
X1812872Y-10441674D01*
X1812872Y-10441674D02*
X1841443Y-10441674D01*
X1841443Y-10441674D02*
X1860491Y-10451198D01*
X1860491Y-10451198D02*
X1870015Y-10460722D01*
X1870015Y-10460722D02*
X1879539Y-10479770D01*
X1879539Y-10479770D02*
X1879539Y-10527389D01*
X1879539Y-10527389D02*
X1870015Y-10546436D01*
X1870015Y-10546436D02*
X1860491Y-10555960D01*
X1860491Y-10555960D02*
X1841443Y-10565484D01*
X1841443Y-10565484D02*
X1784301Y-10565484D01*
X1784301Y-10565484D02*
X1765253Y-10555960D01*
X1765253Y-10555960D02*
X1755729Y-10546436D01*
X1965253Y-10546436D02*
X1974777Y-10555960D01*
X1974777Y-10555960D02*
X1965253Y-10565484D01*
X1965253Y-10565484D02*
X1955729Y-10555960D01*
X1955729Y-10555960D02*
X1965253Y-10546436D01*
X1965253Y-10546436D02*
X1965253Y-10565484D01*
X2050967Y-10384531D02*
X2060491Y-10375008D01*
X2060491Y-10375008D02*
X2079539Y-10365484D01*
X2079539Y-10365484D02*
X2127158Y-10365484D01*
X2127158Y-10365484D02*
X2146205Y-10375008D01*
X2146205Y-10375008D02*
X2155729Y-10384531D01*
X2155729Y-10384531D02*
X2165253Y-10403579D01*
X2165253Y-10403579D02*
X2165253Y-10422627D01*
X2165253Y-10422627D02*
X2155729Y-10451198D01*
X2155729Y-10451198D02*
X2041443Y-10565484D01*
X2041443Y-10565484D02*
X2165253Y-10565484D01*
X2289063Y-10365484D02*
X2308110Y-10365484D01*
X2308110Y-10365484D02*
X2327158Y-10375008D01*
X2327158Y-10375008D02*
X2336682Y-10384531D01*
X2336682Y-10384531D02*
X2346205Y-10403579D01*
X2346205Y-10403579D02*
X2355729Y-10441674D01*
X2355729Y-10441674D02*
X2355729Y-10489293D01*
X2355729Y-10489293D02*
X2346205Y-10527389D01*
X2346205Y-10527389D02*
X2336682Y-10546436D01*
X2336682Y-10546436D02*
X2327158Y-10555960D01*
X2327158Y-10555960D02*
X2308110Y-10565484D01*
X2308110Y-10565484D02*
X2289063Y-10565484D01*
X2289063Y-10565484D02*
X2270015Y-10555960D01*
X2270015Y-10555960D02*
X2260491Y-10546436D01*
X2260491Y-10546436D02*
X2250967Y-10527389D01*
X2250967Y-10527389D02*
X2241444Y-10489293D01*
X2241444Y-10489293D02*
X2241444Y-10441674D01*
X2241444Y-10441674D02*
X2250967Y-10403579D01*
X2250967Y-10403579D02*
X2260491Y-10384531D01*
X2260491Y-10384531D02*
X2270015Y-10375008D01*
X2270015Y-10375008D02*
X2289063Y-10365484D01*
X2479539Y-10365484D02*
X2498586Y-10365484D01*
X2498586Y-10365484D02*
X2517634Y-10375008D01*
X2517634Y-10375008D02*
X2527158Y-10384531D01*
X2527158Y-10384531D02*
X2536682Y-10403579D01*
X2536682Y-10403579D02*
X2546205Y-10441674D01*
X2546205Y-10441674D02*
X2546205Y-10489293D01*
X2546205Y-10489293D02*
X2536682Y-10527389D01*
X2536682Y-10527389D02*
X2527158Y-10546436D01*
X2527158Y-10546436D02*
X2517634Y-10555960D01*
X2517634Y-10555960D02*
X2498586Y-10565484D01*
X2498586Y-10565484D02*
X2479539Y-10565484D01*
X2479539Y-10565484D02*
X2460491Y-10555960D01*
X2460491Y-10555960D02*
X2450967Y-10546436D01*
X2450967Y-10546436D02*
X2441444Y-10527389D01*
X2441444Y-10527389D02*
X2431920Y-10489293D01*
X2431920Y-10489293D02*
X2431920Y-10441674D01*
X2431920Y-10441674D02*
X2441444Y-10403579D01*
X2441444Y-10403579D02*
X2450967Y-10384531D01*
X2450967Y-10384531D02*
X2460491Y-10375008D01*
X2460491Y-10375008D02*
X2479539Y-10365484D01*
X2631920Y-10565484D02*
X2631920Y-10432150D01*
X2631920Y-10451198D02*
X2641444Y-10441674D01*
X2641444Y-10441674D02*
X2660491Y-10432150D01*
X2660491Y-10432150D02*
X2689063Y-10432150D01*
X2689063Y-10432150D02*
X2708110Y-10441674D01*
X2708110Y-10441674D02*
X2717634Y-10460722D01*
X2717634Y-10460722D02*
X2717634Y-10565484D01*
X2717634Y-10460722D02*
X2727158Y-10441674D01*
X2727158Y-10441674D02*
X2746205Y-10432150D01*
X2746205Y-10432150D02*
X2774777Y-10432150D01*
X2774777Y-10432150D02*
X2793825Y-10441674D01*
X2793825Y-10441674D02*
X2803348Y-10460722D01*
X2803348Y-10460722D02*
X2803348Y-10565484D01*
X2898586Y-10565484D02*
X2898586Y-10432150D01*
X2898586Y-10451198D02*
X2908110Y-10441674D01*
X2908110Y-10441674D02*
X2927158Y-10432150D01*
X2927158Y-10432150D02*
X2955729Y-10432150D01*
X2955729Y-10432150D02*
X2974777Y-10441674D01*
X2974777Y-10441674D02*
X2984301Y-10460722D01*
X2984301Y-10460722D02*
X2984301Y-10565484D01*
X2984301Y-10460722D02*
X2993824Y-10441674D01*
X2993824Y-10441674D02*
X3012872Y-10432150D01*
X3012872Y-10432150D02*
X3041443Y-10432150D01*
X3041443Y-10432150D02*
X3060491Y-10441674D01*
X3060491Y-10441674D02*
X3070015Y-10460722D01*
X3070015Y-10460722D02*
X3070015Y-10565484D01*
X3460491Y-10355960D02*
X3289063Y-10613103D01*
X3717634Y-10365484D02*
X3736682Y-10365484D01*
X3736682Y-10365484D02*
X3755729Y-10375008D01*
X3755729Y-10375008D02*
X3765253Y-10384531D01*
X3765253Y-10384531D02*
X3774777Y-10403579D01*
X3774777Y-10403579D02*
X3784301Y-10441674D01*
X3784301Y-10441674D02*
X3784301Y-10489293D01*
X3784301Y-10489293D02*
X3774777Y-10527389D01*
X3774777Y-10527389D02*
X3765253Y-10546436D01*
X3765253Y-10546436D02*
X3755729Y-10555960D01*
X3755729Y-10555960D02*
X3736682Y-10565484D01*
X3736682Y-10565484D02*
X3717634Y-10565484D01*
X3717634Y-10565484D02*
X3698586Y-10555960D01*
X3698586Y-10555960D02*
X3689063Y-10546436D01*
X3689063Y-10546436D02*
X3679539Y-10527389D01*
X3679539Y-10527389D02*
X3670015Y-10489293D01*
X3670015Y-10489293D02*
X3670015Y-10441674D01*
X3670015Y-10441674D02*
X3679539Y-10403579D01*
X3679539Y-10403579D02*
X3689063Y-10384531D01*
X3689063Y-10384531D02*
X3698586Y-10375008D01*
X3698586Y-10375008D02*
X3717634Y-10365484D01*
X3870015Y-10546436D02*
X3879539Y-10555960D01*
X3879539Y-10555960D02*
X3870015Y-10565484D01*
X3870015Y-10565484D02*
X3860491Y-10555960D01*
X3860491Y-10555960D02*
X3870015Y-10546436D01*
X3870015Y-10546436D02*
X3870015Y-10565484D01*
X4070015Y-10565484D02*
X3955729Y-10565484D01*
X4012872Y-10565484D02*
X4012872Y-10365484D01*
X4012872Y-10365484D02*
X3993825Y-10394055D01*
X3993825Y-10394055D02*
X3974777Y-10413103D01*
X3974777Y-10413103D02*
X3955729Y-10422627D01*
X4146206Y-10384531D02*
X4155729Y-10375008D01*
X4155729Y-10375008D02*
X4174777Y-10365484D01*
X4174777Y-10365484D02*
X4222396Y-10365484D01*
X4222396Y-10365484D02*
X4241444Y-10375008D01*
X4241444Y-10375008D02*
X4250968Y-10384531D01*
X4250968Y-10384531D02*
X4260491Y-10403579D01*
X4260491Y-10403579D02*
X4260491Y-10422627D01*
X4260491Y-10422627D02*
X4250968Y-10451198D01*
X4250968Y-10451198D02*
X4136682Y-10565484D01*
X4136682Y-10565484D02*
X4260491Y-10565484D01*
X4431920Y-10365484D02*
X4393825Y-10365484D01*
X4393825Y-10365484D02*
X4374777Y-10375008D01*
X4374777Y-10375008D02*
X4365253Y-10384531D01*
X4365253Y-10384531D02*
X4346206Y-10413103D01*
X4346206Y-10413103D02*
X4336682Y-10451198D01*
X4336682Y-10451198D02*
X4336682Y-10527389D01*
X4336682Y-10527389D02*
X4346206Y-10546436D01*
X4346206Y-10546436D02*
X4355729Y-10555960D01*
X4355729Y-10555960D02*
X4374777Y-10565484D01*
X4374777Y-10565484D02*
X4412872Y-10565484D01*
X4412872Y-10565484D02*
X4431920Y-10555960D01*
X4431920Y-10555960D02*
X4441444Y-10546436D01*
X4441444Y-10546436D02*
X4450968Y-10527389D01*
X4450968Y-10527389D02*
X4450968Y-10479770D01*
X4450968Y-10479770D02*
X4441444Y-10460722D01*
X4441444Y-10460722D02*
X4431920Y-10451198D01*
X4431920Y-10451198D02*
X4412872Y-10441674D01*
X4412872Y-10441674D02*
X4374777Y-10441674D01*
X4374777Y-10441674D02*
X4355729Y-10451198D01*
X4355729Y-10451198D02*
X4346206Y-10460722D01*
X4346206Y-10460722D02*
X4336682Y-10479770D01*
X4574777Y-10365484D02*
X4593825Y-10365484D01*
X4593825Y-10365484D02*
X4612872Y-10375008D01*
X4612872Y-10375008D02*
X4622396Y-10384531D01*
X4622396Y-10384531D02*
X4631920Y-10403579D01*
X4631920Y-10403579D02*
X4641444Y-10441674D01*
X4641444Y-10441674D02*
X4641444Y-10489293D01*
X4641444Y-10489293D02*
X4631920Y-10527389D01*
X4631920Y-10527389D02*
X4622396Y-10546436D01*
X4622396Y-10546436D02*
X4612872Y-10555960D01*
X4612872Y-10555960D02*
X4593825Y-10565484D01*
X4593825Y-10565484D02*
X4574777Y-10565484D01*
X4574777Y-10565484D02*
X4555729Y-10555960D01*
X4555729Y-10555960D02*
X4546206Y-10546436D01*
X4546206Y-10546436D02*
X4536682Y-10527389D01*
X4536682Y-10527389D02*
X4527158Y-10489293D01*
X4527158Y-10489293D02*
X4527158Y-10441674D01*
X4527158Y-10441674D02*
X4536682Y-10403579D01*
X4536682Y-10403579D02*
X4546206Y-10384531D01*
X4546206Y-10384531D02*
X4555729Y-10375008D01*
X4555729Y-10375008D02*
X4574777Y-10365484D01*
X4717634Y-10365484D02*
X4717634Y-10403579D01*
X4793825Y-10365484D02*
X4793825Y-10403579D01*
X5089063Y-10641674D02*
X5079539Y-10632150D01*
X5079539Y-10632150D02*
X5060491Y-10603579D01*
X5060491Y-10603579D02*
X5050968Y-10584531D01*
X5050968Y-10584531D02*
X5041444Y-10555960D01*
X5041444Y-10555960D02*
X5031920Y-10508341D01*
X5031920Y-10508341D02*
X5031920Y-10470246D01*
X5031920Y-10470246D02*
X5041444Y-10422627D01*
X5041444Y-10422627D02*
X5050968Y-10394055D01*
X5050968Y-10394055D02*
X5060491Y-10375008D01*
X5060491Y-10375008D02*
X5079539Y-10346436D01*
X5079539Y-10346436D02*
X5089063Y-10336912D01*
X5250968Y-10432150D02*
X5250968Y-10565484D01*
X5203349Y-10355960D02*
X5155730Y-10498817D01*
X5155730Y-10498817D02*
X5279539Y-10498817D01*
X5508111Y-10565484D02*
X5508111Y-10365484D01*
X5593825Y-10565484D02*
X5593825Y-10460722D01*
X5593825Y-10460722D02*
X5584301Y-10441674D01*
X5584301Y-10441674D02*
X5565253Y-10432150D01*
X5565253Y-10432150D02*
X5536682Y-10432150D01*
X5536682Y-10432150D02*
X5517634Y-10441674D01*
X5517634Y-10441674D02*
X5508111Y-10451198D01*
X5717634Y-10565484D02*
X5698587Y-10555960D01*
X5698587Y-10555960D02*
X5689063Y-10546436D01*
X5689063Y-10546436D02*
X5679539Y-10527389D01*
X5679539Y-10527389D02*
X5679539Y-10470246D01*
X5679539Y-10470246D02*
X5689063Y-10451198D01*
X5689063Y-10451198D02*
X5698587Y-10441674D01*
X5698587Y-10441674D02*
X5717634Y-10432150D01*
X5717634Y-10432150D02*
X5746206Y-10432150D01*
X5746206Y-10432150D02*
X5765253Y-10441674D01*
X5765253Y-10441674D02*
X5774777Y-10451198D01*
X5774777Y-10451198D02*
X5784301Y-10470246D01*
X5784301Y-10470246D02*
X5784301Y-10527389D01*
X5784301Y-10527389D02*
X5774777Y-10546436D01*
X5774777Y-10546436D02*
X5765253Y-10555960D01*
X5765253Y-10555960D02*
X5746206Y-10565484D01*
X5746206Y-10565484D02*
X5717634Y-10565484D01*
X5898587Y-10565484D02*
X5879539Y-10555960D01*
X5879539Y-10555960D02*
X5870015Y-10536912D01*
X5870015Y-10536912D02*
X5870015Y-10365484D01*
X6050968Y-10555960D02*
X6031920Y-10565484D01*
X6031920Y-10565484D02*
X5993825Y-10565484D01*
X5993825Y-10565484D02*
X5974777Y-10555960D01*
X5974777Y-10555960D02*
X5965253Y-10536912D01*
X5965253Y-10536912D02*
X5965253Y-10460722D01*
X5965253Y-10460722D02*
X5974777Y-10441674D01*
X5974777Y-10441674D02*
X5993825Y-10432150D01*
X5993825Y-10432150D02*
X6031920Y-10432150D01*
X6031920Y-10432150D02*
X6050968Y-10441674D01*
X6050968Y-10441674D02*
X6060491Y-10460722D01*
X6060491Y-10460722D02*
X6060491Y-10479770D01*
X6060491Y-10479770D02*
X5965253Y-10498817D01*
X6136682Y-10555960D02*
X6155730Y-10565484D01*
X6155730Y-10565484D02*
X6193825Y-10565484D01*
X6193825Y-10565484D02*
X6212872Y-10555960D01*
X6212872Y-10555960D02*
X6222396Y-10536912D01*
X6222396Y-10536912D02*
X6222396Y-10527389D01*
X6222396Y-10527389D02*
X6212872Y-10508341D01*
X6212872Y-10508341D02*
X6193825Y-10498817D01*
X6193825Y-10498817D02*
X6165253Y-10498817D01*
X6165253Y-10498817D02*
X6146206Y-10489293D01*
X6146206Y-10489293D02*
X6136682Y-10470246D01*
X6136682Y-10470246D02*
X6136682Y-10460722D01*
X6136682Y-10460722D02*
X6146206Y-10441674D01*
X6146206Y-10441674D02*
X6165253Y-10432150D01*
X6165253Y-10432150D02*
X6193825Y-10432150D01*
X6193825Y-10432150D02*
X6212872Y-10441674D01*
X6289063Y-10641674D02*
X6298587Y-10632150D01*
X6298587Y-10632150D02*
X6317634Y-10603579D01*
X6317634Y-10603579D02*
X6327158Y-10584531D01*
X6327158Y-10584531D02*
X6336682Y-10555960D01*
X6336682Y-10555960D02*
X6346206Y-10508341D01*
X6346206Y-10508341D02*
X6346206Y-10470246D01*
X6346206Y-10470246D02*
X6336682Y-10422627D01*
X6336682Y-10422627D02*
X6327158Y-10394055D01*
X6327158Y-10394055D02*
X6317634Y-10375008D01*
X6317634Y-10375008D02*
X6298587Y-10346436D01*
X6298587Y-10346436D02*
X6289063Y-10336912D01*
M02*
