G04 #@! TF.GenerationSoftware,KiCad,Pcbnew,9.0.3-9.0.3-0~ubuntu22.04.1*
G04 #@! TF.CreationDate,2025-07-10T23:03:30+01:00*
G04 #@! TF.ProjectId,dali-pcb,64616c69-2d70-4636-922e-6b696361645f,rev?*
G04 #@! TF.SameCoordinates,Original*
G04 #@! TF.FileFunction,Soldermask,Bot*
G04 #@! TF.FilePolarity,Negative*
%FSLAX46Y46*%
G04 Gerber Fmt 4.6, Leading zero omitted, Abs format (unit mm)*
G04 Created by KiCad (PCBNEW 9.0.3-9.0.3-0~ubuntu22.04.1) date 2025-07-10 23:03:30*
%MOMM*%
%LPD*%
G01*
G04 APERTURE LIST*
%ADD10C,1.700000*%
%ADD11R,1.700000X1.700000*%
%ADD12R,3.000000X3.000000*%
%ADD13C,3.000000*%
%ADD14C,6.400000*%
G04 APERTURE END LIST*
D10*
X85090000Y-118110000D03*
X85090000Y-115570000D03*
X85090000Y-113030000D03*
X85090000Y-110490000D03*
X85090000Y-107950000D03*
X85090000Y-105410000D03*
X85090000Y-102870000D03*
X85090000Y-100330000D03*
X85090000Y-97790000D03*
X85090000Y-95250000D03*
X85090000Y-92710000D03*
X85090000Y-90170000D03*
X85090000Y-87630000D03*
X85090000Y-85090000D03*
X85090000Y-82550000D03*
X85090000Y-80010000D03*
X85090000Y-77470000D03*
X85090000Y-74930000D03*
X85090000Y-72390000D03*
X85090000Y-69850000D03*
X85090000Y-67310000D03*
D11*
X85090000Y-64770000D03*
X121920000Y-55880000D03*
D10*
X121920000Y-58420000D03*
X121920000Y-60960000D03*
X121920000Y-63500000D03*
X121920000Y-66040000D03*
X121920000Y-68580000D03*
X121920000Y-71120000D03*
X121920000Y-73660000D03*
D11*
X111760000Y-55880000D03*
D10*
X111760000Y-58420000D03*
X111760000Y-60960000D03*
X111760000Y-63500000D03*
X111760000Y-66040000D03*
X111760000Y-68580000D03*
X111760000Y-71120000D03*
X111760000Y-73660000D03*
X111760000Y-76200000D03*
X111760000Y-78740000D03*
X111760000Y-81280000D03*
X111760000Y-83820000D03*
X111760000Y-86360000D03*
D11*
X121920000Y-106680000D03*
D10*
X121920000Y-109220000D03*
X121920000Y-111760000D03*
X121920000Y-114300000D03*
X121920000Y-116840000D03*
D11*
X48260000Y-110490000D03*
D10*
X48260000Y-107950000D03*
X45720000Y-110490000D03*
X45720000Y-107950000D03*
X43180000Y-110490000D03*
X43180000Y-107950000D03*
X40640000Y-110490000D03*
X40640000Y-107950000D03*
X38100000Y-110490000D03*
X38100000Y-107950000D03*
X35560000Y-110490000D03*
X35560000Y-107950000D03*
X33020000Y-110490000D03*
X33020000Y-107950000D03*
X30480000Y-110490000D03*
X30480000Y-107950000D03*
D11*
X48260000Y-97790000D03*
D10*
X48260000Y-95250000D03*
X45720000Y-97790000D03*
X45720000Y-95250000D03*
X43180000Y-97790000D03*
X43180000Y-95250000D03*
X40640000Y-97790000D03*
X40640000Y-95250000D03*
X38100000Y-97790000D03*
X38100000Y-95250000D03*
X35560000Y-97790000D03*
X35560000Y-95250000D03*
X33020000Y-97790000D03*
X33020000Y-95250000D03*
X30480000Y-97790000D03*
X30480000Y-95250000D03*
D12*
X182880000Y-21590000D03*
D13*
X177800000Y-21590000D03*
D12*
X165100000Y-21590000D03*
D13*
X160020000Y-21590000D03*
D12*
X40640000Y-21590000D03*
D13*
X35560000Y-21590000D03*
D11*
X132080000Y-55880000D03*
D10*
X132080000Y-58420000D03*
X132080000Y-60960000D03*
X132080000Y-63500000D03*
X132080000Y-66040000D03*
X132080000Y-68580000D03*
X132080000Y-71120000D03*
X132080000Y-73660000D03*
D11*
X73660000Y-64770000D03*
D10*
X73660000Y-67310000D03*
X73660000Y-69850000D03*
X73660000Y-72390000D03*
X73660000Y-74930000D03*
X73660000Y-77470000D03*
X73660000Y-80010000D03*
X73660000Y-82550000D03*
X73660000Y-85090000D03*
X73660000Y-87630000D03*
X73660000Y-90170000D03*
X73660000Y-92710000D03*
X73660000Y-95250000D03*
X73660000Y-97790000D03*
X73660000Y-100330000D03*
X73660000Y-102870000D03*
X73660000Y-105410000D03*
X73660000Y-107950000D03*
X73660000Y-110490000D03*
X73660000Y-113030000D03*
D11*
X152400000Y-55880000D03*
D10*
X152400000Y-58420000D03*
X152400000Y-60960000D03*
X152400000Y-63500000D03*
X152400000Y-66040000D03*
D11*
X162560000Y-55880000D03*
D10*
X162560000Y-58420000D03*
X162560000Y-60960000D03*
X162560000Y-63500000D03*
X162560000Y-66040000D03*
D11*
X48260000Y-77470000D03*
D10*
X48260000Y-74930000D03*
X45720000Y-77470000D03*
X45720000Y-74930000D03*
X43180000Y-77470000D03*
X43180000Y-74930000D03*
X40640000Y-77470000D03*
X40640000Y-74930000D03*
X38100000Y-77470000D03*
X38100000Y-74930000D03*
X35560000Y-77470000D03*
X35560000Y-74930000D03*
X33020000Y-77470000D03*
X33020000Y-74930000D03*
X30480000Y-77470000D03*
X30480000Y-74930000D03*
D11*
X162560000Y-85090000D03*
D10*
X162560000Y-87630000D03*
D11*
X62230000Y-64770000D03*
D10*
X62230000Y-67310000D03*
X62230000Y-69850000D03*
X62230000Y-72390000D03*
X62230000Y-74930000D03*
X62230000Y-77470000D03*
X62230000Y-80010000D03*
X62230000Y-82550000D03*
X62230000Y-85090000D03*
X62230000Y-87630000D03*
X62230000Y-90170000D03*
X62230000Y-92710000D03*
X62230000Y-95250000D03*
X62230000Y-97790000D03*
X62230000Y-100330000D03*
X62230000Y-102870000D03*
X62230000Y-105410000D03*
X62230000Y-107950000D03*
X62230000Y-110490000D03*
X62230000Y-113030000D03*
X62230000Y-115570000D03*
X62230000Y-118110000D03*
D11*
X172720000Y-101600000D03*
D10*
X172720000Y-104140000D03*
X172720000Y-106680000D03*
X172720000Y-109220000D03*
X172720000Y-111760000D03*
X172720000Y-114300000D03*
X172720000Y-116840000D03*
D11*
X132080000Y-106680000D03*
D10*
X132080000Y-109220000D03*
X132080000Y-111760000D03*
X132080000Y-114300000D03*
X132080000Y-116840000D03*
D14*
X190490000Y-20490000D03*
D11*
X124460000Y-36830000D03*
D10*
X127000000Y-36830000D03*
X129540000Y-36830000D03*
X132080000Y-36830000D03*
X134620000Y-36830000D03*
X137160000Y-36830000D03*
X139700000Y-36830000D03*
X142240000Y-36830000D03*
X144780000Y-36830000D03*
X147320000Y-36830000D03*
D11*
X142240000Y-55880000D03*
D10*
X142240000Y-58420000D03*
X142240000Y-60960000D03*
X142240000Y-63500000D03*
X142240000Y-66040000D03*
D11*
X162560000Y-101600000D03*
D10*
X162560000Y-104140000D03*
X162560000Y-106680000D03*
X162560000Y-109220000D03*
X162560000Y-111760000D03*
X162560000Y-114300000D03*
X162560000Y-116840000D03*
D12*
X129540000Y-21590000D03*
D13*
X124460000Y-21590000D03*
D12*
X147320000Y-21590000D03*
D13*
X142240000Y-21590000D03*
D11*
X172720000Y-85090000D03*
D10*
X172720000Y-87630000D03*
D11*
X160020000Y-36830000D03*
D10*
X162560000Y-36830000D03*
X165100000Y-36830000D03*
X167640000Y-36830000D03*
X170180000Y-36830000D03*
X172720000Y-36830000D03*
X175260000Y-36830000D03*
X177800000Y-36830000D03*
X180340000Y-36830000D03*
X182880000Y-36830000D03*
D11*
X142240000Y-85090000D03*
D10*
X142240000Y-87630000D03*
D11*
X27940000Y-55880000D03*
D10*
X30480000Y-55880000D03*
X33020000Y-55880000D03*
X35560000Y-55880000D03*
D11*
X142240000Y-106680000D03*
D10*
X142240000Y-109220000D03*
X142240000Y-111760000D03*
X142240000Y-114300000D03*
X142240000Y-116840000D03*
D11*
X172720000Y-55880000D03*
D10*
X172720000Y-58420000D03*
X172720000Y-60960000D03*
X172720000Y-63500000D03*
X172720000Y-66040000D03*
D11*
X152400000Y-85090000D03*
D10*
X152400000Y-87630000D03*
D11*
X182880000Y-55880000D03*
D10*
X182880000Y-58420000D03*
X182880000Y-60960000D03*
X182880000Y-63500000D03*
X182880000Y-66040000D03*
D14*
X20490000Y-20490000D03*
X190490000Y-122990000D03*
D11*
X43180000Y-55880000D03*
D10*
X45720000Y-55880000D03*
X48260000Y-55880000D03*
X50800000Y-55880000D03*
X53340000Y-55880000D03*
X55880000Y-55880000D03*
D11*
X96520000Y-64770000D03*
D10*
X96520000Y-67310000D03*
X96520000Y-69850000D03*
X96520000Y-72390000D03*
X96520000Y-74930000D03*
X96520000Y-77470000D03*
X96520000Y-80010000D03*
X96520000Y-82550000D03*
X96520000Y-85090000D03*
X96520000Y-87630000D03*
X96520000Y-90170000D03*
X96520000Y-92710000D03*
X96520000Y-95250000D03*
X96520000Y-97790000D03*
X96520000Y-100330000D03*
X96520000Y-102870000D03*
X96520000Y-105410000D03*
X96520000Y-107950000D03*
X96520000Y-110490000D03*
X96520000Y-113030000D03*
D12*
X83820000Y-21590000D03*
D13*
X78740000Y-21590000D03*
D11*
X48260000Y-90170000D03*
D10*
X48260000Y-87630000D03*
X45720000Y-90170000D03*
X45720000Y-87630000D03*
X43180000Y-90170000D03*
X43180000Y-87630000D03*
X40640000Y-90170000D03*
X40640000Y-87630000D03*
X38100000Y-90170000D03*
X38100000Y-87630000D03*
X35560000Y-90170000D03*
X35560000Y-87630000D03*
X33020000Y-90170000D03*
X33020000Y-87630000D03*
X30480000Y-90170000D03*
X30480000Y-87630000D03*
D14*
X20490000Y-122990000D03*
D12*
X106680000Y-21590000D03*
D13*
X101600000Y-21590000D03*
D11*
X151765000Y-106680000D03*
D10*
X151765000Y-109220000D03*
X151765000Y-111760000D03*
X151765000Y-114300000D03*
X151765000Y-116840000D03*
D11*
X182880000Y-91440000D03*
D10*
X182880000Y-93980000D03*
X182880000Y-96520000D03*
X182880000Y-99060000D03*
X182880000Y-101600000D03*
X182880000Y-104140000D03*
X182880000Y-106680000D03*
X182880000Y-109220000D03*
X182880000Y-111760000D03*
X182880000Y-114300000D03*
X182880000Y-116840000D03*
D12*
X60960000Y-21590000D03*
D13*
X55880000Y-21590000D03*
M02*
