<?xml version="1.0" standalone="no"?>
 <!DOCTYPE svg PUBLIC "-//W3C//DTD SVG 1.1//EN" 
 "http://www.w3.org/Graphics/SVG/1.1/DTD/svg11.dtd"> 
<svg
  xmlns:svg="http://www.w3.org/2000/svg"
  xmlns="http://www.w3.org/2000/svg"
  xmlns:xlink="http://www.w3.org/1999/xlink"
  version="1.1"
  width="139.9794mm" height="99.9998mm" viewBox="0.0000 0.0000 139.9794 99.9998">

  <desc>Image generated by Eeschema-SVG </desc>
<g style="fill:#000000; fill-opacity:1.0000;stroke:#000000; stroke-opacity:1.0000;
stroke-linecap:round; stroke-linejoin:round;"
 transform="translate(0 0) scale(1 1)">
<path style="fill:none; 
stroke:#840000; stroke-width:0.1524; stroke-opacity:1; 
stroke-linecap:round; stroke-linejoin:round;fill:none"
d="M 101.6000,64.7700
111.7600,64.7700
" /> 
<path style="fill:none; 
stroke:#840000; stroke-width:0.2032; stroke-opacity:1; 
stroke-linecap:round; stroke-linejoin:round;fill:none"
d="M 102.8700,63.5000
105.4100,64.7700
102.8700,66.0400
102.8700,63.5000
102.8700,63.5000
Z" /> 
<path style="fill:none; 
stroke:#840000; stroke-width:0.2032; stroke-opacity:1; 
stroke-linecap:round; stroke-linejoin:round;fill:none"
d="M 105.4100,66.0400
105.4100,63.5000
105.4100,63.5000
" /> 
<path style="fill:none; 
stroke:#840000; stroke-width:0.1524; stroke-opacity:1; 
stroke-linecap:round; stroke-linejoin:round;fill:none"
d="M 106.6800,64.7700
106.6800,67.3100
" /> 
</g>
<g style="fill:#840000; fill-opacity:1.0000; 
stroke:#840000; stroke-width:0.1524; stroke-opacity:1; 
stroke-linecap:round; stroke-linejoin:round;">
<circle cx="106.6800" cy="64.7700" r="0.2540" /> 
<path style="fill:none; 
stroke:#840000; stroke-width:0.2032; stroke-opacity:1; 
stroke-linecap:round; stroke-linejoin:round;fill:none"
d="M 107.9500,63.5000
110.4900,64.7700
107.9500,66.0400
107.9500,63.5000
107.9500,63.5000
Z" /> 
<path style="fill:none; 
stroke:#840000; stroke-width:0.2032; stroke-opacity:1; 
stroke-linecap:round; stroke-linejoin:round;fill:none"
d="M 110.4900,63.5000
110.4900,66.0400
110.4900,66.0400
" /> 
</g>
<g style="fill:none; 
stroke:#840000; stroke-width:0.1524; stroke-opacity:1; 
stroke-linecap:round; stroke-linejoin:round;">
<path d="M101.6000 64.7700
L99.0600 64.7700
" />
</g>
<g style="fill:none; 
stroke:#A90000; stroke-width:0.1524; stroke-opacity:1; 
stroke-linecap:round; stroke-linejoin:round;">
<text x="100.3300" y="64.5160"
textLength="1.4127" font-size="1.6933" lengthAdjust="spacingAndGlyphs"
text-anchor="middle" opacity="0" stroke-opacity="0">1</text>
<g class="stroked-text"><desc>1</desc>
<path d="M100.6929 64.3525
L99.9672 64.3525
" />
<path d="M100.3300 64.3525
L100.3300 63.0825
" />
<path d="M100.3300 63.0825
L100.2091 63.2640
" />
<path d="M100.2091 63.2640
L100.0881 63.3849
" />
<path d="M100.0881 63.3849
L99.9672 63.4454
" />
</g></g>
<g style="fill:none; 
stroke:#840000; stroke-width:0.1524; stroke-opacity:1; 
stroke-linecap:round; stroke-linejoin:round;">
<path d="M106.6800 67.3100
L106.6800 69.8500
" />
</g>
<g style="fill:none; 
stroke:#A90000; stroke-width:0.1524; stroke-opacity:1; 
stroke-linecap:round; stroke-linejoin:round;">
<g transform="rotate(-90.000000 106.4260 68.5800)">
<text x="106.4260" y="68.5800"
textLength="1.4127" font-size="1.6933" lengthAdjust="spacingAndGlyphs"
text-anchor="middle" opacity="0" stroke-opacity="0">3</text>
</g>
<g class="stroked-text"><desc>3</desc>
<path d="M104.9925 69.0032
L104.9925 68.2170
" />
<path d="M104.9925 68.2170
L105.4763 68.6404
" />
<path d="M105.4763 68.6404
L105.4763 68.4589
" />
<path d="M105.4763 68.4589
L105.5368 68.3380
" />
<path d="M105.5368 68.3380
L105.5973 68.2775
" />
<path d="M105.5973 68.2775
L105.7182 68.2170
" />
<path d="M105.7182 68.2170
L106.0206 68.2170
" />
<path d="M106.0206 68.2170
L106.1416 68.2775
" />
<path d="M106.1416 68.2775
L106.2021 68.3380
" />
<path d="M106.2021 68.3380
L106.2625 68.4589
" />
<path d="M106.2625 68.4589
L106.2625 68.8218
" />
<path d="M106.2625 68.8218
L106.2021 68.9427
" />
<path d="M106.2021 68.9427
L106.1416 69.0032
" />
</g></g>
<g style="fill:none; 
stroke:#840000; stroke-width:0.1524; stroke-opacity:1; 
stroke-linecap:round; stroke-linejoin:round;">
<path d="M111.7600 64.7700
L114.3000 64.7700
" />
</g>
<g style="fill:none; 
stroke:#A90000; stroke-width:0.1524; stroke-opacity:1; 
stroke-linecap:round; stroke-linejoin:round;">
<text x="113.0300" y="64.5160"
textLength="1.4127" font-size="1.6933" lengthAdjust="spacingAndGlyphs"
text-anchor="middle" opacity="0" stroke-opacity="0">2</text>
<g class="stroked-text"><desc>2</desc>
<path d="M112.6672 63.2035
L112.7276 63.1430
" />
<path d="M112.7276 63.1430
L112.8486 63.0825
" />
<path d="M112.8486 63.0825
L113.1510 63.0825
" />
<path d="M113.1510 63.0825
L113.2719 63.1430
" />
<path d="M113.2719 63.1430
L113.3324 63.2035
" />
<path d="M113.3324 63.2035
L113.3929 63.3244
" />
<path d="M113.3929 63.3244
L113.3929 63.4454
" />
<path d="M113.3929 63.4454
L113.3324 63.6268
" />
<path d="M113.3324 63.6268
L112.6067 64.3525
" />
<path d="M112.6067 64.3525
L113.3929 64.3525
" />
</g></g>
<g style="fill:none; 
stroke:#006464; stroke-width:0.1524; stroke-opacity:1; 
stroke-linecap:round; stroke-linejoin:round;">
<text x="106.6800" y="59.0550"
textLength="2.6827" font-size="1.6933" lengthAdjust="spacingAndGlyphs"
text-anchor="middle" opacity="0" stroke-opacity="0">D3</text>
<g class="stroked-text"><desc>D3</desc>
<path d="M105.7426 58.9995
L105.7426 57.7295
" />
<path d="M105.7426 57.7295
L106.0450 57.7295
" />
<path d="M106.0450 57.7295
L106.2264 57.7900
" />
<path d="M106.2264 57.7900
L106.3474 57.9110
" />
<path d="M106.3474 57.9110
L106.4079 58.0319
" />
<path d="M106.4079 58.0319
L106.4683 58.2738
" />
<path d="M106.4683 58.2738
L106.4683 58.4552
" />
<path d="M106.4683 58.4552
L106.4079 58.6971
" />
<path d="M106.4079 58.6971
L106.3474 58.8181
" />
<path d="M106.3474 58.8181
L106.2264 58.9391
" />
<path d="M106.2264 58.9391
L106.0450 58.9995
" />
<path d="M106.0450 58.9995
L105.7426 58.9995
" />
<path d="M106.8917 57.7295
L107.6779 57.7295
" />
<path d="M107.6779 57.7295
L107.2545 58.2133
" />
<path d="M107.2545 58.2133
L107.4360 58.2133
" />
<path d="M107.4360 58.2133
L107.5569 58.2738
" />
<path d="M107.5569 58.2738
L107.6174 58.3343
" />
<path d="M107.6174 58.3343
L107.6779 58.4552
" />
<path d="M107.6779 58.4552
L107.6779 58.7576
" />
<path d="M107.6779 58.7576
L107.6174 58.8786
" />
<path d="M107.6174 58.8786
L107.5569 58.9391
" />
<path d="M107.5569 58.9391
L107.4360 58.9995
" />
<path d="M107.4360 58.9995
L107.0731 58.9995
" />
<path d="M107.0731 58.9995
L106.9522 58.9391
" />
<path d="M106.9522 58.9391
L106.8917 58.8786
" />
</g><text x="106.6800" y="61.5950"
textLength="11.5123" font-size="1.6933" lengthAdjust="spacingAndGlyphs"
text-anchor="middle" opacity="0" stroke-opacity="0">BAV99-7-F</text>
<g class="stroked-text"><desc>BAV99-7-F</desc>
<path d="M101.7512 60.8743
L101.9326 60.9348
" />
<path d="M101.9326 60.9348
L101.9931 60.9952
" />
<path d="M101.9931 60.9952
L102.0535 61.1162
" />
<path d="M102.0535 61.1162
L102.0535 61.2976
" />
<path d="M102.0535 61.2976
L101.9931 61.4186
" />
<path d="M101.9931 61.4186
L101.9326 61.4791
" />
<path d="M101.9326 61.4791
L101.8116 61.5395
" />
<path d="M101.8116 61.5395
L101.3278 61.5395
" />
<path d="M101.3278 61.5395
L101.3278 60.2695
" />
<path d="M101.3278 60.2695
L101.7512 60.2695
" />
<path d="M101.7512 60.2695
L101.8721 60.3300
" />
<path d="M101.8721 60.3300
L101.9326 60.3905
" />
<path d="M101.9326 60.3905
L101.9931 60.5114
" />
<path d="M101.9931 60.5114
L101.9931 60.6324
" />
<path d="M101.9931 60.6324
L101.9326 60.7533
" />
<path d="M101.9326 60.7533
L101.8721 60.8138
" />
<path d="M101.8721 60.8138
L101.7512 60.8743
" />
<path d="M101.7512 60.8743
L101.3278 60.8743
" />
<path d="M102.5374 61.1767
L103.1421 61.1767
" />
<path d="M102.4164 61.5395
L102.8397 60.2695
" />
<path d="M102.8397 60.2695
L103.2631 61.5395
" />
<path d="M103.5050 60.2695
L103.9283 61.5395
" />
<path d="M103.9283 61.5395
L104.3517 60.2695
" />
<path d="M104.8355 61.5395
L105.0774 61.5395
" />
<path d="M105.0774 61.5395
L105.1984 61.4791
" />
<path d="M105.1984 61.4791
L105.2588 61.4186
" />
<path d="M105.2588 61.4186
L105.3798 61.2371
" />
<path d="M105.3798 61.2371
L105.4403 60.9952
" />
<path d="M105.4403 60.9952
L105.4403 60.5114
" />
<path d="M105.4403 60.5114
L105.3798 60.3905
" />
<path d="M105.3798 60.3905
L105.3193 60.3300
" />
<path d="M105.3193 60.3300
L105.1984 60.2695
" />
<path d="M105.1984 60.2695
L104.9565 60.2695
" />
<path d="M104.9565 60.2695
L104.8355 60.3300
" />
<path d="M104.8355 60.3300
L104.7750 60.3905
" />
<path d="M104.7750 60.3905
L104.7146 60.5114
" />
<path d="M104.7146 60.5114
L104.7146 60.8138
" />
<path d="M104.7146 60.8138
L104.7750 60.9348
" />
<path d="M104.7750 60.9348
L104.8355 60.9952
" />
<path d="M104.8355 60.9952
L104.9565 61.0557
" />
<path d="M104.9565 61.0557
L105.1984 61.0557
" />
<path d="M105.1984 61.0557
L105.3193 60.9952
" />
<path d="M105.3193 60.9952
L105.3798 60.9348
" />
<path d="M105.3798 60.9348
L105.4403 60.8138
" />
<path d="M106.0450 61.5395
L106.2869 61.5395
" />
<path d="M106.2869 61.5395
L106.4079 61.4791
" />
<path d="M106.4079 61.4791
L106.4683 61.4186
" />
<path d="M106.4683 61.4186
L106.5893 61.2371
" />
<path d="M106.5893 61.2371
L106.6498 60.9952
" />
<path d="M106.6498 60.9952
L106.6498 60.5114
" />
<path d="M106.6498 60.5114
L106.5893 60.3905
" />
<path d="M106.5893 60.3905
L106.5288 60.3300
" />
<path d="M106.5288 60.3300
L106.4079 60.2695
" />
<path d="M106.4079 60.2695
L106.1660 60.2695
" />
<path d="M106.1660 60.2695
L106.0450 60.3300
" />
<path d="M106.0450 60.3300
L105.9845 60.3905
" />
<path d="M105.9845 60.3905
L105.9241 60.5114
" />
<path d="M105.9241 60.5114
L105.9241 60.8138
" />
<path d="M105.9241 60.8138
L105.9845 60.9348
" />
<path d="M105.9845 60.9348
L106.0450 60.9952
" />
<path d="M106.0450 60.9952
L106.1660 61.0557
" />
<path d="M106.1660 61.0557
L106.4079 61.0557
" />
<path d="M106.4079 61.0557
L106.5288 60.9952
" />
<path d="M106.5288 60.9952
L106.5893 60.9348
" />
<path d="M106.5893 60.9348
L106.6498 60.8138
" />
<path d="M107.1940 61.0557
L108.1617 61.0557
" />
<path d="M108.6455 60.2695
L109.4921 60.2695
" />
<path d="M109.4921 60.2695
L108.9479 61.5395
" />
<path d="M109.9759 61.0557
L110.9436 61.0557
" />
<path d="M111.9717 60.8743
L111.5483 60.8743
" />
<path d="M111.5483 61.5395
L111.5483 60.2695
" />
<path d="M111.5483 60.2695
L112.1531 60.2695
" />
</g></g>
<g style="fill:none; 
stroke:#840000; stroke-width:0.2540; stroke-opacity:1; 
stroke-linecap:round; stroke-linejoin:round;">
<rect x="68.580000" y="63.754000" width="5.080000" height="2.032000" rx="0.000000" />
</g>
<g style="fill:none; 
stroke:#840000; stroke-width:0.1524; stroke-opacity:1; 
stroke-linecap:round; stroke-linejoin:round;">
<path d="M73.6600 64.7700
L74.9300 64.7700
" />
<path d="M68.5800 64.7700
L67.3100 64.7700
" />
</g>
<g style="fill:none; 
stroke:#006464; stroke-width:0.1524; stroke-opacity:1; 
stroke-linecap:round; stroke-linejoin:round;">
<text x="71.1200" y="59.0550"
textLength="2.6827" font-size="1.6933" lengthAdjust="spacingAndGlyphs"
text-anchor="middle" opacity="0" stroke-opacity="0">R3</text>
<g class="stroked-text"><desc>R3</desc>
<path d="M70.9083 58.9995
L70.4850 58.3948
" />
<path d="M70.1826 58.9995
L70.1826 57.7295
" />
<path d="M70.1826 57.7295
L70.6664 57.7295
" />
<path d="M70.6664 57.7295
L70.7874 57.7900
" />
<path d="M70.7874 57.7900
L70.8479 57.8505
" />
<path d="M70.8479 57.8505
L70.9083 57.9714
" />
<path d="M70.9083 57.9714
L70.9083 58.1529
" />
<path d="M70.9083 58.1529
L70.8479 58.2738
" />
<path d="M70.8479 58.2738
L70.7874 58.3343
" />
<path d="M70.7874 58.3343
L70.6664 58.3948
" />
<path d="M70.6664 58.3948
L70.1826 58.3948
" />
<path d="M71.3317 57.7295
L72.1179 57.7295
" />
<path d="M72.1179 57.7295
L71.6945 58.2133
" />
<path d="M71.6945 58.2133
L71.8760 58.2133
" />
<path d="M71.8760 58.2133
L71.9969 58.2738
" />
<path d="M71.9969 58.2738
L72.0574 58.3343
" />
<path d="M72.0574 58.3343
L72.1179 58.4552
" />
<path d="M72.1179 58.4552
L72.1179 58.7576
" />
<path d="M72.1179 58.7576
L72.0574 58.8786
" />
<path d="M72.0574 58.8786
L71.9969 58.9391
" />
<path d="M71.9969 58.9391
L71.8760 58.9995
" />
<path d="M71.8760 58.9995
L71.5131 58.9995
" />
<path d="M71.5131 58.9995
L71.3922 58.9391
" />
<path d="M71.3922 58.9391
L71.3317 58.8786
" />
</g><text x="71.1200" y="61.5950"
textLength="7.5207" font-size="1.6933" lengthAdjust="spacingAndGlyphs"
text-anchor="middle" opacity="0" stroke-opacity="0">1kΩ 1W</text>
<g class="stroked-text"><desc>1kΩ 1W</desc>
<path d="M68.4289 61.5395
L67.7032 61.5395
" />
<path d="M68.0660 61.5395
L68.0660 60.2695
" />
<path d="M68.0660 60.2695
L67.9451 60.4510
" />
<path d="M67.9451 60.4510
L67.8241 60.5719
" />
<path d="M67.8241 60.5719
L67.7032 60.6324
" />
<path d="M68.9731 61.5395
L68.9731 60.2695
" />
<path d="M69.0941 61.0557
L69.4569 61.5395
" />
<path d="M69.4569 60.6929
L68.9731 61.1767
" />
<path d="M69.9408 61.5395
L70.2431 61.5395
" />
<path d="M70.2431 61.5395
L70.2431 61.2976
" />
<path d="M70.2431 61.2976
L70.1222 61.2371
" />
<path d="M70.1222 61.2371
L70.0012 61.1162
" />
<path d="M70.0012 61.1162
L69.9408 60.9348
" />
<path d="M69.9408 60.9348
L69.9408 60.6324
" />
<path d="M69.9408 60.6324
L70.0012 60.4510
" />
<path d="M70.0012 60.4510
L70.1222 60.3300
" />
<path d="M70.1222 60.3300
L70.3036 60.2695
" />
<path d="M70.3036 60.2695
L70.5455 60.2695
" />
<path d="M70.5455 60.2695
L70.7269 60.3300
" />
<path d="M70.7269 60.3300
L70.8479 60.4510
" />
<path d="M70.8479 60.4510
L70.9084 60.6324
" />
<path d="M70.9084 60.6324
L70.9084 60.9348
" />
<path d="M70.9084 60.9348
L70.8479 61.1162
" />
<path d="M70.8479 61.1162
L70.7269 61.2371
" />
<path d="M70.7269 61.2371
L70.6060 61.2976
" />
<path d="M70.6060 61.2976
L70.6060 61.5395
" />
<path d="M70.6060 61.5395
L70.9084 61.5395
" />
<path d="M73.0855 61.5395
L72.3598 61.5395
" />
<path d="M72.7226 61.5395
L72.7226 60.2695
" />
<path d="M72.7226 60.2695
L72.6017 60.4510
" />
<path d="M72.6017 60.4510
L72.4807 60.5719
" />
<path d="M72.4807 60.5719
L72.3598 60.6324
" />
<path d="M73.5088 60.2695
L73.8112 61.5395
" />
<path d="M73.8112 61.5395
L74.0531 60.6324
" />
<path d="M74.0531 60.6324
L74.2950 61.5395
" />
<path d="M74.2950 61.5395
L74.5974 60.2695
" />
</g><path style="fill:none; 
stroke:#840000; stroke-width:0.1524; stroke-opacity:1; 
stroke-linecap:round; stroke-linejoin:round;fill:none"
d="M 119.3800,29.7180
120.6500,30.4800
" /> 
<path style="fill:none; 
stroke:#840000; stroke-width:0.1524; stroke-opacity:1; 
stroke-linecap:round; stroke-linejoin:round;fill:none"
d="M 120.6500,30.4800
119.3800,31.2420
" /> 
<path style="fill:none; 
stroke:#840000; stroke-width:0.1524; stroke-opacity:1; 
stroke-linecap:round; stroke-linejoin:round;fill:none"
d="M 118.1100,30.4800
120.6500,30.4800
" /> 
</g>
<g style="fill:none; 
stroke:#840000; stroke-width:0.1524; stroke-opacity:1; 
stroke-linecap:round; stroke-linejoin:round;">
<path d="M118.1100 30.4800
L118.1100 30.4800
" />
</g>
<g style="fill:none; 
stroke:#006464; stroke-width:0.1524; stroke-opacity:1; 
stroke-linecap:round; stroke-linejoin:round;">
<text x="123.9664" y="31.1151"
textLength="4.0737" font-size="1.6933" lengthAdjust="spacingAndGlyphs"
text-anchor="middle" opacity="0" stroke-opacity="0">+5V</text>
<g class="stroked-text"><desc>+5V</desc>
<path d="M122.3335 30.5758
L123.3012 30.5758
" />
<path d="M122.8173 31.0596
L122.8173 30.0920
" />
<path d="M124.5107 29.7896
L123.9059 29.7896
" />
<path d="M123.9059 29.7896
L123.8455 30.3944
" />
<path d="M123.8455 30.3944
L123.9059 30.3339
" />
<path d="M123.9059 30.3339
L124.0269 30.2734
" />
<path d="M124.0269 30.2734
L124.3293 30.2734
" />
<path d="M124.3293 30.2734
L124.4502 30.3339
" />
<path d="M124.4502 30.3339
L124.5107 30.3944
" />
<path d="M124.5107 30.3944
L124.5712 30.5153
" />
<path d="M124.5712 30.5153
L124.5712 30.8177
" />
<path d="M124.5712 30.8177
L124.5107 30.9387
" />
<path d="M124.5107 30.9387
L124.4502 30.9992
" />
<path d="M124.4502 30.9992
L124.3293 31.0596
" />
<path d="M124.3293 31.0596
L124.0269 31.0596
" />
<path d="M124.0269 31.0596
L123.9059 30.9992
" />
<path d="M123.9059 30.9992
L123.8455 30.9387
" />
<path d="M124.9340 29.7896
L125.3573 31.0596
" />
<path d="M125.3573 31.0596
L125.7807 29.7896
" />
</g><path style="fill:none; 
stroke:#840000; stroke-width:0.1524; stroke-opacity:1; 
stroke-linecap:round; stroke-linejoin:round;fill:none"
d="M 105.4100,30.4800
104.1400,30.4800
104.1400,31.7500
102.8700,30.4800
104.1400,29.2100
104.1400,30.4800
" /> 
</g>
<g style="fill:none; 
stroke:#840000; stroke-width:0.1524; stroke-opacity:1; 
stroke-linecap:round; stroke-linejoin:round;">
<path d="M105.4100 30.4800
L105.4100 30.4800
" />
</g>
<g style="fill:none; 
stroke:#006464; stroke-width:0.1524; stroke-opacity:1; 
stroke-linecap:round; stroke-linejoin:round;">
<text x="99.5535" y="31.1151"
textLength="4.0737" font-size="1.6933" lengthAdjust="spacingAndGlyphs"
text-anchor="middle" opacity="0" stroke-opacity="0">GND</text>
<g class="stroked-text"><desc>GND</desc>
<path d="M98.5859 29.8501
L98.4649 29.7896
" />
<path d="M98.4649 29.7896
L98.2835 29.7896
" />
<path d="M98.2835 29.7896
L98.1021 29.8501
" />
<path d="M98.1021 29.8501
L97.9811 29.9711
" />
<path d="M97.9811 29.9711
L97.9206 30.0920
" />
<path d="M97.9206 30.0920
L97.8602 30.3339
" />
<path d="M97.8602 30.3339
L97.8602 30.5153
" />
<path d="M97.8602 30.5153
L97.9206 30.7572
" />
<path d="M97.9206 30.7572
L97.9811 30.8782
" />
<path d="M97.9811 30.8782
L98.1021 30.9992
" />
<path d="M98.1021 30.9992
L98.2835 31.0596
" />
<path d="M98.2835 31.0596
L98.4044 31.0596
" />
<path d="M98.4044 31.0596
L98.5859 30.9992
" />
<path d="M98.5859 30.9992
L98.6463 30.9387
" />
<path d="M98.6463 30.9387
L98.6463 30.5153
" />
<path d="M98.6463 30.5153
L98.4044 30.5153
" />
<path d="M99.1906 31.0596
L99.1906 29.7896
" />
<path d="M99.1906 29.7896
L99.9163 31.0596
" />
<path d="M99.9163 31.0596
L99.9163 29.7896
" />
<path d="M100.5211 31.0596
L100.5211 29.7896
" />
<path d="M100.5211 29.7896
L100.8235 29.7896
" />
<path d="M100.8235 29.7896
L101.0049 29.8501
" />
<path d="M101.0049 29.8501
L101.1259 29.9711
" />
<path d="M101.1259 29.9711
L101.1864 30.0920
" />
<path d="M101.1864 30.0920
L101.2468 30.3339
" />
<path d="M101.2468 30.3339
L101.2468 30.5153
" />
<path d="M101.2468 30.5153
L101.1864 30.7572
" />
<path d="M101.1864 30.7572
L101.1259 30.8782
" />
<path d="M101.1259 30.8782
L101.0049 30.9992
" />
<path d="M101.0049 30.9992
L100.8235 31.0596
" />
<path d="M100.8235 31.0596
L100.5211 31.0596
" />
</g><path style="fill:none; 
stroke:#840000; stroke-width:0.1524; stroke-opacity:1; 
stroke-linecap:round; stroke-linejoin:round;fill:none"
d="M 38.1000,30.4800
36.8300,30.4800
36.1950,31.4960
35.5600,30.4800
36.1950,29.4640
36.8300,30.4800
" /> 
</g>
<g style="fill:none; 
stroke:#840000; stroke-width:0.1524; stroke-opacity:1; 
stroke-linecap:round; stroke-linejoin:round;">
<path d="M38.1000 30.4800
L38.1000 30.4800
" />
</g>
<g style="fill:none; 
stroke:#006464; stroke-width:0.1524; stroke-opacity:1; 
stroke-linecap:round; stroke-linejoin:round;">
<text x="29.4616" y="31.1148"
textLength="9.6375" font-size="1.6933" lengthAdjust="spacingAndGlyphs"
text-anchor="middle" opacity="0" stroke-opacity="0">PWR_FLAG</text>
<g class="stroked-text"><desc>PWR_FLAG</desc>
<path d="M25.0468 31.0593
L25.0468 29.7893
" />
<path d="M25.0468 29.7893
L25.5306 29.7893
" />
<path d="M25.5306 29.7893
L25.6516 29.8498
" />
<path d="M25.6516 29.8498
L25.7121 29.9103
" />
<path d="M25.7121 29.9103
L25.7725 30.0312
" />
<path d="M25.7725 30.0312
L25.7725 30.2127
" />
<path d="M25.7725 30.2127
L25.7121 30.3336
" />
<path d="M25.7121 30.3336
L25.6516 30.3941
" />
<path d="M25.6516 30.3941
L25.5306 30.4546
" />
<path d="M25.5306 30.4546
L25.0468 30.4546
" />
<path d="M26.1959 29.7893
L26.4983 31.0593
" />
<path d="M26.4983 31.0593
L26.7402 30.1522
" />
<path d="M26.7402 30.1522
L26.9821 31.0593
" />
<path d="M26.9821 31.0593
L27.2845 29.7893
" />
<path d="M28.4939 31.0593
L28.0706 30.4546
" />
<path d="M27.7682 31.0593
L27.7682 29.7893
" />
<path d="M27.7682 29.7893
L28.2520 29.7893
" />
<path d="M28.2520 29.7893
L28.3730 29.8498
" />
<path d="M28.3730 29.8498
L28.4335 29.9103
" />
<path d="M28.4335 29.9103
L28.4939 30.0312
" />
<path d="M28.4939 30.0312
L28.4939 30.2127
" />
<path d="M28.4939 30.2127
L28.4335 30.3336
" />
<path d="M28.4335 30.3336
L28.3730 30.3941
" />
<path d="M28.3730 30.3941
L28.2520 30.4546
" />
<path d="M28.2520 30.4546
L27.7682 30.4546
" />
<path d="M28.7359 31.1803
L29.7035 31.1803
" />
<path d="M30.4292 30.3941
L30.0058 30.3941
" />
<path d="M30.0058 31.0593
L30.0058 29.7893
" />
<path d="M30.0058 29.7893
L30.6106 29.7893
" />
<path d="M31.6992 31.0593
L31.0944 31.0593
" />
<path d="M31.0944 31.0593
L31.0944 29.7893
" />
<path d="M32.0621 30.6965
L32.6668 30.6965
" />
<path d="M31.9411 31.0593
L32.3644 29.7893
" />
<path d="M32.3644 29.7893
L32.7878 31.0593
" />
<path d="M33.8764 29.8498
L33.7554 29.7893
" />
<path d="M33.7554 29.7893
L33.5740 29.7893
" />
<path d="M33.5740 29.7893
L33.3926 29.8498
" />
<path d="M33.3926 29.8498
L33.2716 29.9708
" />
<path d="M33.2716 29.9708
L33.2111 30.0917
" />
<path d="M33.2111 30.0917
L33.1507 30.3336
" />
<path d="M33.1507 30.3336
L33.1507 30.5150
" />
<path d="M33.1507 30.5150
L33.2111 30.7569
" />
<path d="M33.2111 30.7569
L33.2716 30.8779
" />
<path d="M33.2716 30.8779
L33.3926 30.9989
" />
<path d="M33.3926 30.9989
L33.5740 31.0593
" />
<path d="M33.5740 31.0593
L33.6949 31.0593
" />
<path d="M33.6949 31.0593
L33.8764 30.9989
" />
<path d="M33.8764 30.9989
L33.9368 30.9384
" />
<path d="M33.9368 30.9384
L33.9368 30.5150
" />
<path d="M33.9368 30.5150
L33.6949 30.5150
" />
</g></g>
<g style="fill:#FFFFC2; fill-opacity:1.0000; stroke:none;">
<rect x="109.220000" y="10.160000" width="5.080000" height="2.540000" rx="0.000000" />
</g>
<g style="fill:none; 
stroke:#840000; stroke-width:0.2540; stroke-opacity:1; 
stroke-linecap:round; stroke-linejoin:round;">
<rect x="109.220000" y="10.160000" width="5.080000" height="2.540000" rx="0.000000" />
<path style="fill:none; 
stroke:#840000; stroke-width:0.1524; stroke-opacity:1; 
stroke-linecap:round; stroke-linejoin:round;fill:none"
d="M 110.1598,11.9634
110.9980,11.0998
" /> 
<path style="fill:none; 
stroke:#840000; stroke-width:0.1524; stroke-opacity:1; 
stroke-linecap:round; stroke-linejoin:round;fill:none"
d="M 112.6998,11.9634
113.5380,11.0998
" /> 
<path style="fill:none; 
stroke:#840000; stroke-width:0.1524; stroke-opacity:1; 
stroke-linecap:round; stroke-linejoin:round;fill:none"
d="M 109.9820,11.7856
110.8202,10.9220
" /> 
<path style="fill:none; 
stroke:#840000; stroke-width:0.1524; stroke-opacity:1; 
stroke-linecap:round; stroke-linejoin:round;fill:none"
d="M 112.5220,11.7856
113.3602,10.9220
" /> 
</g>
<g style="fill:none; 
stroke:#840000; stroke-width:0.1524; stroke-opacity:1; 
stroke-linecap:round; stroke-linejoin:round;">
<circle cx="110.4900" cy="11.4300" r="0.6350" /> 
<circle cx="113.0300" cy="11.4300" r="0.6350" /> 
<path d="M110.4900 12.7000
L110.4900 16.5100
" />
</g>
<g style="fill:none; 
stroke:#A90000; stroke-width:0.1524; stroke-opacity:1; 
stroke-linecap:round; stroke-linejoin:round;">
<g transform="rotate(-90.000000 110.2360 14.6050)">
<text x="110.2360" y="14.6050"
textLength="1.4127" font-size="1.6933" lengthAdjust="spacingAndGlyphs"
text-anchor="middle" opacity="0" stroke-opacity="0">1</text>
</g>
<g class="stroked-text"><desc>1</desc>
<path d="M110.0725 14.2420
L110.0725 14.9677
" />
<path d="M110.0725 14.6049
L108.8025 14.6049
" />
<path d="M108.8025 14.6049
L108.9840 14.7258
" />
<path d="M108.9840 14.7258
L109.1049 14.8468
" />
<path d="M109.1049 14.8468
L109.1654 14.9677
" />
</g></g>
<g style="fill:none; 
stroke:#840000; stroke-width:0.1524; stroke-opacity:1; 
stroke-linecap:round; stroke-linejoin:round;">
<path d="M113.0300 12.7000
L113.0300 16.5100
" />
</g>
<g style="fill:none; 
stroke:#A90000; stroke-width:0.1524; stroke-opacity:1; 
stroke-linecap:round; stroke-linejoin:round;">
<g transform="rotate(-90.000000 112.7760 14.6050)">
<text x="112.7760" y="14.6050"
textLength="1.4127" font-size="1.6933" lengthAdjust="spacingAndGlyphs"
text-anchor="middle" opacity="0" stroke-opacity="0">2</text>
</g>
<g class="stroked-text"><desc>2</desc>
<path d="M111.4635 14.9677
L111.4030 14.9073
" />
<path d="M111.4030 14.9073
L111.3425 14.7863
" />
<path d="M111.3425 14.7863
L111.3425 14.4839
" />
<path d="M111.3425 14.4839
L111.4030 14.3630
" />
<path d="M111.4030 14.3630
L111.4635 14.3025
" />
<path d="M111.4635 14.3025
L111.5844 14.2420
" />
<path d="M111.5844 14.2420
L111.7054 14.2420
" />
<path d="M111.7054 14.2420
L111.8868 14.3025
" />
<path d="M111.8868 14.3025
L112.6125 15.0282
" />
<path d="M112.6125 15.0282
L112.6125 14.2420
" />
</g></g>
<g style="fill:none; 
stroke:#006464; stroke-width:0.1524; stroke-opacity:1; 
stroke-linecap:round; stroke-linejoin:round;">
<text x="116.7697" y="10.7948"
textLength="2.3803" font-size="1.6933" lengthAdjust="spacingAndGlyphs"
text-anchor="middle" opacity="0" stroke-opacity="0">J4</text>
<g class="stroked-text"><desc>J4</desc>
<path d="M116.3464 9.4693
L116.3464 10.3765
" />
<path d="M116.3464 10.3765
L116.2859 10.5579
" />
<path d="M116.2859 10.5579
L116.1650 10.6789
" />
<path d="M116.1650 10.6789
L115.9835 10.7393
" />
<path d="M115.9835 10.7393
L115.8626 10.7393
" />
<path d="M117.4954 9.8927
L117.4954 10.7393
" />
<path d="M117.1930 9.4089
L116.8907 10.3160
" />
<path d="M116.8907 10.3160
L117.6768 10.3160
" />
</g><text x="118.5840" y="13.3348"
textLength="6.0089" font-size="1.6933" lengthAdjust="spacingAndGlyphs"
text-anchor="middle" opacity="0" stroke-opacity="0">5V DC</text>
<g class="stroked-text"><desc>5V DC</desc>
<path d="M116.5883 12.0093
L115.9835 12.0093
" />
<path d="M115.9835 12.0093
L115.9231 12.6141
" />
<path d="M115.9231 12.6141
L115.9835 12.5536
" />
<path d="M115.9835 12.5536
L116.1045 12.4931
" />
<path d="M116.1045 12.4931
L116.4069 12.4931
" />
<path d="M116.4069 12.4931
L116.5278 12.5536
" />
<path d="M116.5278 12.5536
L116.5883 12.6141
" />
<path d="M116.5883 12.6141
L116.6488 12.7350
" />
<path d="M116.6488 12.7350
L116.6488 13.0374
" />
<path d="M116.6488 13.0374
L116.5883 13.1584
" />
<path d="M116.5883 13.1584
L116.5278 13.2189
" />
<path d="M116.5278 13.2189
L116.4069 13.2793
" />
<path d="M116.4069 13.2793
L116.1045 13.2793
" />
<path d="M116.1045 13.2793
L115.9835 13.2189
" />
<path d="M115.9835 13.2189
L115.9231 13.1584
" />
<path d="M117.0116 12.0093
L117.4349 13.2793
" />
<path d="M117.4349 13.2793
L117.8583 12.0093
" />
<path d="M119.2492 13.2793
L119.2492 12.0093
" />
<path d="M119.2492 12.0093
L119.5516 12.0093
" />
<path d="M119.5516 12.0093
L119.7330 12.0698
" />
<path d="M119.7330 12.0698
L119.8540 12.1908
" />
<path d="M119.8540 12.1908
L119.9145 12.3117
" />
<path d="M119.9145 12.3117
L119.9749 12.5536
" />
<path d="M119.9749 12.5536
L119.9749 12.7350
" />
<path d="M119.9749 12.7350
L119.9145 12.9769
" />
<path d="M119.9145 12.9769
L119.8540 13.0979
" />
<path d="M119.8540 13.0979
L119.7330 13.2189
" />
<path d="M119.7330 13.2189
L119.5516 13.2793
" />
<path d="M119.5516 13.2793
L119.2492 13.2793
" />
<path d="M121.2449 13.1584
L121.1845 13.2189
" />
<path d="M121.1845 13.2189
L121.0030 13.2793
" />
<path d="M121.0030 13.2793
L120.8821 13.2793
" />
<path d="M120.8821 13.2793
L120.7007 13.2189
" />
<path d="M120.7007 13.2189
L120.5797 13.0979
" />
<path d="M120.5797 13.0979
L120.5192 12.9769
" />
<path d="M120.5192 12.9769
L120.4588 12.7350
" />
<path d="M120.4588 12.7350
L120.4588 12.5536
" />
<path d="M120.4588 12.5536
L120.5192 12.3117
" />
<path d="M120.5192 12.3117
L120.5797 12.1908
" />
<path d="M120.5797 12.1908
L120.7007 12.0698
" />
<path d="M120.7007 12.0698
L120.8821 12.0093
" />
<path d="M120.8821 12.0093
L121.0030 12.0093
" />
<path d="M121.0030 12.0093
L121.1845 12.0698
" />
<path d="M121.1845 12.0698
L121.2449 12.1303
" />
</g><path style="fill:none; 
stroke:#840000; stroke-width:0.1524; stroke-opacity:1; 
stroke-linecap:round; stroke-linejoin:round;fill:none"
d="M 20.3200,22.8600
20.3200,21.5900
19.3040,20.9550
20.3200,20.3200
21.3360,20.9550
20.3200,21.5900
" /> 
</g>
<g style="fill:none; 
stroke:#840000; stroke-width:0.1524; stroke-opacity:1; 
stroke-linecap:round; stroke-linejoin:round;">
<path d="M20.3200 22.8600
L20.3200 22.8600
" />
</g>
<g style="fill:none; 
stroke:#006464; stroke-width:0.1524; stroke-opacity:1; 
stroke-linecap:round; stroke-linejoin:round;">
<text x="20.3200" y="18.4150"
textLength="9.6375" font-size="1.6933" lengthAdjust="spacingAndGlyphs"
text-anchor="middle" opacity="0" stroke-opacity="0">PWR_FLAG</text>
<g class="stroked-text"><desc>PWR_FLAG</desc>
<path d="M15.9052 18.3595
L15.9052 17.0895
" />
<path d="M15.9052 17.0895
L16.3890 17.0895
" />
<path d="M16.3890 17.0895
L16.5100 17.1500
" />
<path d="M16.5100 17.1500
L16.5705 17.2105
" />
<path d="M16.5705 17.2105
L16.6309 17.3314
" />
<path d="M16.6309 17.3314
L16.6309 17.5129
" />
<path d="M16.6309 17.5129
L16.5705 17.6338
" />
<path d="M16.5705 17.6338
L16.5100 17.6943
" />
<path d="M16.5100 17.6943
L16.3890 17.7548
" />
<path d="M16.3890 17.7548
L15.9052 17.7548
" />
<path d="M17.0543 17.0895
L17.3567 18.3595
" />
<path d="M17.3567 18.3595
L17.5986 17.4524
" />
<path d="M17.5986 17.4524
L17.8405 18.3595
" />
<path d="M17.8405 18.3595
L18.1429 17.0895
" />
<path d="M19.3523 18.3595
L18.9290 17.7548
" />
<path d="M18.6266 18.3595
L18.6266 17.0895
" />
<path d="M18.6266 17.0895
L19.1104 17.0895
" />
<path d="M19.1104 17.0895
L19.2314 17.1500
" />
<path d="M19.2314 17.1500
L19.2919 17.2105
" />
<path d="M19.2919 17.2105
L19.3523 17.3314
" />
<path d="M19.3523 17.3314
L19.3523 17.5129
" />
<path d="M19.3523 17.5129
L19.2919 17.6338
" />
<path d="M19.2919 17.6338
L19.2314 17.6943
" />
<path d="M19.2314 17.6943
L19.1104 17.7548
" />
<path d="M19.1104 17.7548
L18.6266 17.7548
" />
<path d="M19.5943 18.4805
L20.5619 18.4805
" />
<path d="M21.2876 17.6943
L20.8642 17.6943
" />
<path d="M20.8642 18.3595
L20.8642 17.0895
" />
<path d="M20.8642 17.0895
L21.4690 17.0895
" />
<path d="M22.5576 18.3595
L21.9528 18.3595
" />
<path d="M21.9528 18.3595
L21.9528 17.0895
" />
<path d="M22.9205 17.9967
L23.5252 17.9967
" />
<path d="M22.7995 18.3595
L23.2228 17.0895
" />
<path d="M23.2228 17.0895
L23.6462 18.3595
" />
<path d="M24.7348 17.1500
L24.6138 17.0895
" />
<path d="M24.6138 17.0895
L24.4324 17.0895
" />
<path d="M24.4324 17.0895
L24.2510 17.1500
" />
<path d="M24.2510 17.1500
L24.1300 17.2710
" />
<path d="M24.1300 17.2710
L24.0695 17.3919
" />
<path d="M24.0695 17.3919
L24.0091 17.6338
" />
<path d="M24.0091 17.6338
L24.0091 17.8152
" />
<path d="M24.0091 17.8152
L24.0695 18.0571
" />
<path d="M24.0695 18.0571
L24.1300 18.1781
" />
<path d="M24.1300 18.1781
L24.2510 18.2991
" />
<path d="M24.2510 18.2991
L24.4324 18.3595
" />
<path d="M24.4324 18.3595
L24.5533 18.3595
" />
<path d="M24.5533 18.3595
L24.7348 18.2991
" />
<path d="M24.7348 18.2991
L24.7952 18.2386
" />
<path d="M24.7952 18.2386
L24.7952 17.8152
" />
<path d="M24.7952 17.8152
L24.5533 17.8152
" />
</g></g>
<g style="fill:#FFFFC2; fill-opacity:1.0000; stroke:none;">
<rect x="34.290000" y="10.160000" width="5.080000" height="2.540000" rx="0.000000" />
</g>
<g style="fill:none; 
stroke:#840000; stroke-width:0.2540; stroke-opacity:1; 
stroke-linecap:round; stroke-linejoin:round;">
<rect x="34.290000" y="10.160000" width="5.080000" height="2.540000" rx="0.000000" />
<path style="fill:none; 
stroke:#840000; stroke-width:0.1524; stroke-opacity:1; 
stroke-linecap:round; stroke-linejoin:round;fill:none"
d="M 35.2298,11.9634
36.0680,11.0998
" /> 
<path style="fill:none; 
stroke:#840000; stroke-width:0.1524; stroke-opacity:1; 
stroke-linecap:round; stroke-linejoin:round;fill:none"
d="M 37.7698,11.9634
38.6080,11.0998
" /> 
<path style="fill:none; 
stroke:#840000; stroke-width:0.1524; stroke-opacity:1; 
stroke-linecap:round; stroke-linejoin:round;fill:none"
d="M 35.0520,11.7856
35.8902,10.9220
" /> 
<path style="fill:none; 
stroke:#840000; stroke-width:0.1524; stroke-opacity:1; 
stroke-linecap:round; stroke-linejoin:round;fill:none"
d="M 37.5920,11.7856
38.4302,10.9220
" /> 
</g>
<g style="fill:none; 
stroke:#840000; stroke-width:0.1524; stroke-opacity:1; 
stroke-linecap:round; stroke-linejoin:round;">
<circle cx="35.5600" cy="11.4300" r="0.6350" /> 
<circle cx="38.1000" cy="11.4300" r="0.6350" /> 
<path d="M35.5600 12.7000
L35.5600 16.5100
" />
</g>
<g style="fill:none; 
stroke:#A90000; stroke-width:0.1524; stroke-opacity:1; 
stroke-linecap:round; stroke-linejoin:round;">
<g transform="rotate(-90.000000 35.3060 14.6050)">
<text x="35.3060" y="14.6050"
textLength="1.4127" font-size="1.6933" lengthAdjust="spacingAndGlyphs"
text-anchor="middle" opacity="0" stroke-opacity="0">1</text>
</g>
<g class="stroked-text"><desc>1</desc>
<path d="M35.1425 14.2420
L35.1425 14.9677
" />
<path d="M35.1425 14.6049
L33.8725 14.6049
" />
<path d="M33.8725 14.6049
L34.0540 14.7258
" />
<path d="M34.0540 14.7258
L34.1749 14.8468
" />
<path d="M34.1749 14.8468
L34.2354 14.9677
" />
</g></g>
<g style="fill:none; 
stroke:#840000; stroke-width:0.1524; stroke-opacity:1; 
stroke-linecap:round; stroke-linejoin:round;">
<path d="M38.1000 12.7000
L38.1000 16.5100
" />
</g>
<g style="fill:none; 
stroke:#A90000; stroke-width:0.1524; stroke-opacity:1; 
stroke-linecap:round; stroke-linejoin:round;">
<g transform="rotate(-90.000000 37.8460 14.6050)">
<text x="37.8460" y="14.6050"
textLength="1.4127" font-size="1.6933" lengthAdjust="spacingAndGlyphs"
text-anchor="middle" opacity="0" stroke-opacity="0">2</text>
</g>
<g class="stroked-text"><desc>2</desc>
<path d="M36.5335 14.9677
L36.4730 14.9073
" />
<path d="M36.4730 14.9073
L36.4125 14.7863
" />
<path d="M36.4125 14.7863
L36.4125 14.4839
" />
<path d="M36.4125 14.4839
L36.4730 14.3630
" />
<path d="M36.4730 14.3630
L36.5335 14.3025
" />
<path d="M36.5335 14.3025
L36.6544 14.2420
" />
<path d="M36.6544 14.2420
L36.7754 14.2420
" />
<path d="M36.7754 14.2420
L36.9568 14.3025
" />
<path d="M36.9568 14.3025
L37.6825 15.0282
" />
<path d="M37.6825 15.0282
L37.6825 14.2420
" />
</g></g>
<g style="fill:none; 
stroke:#006464; stroke-width:0.1524; stroke-opacity:1; 
stroke-linecap:round; stroke-linejoin:round;">
<text x="41.8397" y="10.7948"
textLength="2.3803" font-size="1.6933" lengthAdjust="spacingAndGlyphs"
text-anchor="middle" opacity="0" stroke-opacity="0">J1</text>
<g class="stroked-text"><desc>J1</desc>
<path d="M41.4164 9.4693
L41.4164 10.3765
" />
<path d="M41.4164 10.3765
L41.3559 10.5579
" />
<path d="M41.3559 10.5579
L41.2350 10.6789
" />
<path d="M41.2350 10.6789
L41.0535 10.7393
" />
<path d="M41.0535 10.7393
L40.9326 10.7393
" />
<path d="M42.6864 10.7393
L41.9607 10.7393
" />
<path d="M42.3235 10.7393
L42.3235 9.4693
" />
<path d="M42.3235 9.4693
L42.2026 9.6508
" />
<path d="M42.2026 9.6508
L42.0816 9.7717
" />
<path d="M42.0816 9.7717
L41.9607 9.8322
" />
</g><text x="47.1616" y="13.3348"
textLength="13.0241" font-size="1.6933" lengthAdjust="spacingAndGlyphs"
text-anchor="middle" opacity="0" stroke-opacity="0">12-22.5V DC</text>
<g class="stroked-text"><desc>12-22.5V DC</desc>
<path d="M41.7188 13.2793
L40.9931 13.2793
" />
<path d="M41.3559 13.2793
L41.3559 12.0093
" />
<path d="M41.3559 12.0093
L41.2350 12.1908
" />
<path d="M41.2350 12.1908
L41.1140 12.3117
" />
<path d="M41.1140 12.3117
L40.9931 12.3722
" />
<path d="M42.2026 12.1303
L42.2630 12.0698
" />
<path d="M42.2630 12.0698
L42.3840 12.0093
" />
<path d="M42.3840 12.0093
L42.6864 12.0093
" />
<path d="M42.6864 12.0093
L42.8073 12.0698
" />
<path d="M42.8073 12.0698
L42.8678 12.1303
" />
<path d="M42.8678 12.1303
L42.9283 12.2512
" />
<path d="M42.9283 12.2512
L42.9283 12.3722
" />
<path d="M42.9283 12.3722
L42.8678 12.5536
" />
<path d="M42.8678 12.5536
L42.1421 13.2793
" />
<path d="M42.1421 13.2793
L42.9283 13.2793
" />
<path d="M43.4725 12.7955
L44.4402 12.7955
" />
<path d="M44.9845 12.1303
L45.0449 12.0698
" />
<path d="M45.0449 12.0698
L45.1659 12.0093
" />
<path d="M45.1659 12.0093
L45.4683 12.0093
" />
<path d="M45.4683 12.0093
L45.5892 12.0698
" />
<path d="M45.5892 12.0698
L45.6497 12.1303
" />
<path d="M45.6497 12.1303
L45.7102 12.2512
" />
<path d="M45.7102 12.2512
L45.7102 12.3722
" />
<path d="M45.7102 12.3722
L45.6497 12.5536
" />
<path d="M45.6497 12.5536
L44.9240 13.2793
" />
<path d="M44.9240 13.2793
L45.7102 13.2793
" />
<path d="M46.1940 12.1303
L46.2544 12.0698
" />
<path d="M46.2544 12.0698
L46.3754 12.0093
" />
<path d="M46.3754 12.0093
L46.6778 12.0093
" />
<path d="M46.6778 12.0093
L46.7987 12.0698
" />
<path d="M46.7987 12.0698
L46.8592 12.1303
" />
<path d="M46.8592 12.1303
L46.9197 12.2512
" />
<path d="M46.9197 12.2512
L46.9197 12.3722
" />
<path d="M46.9197 12.3722
L46.8592 12.5536
" />
<path d="M46.8592 12.5536
L46.1335 13.2793
" />
<path d="M46.1335 13.2793
L46.9197 13.2793
" />
<path d="M47.4639 13.1584
L47.5244 13.2189
" />
<path d="M47.5244 13.2189
L47.4639 13.2793
" />
<path d="M47.4639 13.2793
L47.4035 13.2189
" />
<path d="M47.4035 13.2189
L47.4639 13.1584
" />
<path d="M47.4639 13.1584
L47.4639 13.2793
" />
<path d="M48.6735 12.0093
L48.0687 12.0093
" />
<path d="M48.0687 12.0093
L48.0083 12.6141
" />
<path d="M48.0083 12.6141
L48.0687 12.5536
" />
<path d="M48.0687 12.5536
L48.1897 12.4931
" />
<path d="M48.1897 12.4931
L48.4921 12.4931
" />
<path d="M48.4921 12.4931
L48.6130 12.5536
" />
<path d="M48.6130 12.5536
L48.6735 12.6141
" />
<path d="M48.6735 12.6141
L48.7340 12.7350
" />
<path d="M48.7340 12.7350
L48.7340 13.0374
" />
<path d="M48.7340 13.0374
L48.6735 13.1584
" />
<path d="M48.6735 13.1584
L48.6130 13.2189
" />
<path d="M48.6130 13.2189
L48.4921 13.2793
" />
<path d="M48.4921 13.2793
L48.1897 13.2793
" />
<path d="M48.1897 13.2793
L48.0687 13.2189
" />
<path d="M48.0687 13.2189
L48.0083 13.1584
" />
<path d="M49.0968 12.0093
L49.5201 13.2793
" />
<path d="M49.5201 13.2793
L49.9435 12.0093
" />
<path d="M51.3344 13.2793
L51.3344 12.0093
" />
<path d="M51.3344 12.0093
L51.6368 12.0093
" />
<path d="M51.6368 12.0093
L51.8182 12.0698
" />
<path d="M51.8182 12.0698
L51.9392 12.1908
" />
<path d="M51.9392 12.1908
L51.9997 12.3117
" />
<path d="M51.9997 12.3117
L52.0601 12.5536
" />
<path d="M52.0601 12.5536
L52.0601 12.7350
" />
<path d="M52.0601 12.7350
L51.9997 12.9769
" />
<path d="M51.9997 12.9769
L51.9392 13.0979
" />
<path d="M51.9392 13.0979
L51.8182 13.2189
" />
<path d="M51.8182 13.2189
L51.6368 13.2793
" />
<path d="M51.6368 13.2793
L51.3344 13.2793
" />
<path d="M53.3301 13.1584
L53.2697 13.2189
" />
<path d="M53.2697 13.2189
L53.0882 13.2793
" />
<path d="M53.0882 13.2793
L52.9673 13.2793
" />
<path d="M52.9673 13.2793
L52.7859 13.2189
" />
<path d="M52.7859 13.2189
L52.6649 13.0979
" />
<path d="M52.6649 13.0979
L52.6044 12.9769
" />
<path d="M52.6044 12.9769
L52.5440 12.7350
" />
<path d="M52.5440 12.7350
L52.5440 12.5536
" />
<path d="M52.5440 12.5536
L52.6044 12.3117
" />
<path d="M52.6044 12.3117
L52.6649 12.1908
" />
<path d="M52.6649 12.1908
L52.7859 12.0698
" />
<path d="M52.7859 12.0698
L52.9673 12.0093
" />
<path d="M52.9673 12.0093
L53.0882 12.0093
" />
<path d="M53.0882 12.0093
L53.2697 12.0698
" />
<path d="M53.2697 12.0698
L53.3301 12.1303
" />
</g><path style="fill:none; 
stroke:#840000; stroke-width:0.1524; stroke-opacity:1; 
stroke-linecap:round; stroke-linejoin:round;fill:none"
d="M 29.2100,52.8320
27.9400,52.0700
" /> 
<path style="fill:none; 
stroke:#840000; stroke-width:0.1524; stroke-opacity:1; 
stroke-linecap:round; stroke-linejoin:round;fill:none"
d="M 27.9400,52.0700
29.2100,51.3080
" /> 
<path style="fill:none; 
stroke:#840000; stroke-width:0.1524; stroke-opacity:1; 
stroke-linecap:round; stroke-linejoin:round;fill:none"
d="M 30.4800,52.0700
27.9400,52.0700
" /> 
</g>
<g style="fill:none; 
stroke:#840000; stroke-width:0.1524; stroke-opacity:1; 
stroke-linecap:round; stroke-linejoin:round;">
<path d="M30.4800 52.0700
L30.4800 52.0700
" />
</g>
<g style="fill:none; 
stroke:#006464; stroke-width:0.1524; stroke-opacity:1; 
stroke-linecap:round; stroke-linejoin:round;">
<text x="19.3621" y="52.7048"
textLength="14.5965" font-size="1.6933" lengthAdjust="spacingAndGlyphs"
text-anchor="middle" opacity="0" stroke-opacity="0">+12-22.5V DC</text>
<g class="stroked-text"><desc>+12-22.5V DC</desc>
<path d="M12.4678 52.1655
L13.4355 52.1655
" />
<path d="M12.9516 52.6493
L12.9516 51.6817
" />
<path d="M14.7055 52.6493
L13.9798 52.6493
" />
<path d="M14.3426 52.6493
L14.3426 51.3793
" />
<path d="M14.3426 51.3793
L14.2217 51.5608
" />
<path d="M14.2217 51.5608
L14.1007 51.6817
" />
<path d="M14.1007 51.6817
L13.9798 51.7422
" />
<path d="M15.1893 51.5003
L15.2497 51.4398
" />
<path d="M15.2497 51.4398
L15.3707 51.3793
" />
<path d="M15.3707 51.3793
L15.6731 51.3793
" />
<path d="M15.6731 51.3793
L15.7940 51.4398
" />
<path d="M15.7940 51.4398
L15.8545 51.5003
" />
<path d="M15.8545 51.5003
L15.9150 51.6212
" />
<path d="M15.9150 51.6212
L15.9150 51.7422
" />
<path d="M15.9150 51.7422
L15.8545 51.9236
" />
<path d="M15.8545 51.9236
L15.1288 52.6493
" />
<path d="M15.1288 52.6493
L15.9150 52.6493
" />
<path d="M16.4592 52.1655
L17.4269 52.1655
" />
<path d="M17.9712 51.5003
L18.0316 51.4398
" />
<path d="M18.0316 51.4398
L18.1526 51.3793
" />
<path d="M18.1526 51.3793
L18.4550 51.3793
" />
<path d="M18.4550 51.3793
L18.5759 51.4398
" />
<path d="M18.5759 51.4398
L18.6364 51.5003
" />
<path d="M18.6364 51.5003
L18.6969 51.6212
" />
<path d="M18.6969 51.6212
L18.6969 51.7422
" />
<path d="M18.6969 51.7422
L18.6364 51.9236
" />
<path d="M18.6364 51.9236
L17.9107 52.6493
" />
<path d="M17.9107 52.6493
L18.6969 52.6493
" />
<path d="M19.1807 51.5003
L19.2411 51.4398
" />
<path d="M19.2411 51.4398
L19.3621 51.3793
" />
<path d="M19.3621 51.3793
L19.6645 51.3793
" />
<path d="M19.6645 51.3793
L19.7854 51.4398
" />
<path d="M19.7854 51.4398
L19.8459 51.5003
" />
<path d="M19.8459 51.5003
L19.9064 51.6212
" />
<path d="M19.9064 51.6212
L19.9064 51.7422
" />
<path d="M19.9064 51.7422
L19.8459 51.9236
" />
<path d="M19.8459 51.9236
L19.1202 52.6493
" />
<path d="M19.1202 52.6493
L19.9064 52.6493
" />
<path d="M20.4506 52.5284
L20.5111 52.5889
" />
<path d="M20.5111 52.5889
L20.4506 52.6493
" />
<path d="M20.4506 52.6493
L20.3902 52.5889
" />
<path d="M20.3902 52.5889
L20.4506 52.5284
" />
<path d="M20.4506 52.5284
L20.4506 52.6493
" />
<path d="M21.6602 51.3793
L21.0554 51.3793
" />
<path d="M21.0554 51.3793
L20.9950 51.9841
" />
<path d="M20.9950 51.9841
L21.0554 51.9236
" />
<path d="M21.0554 51.9236
L21.1764 51.8631
" />
<path d="M21.1764 51.8631
L21.4788 51.8631
" />
<path d="M21.4788 51.8631
L21.5997 51.9236
" />
<path d="M21.5997 51.9236
L21.6602 51.9841
" />
<path d="M21.6602 51.9841
L21.7207 52.1050
" />
<path d="M21.7207 52.1050
L21.7207 52.4074
" />
<path d="M21.7207 52.4074
L21.6602 52.5284
" />
<path d="M21.6602 52.5284
L21.5997 52.5889
" />
<path d="M21.5997 52.5889
L21.4788 52.6493
" />
<path d="M21.4788 52.6493
L21.1764 52.6493
" />
<path d="M21.1764 52.6493
L21.0554 52.5889
" />
<path d="M21.0554 52.5889
L20.9950 52.5284
" />
<path d="M22.0835 51.3793
L22.5068 52.6493
" />
<path d="M22.5068 52.6493
L22.9302 51.3793
" />
<path d="M24.3211 52.6493
L24.3211 51.3793
" />
<path d="M24.3211 51.3793
L24.6235 51.3793
" />
<path d="M24.6235 51.3793
L24.8049 51.4398
" />
<path d="M24.8049 51.4398
L24.9259 51.5608
" />
<path d="M24.9259 51.5608
L24.9864 51.6817
" />
<path d="M24.9864 51.6817
L25.0468 51.9236
" />
<path d="M25.0468 51.9236
L25.0468 52.1050
" />
<path d="M25.0468 52.1050
L24.9864 52.3469
" />
<path d="M24.9864 52.3469
L24.9259 52.4679
" />
<path d="M24.9259 52.4679
L24.8049 52.5889
" />
<path d="M24.8049 52.5889
L24.6235 52.6493
" />
<path d="M24.6235 52.6493
L24.3211 52.6493
" />
<path d="M26.3168 52.5284
L26.2564 52.5889
" />
<path d="M26.2564 52.5889
L26.0749 52.6493
" />
<path d="M26.0749 52.6493
L25.9540 52.6493
" />
<path d="M25.9540 52.6493
L25.7726 52.5889
" />
<path d="M25.7726 52.5889
L25.6516 52.4679
" />
<path d="M25.6516 52.4679
L25.5911 52.3469
" />
<path d="M25.5911 52.3469
L25.5307 52.1050
" />
<path d="M25.5307 52.1050
L25.5307 51.9236
" />
<path d="M25.5307 51.9236
L25.5911 51.6817
" />
<path d="M25.5911 51.6817
L25.6516 51.5608
" />
<path d="M25.6516 51.5608
L25.7726 51.4398
" />
<path d="M25.7726 51.4398
L25.9540 51.3793
" />
<path d="M25.9540 51.3793
L26.0749 51.3793
" />
<path d="M26.0749 51.3793
L26.2564 51.4398
" />
<path d="M26.2564 51.4398
L26.3168 51.5003
" />
</g><path style="fill:none; 
stroke:#840000; stroke-width:0.1524; stroke-opacity:1; 
stroke-linecap:round; stroke-linejoin:round;fill:none"
d="M 86.3600,57.1500
86.3600,53.9750
" /> 
<path style="fill:none; 
stroke:#840000; stroke-width:0.5080; stroke-opacity:1; 
stroke-linecap:round; stroke-linejoin:round;fill:none"
d="M 84.4550,53.9750
88.2650,53.9750
" /> 
</g>
<g style="fill:none; 
stroke:#840000; stroke-width:0.2540; stroke-opacity:1; 
stroke-linecap:round; stroke-linejoin:round;">
<circle cx="86.3600" cy="53.3400" r="2.8194" /> 
<path style="fill:none; 
stroke:#840000; stroke-width:0.1524; stroke-opacity:1; 
stroke-linecap:round; stroke-linejoin:round;fill:none"
d="M 85.7250,53.9750
83.8200,52.0700
" /> 
<path style="fill:none; 
stroke:#840000; stroke-width:0.1524; stroke-opacity:1; 
stroke-linecap:round; stroke-linejoin:round;fill:none"
d="M 86.9950,53.9750
88.9000,52.0700
" /> 
<path style="fill:#840000; fill-opacity:1.0000; 
stroke:#840000; stroke-width:0.1524; stroke-opacity:1; 
stroke-linecap:round; stroke-linejoin:round;fill-rule:evenodd;"
d="M 88.1380,53.3400
87.6300,52.8320
88.6460,52.3240
Z" /> 
</g>
<g style="fill:none; 
stroke:#840000; stroke-width:0.1524; stroke-opacity:1; 
stroke-linecap:round; stroke-linejoin:round;">
<path d="M86.3600 57.1500
L86.3600 59.6900
" />
</g>
<g style="fill:none; 
stroke:#A90000; stroke-width:0.1524; stroke-opacity:1; 
stroke-linecap:round; stroke-linejoin:round;">
<g transform="rotate(-90.000000 86.1060 58.4200)">
<text x="86.1060" y="58.4200"
textLength="1.4127" font-size="1.6933" lengthAdjust="spacingAndGlyphs"
text-anchor="middle" opacity="0" stroke-opacity="0">1</text>
</g>
<g class="stroked-text"><desc>1</desc>
<path d="M85.9425 58.0570
L85.9425 58.7827
" />
<path d="M85.9425 58.4199
L84.6725 58.4199
" />
<path d="M84.6725 58.4199
L84.8540 58.5408
" />
<path d="M84.8540 58.5408
L84.9749 58.6618
" />
<path d="M84.9749 58.6618
L85.0354 58.7827
" />
</g></g>
<g style="fill:none; 
stroke:#840000; stroke-width:0.1524; stroke-opacity:1; 
stroke-linecap:round; stroke-linejoin:round;">
<path d="M83.8200 52.0700
L81.2800 52.0700
" />
</g>
<g style="fill:none; 
stroke:#A90000; stroke-width:0.1524; stroke-opacity:1; 
stroke-linecap:round; stroke-linejoin:round;">
<text x="82.5500" y="51.8160"
textLength="1.4127" font-size="1.6933" lengthAdjust="spacingAndGlyphs"
text-anchor="middle" opacity="0" stroke-opacity="0">2</text>
<g class="stroked-text"><desc>2</desc>
<path d="M82.1872 50.5035
L82.2476 50.4430
" />
<path d="M82.2476 50.4430
L82.3686 50.3825
" />
<path d="M82.3686 50.3825
L82.6710 50.3825
" />
<path d="M82.6710 50.3825
L82.7919 50.4430
" />
<path d="M82.7919 50.4430
L82.8524 50.5035
" />
<path d="M82.8524 50.5035
L82.9129 50.6244
" />
<path d="M82.9129 50.6244
L82.9129 50.7454
" />
<path d="M82.9129 50.7454
L82.8524 50.9268
" />
<path d="M82.8524 50.9268
L82.1267 51.6525
" />
<path d="M82.1267 51.6525
L82.9129 51.6525
" />
</g></g>
<g style="fill:none; 
stroke:#840000; stroke-width:0.1524; stroke-opacity:1; 
stroke-linecap:round; stroke-linejoin:round;">
<path d="M88.9000 52.0700
L91.4400 52.0700
" />
</g>
<g style="fill:none; 
stroke:#A90000; stroke-width:0.1524; stroke-opacity:1; 
stroke-linecap:round; stroke-linejoin:round;">
<text x="90.1700" y="51.8160"
textLength="1.4127" font-size="1.6933" lengthAdjust="spacingAndGlyphs"
text-anchor="middle" opacity="0" stroke-opacity="0">3</text>
<g class="stroked-text"><desc>3</desc>
<path d="M89.7467 50.3825
L90.5329 50.3825
" />
<path d="M90.5329 50.3825
L90.1095 50.8663
" />
<path d="M90.1095 50.8663
L90.2910 50.8663
" />
<path d="M90.2910 50.8663
L90.4119 50.9268
" />
<path d="M90.4119 50.9268
L90.4724 50.9873
" />
<path d="M90.4724 50.9873
L90.5329 51.1082
" />
<path d="M90.5329 51.1082
L90.5329 51.4106
" />
<path d="M90.5329 51.4106
L90.4724 51.5316
" />
<path d="M90.4724 51.5316
L90.4119 51.5921
" />
<path d="M90.4119 51.5921
L90.2910 51.6525
" />
<path d="M90.2910 51.6525
L89.9281 51.6525
" />
<path d="M89.9281 51.6525
L89.8072 51.5921
" />
<path d="M89.8072 51.5921
L89.7467 51.5316
" />
</g></g>
<g style="fill:none; 
stroke:#006464; stroke-width:0.1524; stroke-opacity:1; 
stroke-linecap:round; stroke-linejoin:round;">
<text x="86.3600" y="46.3549"
textLength="2.7432" font-size="1.6933" lengthAdjust="spacingAndGlyphs"
text-anchor="middle" opacity="0" stroke-opacity="0">Q1</text>
<g class="stroked-text"><desc>Q1</desc>
<path d="M86.2390 46.4204
L86.1180 46.3599
" />
<path d="M86.1180 46.3599
L85.9971 46.2390
" />
<path d="M85.9971 46.2390
L85.8157 46.0575
" />
<path d="M85.8157 46.0575
L85.6947 45.9970
" />
<path d="M85.6947 45.9970
L85.5738 45.9970
" />
<path d="M85.6342 46.2994
L85.5133 46.2390
" />
<path d="M85.5133 46.2390
L85.3923 46.1180
" />
<path d="M85.3923 46.1180
L85.3319 45.8761
" />
<path d="M85.3319 45.8761
L85.3319 45.4528
" />
<path d="M85.3319 45.4528
L85.3923 45.2109
" />
<path d="M85.3923 45.2109
L85.5133 45.0899
" />
<path d="M85.5133 45.0899
L85.6342 45.0294
" />
<path d="M85.6342 45.0294
L85.8761 45.0294
" />
<path d="M85.8761 45.0294
L85.9971 45.0899
" />
<path d="M85.9971 45.0899
L86.1180 45.2109
" />
<path d="M86.1180 45.2109
L86.1785 45.4528
" />
<path d="M86.1785 45.4528
L86.1785 45.8761
" />
<path d="M86.1785 45.8761
L86.1180 46.1180
" />
<path d="M86.1180 46.1180
L85.9971 46.2390
" />
<path d="M85.9971 46.2390
L85.8761 46.2994
" />
<path d="M85.8761 46.2994
L85.6342 46.2994
" />
<path d="M87.3881 46.2994
L86.6624 46.2994
" />
<path d="M87.0252 46.2994
L87.0252 45.0294
" />
<path d="M87.0252 45.0294
L86.9043 45.2109
" />
<path d="M86.9043 45.2109
L86.7833 45.3318
" />
<path d="M86.7833 45.3318
L86.6624 45.3923
" />
</g><text x="86.3599" y="48.8949"
textLength="9.5769" font-size="1.6933" lengthAdjust="spacingAndGlyphs"
text-anchor="middle" opacity="0" stroke-opacity="0">PZT2222A</text>
<g class="stroked-text"><desc>PZT2222A</desc>
<path d="M81.9754 48.8394
L81.9754 47.5694
" />
<path d="M81.9754 47.5694
L82.4592 47.5694
" />
<path d="M82.4592 47.5694
L82.5802 47.6299
" />
<path d="M82.5802 47.6299
L82.6407 47.6904
" />
<path d="M82.6407 47.6904
L82.7011 47.8113
" />
<path d="M82.7011 47.8113
L82.7011 47.9928
" />
<path d="M82.7011 47.9928
L82.6407 48.1137
" />
<path d="M82.6407 48.1137
L82.5802 48.1742
" />
<path d="M82.5802 48.1742
L82.4592 48.2347
" />
<path d="M82.4592 48.2347
L81.9754 48.2347
" />
<path d="M83.1245 47.5694
L83.9711 47.5694
" />
<path d="M83.9711 47.5694
L83.1245 48.8394
" />
<path d="M83.1245 48.8394
L83.9711 48.8394
" />
<path d="M84.2735 47.5694
L84.9992 47.5694
" />
<path d="M84.6364 48.8394
L84.6364 47.5694
" />
<path d="M85.3621 47.6904
L85.4225 47.6299
" />
<path d="M85.4225 47.6299
L85.5435 47.5694
" />
<path d="M85.5435 47.5694
L85.8459 47.5694
" />
<path d="M85.8459 47.5694
L85.9668 47.6299
" />
<path d="M85.9668 47.6299
L86.0273 47.6904
" />
<path d="M86.0273 47.6904
L86.0878 47.8113
" />
<path d="M86.0878 47.8113
L86.0878 47.9323
" />
<path d="M86.0878 47.9323
L86.0273 48.1137
" />
<path d="M86.0273 48.1137
L85.3016 48.8394
" />
<path d="M85.3016 48.8394
L86.0878 48.8394
" />
<path d="M86.5716 47.6904
L86.6320 47.6299
" />
<path d="M86.6320 47.6299
L86.7530 47.5694
" />
<path d="M86.7530 47.5694
L87.0554 47.5694
" />
<path d="M87.0554 47.5694
L87.1763 47.6299
" />
<path d="M87.1763 47.6299
L87.2368 47.6904
" />
<path d="M87.2368 47.6904
L87.2973 47.8113
" />
<path d="M87.2973 47.8113
L87.2973 47.9323
" />
<path d="M87.2973 47.9323
L87.2368 48.1137
" />
<path d="M87.2368 48.1137
L86.5111 48.8394
" />
<path d="M86.5111 48.8394
L87.2973 48.8394
" />
<path d="M87.7811 47.6904
L87.8415 47.6299
" />
<path d="M87.8415 47.6299
L87.9625 47.5694
" />
<path d="M87.9625 47.5694
L88.2649 47.5694
" />
<path d="M88.2649 47.5694
L88.3858 47.6299
" />
<path d="M88.3858 47.6299
L88.4463 47.6904
" />
<path d="M88.4463 47.6904
L88.5068 47.8113
" />
<path d="M88.5068 47.8113
L88.5068 47.9323
" />
<path d="M88.5068 47.9323
L88.4463 48.1137
" />
<path d="M88.4463 48.1137
L87.7206 48.8394
" />
<path d="M87.7206 48.8394
L88.5068 48.8394
" />
<path d="M88.9906 47.6904
L89.0510 47.6299
" />
<path d="M89.0510 47.6299
L89.1720 47.5694
" />
<path d="M89.1720 47.5694
L89.4744 47.5694
" />
<path d="M89.4744 47.5694
L89.5953 47.6299
" />
<path d="M89.5953 47.6299
L89.6558 47.6904
" />
<path d="M89.6558 47.6904
L89.7163 47.8113
" />
<path d="M89.7163 47.8113
L89.7163 47.9323
" />
<path d="M89.7163 47.9323
L89.6558 48.1137
" />
<path d="M89.6558 48.1137
L88.9301 48.8394
" />
<path d="M88.9301 48.8394
L89.7163 48.8394
" />
<path d="M90.2001 48.4766
L90.8048 48.4766
" />
<path d="M90.0791 48.8394
L90.5024 47.5694
" />
<path d="M90.5024 47.5694
L90.9258 48.8394
" />
</g></g>
<g style="fill:none; 
stroke:#840000; stroke-width:0.2540; stroke-opacity:1; 
stroke-linecap:round; stroke-linejoin:round;">
<rect x="104.140000" y="51.054000" width="5.080000" height="2.032000" rx="0.000000" />
</g>
<g style="fill:none; 
stroke:#840000; stroke-width:0.1524; stroke-opacity:1; 
stroke-linecap:round; stroke-linejoin:round;">
<path d="M104.1400 52.0700
L102.8700 52.0700
" />
<path d="M109.2200 52.0700
L110.4900 52.0700
" />
</g>
<g style="fill:none; 
stroke:#006464; stroke-width:0.1524; stroke-opacity:1; 
stroke-linecap:round; stroke-linejoin:round;">
<text x="106.6799" y="46.3549"
textLength="2.6827" font-size="1.6933" lengthAdjust="spacingAndGlyphs"
text-anchor="middle" opacity="0" stroke-opacity="0">R2</text>
<g class="stroked-text"><desc>R2</desc>
<path d="M106.4682 46.2994
L106.0449 45.6947
" />
<path d="M105.7425 46.2994
L105.7425 45.0294
" />
<path d="M105.7425 45.0294
L106.2263 45.0294
" />
<path d="M106.2263 45.0294
L106.3473 45.0899
" />
<path d="M106.3473 45.0899
L106.4078 45.1504
" />
<path d="M106.4078 45.1504
L106.4682 45.2713
" />
<path d="M106.4682 45.2713
L106.4682 45.4528
" />
<path d="M106.4682 45.4528
L106.4078 45.5737
" />
<path d="M106.4078 45.5737
L106.3473 45.6342
" />
<path d="M106.3473 45.6342
L106.2263 45.6947
" />
<path d="M106.2263 45.6947
L105.7425 45.6947
" />
<path d="M106.9521 45.1504
L107.0125 45.0899
" />
<path d="M107.0125 45.0899
L107.1335 45.0294
" />
<path d="M107.1335 45.0294
L107.4359 45.0294
" />
<path d="M107.4359 45.0294
L107.5568 45.0899
" />
<path d="M107.5568 45.0899
L107.6173 45.1504
" />
<path d="M107.6173 45.1504
L107.6778 45.2713
" />
<path d="M107.6778 45.2713
L107.6778 45.3923
" />
<path d="M107.6778 45.3923
L107.6173 45.5737
" />
<path d="M107.6173 45.5737
L106.8916 46.2994
" />
<path d="M106.8916 46.2994
L107.6778 46.2994
" />
</g><text x="106.6799" y="48.8949"
textLength="7.7021" font-size="1.6933" lengthAdjust="spacingAndGlyphs"
text-anchor="middle" opacity="0" stroke-opacity="0">12Ω 1W</text>
<g class="stroked-text"><desc>12Ω 1W</desc>
<path d="M103.8981 48.8394
L103.1724 48.8394
" />
<path d="M103.5352 48.8394
L103.5352 47.5694
" />
<path d="M103.5352 47.5694
L103.4143 47.7509
" />
<path d="M103.4143 47.7509
L103.2933 47.8718
" />
<path d="M103.2933 47.8718
L103.1724 47.9323
" />
<path d="M104.3819 47.6904
L104.4423 47.6299
" />
<path d="M104.4423 47.6299
L104.5633 47.5694
" />
<path d="M104.5633 47.5694
L104.8657 47.5694
" />
<path d="M104.8657 47.5694
L104.9866 47.6299
" />
<path d="M104.9866 47.6299
L105.0471 47.6904
" />
<path d="M105.0471 47.6904
L105.1076 47.8113
" />
<path d="M105.1076 47.8113
L105.1076 47.9323
" />
<path d="M105.1076 47.9323
L105.0471 48.1137
" />
<path d="M105.0471 48.1137
L104.3214 48.8394
" />
<path d="M104.3214 48.8394
L105.1076 48.8394
" />
<path d="M105.5914 48.8394
L105.8937 48.8394
" />
<path d="M105.8937 48.8394
L105.8937 48.5975
" />
<path d="M105.8937 48.5975
L105.7728 48.5370
" />
<path d="M105.7728 48.5370
L105.6518 48.4161
" />
<path d="M105.6518 48.4161
L105.5914 48.2347
" />
<path d="M105.5914 48.2347
L105.5914 47.9323
" />
<path d="M105.5914 47.9323
L105.6518 47.7509
" />
<path d="M105.6518 47.7509
L105.7728 47.6299
" />
<path d="M105.7728 47.6299
L105.9542 47.5694
" />
<path d="M105.9542 47.5694
L106.1961 47.5694
" />
<path d="M106.1961 47.5694
L106.3775 47.6299
" />
<path d="M106.3775 47.6299
L106.4985 47.7509
" />
<path d="M106.4985 47.7509
L106.5590 47.9323
" />
<path d="M106.5590 47.9323
L106.5590 48.2347
" />
<path d="M106.5590 48.2347
L106.4985 48.4161
" />
<path d="M106.4985 48.4161
L106.3775 48.5370
" />
<path d="M106.3775 48.5370
L106.2566 48.5975
" />
<path d="M106.2566 48.5975
L106.2566 48.8394
" />
<path d="M106.2566 48.8394
L106.5590 48.8394
" />
<path d="M108.7361 48.8394
L108.0104 48.8394
" />
<path d="M108.3732 48.8394
L108.3732 47.5694
" />
<path d="M108.3732 47.5694
L108.2523 47.7509
" />
<path d="M108.2523 47.7509
L108.1313 47.8718
" />
<path d="M108.1313 47.8718
L108.0104 47.9323
" />
<path d="M109.1594 47.5694
L109.4618 48.8394
" />
<path d="M109.4618 48.8394
L109.7037 47.9323
" />
<path d="M109.7037 47.9323
L109.9456 48.8394
" />
<path d="M109.9456 48.8394
L110.2480 47.5694
" />
</g></g>
<g style="fill:none; 
stroke:#725600; stroke-width:0.1524; stroke-opacity:1; 
stroke-linecap:round; stroke-linejoin:round;">
<g transform="rotate(-90.000000 6.3500 85.2805)">
<text x="6.3500" y="85.9155"
textLength="4.1342" font-size="1.6933" lengthAdjust="spacingAndGlyphs"
text-anchor="end" opacity="0" stroke-opacity="0">DA-</text>
</g>
<g class="stroked-text"><desc>DA-</desc>
<path d="M6.9295 89.0093
L5.6595 89.0093
" />
<path d="M5.6595 89.0093
L5.6595 88.7069
" />
<path d="M5.6595 88.7069
L5.7200 88.5255
" />
<path d="M5.7200 88.5255
L5.8410 88.4045
" />
<path d="M5.8410 88.4045
L5.9619 88.3440
" />
<path d="M5.9619 88.3440
L6.2038 88.2836
" />
<path d="M6.2038 88.2836
L6.3852 88.2836
" />
<path d="M6.3852 88.2836
L6.6271 88.3440
" />
<path d="M6.6271 88.3440
L6.7481 88.4045
" />
<path d="M6.7481 88.4045
L6.8691 88.5255
" />
<path d="M6.8691 88.5255
L6.9295 88.7069
" />
<path d="M6.9295 88.7069
L6.9295 89.0093
" />
<path d="M6.5667 87.7997
L6.5667 87.1950
" />
<path d="M6.9295 87.9207
L5.6595 87.4974
" />
<path d="M5.6595 87.4974
L6.9295 87.0740
" />
<path d="M6.4457 86.6507
L6.4457 85.6831
" />
</g><path style="fill:none; 
stroke:#725600; stroke-width:0.1524; stroke-opacity:1; 
stroke-linecap:round; stroke-linejoin:round;fill:none"
d="M 6.9850,83.8200
6.9850,85.0900
5.7150,85.0900
5.7150,83.8200
Z" /> 
</g>
<g style="fill:none; 
stroke:#725600; stroke-width:0.1524; stroke-opacity:1; 
stroke-linecap:round; stroke-linejoin:round;">
<g transform="rotate(-90.000000 128.2700 85.2805)">
<text x="128.2700" y="85.9155"
textLength="4.1342" font-size="1.6933" lengthAdjust="spacingAndGlyphs"
text-anchor="end" opacity="0" stroke-opacity="0">DA+</text>
</g>
<g class="stroked-text"><desc>DA+</desc>
<path d="M128.8495 89.0093
L127.5795 89.0093
" />
<path d="M127.5795 89.0093
L127.5795 88.7069
" />
<path d="M127.5795 88.7069
L127.6400 88.5255
" />
<path d="M127.6400 88.5255
L127.7610 88.4045
" />
<path d="M127.7610 88.4045
L127.8819 88.3440
" />
<path d="M127.8819 88.3440
L128.1238 88.2836
" />
<path d="M128.1238 88.2836
L128.3052 88.2836
" />
<path d="M128.3052 88.2836
L128.5471 88.3440
" />
<path d="M128.5471 88.3440
L128.6681 88.4045
" />
<path d="M128.6681 88.4045
L128.7891 88.5255
" />
<path d="M128.7891 88.5255
L128.8495 88.7069
" />
<path d="M128.8495 88.7069
L128.8495 89.0093
" />
<path d="M128.4867 87.7997
L128.4867 87.1950
" />
<path d="M128.8495 87.9207
L127.5795 87.4974
" />
<path d="M127.5795 87.4974
L128.8495 87.0740
" />
<path d="M128.3657 86.6507
L128.3657 85.6831
" />
<path d="M128.8495 86.1669
L127.8819 86.1669
" />
</g><path style="fill:none; 
stroke:#725600; stroke-width:0.1524; stroke-opacity:1; 
stroke-linecap:round; stroke-linejoin:round;fill:none"
d="M 128.9050,83.8200
128.9050,85.0900
127.6350,85.0900
127.6350,83.8200
Z" /> 
</g>
<g style="fill:none; 
stroke:#009600; stroke-width:0.1524; stroke-opacity:1; 
stroke-linecap:round; stroke-linejoin:round;">
<path d="M128.2700 64.7700
L128.2700 83.8200
" />
<path d="M114.3000 64.7700
L128.2700 64.7700
" />
<path d="M110.4900 52.0700
L128.2700 52.0700
" />
<path d="M128.2700 52.0700
L128.2700 64.7700
" />
<path d="M35.5600 22.8600
L35.5600 16.5100
" />
<path d="M38.1000 16.5100
L38.1000 30.4800
" />
<path d="M30.4800 52.0700
L38.1000 52.0700
" />
<path d="M74.9300 64.7700
L86.3600 64.7700
" />
<path d="M60.9600 52.0700
L81.2800 52.0700
" />
<path d="M60.9600 52.0700
L60.9600 64.7700
" />
<path d="M60.9600 64.7700
L67.3100 64.7700
" />
<path d="M38.1000 52.0700
L60.9600 52.0700
" />
<path d="M91.4400 52.0700
L102.8700 52.0700
" />
<path d="M38.1000 30.4800
L38.1000 52.0700
" />
<path d="M113.0300 30.4800
L118.1100 30.4800
" />
<path d="M105.4100 30.4800
L110.4900 30.4800
" />
<path d="M110.4900 16.5100
L110.4900 30.4800
" />
<path d="M113.0300 16.5100
L113.0300 30.4800
" />
<path d="M20.3200 22.8600
L6.3500 22.8600
" />
<path d="M35.5600 22.8600
L20.3200 22.8600
" />
<path d="M6.3500 22.8600
L6.3500 83.8200
" />
<path d="M86.3600 59.6900
L86.3600 64.7700
" />
<path d="M86.3600 64.7700
L99.0600 64.7700
" />
</g>
<g style="fill:none; 
stroke:#000084; stroke-width:0.1524; stroke-opacity:1; 
stroke-linecap:round; stroke-linejoin:round;">
<path d="M106.0704 69.2404
L107.2896 70.4596
" />
<path d="M107.2896 69.2404
L106.0704 70.4596
" />
</g>
<g style="fill:#009600; fill-opacity:1.0000; 
stroke:#009600; stroke-width:0.1524; stroke-opacity:1; 
stroke-linecap:round; stroke-linejoin:round;">
<circle cx="86.3600" cy="64.7700" r="0.4572" /> 
<circle cx="20.3200" cy="22.8600" r="0.4572" /> 
<circle cx="38.1000" cy="52.0700" r="0.4572" /> 
<circle cx="60.9600" cy="52.0700" r="0.4572" /> 
<circle cx="38.1000" cy="30.4800" r="0.4572" /> 
<circle cx="128.2700" cy="64.7700" r="0.4572" /> 
</g> 
</svg>
